<svg width="217" height="202" viewBox="0 0 217 202" fill="none" xmlns="http://www.w3.org/2000/svg">
<path d="M36.0007 95.4814V96.4843C36.0007 98.4902 35.3391 100.134 34.0157 101.415C32.6924 102.683 30.9651 103.317 28.8338 103.317C26.5772 103.317 24.7105 102.586 23.234 101.123C21.7713 99.6603 21.04 97.8634 21.04 95.7321C21.04 93.6147 21.7713 91.8248 23.234 90.3621C24.7105 88.8855 26.5354 88.1473 28.7084 88.1473C30.0736 88.1473 31.3203 88.4607 32.4486 89.0875C33.5769 89.7144 34.4545 90.5571 35.0814 91.6158L33.0128 92.8068C32.6227 92.1103 32.0446 91.5531 31.2785 91.1352C30.5124 90.7034 29.6557 90.4875 28.7084 90.4875C27.1761 90.4875 25.9155 90.989 24.9265 91.9919C23.9374 92.9949 23.4429 94.2486 23.4429 95.753C23.4429 97.2574 23.9374 98.5041 24.9265 99.4932C25.9294 100.482 27.2388 100.977 28.8547 100.977C30.1502 100.977 31.2019 100.677 32.0098 100.078C32.8317 99.4653 33.354 98.6504 33.5769 97.6335H28.6875V95.4814H36.0007ZM38.0512 103.045V87.7921H40.3078V103.045H38.0512ZM47.8592 103.317C46.3269 103.317 45.0245 102.788 43.9519 101.729C42.8793 100.67 42.343 99.3678 42.343 97.8216C42.343 96.2754 42.8793 94.9729 43.9519 93.9142C45.0245 92.8556 46.3269 92.3262 47.8592 92.3262C49.4054 92.3262 50.7079 92.8556 51.7665 93.9142C52.8391 94.9729 53.3754 96.2754 53.3754 97.8216C53.3754 99.3678 52.8391 100.67 51.7665 101.729C50.7079 102.788 49.4054 103.317 47.8592 103.317ZM45.5399 100.183C46.1667 100.81 46.9398 101.123 47.8592 101.123C48.7786 101.123 49.5517 100.81 50.1785 100.183C50.8054 99.5558 51.1188 98.7688 51.1188 97.8216C51.1188 96.8743 50.8054 96.0873 50.1785 95.4605C49.5517 94.8336 48.7786 94.5202 47.8592 94.5202C46.9398 94.5202 46.1667 94.8336 45.5399 95.4605C44.913 96.0873 44.5996 96.8743 44.5996 97.8216C44.5996 98.7688 44.913 99.5558 45.5399 100.183ZM61.3292 92.3262C62.764 92.3262 63.9898 92.8556 65.0067 93.9142C66.0236 94.9729 66.532 96.2754 66.532 97.8216C66.532 99.3539 66.0236 100.656 65.0067 101.729C63.9898 102.788 62.764 103.317 61.3292 103.317C59.7412 103.317 58.5223 102.725 57.6726 101.541V103.045H55.416V88.4189H57.6726V94.0814C58.5223 92.9113 59.7412 92.3262 61.3292 92.3262ZM58.6129 100.224C59.2397 100.851 60.0268 101.165 60.974 101.165C61.9212 101.165 62.7083 100.851 63.3351 100.224C63.962 99.5837 64.2754 98.7827 64.2754 97.8216C64.2754 96.8604 63.962 96.0664 63.3351 95.4396C62.7083 94.7988 61.9212 94.4784 60.974 94.4784C60.0268 94.4784 59.2397 94.7988 58.6129 95.4396C57.986 96.0664 57.6726 96.8604 57.6726 97.8216C57.6726 98.7827 57.986 99.5837 58.6129 100.224ZM76.8516 92.5979H79.1083V103.045H76.8516V101.541C76.0019 102.725 74.783 103.317 73.195 103.317C71.7602 103.317 70.5344 102.788 69.5175 101.729C68.5006 100.656 67.9922 99.3539 67.9922 97.8216C67.9922 96.2754 68.5006 94.9729 69.5175 93.9142C70.5344 92.8556 71.7602 92.3262 73.195 92.3262C74.783 92.3262 76.0019 92.9113 76.8516 94.0814V92.5979ZM71.1891 100.224C71.816 100.851 72.603 101.165 73.5502 101.165C74.4975 101.165 75.2845 100.851 75.9114 100.224C76.5382 99.5837 76.8516 98.7827 76.8516 97.8216C76.8516 96.8604 76.5382 96.0664 75.9114 95.4396C75.2845 94.7988 74.4975 94.4784 73.5502 94.4784C72.603 94.4784 71.816 94.7988 71.1891 95.4396C70.5623 96.0664 70.2489 96.8604 70.2489 97.8216C70.2489 98.7827 70.5623 99.5837 71.1891 100.224ZM81.7386 103.045V87.7921H83.9952V103.045H81.7386ZM101.513 103.045L100.49 100.099H94.2629L93.2391 103.045H90.6272L95.9345 88.4189H98.818L104.104 103.045H101.513ZM95.0569 97.8425H99.6956L97.3762 91.2397L95.0569 97.8425ZM112.206 92.5979H114.672L110.597 103.045H107.985L103.911 92.5979H106.377L109.302 100.538L112.206 92.5979ZM123.967 92.5979H126.224V103.045H123.967V101.541C123.117 102.725 121.898 103.317 120.31 103.317C118.876 103.317 117.65 102.788 116.633 101.729C115.616 100.656 115.108 99.3539 115.108 97.8216C115.108 96.2754 115.616 94.9729 116.633 93.9142C117.65 92.8556 118.876 92.3262 120.31 92.3262C121.898 92.3262 123.117 92.9113 123.967 94.0814V92.5979ZM118.305 100.224C118.931 100.851 119.718 101.165 120.666 101.165C121.613 101.165 122.4 100.851 123.027 100.224C123.654 99.5837 123.967 98.7827 123.967 97.8216C123.967 96.8604 123.654 96.0664 123.027 95.4396C122.4 94.7988 121.613 94.4784 120.666 94.4784C119.718 94.4784 118.931 94.7988 118.305 95.4396C117.678 96.0664 117.364 96.8604 117.364 97.8216C117.364 98.7827 117.678 99.5837 118.305 100.224ZM130.985 90.6129C130.707 90.8915 130.372 91.0308 129.982 91.0308C129.592 91.0308 129.251 90.8915 128.958 90.6129C128.68 90.3203 128.541 89.979 128.541 89.589C128.541 89.199 128.68 88.8647 128.958 88.5861C129.237 88.2935 129.578 88.1473 129.982 88.1473C130.386 88.1473 130.728 88.2935 131.006 88.5861C131.285 88.8647 131.424 89.199 131.424 89.589C131.424 89.979 131.278 90.3203 130.985 90.6129ZM128.854 103.045V92.5979H131.111V103.045H128.854ZM133.731 103.045V87.7921H135.987V103.045H133.731ZM146.882 92.5979H149.139V103.045H146.882V101.541C146.032 102.725 144.813 103.317 143.225 103.317C141.791 103.317 140.565 102.788 139.548 101.729C138.531 100.656 138.023 99.3539 138.023 97.8216C138.023 96.2754 138.531 94.9729 139.548 93.9142C140.565 92.8556 141.791 92.3262 143.225 92.3262C144.813 92.3262 146.032 92.9113 146.882 94.0814V92.5979ZM141.22 100.224C141.846 100.851 142.633 101.165 143.581 101.165C144.528 101.165 145.315 100.851 145.942 100.224C146.569 99.5837 146.882 98.7827 146.882 97.8216C146.882 96.8604 146.569 96.0664 145.942 95.4396C145.315 94.7988 144.528 94.4784 143.581 94.4784C142.633 94.4784 141.846 94.7988 141.22 95.4396C140.593 96.0664 140.279 96.8604 140.279 97.8216C140.279 98.7827 140.593 99.5837 141.22 100.224ZM157.682 92.3262C159.117 92.3262 160.343 92.8556 161.36 93.9142C162.377 94.9729 162.885 96.2754 162.885 97.8216C162.885 99.3539 162.377 100.656 161.36 101.729C160.343 102.788 159.117 103.317 157.682 103.317C156.094 103.317 154.875 102.725 154.026 101.541V103.045H151.769V88.4189H154.026V94.0814C154.875 92.9113 156.094 92.3262 157.682 92.3262ZM154.966 100.224C155.593 100.851 156.38 101.165 157.327 101.165C158.274 101.165 159.061 100.851 159.688 100.224C160.315 99.5837 160.628 98.7827 160.628 97.8216C160.628 96.8604 160.315 96.0664 159.688 95.4396C159.061 94.7988 158.274 94.4784 157.327 94.4784C156.38 94.4784 155.593 94.7988 154.966 95.4396C154.339 96.0664 154.026 96.8604 154.026 97.8216C154.026 98.7827 154.339 99.5837 154.966 100.224ZM167.062 90.6129C166.783 90.8915 166.449 91.0308 166.059 91.0308C165.669 91.0308 165.327 90.8915 165.035 90.6129C164.756 90.3203 164.617 89.979 164.617 89.589C164.617 89.199 164.756 88.8647 165.035 88.5861C165.313 88.2935 165.655 88.1473 166.059 88.1473C166.463 88.1473 166.804 88.2935 167.082 88.5861C167.361 88.8647 167.5 89.199 167.5 89.589C167.5 89.979 167.354 90.3203 167.062 90.6129ZM164.93 103.045V92.5979H167.187V103.045H164.93ZM169.807 103.045V87.7921H172.064V103.045H169.807ZM176.815 90.6129C176.537 90.8915 176.202 91.0308 175.812 91.0308C175.422 91.0308 175.081 90.8915 174.788 90.6129C174.51 90.3203 174.37 89.979 174.37 89.589C174.37 89.199 174.51 88.8647 174.788 88.5861C175.067 88.2935 175.408 88.1473 175.812 88.1473C176.216 88.1473 176.557 88.2935 176.836 88.5861C177.115 88.8647 177.254 89.199 177.254 89.589C177.254 89.979 177.108 90.3203 176.815 90.6129ZM174.684 103.045V92.5979H176.941V103.045H174.684ZM185.39 94.7709H182.799V99.7857C182.799 100.218 182.897 100.531 183.092 100.726C183.287 100.907 183.573 101.012 183.949 101.039C184.339 101.053 184.819 101.046 185.39 101.018V103.045C183.663 103.254 182.423 103.108 181.671 102.606C180.919 102.091 180.543 101.151 180.543 99.7857V94.7709H178.62V92.5979H180.543V90.3412L182.799 89.6726V92.5979H185.39V94.7709ZM194.683 92.5979H197.086L193.074 103.38C192.071 106.082 190.371 107.364 187.975 107.224V105.114C188.686 105.156 189.257 105.002 189.689 104.654C190.121 104.32 190.476 103.791 190.754 103.066L190.859 102.857L186.429 92.5979H188.895L192.008 100.183L194.683 92.5979Z" fill="black"/>
<path d="M127.967 10.1342C127.874 10.0159 127.776 9.8975 127.674 9.77914C125.268 6.91008 122.272 4.59361 118.89 2.98778C115.508 1.38195 111.819 0.524536 108.076 0.474044C107.949 0.469963 107.827 0.465881 107.7 0.465881C107.574 0.465881 107.451 0.469963 107.325 0.474044C103.567 0.525027 99.865 1.38896 96.4729 3.00648C93.0807 4.624 90.079 6.95676 87.674 9.84444C87.6054 9.91808 87.5414 9.99576 87.4821 10.0771C87.4791 10.0832 87.4749 10.0887 87.4699 10.0934C83.6617 14.746 81.5811 20.5731 81.5811 26.5855C81.5811 32.5978 83.6617 38.4249 87.4699 43.0775C87.4749 43.0822 87.4791 43.0877 87.4821 43.0938C87.5414 43.1752 87.6054 43.2528 87.674 43.3265L87.678 43.3306C90.0828 46.2172 93.084 48.5491 96.4754 50.1659C99.8668 51.7827 103.568 52.6462 107.325 52.6969C107.575 52.705 107.825 52.705 108.076 52.6969C111.819 52.6464 115.508 51.789 118.89 50.1831C122.272 48.5773 125.268 46.2608 127.674 43.3918C127.776 43.2734 127.874 43.1551 127.967 43.0367C131.753 38.3896 133.82 32.5792 133.82 26.5855C133.82 20.5917 131.753 14.7813 127.967 10.1342ZM122.184 25.8713C122.144 22.001 121.585 18.1536 120.523 14.4317C122.848 13.698 125.069 12.6678 127.131 11.3667C130.393 15.5122 132.233 20.5981 132.379 25.8713H122.184ZM108.415 1.93103C112.777 2.37996 116.573 6.88558 118.764 13.4808C115.391 14.4067 111.913 14.8977 108.415 14.9418V1.93103ZM106.986 14.9418C103.488 14.8977 100.01 14.4067 96.6362 13.4808C98.8278 6.88558 102.623 2.37996 106.986 1.93103V14.9418ZM106.986 16.3703V25.8713H94.6446C94.6836 22.1425 95.2118 18.4351 96.2159 14.8439C99.7258 15.8118 103.345 16.3248 106.986 16.3703ZM106.986 27.2997V36.8007C103.345 36.8461 99.7258 37.3591 96.2159 38.327C95.2118 34.7358 94.6836 31.0284 94.6446 27.2997H106.986ZM106.986 38.2291V51.2399C102.623 50.791 98.8278 46.2853 96.6362 39.6901C100.01 38.7642 103.488 38.2732 106.986 38.2291ZM108.415 38.2291C111.913 38.2732 115.391 38.7642 118.764 39.6901C116.573 46.2853 112.777 50.791 108.415 51.2399V38.2291ZM108.415 36.8007V27.2997H120.756C120.717 31.0297 120.189 34.7385 119.185 38.3311C115.676 37.3581 112.056 36.8437 108.415 36.8007ZM108.415 25.8713V16.3703C112.056 16.3272 115.676 15.8128 119.185 14.8398C120.189 18.4324 120.717 22.1412 120.756 25.8713H108.415ZM126.208 10.2566C124.296 11.448 122.242 12.3954 120.095 13.0767C118.528 8.41603 116.173 4.71031 113.369 2.55137C118.342 3.73135 122.828 6.42319 126.208 10.2566ZM102.032 2.55137C99.2278 4.71031 96.8729 8.41603 95.3058 13.0767C93.1597 12.3933 91.1063 11.4475 89.1922 10.2607C92.5708 6.42395 97.057 3.73028 102.032 2.55137ZM88.2698 11.3626C90.3312 12.6664 92.552 13.6993 94.8772 14.4358C93.815 18.1562 93.2563 22.0023 93.2162 25.8713H83.0214C83.1672 20.5969 85.0075 15.5096 88.2698 11.3626ZM93.2162 27.2997C93.2563 31.1686 93.815 35.0147 94.8772 38.7351V38.7392C92.5515 39.4726 90.3305 40.5042 88.2698 41.8083C85.0075 37.6613 83.1672 32.574 83.0214 27.2997H93.2162ZM89.1922 42.9102C91.1063 41.7234 93.1597 40.7776 95.3058 40.0942C96.8729 44.7549 99.2278 48.4606 102.032 50.6196C97.057 49.4406 92.5709 46.7469 89.1922 42.9102ZM113.369 50.6196C116.173 48.4606 118.528 44.7549 120.095 40.0942C122.242 40.7755 124.296 41.7229 126.208 42.9143C122.828 46.7477 118.342 49.4396 113.369 50.6196ZM127.131 41.8042C125.069 40.5031 122.848 39.473 120.523 38.7392C121.585 35.0173 122.144 31.1699 122.184 27.2997H132.379C132.233 32.5728 130.393 37.6587 127.131 41.8042Z" fill="#FD5B2F"/>
<path d="M39.7355 133.959H40.7259L44.4995 142.835H43.2709L42.3683 140.654H37.9302L37.015 142.835H35.824L39.7355 133.959ZM40.2119 135.313H40.1868L38.3439 139.676H41.9671L40.2119 135.313ZM45.5915 133.357H46.5694V142.835H45.5915V133.357ZM48.6156 133.357H49.5934V142.835H48.6156V133.357ZM51.2011 139.901C51.2011 139.442 51.2805 139.024 51.4393 138.648C51.5981 138.272 51.8154 137.95 52.0912 137.682C52.367 137.406 52.6972 137.193 53.0816 137.043C53.4661 136.892 53.884 136.817 54.3353 136.817C54.7867 136.817 55.2046 136.892 55.589 137.043C55.9735 137.193 56.3036 137.406 56.5794 137.682C56.8552 137.95 57.0726 138.272 57.2314 138.648C57.3902 139.024 57.4696 139.442 57.4696 139.901C57.4696 140.361 57.3902 140.779 57.2314 141.155C57.0726 141.531 56.8552 141.857 56.5794 142.133C56.3036 142.4 55.9735 142.609 55.589 142.76C55.2046 142.91 54.7867 142.985 54.3353 142.985C53.884 142.985 53.4661 142.91 53.0816 142.76C52.6972 142.609 52.367 142.4 52.0912 142.133C51.8154 141.857 51.5981 141.531 51.4393 141.155C51.2805 140.779 51.2011 140.361 51.2011 139.901ZM52.2542 139.901C52.2542 140.211 52.3002 140.499 52.3921 140.766C52.4924 141.025 52.6345 141.255 52.8184 141.456C53.0022 141.648 53.2195 141.803 53.4703 141.92C53.7294 142.028 54.0177 142.083 54.3353 142.083C54.6529 142.083 54.9371 142.028 55.1878 141.92C55.4469 141.803 55.6684 141.648 55.8523 141.456C56.0362 141.255 56.1741 141.025 56.266 140.766C56.3663 140.499 56.4165 140.211 56.4165 139.901C56.4165 139.592 56.3663 139.308 56.266 139.049C56.1741 138.781 56.0362 138.552 55.8523 138.359C55.6684 138.159 55.4469 138.004 55.1878 137.895C54.9371 137.778 54.6529 137.72 54.3353 137.72C54.0177 137.72 53.7294 137.778 53.4703 137.895C53.2195 138.004 53.0022 138.159 52.8184 138.359C52.6345 138.552 52.4924 138.781 52.3921 139.049C52.3002 139.308 52.2542 139.592 52.2542 139.901ZM65.2769 142.835H64.3116L62.6442 138.322H62.6191L61.1397 142.835H60.1368L58.2312 136.968H59.3093L60.6508 141.481H60.6759L62.1928 136.968H63.2209L64.7629 141.481H64.788L66.1169 136.968H67.17L65.2769 142.835ZM68.3636 136.968H69.3415V142.835H68.3636V136.968ZM68.138 134.673C68.138 134.481 68.2048 134.314 68.3386 134.172C68.4807 134.03 68.652 133.959 68.8526 133.959C69.0532 133.959 69.2203 134.03 69.3541 134.172C69.4961 134.314 69.5672 134.481 69.5672 134.673C69.5672 134.882 69.5003 135.054 69.3666 135.187C69.2329 135.321 69.0615 135.388 68.8526 135.388C68.6436 135.388 68.4723 135.321 68.3386 135.187C68.2048 135.054 68.138 134.882 68.138 134.673ZM71.2877 138.359C71.2877 138.092 71.2793 137.841 71.2626 137.607C71.2459 137.373 71.2375 137.16 71.2375 136.968H72.1653C72.1653 137.126 72.1694 137.285 72.1778 137.444C72.1862 137.603 72.1903 137.766 72.1903 137.933H72.2154C72.2823 137.791 72.3742 137.653 72.4912 137.519C72.6166 137.386 72.7629 137.269 72.93 137.168C73.0972 137.06 73.2852 136.976 73.4942 136.918C73.7031 136.851 73.9288 136.817 74.1712 136.817C74.5556 136.817 74.8858 136.876 75.1616 136.993C75.4458 137.11 75.6798 137.273 75.8636 137.482C76.0475 137.691 76.1813 137.946 76.2648 138.246C76.3568 138.539 76.4027 138.861 76.4027 139.212V142.835H75.4249V139.312C75.4249 138.819 75.3162 138.43 75.0989 138.146C74.8816 137.862 74.5431 137.72 74.0834 137.72C73.7658 137.72 73.49 137.774 73.256 137.883C73.0303 137.992 72.8423 138.146 72.6918 138.347C72.5497 138.547 72.4411 138.786 72.3659 139.061C72.299 139.337 72.2656 139.642 72.2656 139.977V142.835H71.2877V138.359ZM84.1087 142.572C84.1087 143.642 83.8329 144.452 83.2813 145.004C82.738 145.564 81.9482 145.844 80.9118 145.844C80.3351 145.844 79.8127 145.76 79.3447 145.593C78.885 145.426 78.4462 145.138 78.0283 144.728L78.7304 143.926C79.0396 144.26 79.3656 144.511 79.7083 144.678C80.0593 144.853 80.4605 144.941 80.9118 144.941C81.3464 144.941 81.7058 144.874 81.99 144.741C82.2825 144.615 82.5124 144.44 82.6795 144.214C82.8467 143.997 82.9637 143.746 83.0305 143.462C83.0974 143.178 83.1308 142.881 83.1308 142.572V141.819H83.1058C82.8717 142.196 82.5667 142.471 82.1906 142.647C81.8145 142.822 81.43 142.91 81.0372 142.91C80.5775 142.91 80.1554 142.835 79.771 142.685C79.3865 142.534 79.0563 142.325 78.7805 142.058C78.5047 141.79 78.2916 141.473 78.1412 141.105C77.9907 140.737 77.9155 140.336 77.9155 139.901C77.9155 139.425 77.9907 138.994 78.1412 138.61C78.2916 138.226 78.5005 137.904 78.768 137.645C79.0438 137.377 79.374 137.172 79.7584 137.03C80.1429 136.888 80.5691 136.817 81.0372 136.817C81.2378 136.817 81.4384 136.842 81.639 136.892C81.8395 136.934 82.0318 137.005 82.2156 137.106C82.4079 137.198 82.5792 137.319 82.7297 137.469C82.8801 137.611 83.0055 137.778 83.1058 137.971H83.1308V136.968H84.1087V142.572ZM78.9686 139.901C78.9686 140.202 79.0229 140.482 79.1316 140.741C79.2402 140.992 79.3865 141.214 79.5704 141.406C79.7626 141.59 79.9841 141.736 80.2348 141.845C80.4856 141.953 80.753 142.008 81.0372 142.008C81.3715 142.008 81.6682 141.949 81.9273 141.832C82.1864 141.715 82.4037 141.56 82.5792 141.368C82.7631 141.168 82.901 140.942 82.9929 140.691C83.0849 140.432 83.1308 140.16 83.1308 139.876C83.1308 139.559 83.0807 139.27 82.9804 139.011C82.8801 138.744 82.738 138.514 82.5541 138.322C82.3703 138.129 82.1488 137.983 81.8897 137.883C81.6306 137.774 81.3464 137.72 81.0372 137.72C80.7279 137.72 80.4438 137.778 80.1847 137.895C79.9339 138.004 79.7166 138.159 79.5328 138.359C79.3572 138.552 79.2193 138.781 79.119 139.049C79.0187 139.308 78.9686 139.592 78.9686 139.901ZM93.5822 138.435C93.3733 138.184 93.1476 138.004 92.9052 137.895C92.6628 137.778 92.3954 137.72 92.1029 137.72C91.7769 137.72 91.4886 137.778 91.2378 137.895C90.9871 138.004 90.7781 138.159 90.611 138.359C90.4522 138.56 90.331 138.794 90.2474 139.061C90.1638 139.32 90.122 139.6 90.122 139.901C90.122 140.202 90.168 140.486 90.2599 140.754C90.3602 141.013 90.494 141.243 90.6611 141.443C90.8366 141.644 91.0456 141.803 91.288 141.92C91.5303 142.028 91.802 142.083 92.1029 142.083C92.7464 142.083 93.2437 141.84 93.5948 141.356L94.3219 142.045C94.0377 142.371 93.7034 142.609 93.3189 142.76C92.9345 142.91 92.5291 142.985 92.1029 142.985C91.6515 142.985 91.2378 142.91 90.8617 142.76C90.4856 142.609 90.1638 142.396 89.8964 142.12C89.6373 141.845 89.4325 141.519 89.2821 141.142C89.14 140.766 89.0689 140.353 89.0689 139.901C89.0689 139.458 89.14 139.049 89.2821 138.673C89.4325 138.297 89.6415 137.971 89.9089 137.695C90.1764 137.419 90.494 137.206 90.8617 137.055C91.2378 136.897 91.6515 136.817 92.1029 136.817C92.5375 136.817 92.947 136.892 93.3315 137.043C93.7243 137.193 94.067 137.427 94.3595 137.745L93.5822 138.435ZM95.117 139.901C95.117 139.442 95.1964 139.024 95.3552 138.648C95.514 138.272 95.7313 137.95 96.0071 137.682C96.2829 137.406 96.6131 137.193 96.9975 137.043C97.382 136.892 97.7999 136.817 98.2512 136.817C98.7026 136.817 99.1205 136.892 99.5049 137.043C99.8894 137.193 100.22 137.406 100.495 137.682C100.771 137.95 100.988 138.272 101.147 138.648C101.306 139.024 101.385 139.442 101.385 139.901C101.385 140.361 101.306 140.779 101.147 141.155C100.988 141.531 100.771 141.857 100.495 142.133C100.22 142.4 99.8894 142.609 99.5049 142.76C99.1205 142.91 98.7026 142.985 98.2512 142.985C97.7999 142.985 97.382 142.91 96.9975 142.76C96.6131 142.609 96.2829 142.4 96.0071 142.133C95.7313 141.857 95.514 141.531 95.3552 141.155C95.1964 140.779 95.117 140.361 95.117 139.901ZM96.1701 139.901C96.1701 140.211 96.2161 140.499 96.308 140.766C96.4083 141.025 96.5504 141.255 96.7343 141.456C96.9181 141.648 97.1354 141.803 97.3862 141.92C97.6453 142.028 97.9336 142.083 98.2512 142.083C98.5688 142.083 98.853 142.028 99.1037 141.92C99.3628 141.803 99.5843 141.648 99.7682 141.456C99.9521 141.255 100.09 141.025 100.182 140.766C100.282 140.499 100.332 140.211 100.332 139.901C100.332 139.592 100.282 139.308 100.182 139.049C100.09 138.781 99.9521 138.552 99.7682 138.359C99.5843 138.159 99.3628 138.004 99.1037 137.895C98.853 137.778 98.5688 137.72 98.2512 137.72C97.9336 137.72 97.6453 137.778 97.3862 137.895C97.1354 138.004 96.9181 138.159 96.7343 138.359C96.5504 138.552 96.4083 138.781 96.308 139.049C96.2161 139.308 96.1701 139.592 96.1701 139.901ZM103.025 141.293C103.217 141.535 103.426 141.728 103.652 141.87C103.886 142.012 104.178 142.083 104.529 142.083C104.68 142.083 104.83 142.066 104.98 142.033C105.139 141.999 105.281 141.945 105.407 141.87C105.532 141.794 105.632 141.702 105.708 141.594C105.783 141.477 105.82 141.339 105.82 141.18C105.82 141.021 105.783 140.892 105.708 140.791C105.641 140.691 105.549 140.608 105.432 140.541C105.315 140.465 105.181 140.407 105.031 140.365C104.88 140.323 104.726 140.286 104.567 140.252C104.291 140.194 104.028 140.127 103.777 140.052C103.526 139.977 103.305 139.88 103.112 139.763C102.929 139.638 102.778 139.479 102.661 139.287C102.552 139.095 102.498 138.848 102.498 138.547C102.498 138.263 102.561 138.012 102.686 137.795C102.812 137.578 102.979 137.398 103.188 137.256C103.397 137.114 103.631 137.005 103.89 136.93C104.149 136.855 104.416 136.817 104.692 136.817C105.11 136.817 105.494 136.901 105.845 137.068C106.205 137.235 106.485 137.507 106.685 137.883L105.871 138.422C105.745 138.213 105.578 138.046 105.369 137.92C105.168 137.787 104.922 137.72 104.629 137.72C104.496 137.72 104.358 137.737 104.216 137.77C104.082 137.803 103.961 137.854 103.852 137.92C103.743 137.987 103.652 138.075 103.576 138.184C103.509 138.284 103.476 138.401 103.476 138.535C103.476 138.66 103.514 138.769 103.589 138.861C103.672 138.944 103.781 139.02 103.915 139.086C104.057 139.153 104.216 139.212 104.391 139.262C104.575 139.312 104.763 139.354 104.955 139.387C105.214 139.437 105.461 139.504 105.695 139.588C105.929 139.663 106.134 139.768 106.309 139.901C106.485 140.035 106.623 140.202 106.723 140.403C106.823 140.603 106.873 140.85 106.873 141.142C106.873 141.477 106.807 141.761 106.673 141.995C106.539 142.229 106.359 142.421 106.134 142.572C105.917 142.714 105.666 142.818 105.382 142.885C105.106 142.952 104.822 142.985 104.529 142.985C104.028 142.985 103.593 142.91 103.225 142.76C102.866 142.601 102.54 142.313 102.247 141.895L103.025 141.293ZM111.447 137.795H109.717V140.729C109.717 140.921 109.721 141.101 109.729 141.268C109.738 141.427 109.771 141.569 109.829 141.694C109.888 141.811 109.976 141.907 110.093 141.982C110.21 142.049 110.377 142.083 110.594 142.083C110.736 142.083 110.883 142.066 111.033 142.033C111.183 141.999 111.326 141.949 111.459 141.882L111.497 142.772C111.33 142.847 111.142 142.902 110.933 142.935C110.732 142.969 110.54 142.985 110.356 142.985C110.005 142.985 109.725 142.939 109.516 142.847C109.307 142.756 109.144 142.626 109.027 142.459C108.91 142.292 108.831 142.087 108.789 141.845C108.755 141.594 108.739 141.318 108.739 141.017V137.795H107.46V136.968H108.739V135.3H109.717V136.968H111.447V137.795ZM116.259 141.293C116.452 141.535 116.661 141.728 116.886 141.87C117.12 142.012 117.413 142.083 117.764 142.083C117.914 142.083 118.065 142.066 118.215 142.033C118.374 141.999 118.516 141.945 118.641 141.87C118.767 141.794 118.867 141.702 118.942 141.594C119.018 141.477 119.055 141.339 119.055 141.18C119.055 141.021 119.018 140.892 118.942 140.791C118.875 140.691 118.784 140.608 118.667 140.541C118.549 140.465 118.416 140.407 118.265 140.365C118.115 140.323 117.96 140.286 117.801 140.252C117.526 140.194 117.262 140.127 117.012 140.052C116.761 139.977 116.539 139.88 116.347 139.763C116.163 139.638 116.013 139.479 115.896 139.287C115.787 139.095 115.733 138.848 115.733 138.547C115.733 138.263 115.796 138.012 115.921 137.795C116.046 137.578 116.213 137.398 116.422 137.256C116.631 137.114 116.865 137.005 117.124 136.93C117.384 136.855 117.651 136.817 117.927 136.817C118.345 136.817 118.729 136.901 119.08 137.068C119.44 137.235 119.72 137.507 119.92 137.883L119.105 138.422C118.98 138.213 118.813 138.046 118.604 137.92C118.403 137.787 118.157 137.72 117.864 137.72C117.73 137.72 117.593 137.737 117.45 137.77C117.317 137.803 117.196 137.854 117.087 137.92C116.978 137.987 116.886 138.075 116.811 138.184C116.744 138.284 116.711 138.401 116.711 138.535C116.711 138.66 116.748 138.769 116.824 138.861C116.907 138.944 117.016 139.02 117.15 139.086C117.292 139.153 117.45 139.212 117.626 139.262C117.81 139.312 117.998 139.354 118.19 139.387C118.449 139.437 118.696 139.504 118.93 139.588C119.164 139.663 119.369 139.768 119.544 139.901C119.72 140.035 119.858 140.202 119.958 140.403C120.058 140.603 120.108 140.85 120.108 141.142C120.108 141.477 120.041 141.761 119.908 141.995C119.774 142.229 119.594 142.421 119.369 142.572C119.151 142.714 118.901 142.818 118.616 142.885C118.341 142.952 118.056 142.985 117.764 142.985C117.262 142.985 116.828 142.91 116.46 142.76C116.101 142.601 115.775 142.313 115.482 141.895L116.259 141.293ZM121.397 137.72C121.698 137.411 122.053 137.185 122.462 137.043C122.88 136.892 123.302 136.817 123.729 136.817C124.598 136.817 125.225 137.022 125.609 137.432C125.994 137.841 126.186 138.464 126.186 139.3V141.819C126.186 141.987 126.194 142.162 126.211 142.346C126.228 142.522 126.249 142.685 126.274 142.835H125.333C125.3 142.701 125.279 142.555 125.271 142.396C125.271 142.229 125.271 142.083 125.271 141.957H125.246C125.053 142.258 124.794 142.505 124.468 142.697C124.151 142.889 123.766 142.985 123.315 142.985C123.014 142.985 122.73 142.948 122.462 142.873C122.203 142.797 121.974 142.689 121.773 142.547C121.581 142.396 121.426 142.212 121.309 141.995C121.192 141.778 121.134 141.527 121.134 141.243C121.134 140.758 121.259 140.378 121.51 140.102C121.76 139.826 122.07 139.621 122.437 139.488C122.813 139.354 123.215 139.27 123.641 139.237C124.076 139.203 124.473 139.187 124.832 139.187H125.208V139.011C125.208 138.585 125.078 138.263 124.819 138.046C124.569 137.829 124.213 137.72 123.754 137.72C123.436 137.72 123.123 137.774 122.813 137.883C122.513 137.983 122.245 138.142 122.011 138.359L121.397 137.72ZM124.23 140.014C123.603 140.014 123.106 140.102 122.738 140.277C122.371 140.453 122.187 140.741 122.187 141.142C122.187 141.51 122.308 141.774 122.55 141.932C122.801 142.083 123.11 142.158 123.478 142.158C123.762 142.158 124.009 142.112 124.218 142.02C124.435 141.92 124.615 141.79 124.757 141.631C124.899 141.473 125.007 141.289 125.083 141.08C125.158 140.862 125.2 140.633 125.208 140.39V140.014H124.23ZM130.643 142.835H129.565L127.171 136.968H128.312L130.142 141.569H130.167L131.91 136.968H132.963L130.643 142.835ZM134.109 136.968H135.087V142.835H134.109V136.968ZM133.883 134.673C133.883 134.481 133.95 134.314 134.084 134.172C134.226 134.03 134.397 133.959 134.598 133.959C134.798 133.959 134.966 134.03 135.099 134.172C135.241 134.314 135.312 134.481 135.312 134.673C135.312 134.882 135.246 135.054 135.112 135.187C134.978 135.321 134.807 135.388 134.598 135.388C134.389 135.388 134.218 135.321 134.084 135.187C133.95 135.054 133.883 134.882 133.883 134.673ZM137.033 138.359C137.033 138.092 137.025 137.841 137.008 137.607C136.991 137.373 136.983 137.16 136.983 136.968H137.911C137.911 137.126 137.915 137.285 137.923 137.444C137.931 137.603 137.936 137.766 137.936 137.933H137.961C138.028 137.791 138.12 137.653 138.237 137.519C138.362 137.386 138.508 137.269 138.675 137.168C138.842 137.06 139.031 136.976 139.239 136.918C139.448 136.851 139.674 136.817 139.916 136.817C140.301 136.817 140.631 136.876 140.907 136.993C141.191 137.11 141.425 137.273 141.609 137.482C141.793 137.691 141.927 137.946 142.01 138.246C142.102 138.539 142.148 138.861 142.148 139.212V142.835H141.17V139.312C141.17 138.819 141.062 138.43 140.844 138.146C140.627 137.862 140.288 137.72 139.829 137.72C139.511 137.72 139.235 137.774 139.001 137.883C138.776 137.992 138.588 138.146 138.437 138.347C138.295 138.547 138.186 138.786 138.111 139.061C138.044 139.337 138.011 139.642 138.011 139.977V142.835H137.033V138.359ZM149.854 142.572C149.854 143.642 149.578 144.452 149.027 145.004C148.483 145.564 147.694 145.844 146.657 145.844C146.08 145.844 145.558 145.76 145.09 145.593C144.63 145.426 144.192 145.138 143.774 144.728L144.476 143.926C144.785 144.26 145.111 144.511 145.454 144.678C145.805 144.853 146.206 144.941 146.657 144.941C147.092 144.941 147.451 144.874 147.735 144.741C148.028 144.615 148.258 144.44 148.425 144.214C148.592 143.997 148.709 143.746 148.776 143.462C148.843 143.178 148.876 142.881 148.876 142.572V141.819H148.851C148.617 142.196 148.312 142.471 147.936 142.647C147.56 142.822 147.175 142.91 146.782 142.91C146.323 142.91 145.901 142.835 145.516 142.685C145.132 142.534 144.802 142.325 144.526 142.058C144.25 141.79 144.037 141.473 143.886 141.105C143.736 140.737 143.661 140.336 143.661 139.901C143.661 139.425 143.736 138.994 143.886 138.61C144.037 138.226 144.246 137.904 144.513 137.645C144.789 137.377 145.119 137.172 145.504 137.03C145.888 136.888 146.314 136.817 146.782 136.817C146.983 136.817 147.184 136.842 147.384 136.892C147.585 136.934 147.777 137.005 147.961 137.106C148.153 137.198 148.325 137.319 148.475 137.469C148.625 137.611 148.751 137.778 148.851 137.971H148.876V136.968H149.854V142.572ZM144.714 139.901C144.714 140.202 144.768 140.482 144.877 140.741C144.986 140.992 145.132 141.214 145.316 141.406C145.508 141.59 145.729 141.736 145.98 141.845C146.231 141.953 146.498 142.008 146.782 142.008C147.117 142.008 147.414 141.949 147.673 141.832C147.932 141.715 148.149 141.56 148.325 141.368C148.508 141.168 148.646 140.942 148.738 140.691C148.83 140.432 148.876 140.16 148.876 139.876C148.876 139.559 148.826 139.27 148.726 139.011C148.625 138.744 148.483 138.514 148.299 138.322C148.116 138.129 147.894 137.983 147.635 137.883C147.376 137.774 147.092 137.72 146.782 137.72C146.473 137.72 146.189 137.778 145.93 137.895C145.679 138.004 145.462 138.159 145.278 138.359C145.103 138.552 144.965 138.781 144.864 139.049C144.764 139.308 144.714 139.592 144.714 139.901ZM151.789 141.293C151.981 141.535 152.19 141.728 152.416 141.87C152.65 142.012 152.942 142.083 153.293 142.083C153.444 142.083 153.594 142.066 153.745 142.033C153.903 141.999 154.045 141.945 154.171 141.87C154.296 141.794 154.396 141.702 154.472 141.594C154.547 141.477 154.585 141.339 154.585 141.18C154.585 141.021 154.547 140.892 154.472 140.791C154.405 140.691 154.313 140.608 154.196 140.541C154.079 140.465 153.945 140.407 153.795 140.365C153.644 140.323 153.49 140.286 153.331 140.252C153.055 140.194 152.792 140.127 152.541 140.052C152.29 139.977 152.069 139.88 151.877 139.763C151.693 139.638 151.542 139.479 151.425 139.287C151.317 139.095 151.262 138.848 151.262 138.547C151.262 138.263 151.325 138.012 151.45 137.795C151.576 137.578 151.743 137.398 151.952 137.256C152.161 137.114 152.395 137.005 152.654 136.93C152.913 136.855 153.18 136.817 153.456 136.817C153.874 136.817 154.259 136.901 154.61 137.068C154.969 137.235 155.249 137.507 155.45 137.883L154.635 138.422C154.509 138.213 154.342 138.046 154.133 137.92C153.933 137.787 153.686 137.72 153.394 137.72C153.26 137.72 153.122 137.737 152.98 137.77C152.846 137.803 152.725 137.854 152.616 137.92C152.508 137.987 152.416 138.075 152.34 138.184C152.274 138.284 152.24 138.401 152.24 138.535C152.24 138.66 152.278 138.769 152.353 138.861C152.437 138.944 152.545 139.02 152.679 139.086C152.821 139.153 152.98 139.212 153.155 139.262C153.339 139.312 153.527 139.354 153.72 139.387C153.979 139.437 154.225 139.504 154.459 139.588C154.693 139.663 154.898 139.768 155.073 139.901C155.249 140.035 155.387 140.202 155.487 140.403C155.588 140.603 155.638 140.85 155.638 141.142C155.638 141.477 155.571 141.761 155.437 141.995C155.303 142.229 155.124 142.421 154.898 142.572C154.681 142.714 154.43 142.818 154.146 142.885C153.87 142.952 153.586 142.985 153.293 142.985C152.792 142.985 152.357 142.91 151.989 142.76C151.63 142.601 151.304 142.313 151.012 141.895L151.789 141.293ZM160.415 137.72C160.716 137.411 161.072 137.185 161.481 137.043C161.899 136.892 162.321 136.817 162.747 136.817C163.617 136.817 164.243 137.022 164.628 137.432C165.012 137.841 165.205 138.464 165.205 139.3V141.819C165.205 141.987 165.213 142.162 165.23 142.346C165.246 142.522 165.267 142.685 165.292 142.835H164.352C164.319 142.701 164.298 142.555 164.289 142.396C164.289 142.229 164.289 142.083 164.289 141.957H164.264C164.072 142.258 163.813 142.505 163.487 142.697C163.169 142.889 162.785 142.985 162.334 142.985C162.033 142.985 161.749 142.948 161.481 142.873C161.222 142.797 160.992 142.689 160.792 142.547C160.599 142.396 160.445 142.212 160.328 141.995C160.211 141.778 160.152 141.527 160.152 141.243C160.152 140.758 160.278 140.378 160.528 140.102C160.779 139.826 161.088 139.621 161.456 139.488C161.832 139.354 162.233 139.27 162.66 139.237C163.094 139.203 163.491 139.187 163.851 139.187H164.227V139.011C164.227 138.585 164.097 138.263 163.838 138.046C163.587 137.829 163.232 137.72 162.772 137.72C162.455 137.72 162.141 137.774 161.832 137.883C161.531 137.983 161.264 138.142 161.03 138.359L160.415 137.72ZM163.249 140.014C162.622 140.014 162.125 140.102 161.757 140.277C161.389 140.453 161.205 140.741 161.205 141.142C161.205 141.51 161.327 141.774 161.569 141.932C161.82 142.083 162.129 142.158 162.497 142.158C162.781 142.158 163.027 142.112 163.236 142.02C163.454 141.92 163.633 141.79 163.775 141.631C163.917 141.473 164.026 141.289 164.101 141.08C164.177 140.862 164.218 140.633 164.227 140.39V140.014H163.249ZM166.992 138.359C166.992 138.092 166.983 137.841 166.967 137.607C166.95 137.373 166.942 137.16 166.942 136.968H167.869C167.869 137.126 167.874 137.285 167.882 137.444C167.89 137.603 167.894 137.766 167.894 137.933H167.92C167.986 137.791 168.078 137.653 168.195 137.519C168.321 137.386 168.467 137.269 168.634 137.168C168.801 137.06 168.989 136.976 169.198 136.918C169.407 136.851 169.633 136.817 169.875 136.817C170.26 136.817 170.59 136.876 170.866 136.993C171.15 137.11 171.384 137.273 171.568 137.482C171.752 137.691 171.885 137.946 171.969 138.246C172.061 138.539 172.107 138.861 172.107 139.212V142.835H171.129V139.312C171.129 138.819 171.02 138.43 170.803 138.146C170.586 137.862 170.247 137.72 169.788 137.72C169.47 137.72 169.194 137.774 168.96 137.883C168.734 137.992 168.546 138.146 168.396 138.347C168.254 138.547 168.145 138.786 168.07 139.061C168.003 139.337 167.97 139.642 167.97 139.977V142.835H166.992V138.359ZM178.835 141.794H178.81C178.626 142.129 178.333 142.413 177.932 142.647C177.539 142.873 177.08 142.985 176.553 142.985C176.144 142.985 175.759 142.91 175.4 142.76C175.04 142.601 174.727 142.384 174.46 142.108C174.2 141.832 173.996 141.506 173.845 141.13C173.695 140.754 173.62 140.344 173.62 139.901C173.62 139.458 173.695 139.049 173.845 138.673C173.996 138.297 174.205 137.971 174.472 137.695C174.74 137.419 175.061 137.206 175.437 137.055C175.822 136.897 176.244 136.817 176.704 136.817C177.13 136.817 177.519 136.905 177.87 137.081C178.229 137.256 178.542 137.503 178.81 137.82H178.835V133.357H179.813V142.835H178.835V141.794ZM178.835 139.901C178.835 139.592 178.785 139.308 178.685 139.049C178.593 138.781 178.455 138.552 178.271 138.359C178.087 138.159 177.865 138.004 177.606 137.895C177.356 137.778 177.071 137.72 176.754 137.72C176.436 137.72 176.148 137.778 175.889 137.895C175.638 138.004 175.421 138.159 175.237 138.359C175.053 138.552 174.911 138.781 174.811 139.049C174.719 139.308 174.673 139.592 174.673 139.901C174.673 140.211 174.719 140.499 174.811 140.766C174.911 141.025 175.053 141.255 175.237 141.456C175.421 141.648 175.638 141.803 175.889 141.92C176.148 142.028 176.436 142.083 176.754 142.083C177.071 142.083 177.356 142.028 177.606 141.92C177.865 141.803 178.087 141.648 178.271 141.456C178.455 141.255 178.593 141.025 178.685 140.766C178.785 140.499 178.835 140.211 178.835 139.901ZM24.3293 163.435C24.1203 163.184 23.8947 163.004 23.6523 162.895C23.4099 162.778 23.1424 162.72 22.8499 162.72C22.524 162.72 22.2356 162.778 21.9849 162.895C21.7341 163.004 21.5252 163.159 21.358 163.359C21.1992 163.56 21.078 163.794 20.9945 164.061C20.9109 164.32 20.8691 164.6 20.8691 164.901C20.8691 165.202 20.9151 165.486 21.007 165.754C21.1073 166.013 21.241 166.243 21.4082 166.443C21.5837 166.644 21.7926 166.803 22.035 166.92C22.2774 167.028 22.549 167.083 22.8499 167.083C23.4935 167.083 23.9908 166.84 24.3418 166.356L25.069 167.045C24.7848 167.371 24.4505 167.609 24.066 167.76C23.6815 167.91 23.2762 167.985 22.8499 167.985C22.3986 167.985 21.9849 167.91 21.6088 167.76C21.2327 167.609 20.9109 167.396 20.6434 167.12C20.3843 166.845 20.1796 166.519 20.0291 166.142C19.887 165.766 19.816 165.353 19.816 164.901C19.816 164.458 19.887 164.049 20.0291 163.673C20.1796 163.297 20.3885 162.971 20.656 162.695C20.9234 162.419 21.241 162.206 21.6088 162.055C21.9849 161.897 22.3986 161.817 22.8499 161.817C23.2845 161.817 23.6941 161.892 24.0785 162.043C24.4714 162.193 24.814 162.427 25.1066 162.745L24.3293 163.435ZM25.8641 164.901C25.8641 164.442 25.9435 164.024 26.1023 163.648C26.2611 163.272 26.4784 162.95 26.7542 162.682C27.03 162.406 27.3601 162.193 27.7446 162.043C28.1291 161.892 28.547 161.817 28.9983 161.817C29.4496 161.817 29.8675 161.892 30.252 162.043C30.6364 162.193 30.9666 162.406 31.2424 162.682C31.5182 162.95 31.7355 163.272 31.8943 163.648C32.0531 164.024 32.1325 164.442 32.1325 164.901C32.1325 165.361 32.0531 165.779 31.8943 166.155C31.7355 166.531 31.5182 166.857 31.2424 167.133C30.9666 167.4 30.6364 167.609 30.252 167.76C29.8675 167.91 29.4496 167.985 28.9983 167.985C28.547 167.985 28.1291 167.91 27.7446 167.76C27.3601 167.609 27.03 167.4 26.7542 167.133C26.4784 166.857 26.2611 166.531 26.1023 166.155C25.9435 165.779 25.8641 165.361 25.8641 164.901ZM26.9172 164.901C26.9172 165.211 26.9631 165.499 27.0551 165.766C27.1554 166.025 27.2975 166.255 27.4813 166.456C27.6652 166.648 27.8825 166.803 28.1332 166.92C28.3923 167.028 28.6807 167.083 28.9983 167.083C29.3159 167.083 29.6001 167.028 29.8508 166.92C30.1099 166.803 30.3314 166.648 30.5153 166.456C30.6991 166.255 30.837 166.025 30.929 165.766C31.0293 165.499 31.0794 165.211 31.0794 164.901C31.0794 164.592 31.0293 164.308 30.929 164.049C30.837 163.781 30.6991 163.552 30.5153 163.359C30.3314 163.159 30.1099 163.004 29.8508 162.895C29.6001 162.778 29.3159 162.72 28.9983 162.72C28.6807 162.72 28.3923 162.778 28.1332 162.895C27.8825 163.004 27.6652 163.159 27.4813 163.359C27.2975 163.552 27.1554 163.781 27.0551 164.049C26.9631 164.308 26.9172 164.592 26.9172 164.901ZM33.6464 163.359C33.6464 163.092 33.638 162.841 33.6213 162.607C33.6046 162.373 33.5962 162.16 33.5962 161.968H34.5239C34.5239 162.126 34.5281 162.285 34.5365 162.444C34.5448 162.603 34.549 162.766 34.549 162.933H34.5741C34.6409 162.791 34.7329 162.653 34.8499 162.519C34.9753 162.386 35.1215 162.269 35.2887 162.168C35.4558 162.06 35.6439 161.976 35.8528 161.918C36.0618 161.851 36.2875 161.817 36.5298 161.817C36.9143 161.817 37.2444 161.876 37.5203 161.993C37.8044 162.11 38.0384 162.273 38.2223 162.482C38.4062 162.691 38.5399 162.946 38.6235 163.246C38.7154 163.539 38.7614 163.861 38.7614 164.212V167.835H37.7835V164.312C37.7835 163.819 37.6749 163.43 37.4576 163.146C37.2403 162.862 36.9018 162.72 36.4421 162.72C36.1245 162.72 35.8487 162.774 35.6146 162.883C35.389 162.992 35.2009 163.146 35.0505 163.347C34.9084 163.547 34.7997 163.786 34.7245 164.061C34.6577 164.337 34.6242 164.642 34.6242 164.977V167.835H33.6464V163.359ZM43.283 167.835H42.2048L39.8103 161.968H40.9512L42.7815 166.569H42.8066L44.5492 161.968H45.6023L43.283 167.835ZM51.9012 166.769C51.5501 167.221 51.1657 167.538 50.7478 167.722C50.3299 167.898 49.8451 167.985 49.2935 167.985C48.8338 167.985 48.4201 167.906 48.0523 167.747C47.6846 167.58 47.3712 167.359 47.1121 167.083C46.8613 166.807 46.6649 166.481 46.5228 166.105C46.3891 165.729 46.3222 165.328 46.3222 164.901C46.3222 164.45 46.3975 164.036 46.5479 163.66C46.6983 163.276 46.9073 162.95 47.1747 162.682C47.4422 162.406 47.7598 162.193 48.1276 162.043C48.4953 161.892 48.8965 161.817 49.3311 161.817C49.7406 161.817 50.1167 161.888 50.4594 162.03C50.8021 162.164 51.0946 162.365 51.337 162.632C51.5877 162.891 51.78 163.213 51.9137 163.597C52.0474 163.974 52.1143 164.404 52.1143 164.889V165.202H47.3753C47.3921 165.453 47.4506 165.695 47.5509 165.929C47.6595 166.155 47.7974 166.356 47.9646 166.531C48.1317 166.698 48.3281 166.832 48.5538 166.932C48.7795 167.033 49.026 167.083 49.2935 167.083C49.7197 167.083 50.0791 167.008 50.3717 166.857C50.6642 166.707 50.9275 166.485 51.1615 166.193L51.9012 166.769ZM51.0612 164.375C51.0445 163.873 50.8815 163.472 50.5723 163.171C50.263 162.87 49.8368 162.72 49.2935 162.72C48.7502 162.72 48.3114 162.87 47.9771 163.171C47.6428 163.472 47.4422 163.873 47.3753 164.375H51.0612ZM53.627 163.359C53.627 163.092 53.6187 162.841 53.602 162.607C53.5853 162.373 53.5769 162.16 53.5769 161.968H54.5046C54.5046 162.126 54.5088 162.285 54.5172 162.444C54.5255 162.603 54.5297 162.766 54.5297 162.933H54.5548C54.6216 162.791 54.7136 162.653 54.8306 162.519C54.956 162.386 55.1022 162.269 55.2694 162.168C55.4365 162.06 55.6246 161.976 55.8335 161.918C56.0425 161.851 56.2682 161.817 56.5105 161.817C56.895 161.817 57.2251 161.876 57.5009 161.993C57.7851 162.11 58.0191 162.273 58.203 162.482C58.3869 162.691 58.5206 162.946 58.6042 163.246C58.6961 163.539 58.7421 163.861 58.7421 164.212V167.835H57.7642V164.312C57.7642 163.819 57.6556 163.43 57.4383 163.146C57.221 162.862 56.8825 162.72 56.4228 162.72C56.1052 162.72 55.8294 162.774 55.5953 162.883C55.3697 162.992 55.1816 163.146 55.0312 163.347C54.8891 163.547 54.7804 163.786 54.7052 164.061C54.6384 164.337 54.6049 164.642 54.6049 164.977V167.835H53.627V163.359ZM60.6811 161.968H61.659V167.835H60.6811V161.968ZM60.4554 159.673C60.4554 159.481 60.5223 159.314 60.656 159.172C60.7981 159.03 60.9695 158.959 61.1701 158.959C61.3706 158.959 61.5378 159.03 61.6715 159.172C61.8136 159.314 61.8847 159.481 61.8847 159.673C61.8847 159.882 61.8178 160.054 61.6841 160.187C61.5503 160.321 61.379 160.388 61.1701 160.388C60.9611 160.388 60.7898 160.321 60.656 160.187C60.5223 160.054 60.4554 159.882 60.4554 159.673ZM68.8456 166.769C68.4945 167.221 68.1101 167.538 67.6922 167.722C67.2743 167.898 66.7895 167.985 66.2379 167.985C65.7782 167.985 65.3645 167.906 64.9967 167.747C64.629 167.58 64.3156 167.359 64.0565 167.083C63.8057 166.807 63.6093 166.481 63.4672 166.105C63.3335 165.729 63.2667 165.328 63.2667 164.901C63.2667 164.45 63.3419 164.036 63.4923 163.66C63.6428 163.276 63.8517 162.95 64.1192 162.682C64.3866 162.406 64.7042 162.193 65.072 162.043C65.4397 161.892 65.8409 161.817 66.2755 161.817C66.6851 161.817 67.0612 161.888 67.4038 162.03C67.7465 162.164 68.039 162.365 68.2814 162.632C68.5322 162.891 68.7244 163.213 68.8581 163.597C68.9918 163.974 69.0587 164.404 69.0587 164.889V165.202H64.3198C64.3365 165.453 64.395 165.695 64.4953 165.929C64.6039 166.155 64.7418 166.356 64.909 166.531C65.0761 166.698 65.2726 166.832 65.4982 166.932C65.7239 167.033 65.9704 167.083 66.2379 167.083C66.6642 167.083 67.0235 167.008 67.3161 166.857C67.6086 166.707 67.8719 166.485 68.1059 166.193L68.8456 166.769ZM68.0056 164.375C67.9889 163.873 67.8259 163.472 67.5167 163.171C67.2074 162.87 66.7812 162.72 66.2379 162.72C65.6946 162.72 65.2558 162.87 64.9215 163.171C64.5872 163.472 64.3866 163.873 64.3198 164.375H68.0056ZM70.5715 163.359C70.5715 163.092 70.5631 162.841 70.5464 162.607C70.5297 162.373 70.5213 162.16 70.5213 161.968H71.449C71.449 162.126 71.4532 162.285 71.4616 162.444C71.4699 162.603 71.4741 162.766 71.4741 162.933H71.4992C71.5661 162.791 71.658 162.653 71.775 162.519C71.9004 162.386 72.0466 162.269 72.2138 162.168C72.381 162.06 72.569 161.976 72.778 161.918C72.9869 161.851 73.2126 161.817 73.455 161.817C73.8394 161.817 74.1696 161.876 74.4454 161.993C74.7295 162.11 74.9636 162.273 75.1474 162.482C75.3313 162.691 75.465 162.946 75.5486 163.246C75.6406 163.539 75.6865 163.861 75.6865 164.212V167.835H74.7086V164.312C74.7086 163.819 74.6 163.43 74.3827 163.146C74.1654 162.862 73.8269 162.72 73.3672 162.72C73.0496 162.72 72.7738 162.774 72.5398 162.883C72.3141 162.992 72.126 163.146 71.9756 163.347C71.8335 163.547 71.7249 163.786 71.6496 164.061C71.5828 164.337 71.5493 164.642 71.5493 164.977V167.835H70.5715V163.359ZM81.7126 163.435C81.5036 163.184 81.2779 163.004 81.0356 162.895C80.7932 162.778 80.5257 162.72 80.2332 162.72C79.9072 162.72 79.6189 162.778 79.3682 162.895C79.1174 163.004 78.9085 163.159 78.7413 163.359C78.5825 163.56 78.4613 163.794 78.3777 164.061C78.2942 164.32 78.2524 164.6 78.2524 164.901C78.2524 165.202 78.2983 165.486 78.3903 165.754C78.4906 166.013 78.6243 166.243 78.7915 166.443C78.967 166.644 79.1759 166.803 79.4183 166.92C79.6607 167.028 79.9323 167.083 80.2332 167.083C80.8768 167.083 81.3741 166.84 81.7251 166.356L82.4522 167.045C82.1681 167.371 81.8338 167.609 81.4493 167.76C81.0648 167.91 80.6595 167.985 80.2332 167.985C79.7819 167.985 79.3682 167.91 78.9921 167.76C78.6159 167.609 78.2942 167.396 78.0267 167.12C77.7676 166.845 77.5628 166.519 77.4124 166.142C77.2703 165.766 77.1993 165.353 77.1993 164.901C77.1993 164.458 77.2703 164.049 77.4124 163.673C77.5628 163.297 77.7718 162.971 78.0392 162.695C78.3067 162.419 78.6243 162.206 78.9921 162.055C79.3682 161.897 79.7819 161.817 80.2332 161.817C80.6678 161.817 81.0774 161.892 81.4618 162.043C81.8546 162.193 82.1973 162.427 82.4898 162.745L81.7126 163.435ZM88.8263 166.769C88.4752 167.221 88.0908 167.538 87.6729 167.722C87.255 167.898 86.7702 167.985 86.2186 167.985C85.7589 167.985 85.3452 167.906 84.9774 167.747C84.6097 167.58 84.2963 167.359 84.0372 167.083C83.7864 166.807 83.59 166.481 83.4479 166.105C83.3142 165.729 83.2473 165.328 83.2473 164.901C83.2473 164.45 83.3226 164.036 83.473 163.66C83.6235 163.276 83.8324 162.95 84.0999 162.682C84.3673 162.406 84.6849 162.193 85.0527 162.043C85.4204 161.892 85.8216 161.817 86.2562 161.817C86.6657 161.817 87.0419 161.888 87.3845 162.03C87.7272 162.164 88.0197 162.365 88.2621 162.632C88.5128 162.891 88.7051 163.213 88.8388 163.597C88.9725 163.974 89.0394 164.404 89.0394 164.889V165.202H84.3004C84.3172 165.453 84.3757 165.695 84.476 165.929C84.5846 166.155 84.7225 166.356 84.8897 166.531C85.0568 166.698 85.2533 166.832 85.4789 166.932C85.7046 167.033 85.9511 167.083 86.2186 167.083C86.6448 167.083 87.0042 167.008 87.2968 166.857C87.5893 166.707 87.8526 166.485 88.0866 166.193L88.8263 166.769ZM87.9863 164.375C87.9696 163.873 87.8066 163.472 87.4974 163.171C87.1881 162.87 86.7619 162.72 86.2186 162.72C85.6753 162.72 85.2365 162.87 84.9022 163.171C84.5679 163.472 84.3673 163.873 84.3004 164.375H87.9863ZM97.2509 162.795H95.5208V165.729C95.5208 165.921 95.525 166.101 95.5333 166.268C95.5417 166.427 95.5751 166.569 95.6336 166.694C95.6921 166.811 95.7799 166.907 95.8969 166.982C96.0139 167.049 96.1811 167.083 96.3984 167.083C96.5405 167.083 96.6867 167.066 96.8372 167.033C96.9876 166.999 97.1297 166.949 97.2634 166.882L97.301 167.772C97.1339 167.847 96.9458 167.902 96.7369 167.935C96.5363 167.969 96.344 167.985 96.1602 167.985C95.8091 167.985 95.5291 167.939 95.3202 167.847C95.1112 167.756 94.9483 167.626 94.8313 167.459C94.7142 167.292 94.6348 167.087 94.5931 166.845C94.5596 166.594 94.5429 166.318 94.5429 166.017V162.795H93.2641V161.968H94.5429V160.3H95.5208V161.968H97.2509V162.795ZM98.4612 158.357H99.4391V162.783H99.4641C99.531 162.666 99.6229 162.553 99.7399 162.444C99.857 162.327 99.9949 162.223 100.154 162.131C100.321 162.039 100.505 161.964 100.705 161.905C100.906 161.846 101.119 161.817 101.345 161.817C101.729 161.817 102.059 161.876 102.335 161.993C102.619 162.11 102.853 162.273 103.037 162.482C103.221 162.691 103.355 162.946 103.438 163.246C103.53 163.539 103.576 163.861 103.576 164.212V167.835H102.598V164.312C102.598 163.819 102.49 163.43 102.272 163.146C102.055 162.862 101.717 162.72 101.257 162.72C100.939 162.72 100.663 162.774 100.429 162.883C100.204 162.992 100.016 163.146 99.8653 163.347C99.7232 163.547 99.6146 163.786 99.5394 164.061C99.4725 164.337 99.4391 164.642 99.4391 164.977V167.835H98.4612V158.357ZM105.427 163.359C105.427 163.092 105.419 162.841 105.402 162.607C105.386 162.373 105.377 162.16 105.377 161.968H106.305C106.305 162.126 106.309 162.285 106.318 162.444C106.326 162.603 106.33 162.766 106.33 162.933H106.355C106.422 162.791 106.514 162.653 106.631 162.519C106.756 162.386 106.903 162.269 107.07 162.168C107.237 162.06 107.425 161.976 107.634 161.918C107.843 161.851 108.069 161.817 108.311 161.817C108.378 161.817 108.445 161.821 108.512 161.83C108.578 161.838 108.645 161.855 108.712 161.88L108.649 162.87C108.482 162.82 108.307 162.795 108.123 162.795C107.521 162.795 107.082 162.992 106.807 163.384C106.539 163.769 106.405 164.3 106.405 164.977V167.835H105.427V163.359ZM109.276 164.901C109.276 164.442 109.356 164.024 109.514 163.648C109.673 163.272 109.89 162.95 110.166 162.682C110.442 162.406 110.772 162.193 111.157 162.043C111.541 161.892 111.959 161.817 112.41 161.817C112.862 161.817 113.28 161.892 113.664 162.043C114.049 162.193 114.379 162.406 114.654 162.682C114.93 162.95 115.148 163.272 115.306 163.648C115.465 164.024 115.545 164.442 115.545 164.901C115.545 165.361 115.465 165.779 115.306 166.155C115.148 166.531 114.93 166.857 114.654 167.133C114.379 167.4 114.049 167.609 113.664 167.76C113.28 167.91 112.862 167.985 112.41 167.985C111.959 167.985 111.541 167.91 111.157 167.76C110.772 167.609 110.442 167.4 110.166 167.133C109.89 166.857 109.673 166.531 109.514 166.155C109.356 165.779 109.276 165.361 109.276 164.901ZM110.329 164.901C110.329 165.211 110.375 165.499 110.467 165.766C110.567 166.025 110.71 166.255 110.893 166.456C111.077 166.648 111.295 166.803 111.545 166.92C111.804 167.028 112.093 167.083 112.41 167.083C112.728 167.083 113.012 167.028 113.263 166.92C113.522 166.803 113.743 166.648 113.927 166.456C114.111 166.255 114.249 166.025 114.341 165.766C114.441 165.499 114.491 165.211 114.491 164.901C114.491 164.592 114.441 164.308 114.341 164.049C114.249 163.781 114.111 163.552 113.927 163.359C113.743 163.159 113.522 163.004 113.263 162.895C113.012 162.778 112.728 162.72 112.41 162.72C112.093 162.72 111.804 162.778 111.545 162.895C111.295 163.004 111.077 163.159 110.893 163.359C110.71 163.552 110.567 163.781 110.467 164.049C110.375 164.308 110.329 164.592 110.329 164.901ZM122.173 166.443C122.173 166.711 122.182 166.962 122.199 167.196C122.215 167.43 122.224 167.643 122.224 167.835H121.296C121.296 167.676 121.292 167.517 121.283 167.359C121.275 167.2 121.271 167.037 121.271 166.87H121.246C121.179 167.012 121.083 167.15 120.957 167.283C120.84 167.417 120.698 167.538 120.531 167.647C120.364 167.747 120.176 167.827 119.967 167.885C119.758 167.952 119.532 167.985 119.29 167.985C118.906 167.985 118.571 167.927 118.287 167.81C118.011 167.693 117.781 167.53 117.597 167.321C117.414 167.112 117.276 166.861 117.184 166.569C117.1 166.268 117.058 165.942 117.058 165.591V161.968H118.036V165.491C118.036 165.984 118.145 166.372 118.362 166.656C118.58 166.941 118.918 167.083 119.378 167.083C119.695 167.083 119.967 167.028 120.193 166.92C120.427 166.811 120.615 166.656 120.757 166.456C120.907 166.255 121.016 166.017 121.083 165.741C121.158 165.465 121.196 165.16 121.196 164.826V161.968H122.173V166.443ZM129.879 167.572C129.879 168.642 129.604 169.452 129.052 170.004C128.509 170.564 127.719 170.844 126.683 170.844C126.106 170.844 125.583 170.76 125.115 170.593C124.656 170.426 124.217 170.138 123.799 169.728L124.501 168.926C124.81 169.26 125.136 169.511 125.479 169.678C125.83 169.853 126.231 169.941 126.683 169.941C127.117 169.941 127.477 169.874 127.761 169.741C128.053 169.615 128.283 169.44 128.45 169.214C128.617 168.997 128.734 168.746 128.801 168.462C128.868 168.178 128.902 167.881 128.902 167.572V166.819H128.876C128.642 167.196 128.337 167.471 127.961 167.647C127.585 167.822 127.201 167.91 126.808 167.91C126.348 167.91 125.926 167.835 125.542 167.685C125.157 167.534 124.827 167.325 124.551 167.058C124.275 166.79 124.062 166.473 123.912 166.105C123.761 165.737 123.686 165.336 123.686 164.901C123.686 164.425 123.761 163.994 123.912 163.61C124.062 163.226 124.271 162.904 124.539 162.645C124.815 162.377 125.145 162.172 125.529 162.03C125.914 161.888 126.34 161.817 126.808 161.817C127.009 161.817 127.209 161.842 127.41 161.892C127.61 161.934 127.803 162.005 127.986 162.106C128.179 162.198 128.35 162.319 128.5 162.469C128.651 162.611 128.776 162.778 128.876 162.971H128.902V161.968H129.879V167.572ZM124.739 164.901C124.739 165.202 124.794 165.482 124.902 165.741C125.011 165.992 125.157 166.214 125.341 166.406C125.533 166.59 125.755 166.736 126.006 166.845C126.256 166.953 126.524 167.008 126.808 167.008C127.142 167.008 127.439 166.949 127.698 166.832C127.957 166.715 128.174 166.56 128.35 166.368C128.534 166.168 128.672 165.942 128.764 165.691C128.856 165.432 128.902 165.16 128.902 164.876C128.902 164.559 128.851 164.27 128.751 164.011C128.651 163.744 128.509 163.514 128.325 163.322C128.141 163.129 127.92 162.983 127.66 162.883C127.401 162.774 127.117 162.72 126.808 162.72C126.499 162.72 126.214 162.778 125.955 162.895C125.705 163.004 125.487 163.159 125.303 163.359C125.128 163.552 124.99 163.781 124.89 164.049C124.789 164.308 124.739 164.592 124.739 164.901ZM131.689 158.357H132.667V162.783H132.692C132.759 162.666 132.851 162.553 132.968 162.444C133.085 162.327 133.223 162.223 133.381 162.131C133.549 162.039 133.732 161.964 133.933 161.905C134.134 161.846 134.347 161.817 134.572 161.817C134.957 161.817 135.287 161.876 135.563 161.993C135.847 162.11 136.081 162.273 136.265 162.482C136.449 162.691 136.582 162.946 136.666 163.246C136.758 163.539 136.804 163.861 136.804 164.212V167.835H135.826V164.312C135.826 163.819 135.717 163.43 135.5 163.146C135.283 162.862 134.944 162.72 134.485 162.72C134.167 162.72 133.891 162.774 133.657 162.883C133.432 162.992 133.243 163.146 133.093 163.347C132.951 163.547 132.842 163.786 132.767 164.061C132.7 164.337 132.667 164.642 132.667 164.977V167.835H131.689V158.357ZM145.354 162.795H143.624V165.729C143.624 165.921 143.628 166.101 143.636 166.268C143.645 166.427 143.678 166.569 143.737 166.694C143.795 166.811 143.883 166.907 144 166.982C144.117 167.049 144.284 167.083 144.501 167.083C144.643 167.083 144.79 167.066 144.94 167.033C145.091 166.999 145.233 166.949 145.366 166.882L145.404 167.772C145.237 167.847 145.049 167.902 144.84 167.935C144.639 167.969 144.447 167.985 144.263 167.985C143.912 167.985 143.632 167.939 143.423 167.847C143.214 167.756 143.051 167.626 142.934 167.459C142.817 167.292 142.738 167.087 142.696 166.845C142.663 166.594 142.646 166.318 142.646 166.017V162.795H141.367V161.968H142.646V160.3H143.624V161.968H145.354V162.795ZM146.564 158.357H147.542V162.783H147.567C147.634 162.666 147.726 162.553 147.843 162.444C147.96 162.327 148.098 162.223 148.257 162.131C148.424 162.039 148.608 161.964 148.808 161.905C149.009 161.846 149.222 161.817 149.448 161.817C149.832 161.817 150.162 161.876 150.438 161.993C150.722 162.11 150.956 162.273 151.14 162.482C151.324 162.691 151.458 162.946 151.541 163.246C151.633 163.539 151.679 163.861 151.679 164.212V167.835H150.701V164.312C150.701 163.819 150.593 163.43 150.375 163.146C150.158 162.862 149.82 162.72 149.36 162.72C149.042 162.72 148.767 162.774 148.533 162.883C148.307 162.992 148.119 163.146 147.968 163.347C147.826 163.547 147.718 163.786 147.642 164.061C147.576 164.337 147.542 164.642 147.542 164.977V167.835H146.564V158.357ZM158.771 166.769C158.42 167.221 158.035 167.538 157.618 167.722C157.2 167.898 156.715 167.985 156.163 167.985C155.704 167.985 155.29 167.906 154.922 167.747C154.554 167.58 154.241 167.359 153.982 167.083C153.731 166.807 153.535 166.481 153.393 166.105C153.259 165.729 153.192 165.328 153.192 164.901C153.192 164.45 153.267 164.036 153.418 163.66C153.568 163.276 153.777 162.95 154.045 162.682C154.312 162.406 154.63 162.193 154.997 162.043C155.365 161.892 155.766 161.817 156.201 161.817C156.61 161.817 156.987 161.888 157.329 162.03C157.672 162.164 157.964 162.365 158.207 162.632C158.458 162.891 158.65 163.213 158.783 163.597C158.917 163.974 158.984 164.404 158.984 164.889V165.202H154.245C154.262 165.453 154.32 165.695 154.421 165.929C154.529 166.155 154.667 166.356 154.834 166.531C155.002 166.698 155.198 166.832 155.424 166.932C155.649 167.033 155.896 167.083 156.163 167.083C156.59 167.083 156.949 167.008 157.241 166.857C157.534 166.707 157.797 166.485 158.031 166.193L158.771 166.769ZM157.931 164.375C157.914 163.873 157.751 163.472 157.442 163.171C157.133 162.87 156.707 162.72 156.163 162.72C155.62 162.72 155.181 162.87 154.847 163.171C154.513 163.472 154.312 163.873 154.245 164.375H157.931ZM169.101 166.443C169.101 166.711 169.11 166.962 169.126 167.196C169.143 167.43 169.151 167.643 169.151 167.835H168.224C168.224 167.676 168.219 167.517 168.211 167.359C168.203 167.2 168.199 167.037 168.199 166.87H168.173C168.107 167.012 168.01 167.15 167.885 167.283C167.768 167.417 167.626 167.538 167.459 167.647C167.292 167.747 167.104 167.827 166.895 167.885C166.686 167.952 166.46 167.985 166.218 167.985C165.833 167.985 165.499 167.927 165.215 167.81C164.939 167.693 164.709 167.53 164.525 167.321C164.341 167.112 164.203 166.861 164.111 166.569C164.028 166.268 163.986 165.942 163.986 165.591V161.968H164.964V165.491C164.964 165.984 165.073 166.372 165.29 166.656C165.507 166.941 165.846 167.083 166.305 167.083C166.623 167.083 166.895 167.028 167.12 166.92C167.354 166.811 167.542 166.656 167.684 166.456C167.835 166.255 167.944 166.017 168.01 165.741C168.086 165.465 168.123 165.16 168.123 164.826V161.968H169.101V166.443ZM171.078 166.293C171.27 166.535 171.479 166.728 171.705 166.87C171.939 167.012 172.231 167.083 172.582 167.083C172.733 167.083 172.883 167.066 173.034 167.033C173.192 166.999 173.334 166.945 173.46 166.87C173.585 166.794 173.685 166.702 173.761 166.594C173.836 166.477 173.874 166.339 173.874 166.18C173.874 166.021 173.836 165.892 173.761 165.791C173.694 165.691 173.602 165.608 173.485 165.541C173.368 165.465 173.234 165.407 173.084 165.365C172.933 165.323 172.779 165.286 172.62 165.252C172.344 165.194 172.081 165.127 171.83 165.052C171.579 164.977 171.358 164.88 171.166 164.763C170.982 164.638 170.831 164.479 170.714 164.287C170.606 164.095 170.551 163.848 170.551 163.547C170.551 163.263 170.614 163.012 170.739 162.795C170.865 162.578 171.032 162.398 171.241 162.256C171.45 162.114 171.684 162.005 171.943 161.93C172.202 161.855 172.469 161.817 172.745 161.817C173.163 161.817 173.548 161.901 173.899 162.068C174.258 162.235 174.538 162.507 174.739 162.883L173.924 163.422C173.798 163.213 173.631 163.046 173.422 162.92C173.222 162.787 172.975 162.72 172.683 162.72C172.549 162.72 172.411 162.737 172.269 162.77C172.135 162.803 172.014 162.854 171.905 162.92C171.797 162.987 171.705 163.075 171.629 163.184C171.563 163.284 171.529 163.401 171.529 163.535C171.529 163.66 171.567 163.769 171.642 163.861C171.726 163.944 171.834 164.02 171.968 164.086C172.11 164.153 172.269 164.212 172.444 164.262C172.628 164.312 172.816 164.354 173.008 164.387C173.268 164.437 173.514 164.504 173.748 164.588C173.982 164.663 174.187 164.768 174.362 164.901C174.538 165.035 174.676 165.202 174.776 165.403C174.876 165.603 174.927 165.85 174.927 166.142C174.927 166.477 174.86 166.761 174.726 166.995C174.592 167.229 174.413 167.421 174.187 167.572C173.97 167.714 173.719 167.818 173.435 167.885C173.159 167.952 172.875 167.985 172.582 167.985C172.081 167.985 171.646 167.91 171.278 167.76C170.919 167.601 170.593 167.313 170.301 166.895L171.078 166.293ZM181.531 166.769C181.18 167.221 180.795 167.538 180.377 167.722C179.96 167.898 179.475 167.985 178.923 167.985C178.463 167.985 178.05 167.906 177.682 167.747C177.314 167.58 177.001 167.359 176.742 167.083C176.491 166.807 176.295 166.481 176.152 166.105C176.019 165.729 175.952 165.328 175.952 164.901C175.952 164.45 176.027 164.036 176.178 163.66C176.328 163.276 176.537 162.95 176.804 162.682C177.072 162.406 177.389 162.193 177.757 162.043C178.125 161.892 178.526 161.817 178.961 161.817C179.37 161.817 179.746 161.888 180.089 162.03C180.432 162.164 180.724 162.365 180.967 162.632C181.217 162.891 181.41 163.213 181.543 163.597C181.677 163.974 181.744 164.404 181.744 164.889V165.202H177.005C177.022 165.453 177.08 165.695 177.181 165.929C177.289 166.155 177.427 166.356 177.594 166.531C177.761 166.698 177.958 166.832 178.183 166.932C178.409 167.033 178.656 167.083 178.923 167.083C179.349 167.083 179.709 167.008 180.001 166.857C180.294 166.707 180.557 166.485 180.791 166.193L181.531 166.769ZM180.691 164.375C180.674 163.873 180.511 163.472 180.202 163.171C179.893 162.87 179.466 162.72 178.923 162.72C178.38 162.72 177.941 162.87 177.607 163.171C177.272 163.472 177.072 163.873 177.005 164.375H180.691ZM186.407 164.901C186.407 164.442 186.487 164.024 186.646 163.648C186.804 163.272 187.022 162.95 187.298 162.682C187.573 162.406 187.904 162.193 188.288 162.043C188.672 161.892 189.09 161.817 189.542 161.817C189.993 161.817 190.411 161.892 190.795 162.043C191.18 162.193 191.51 162.406 191.786 162.682C192.062 162.95 192.279 163.272 192.438 163.648C192.597 164.024 192.676 164.442 192.676 164.901C192.676 165.361 192.597 165.779 192.438 166.155C192.279 166.531 192.062 166.857 191.786 167.133C191.51 167.4 191.18 167.609 190.795 167.76C190.411 167.91 189.993 167.985 189.542 167.985C189.09 167.985 188.672 167.91 188.288 167.76C187.904 167.609 187.573 167.4 187.298 167.133C187.022 166.857 186.804 166.531 186.646 166.155C186.487 165.779 186.407 165.361 186.407 164.901ZM187.461 164.901C187.461 165.211 187.507 165.499 187.598 165.766C187.699 166.025 187.841 166.255 188.025 166.456C188.209 166.648 188.426 166.803 188.677 166.92C188.936 167.028 189.224 167.083 189.542 167.083C189.859 167.083 190.143 167.028 190.394 166.92C190.653 166.803 190.875 166.648 191.059 166.456C191.243 166.255 191.38 166.025 191.472 165.766C191.573 165.499 191.623 165.211 191.623 164.901C191.623 164.592 191.573 164.308 191.472 164.049C191.38 163.781 191.243 163.552 191.059 163.359C190.875 163.159 190.653 163.004 190.394 162.895C190.143 162.778 189.859 162.72 189.542 162.72C189.224 162.72 188.936 162.778 188.677 162.895C188.426 163.004 188.209 163.159 188.025 163.359C187.841 163.552 187.699 163.781 187.598 164.049C187.507 164.308 187.461 164.592 187.461 164.901ZM194.691 162.795H193.412V161.968H194.691V160.651C194.691 160.292 194.725 159.966 194.792 159.673C194.858 159.373 194.971 159.113 195.13 158.896C195.297 158.679 195.514 158.512 195.782 158.395C196.049 158.269 196.38 158.207 196.772 158.207C196.898 158.207 197.031 158.219 197.174 158.244C197.316 158.269 197.433 158.307 197.525 158.357L197.387 159.235C197.153 159.151 196.931 159.109 196.722 159.109C196.471 159.109 196.275 159.155 196.133 159.247C195.991 159.331 195.882 159.452 195.807 159.611C195.74 159.761 195.698 159.945 195.682 160.162C195.673 160.38 195.669 160.614 195.669 160.864V161.968H197.098V162.795H195.669V167.835H194.691V162.795ZM45.271 188.435C45.0621 188.184 44.8364 188.004 44.5941 187.895C44.3517 187.778 44.0842 187.72 43.7917 187.72C43.4657 187.72 43.1774 187.778 42.9266 187.895C42.6759 188.004 42.467 188.159 42.2998 188.359C42.141 188.56 42.0198 188.794 41.9362 189.061C41.8527 189.32 41.8109 189.6 41.8109 189.901C41.8109 190.202 41.8568 190.486 41.9488 190.754C42.0491 191.013 42.1828 191.243 42.3499 191.443C42.5255 191.644 42.7344 191.803 42.9768 191.92C43.2192 192.028 43.4908 192.083 43.7917 192.083C44.4353 192.083 44.9326 191.84 45.2836 191.356L46.0107 192.045C45.7266 192.371 45.3922 192.609 45.0078 192.76C44.6233 192.91 44.2179 192.985 43.7917 192.985C43.3404 192.985 42.9266 192.91 42.5505 192.76C42.1744 192.609 41.8527 192.396 41.5852 192.12C41.3261 191.845 41.1213 191.519 40.9709 191.142C40.8288 190.766 40.7578 190.353 40.7578 189.901C40.7578 189.458 40.8288 189.049 40.9709 188.673C41.1213 188.297 41.3303 187.971 41.5977 187.695C41.8652 187.419 42.1828 187.206 42.5505 187.055C42.9266 186.897 43.3404 186.817 43.7917 186.817C44.2263 186.817 44.6358 186.892 45.0203 187.043C45.4131 187.193 45.7558 187.427 46.0483 187.745L45.271 188.435ZM46.8058 189.901C46.8058 189.442 46.8852 189.024 47.044 188.648C47.2028 188.272 47.4201 187.95 47.696 187.682C47.9718 187.406 48.3019 187.193 48.6864 187.043C49.0708 186.892 49.4887 186.817 49.9401 186.817C50.3914 186.817 50.8093 186.892 51.1938 187.043C51.5782 187.193 51.9084 187.406 52.1842 187.682C52.46 187.95 52.6773 188.272 52.8361 188.648C52.9949 189.024 53.0743 189.442 53.0743 189.901C53.0743 190.361 52.9949 190.779 52.8361 191.155C52.6773 191.531 52.46 191.857 52.1842 192.133C51.9084 192.4 51.5782 192.609 51.1938 192.76C50.8093 192.91 50.3914 192.985 49.9401 192.985C49.4887 192.985 49.0708 192.91 48.6864 192.76C48.3019 192.609 47.9718 192.4 47.696 192.133C47.4201 191.857 47.2028 191.531 47.044 191.155C46.8852 190.779 46.8058 190.361 46.8058 189.901ZM47.8589 189.901C47.8589 190.211 47.9049 190.499 47.9968 190.766C48.0971 191.025 48.2392 191.255 48.4231 191.456C48.607 191.648 48.8243 191.803 49.075 191.92C49.3341 192.028 49.6225 192.083 49.9401 192.083C50.2577 192.083 50.5418 192.028 50.7926 191.92C51.0517 191.803 51.2732 191.648 51.457 191.456C51.6409 191.255 51.7788 191.025 51.8707 190.766C51.971 190.499 52.0212 190.211 52.0212 189.901C52.0212 189.592 51.971 189.308 51.8707 189.049C51.7788 188.781 51.6409 188.552 51.457 188.359C51.2732 188.159 51.0517 188.004 50.7926 187.895C50.5418 187.778 50.2577 187.72 49.9401 187.72C49.6225 187.72 49.3341 187.778 49.075 187.895C48.8243 188.004 48.607 188.159 48.4231 188.359C48.2392 188.552 48.0971 188.781 47.9968 189.049C47.9049 189.308 47.8589 189.592 47.8589 189.901ZM54.5881 188.359C54.5881 188.092 54.5798 187.841 54.5631 187.607C54.5463 187.373 54.538 187.16 54.538 186.968H55.4657C55.4657 187.126 55.4699 187.285 55.4782 187.444C55.4866 187.603 55.4908 187.766 55.4908 187.933H55.5159C55.5827 187.791 55.6747 187.653 55.7917 187.519C55.917 187.386 56.0633 187.269 56.2305 187.168C56.3976 187.06 56.5857 186.976 56.7946 186.918C57.0036 186.851 57.2292 186.817 57.4716 186.817C57.7892 186.817 58.0525 186.859 58.2614 186.943C58.4787 187.018 58.6584 187.114 58.8005 187.231C58.9426 187.34 59.0513 187.461 59.1265 187.595C59.2101 187.72 59.2769 187.833 59.3271 187.933C59.5444 187.582 59.7951 187.31 60.0793 187.118C60.3635 186.918 60.7312 186.817 61.1825 186.817C61.6004 186.817 61.9515 186.876 62.2356 186.993C62.5198 187.101 62.7497 187.264 62.9252 187.482C63.1007 187.691 63.2261 187.95 63.3013 188.259C63.3765 188.56 63.4141 188.898 63.4141 189.274V192.835H62.4362V189.325C62.4362 189.124 62.4153 188.928 62.3735 188.735C62.3318 188.543 62.2565 188.372 62.1479 188.221C62.0392 188.071 61.893 187.95 61.7091 187.858C61.5252 187.766 61.2912 187.72 61.007 187.72C60.7981 187.72 60.6017 187.762 60.4178 187.845C60.2339 187.929 60.0709 188.046 59.9288 188.196C59.7951 188.347 59.6865 188.531 59.6029 188.748C59.5277 188.957 59.4901 189.191 59.4901 189.45V192.835H58.5122V189.513C58.5122 188.861 58.4244 188.401 58.2489 188.134C58.0734 187.858 57.785 187.72 57.3839 187.72C57.0663 187.72 56.7904 187.774 56.5564 187.883C56.3308 187.992 56.1427 188.146 55.9923 188.347C55.8502 188.547 55.7415 188.786 55.6663 189.061C55.5994 189.337 55.566 189.642 55.566 189.977V192.835H54.5881V188.359ZM65.2641 188.359C65.2641 188.092 65.2557 187.841 65.239 187.607C65.2223 187.373 65.2139 187.16 65.2139 186.968H66.1417C66.1417 187.126 66.1458 187.285 66.1542 187.444C66.1626 187.603 66.1667 187.766 66.1667 187.933H66.1918C66.2587 187.791 66.3506 187.653 66.4676 187.519C66.593 187.386 66.7393 187.269 66.9064 187.168C67.0736 187.06 67.2616 186.976 67.4706 186.918C67.6795 186.851 67.9052 186.817 68.1476 186.817C68.4652 186.817 68.7284 186.859 68.9374 186.943C69.1547 187.018 69.3344 187.114 69.4765 187.231C69.6186 187.34 69.7272 187.461 69.8024 187.595C69.886 187.72 69.9529 187.833 70.003 187.933C70.2203 187.582 70.4711 187.31 70.7552 187.118C71.0394 186.918 71.4072 186.817 71.8585 186.817C72.2764 186.817 72.6274 186.876 72.9116 186.993C73.1958 187.101 73.4256 187.264 73.6011 187.482C73.7766 187.691 73.902 187.95 73.9772 188.259C74.0525 188.56 74.0901 188.898 74.0901 189.274V192.835H73.1122V189.325C73.1122 189.124 73.0913 188.928 73.0495 188.735C73.0077 188.543 72.9325 188.372 72.8238 188.221C72.7152 188.071 72.5689 187.95 72.385 187.858C72.2012 187.766 71.9671 187.72 71.683 187.72C71.474 187.72 71.2776 187.762 71.0937 187.845C70.9099 187.929 70.7469 188.046 70.6048 188.196C70.4711 188.347 70.3624 188.531 70.2788 188.748C70.2036 188.957 70.166 189.191 70.166 189.45V192.835H69.1881V189.513C69.1881 188.861 69.1004 188.401 68.9249 188.134C68.7493 187.858 68.461 187.72 68.0598 187.72C67.7422 187.72 67.4664 187.774 67.2324 187.883C67.0067 187.992 66.8187 188.146 66.6682 188.347C66.5261 188.547 66.4175 188.786 66.3423 189.061C66.2754 189.337 66.242 189.642 66.242 189.977V192.835H65.2641V188.359ZM75.6015 189.901C75.6015 189.442 75.6809 189.024 75.8397 188.648C75.9986 188.272 76.2159 187.95 76.4917 187.682C76.7675 187.406 77.0976 187.193 77.4821 187.043C77.8665 186.892 78.2844 186.817 78.7358 186.817C79.1871 186.817 79.605 186.892 79.9895 187.043C80.3739 187.193 80.7041 187.406 80.9799 187.682C81.2557 187.95 81.473 188.272 81.6318 188.648C81.7906 189.024 81.87 189.442 81.87 189.901C81.87 190.361 81.7906 190.779 81.6318 191.155C81.473 191.531 81.2557 191.857 80.9799 192.133C80.7041 192.4 80.3739 192.609 79.9895 192.76C79.605 192.91 79.1871 192.985 78.7358 192.985C78.2844 192.985 77.8665 192.91 77.4821 192.76C77.0976 192.609 76.7675 192.4 76.4917 192.133C76.2159 191.857 75.9986 191.531 75.8397 191.155C75.6809 190.779 75.6015 190.361 75.6015 189.901ZM76.6546 189.901C76.6546 190.211 76.7006 190.499 76.7926 190.766C76.8929 191.025 77.0349 191.255 77.2188 191.456C77.4027 191.648 77.62 191.803 77.8707 191.92C78.1298 192.028 78.4182 192.083 78.7358 192.083C79.0534 192.083 79.3375 192.028 79.5883 191.92C79.8474 191.803 80.0689 191.648 80.2527 191.456C80.4366 191.255 80.5745 191.025 80.6665 190.766C80.7668 190.499 80.8169 190.211 80.8169 189.901C80.8169 189.592 80.7668 189.308 80.6665 189.049C80.5745 188.781 80.4366 188.552 80.2527 188.359C80.0689 188.159 79.8474 188.004 79.5883 187.895C79.3375 187.778 79.0534 187.72 78.7358 187.72C78.4182 187.72 78.1298 187.778 77.8707 187.895C77.62 188.004 77.4027 188.159 77.2188 188.359C77.0349 188.552 76.8929 188.781 76.7926 189.049C76.7006 189.308 76.6546 189.592 76.6546 189.901ZM83.3838 188.359C83.3838 188.092 83.3755 187.841 83.3588 187.607C83.342 187.373 83.3337 187.16 83.3337 186.968H84.2614C84.2614 187.126 84.2656 187.285 84.274 187.444C84.2823 187.603 84.2865 187.766 84.2865 187.933H84.3116C84.3784 187.791 84.4704 187.653 84.5874 187.519C84.7127 187.386 84.859 187.269 85.0262 187.168C85.1933 187.06 85.3814 186.976 85.5903 186.918C85.7993 186.851 86.0249 186.817 86.2673 186.817C86.6518 186.817 86.9819 186.876 87.2577 186.993C87.5419 187.11 87.7759 187.273 87.9598 187.482C88.1437 187.691 88.2774 187.946 88.361 188.246C88.4529 188.539 88.4989 188.861 88.4989 189.212V192.835H87.521V189.312C87.521 188.819 87.4124 188.43 87.1951 188.146C86.9777 187.862 86.6392 187.72 86.1796 187.72C85.862 187.72 85.5861 187.774 85.3521 187.883C85.1265 187.992 84.9384 188.146 84.788 188.347C84.6459 188.547 84.5372 188.786 84.462 189.061C84.3951 189.337 84.3617 189.642 84.3617 189.977V192.835H83.3838V188.359ZM93.9272 186.968H94.9051V192.835H93.9272V186.968ZM93.7015 184.673C93.7015 184.481 93.7684 184.314 93.9021 184.172C94.0442 184.03 94.2155 183.959 94.4161 183.959C94.6167 183.959 94.7839 184.03 94.9176 184.172C95.0597 184.314 95.1307 184.481 95.1307 184.673C95.1307 184.882 95.0639 185.054 94.9301 185.187C94.7964 185.321 94.6251 185.388 94.4161 185.388C94.2072 185.388 94.0358 185.321 93.9021 185.187C93.7684 185.054 93.7015 184.882 93.7015 184.673ZM96.8512 188.359C96.8512 188.092 96.8429 187.841 96.8261 187.607C96.8094 187.373 96.8011 187.16 96.8011 186.968H97.7288C97.7288 187.126 97.733 187.285 97.7413 187.444C97.7497 187.603 97.7539 187.766 97.7539 187.933H97.7789C97.8458 187.791 97.9377 187.653 98.0548 187.519C98.1801 187.386 98.3264 187.269 98.4935 187.168C98.6607 187.06 98.8488 186.976 99.0577 186.918C99.2667 186.851 99.4923 186.817 99.7347 186.817C100.119 186.817 100.449 186.876 100.725 186.993C101.009 187.11 101.243 187.273 101.427 187.482C101.611 187.691 101.745 187.946 101.828 188.246C101.92 188.539 101.966 188.861 101.966 189.212V192.835H100.988V189.312C100.988 188.819 100.88 188.43 100.662 188.146C100.445 187.862 100.107 187.72 99.6469 187.72C99.3293 187.72 99.0535 187.774 98.8195 187.883C98.5938 187.992 98.4058 188.146 98.2553 188.347C98.1133 188.547 98.0046 188.786 97.9294 189.061C97.8625 189.337 97.8291 189.642 97.8291 189.977V192.835H96.8512V188.359ZM104.319 187.795H103.04V186.968H104.319V185.651C104.319 185.292 104.352 184.966 104.419 184.673C104.486 184.373 104.599 184.113 104.758 183.896C104.925 183.679 105.142 183.512 105.41 183.395C105.677 183.269 106.007 183.207 106.4 183.207C106.525 183.207 106.659 183.219 106.801 183.244C106.943 183.269 107.06 183.307 107.152 183.357L107.014 184.235C106.78 184.151 106.559 184.109 106.35 184.109C106.099 184.109 105.903 184.155 105.761 184.247C105.619 184.331 105.51 184.452 105.435 184.611C105.368 184.761 105.326 184.945 105.309 185.162C105.301 185.38 105.297 185.614 105.297 185.864V186.968H106.726V187.795H105.297V192.835H104.319V187.795ZM107.772 188.359C107.772 188.092 107.764 187.841 107.747 187.607C107.73 187.373 107.722 187.16 107.722 186.968H108.65C108.65 187.126 108.654 187.285 108.662 187.444C108.671 187.603 108.675 187.766 108.675 187.933H108.7C108.767 187.791 108.859 187.653 108.976 187.519C109.101 187.386 109.247 187.269 109.414 187.168C109.582 187.06 109.77 186.976 109.979 186.918C110.187 186.851 110.413 186.817 110.656 186.817C110.722 186.817 110.789 186.821 110.856 186.83C110.923 186.838 110.99 186.855 111.057 186.88L110.994 187.87C110.827 187.82 110.651 187.795 110.467 187.795C109.866 187.795 109.427 187.992 109.151 188.384C108.884 188.769 108.75 189.3 108.75 189.977V192.835H107.772V188.359ZM112.104 187.72C112.405 187.411 112.76 187.185 113.17 187.043C113.588 186.892 114.01 186.817 114.436 186.817C115.305 186.817 115.932 187.022 116.317 187.432C116.701 187.841 116.893 188.464 116.893 189.3V191.819C116.893 191.987 116.902 192.162 116.918 192.346C116.935 192.522 116.956 192.685 116.981 192.835H116.041C116.007 192.701 115.987 192.555 115.978 192.396C115.978 192.229 115.978 192.083 115.978 191.957H115.953C115.761 192.258 115.502 192.505 115.176 192.697C114.858 192.889 114.474 192.985 114.022 192.985C113.722 192.985 113.437 192.948 113.17 192.873C112.911 192.797 112.681 192.689 112.48 192.547C112.288 192.396 112.134 192.212 112.017 191.995C111.9 191.778 111.841 191.527 111.841 191.243C111.841 190.758 111.966 190.378 112.217 190.102C112.468 189.826 112.777 189.621 113.145 189.488C113.521 189.354 113.922 189.27 114.348 189.237C114.783 189.203 115.18 189.187 115.539 189.187H115.916V189.011C115.916 188.585 115.786 188.263 115.527 188.046C115.276 187.829 114.921 187.72 114.461 187.72C114.144 187.72 113.83 187.774 113.521 187.883C113.22 187.983 112.953 188.142 112.719 188.359L112.104 187.72ZM114.938 190.014C114.311 190.014 113.814 190.102 113.446 190.277C113.078 190.453 112.894 190.741 112.894 191.142C112.894 191.51 113.015 191.774 113.258 191.932C113.508 192.083 113.818 192.158 114.185 192.158C114.47 192.158 114.716 192.112 114.925 192.02C115.142 191.92 115.322 191.79 115.464 191.631C115.606 191.473 115.715 191.289 115.79 191.08C115.865 190.862 115.907 190.633 115.916 190.39V190.014H114.938ZM118.806 191.293C118.998 191.535 119.207 191.728 119.433 191.87C119.667 192.012 119.959 192.083 120.31 192.083C120.461 192.083 120.611 192.066 120.762 192.033C120.921 191.999 121.063 191.945 121.188 191.87C121.313 191.794 121.414 191.702 121.489 191.594C121.564 191.477 121.602 191.339 121.602 191.18C121.602 191.021 121.564 190.892 121.489 190.791C121.422 190.691 121.33 190.608 121.213 190.541C121.096 190.465 120.962 190.407 120.812 190.365C120.661 190.323 120.507 190.286 120.348 190.252C120.072 190.194 119.809 190.127 119.558 190.052C119.307 189.977 119.086 189.88 118.894 189.763C118.71 189.638 118.559 189.479 118.442 189.287C118.334 189.095 118.279 188.848 118.279 188.547C118.279 188.263 118.342 188.012 118.467 187.795C118.593 187.578 118.76 187.398 118.969 187.256C119.178 187.114 119.412 187.005 119.671 186.93C119.93 186.855 120.198 186.817 120.473 186.817C120.891 186.817 121.276 186.901 121.627 187.068C121.986 187.235 122.266 187.507 122.467 187.883L121.652 188.422C121.526 188.213 121.359 188.046 121.15 187.92C120.95 187.787 120.703 187.72 120.411 187.72C120.277 187.72 120.139 187.737 119.997 187.77C119.863 187.803 119.742 187.854 119.633 187.92C119.525 187.987 119.433 188.075 119.358 188.184C119.291 188.284 119.257 188.401 119.257 188.535C119.257 188.66 119.295 188.769 119.37 188.861C119.454 188.944 119.562 189.02 119.696 189.086C119.838 189.153 119.997 189.212 120.173 189.262C120.356 189.312 120.544 189.354 120.737 189.387C120.996 189.437 121.242 189.504 121.476 189.588C121.71 189.663 121.915 189.768 122.091 189.901C122.266 190.035 122.404 190.202 122.504 190.403C122.605 190.603 122.655 190.85 122.655 191.142C122.655 191.477 122.588 191.761 122.454 191.995C122.32 192.229 122.141 192.421 121.915 192.572C121.698 192.714 121.447 192.818 121.163 192.885C120.887 192.952 120.603 192.985 120.31 192.985C119.809 192.985 119.374 192.91 119.007 192.76C118.647 192.601 118.321 192.313 118.029 191.895L118.806 191.293ZM127.228 187.795H125.498V190.729C125.498 190.921 125.502 191.101 125.51 191.268C125.519 191.427 125.552 191.569 125.611 191.694C125.669 191.811 125.757 191.907 125.874 191.982C125.991 192.049 126.158 192.083 126.376 192.083C126.518 192.083 126.664 192.066 126.814 192.033C126.965 191.999 127.107 191.949 127.241 191.882L127.278 192.772C127.111 192.847 126.923 192.902 126.714 192.935C126.513 192.969 126.321 192.985 126.137 192.985C125.786 192.985 125.506 192.939 125.297 192.847C125.088 192.756 124.925 192.626 124.808 192.459C124.691 192.292 124.612 192.087 124.57 191.845C124.537 191.594 124.52 191.318 124.52 191.017V187.795H123.241V186.968H124.52V185.3H125.498V186.968H127.228V187.795ZM128.426 188.359C128.426 188.092 128.418 187.841 128.401 187.607C128.384 187.373 128.376 187.16 128.376 186.968H129.304C129.304 187.126 129.308 187.285 129.316 187.444C129.325 187.603 129.329 187.766 129.329 187.933H129.354C129.421 187.791 129.513 187.653 129.63 187.519C129.755 187.386 129.901 187.269 130.068 187.168C130.236 187.06 130.424 186.976 130.633 186.918C130.842 186.851 131.067 186.817 131.31 186.817C131.376 186.817 131.443 186.821 131.51 186.83C131.577 186.838 131.644 186.855 131.711 186.88L131.648 187.87C131.481 187.82 131.305 187.795 131.122 187.795C130.52 187.795 130.081 187.992 129.805 188.384C129.538 188.769 129.404 189.3 129.404 189.977V192.835H128.426V188.359ZM137.949 191.443C137.949 191.711 137.957 191.962 137.974 192.196C137.99 192.43 137.999 192.643 137.999 192.835H137.071C137.071 192.676 137.067 192.517 137.059 192.359C137.05 192.2 137.046 192.037 137.046 191.87H137.021C136.954 192.012 136.858 192.15 136.733 192.283C136.616 192.417 136.473 192.538 136.306 192.647C136.139 192.747 135.951 192.827 135.742 192.885C135.533 192.952 135.308 192.985 135.065 192.985C134.681 192.985 134.346 192.927 134.062 192.81C133.786 192.693 133.557 192.53 133.373 192.321C133.189 192.112 133.051 191.861 132.959 191.569C132.875 191.268 132.834 190.942 132.834 190.591V186.968H133.811V190.491C133.811 190.984 133.92 191.372 134.137 191.656C134.355 191.941 134.693 192.083 135.153 192.083C135.471 192.083 135.742 192.028 135.968 191.92C136.202 191.811 136.39 191.656 136.532 191.456C136.682 191.255 136.791 191.017 136.858 190.741C136.933 190.465 136.971 190.16 136.971 189.826V186.968H137.949V191.443ZM143.975 188.435C143.766 188.184 143.54 188.004 143.298 187.895C143.055 187.778 142.788 187.72 142.495 187.72C142.169 187.72 141.881 187.778 141.63 187.895C141.38 188.004 141.171 188.159 141.003 188.359C140.845 188.56 140.723 188.794 140.64 189.061C140.556 189.32 140.515 189.6 140.515 189.901C140.515 190.202 140.56 190.486 140.652 190.754C140.753 191.013 140.886 191.243 141.054 191.443C141.229 191.644 141.438 191.803 141.68 191.92C141.923 192.028 142.194 192.083 142.495 192.083C143.139 192.083 143.636 191.84 143.987 191.356L144.714 192.045C144.43 192.371 144.096 192.609 143.711 192.76C143.327 192.91 142.922 192.985 142.495 192.985C142.044 192.985 141.63 192.91 141.254 192.76C140.878 192.609 140.556 192.396 140.289 192.12C140.03 191.845 139.825 191.519 139.675 191.142C139.532 190.766 139.461 190.353 139.461 189.901C139.461 189.458 139.532 189.049 139.675 188.673C139.825 188.297 140.034 187.971 140.301 187.695C140.569 187.419 140.886 187.206 141.254 187.055C141.63 186.897 142.044 186.817 142.495 186.817C142.93 186.817 143.34 186.892 143.724 187.043C144.117 187.193 144.459 187.427 144.752 187.745L143.975 188.435ZM149.057 187.795H147.327V190.729C147.327 190.921 147.332 191.101 147.34 191.268C147.348 191.427 147.382 191.569 147.44 191.694C147.499 191.811 147.586 191.907 147.703 191.982C147.82 192.049 147.988 192.083 148.205 192.083C148.347 192.083 148.493 192.066 148.644 192.033C148.794 191.999 148.936 191.949 149.07 191.882L149.108 192.772C148.94 192.847 148.752 192.902 148.543 192.935C148.343 192.969 148.151 192.985 147.967 192.985C147.616 192.985 147.336 192.939 147.127 192.847C146.918 192.756 146.755 192.626 146.638 192.459C146.521 192.292 146.441 192.087 146.4 191.845C146.366 191.594 146.349 191.318 146.349 191.017V187.795H145.071V186.968H146.349V185.3H147.327V186.968H149.057V187.795ZM155.371 191.443C155.371 191.711 155.379 191.962 155.396 192.196C155.412 192.43 155.421 192.643 155.421 192.835H154.493C154.493 192.676 154.489 192.517 154.48 192.359C154.472 192.2 154.468 192.037 154.468 191.87H154.443C154.376 192.012 154.28 192.15 154.154 192.283C154.037 192.417 153.895 192.538 153.728 192.647C153.561 192.747 153.373 192.827 153.164 192.885C152.955 192.952 152.729 192.985 152.487 192.985C152.103 192.985 151.768 192.927 151.484 192.81C151.208 192.693 150.978 192.53 150.795 192.321C150.611 192.112 150.473 191.861 150.381 191.569C150.297 191.268 150.255 190.942 150.255 190.591V186.968H151.233V190.491C151.233 190.984 151.342 191.372 151.559 191.656C151.777 191.941 152.115 192.083 152.575 192.083C152.892 192.083 153.164 192.028 153.39 191.92C153.624 191.811 153.812 191.656 153.954 191.456C154.104 191.255 154.213 191.017 154.28 190.741C154.355 190.465 154.393 190.16 154.393 189.826V186.968H155.371V191.443ZM157.222 188.359C157.222 188.092 157.213 187.841 157.197 187.607C157.18 187.373 157.172 187.16 157.172 186.968H158.099C158.099 187.126 158.104 187.285 158.112 187.444C158.12 187.603 158.124 187.766 158.124 187.933H158.15C158.216 187.791 158.308 187.653 158.425 187.519C158.551 187.386 158.697 187.269 158.864 187.168C159.031 187.06 159.219 186.976 159.428 186.918C159.637 186.851 159.863 186.817 160.105 186.817C160.172 186.817 160.239 186.821 160.306 186.83C160.373 186.838 160.44 186.855 160.506 186.88L160.444 187.87C160.277 187.82 160.101 187.795 159.917 187.795C159.315 187.795 158.877 187.992 158.601 188.384C158.333 188.769 158.2 189.3 158.2 189.977V192.835H157.222V188.359ZM166.649 191.769C166.298 192.221 165.914 192.538 165.496 192.722C165.078 192.898 164.593 192.985 164.042 192.985C163.582 192.985 163.168 192.906 162.801 192.747C162.433 192.58 162.119 192.359 161.86 192.083C161.61 191.807 161.413 191.481 161.271 191.105C161.137 190.729 161.07 190.328 161.07 189.901C161.07 189.45 161.146 189.036 161.296 188.66C161.447 188.276 161.655 187.95 161.923 187.682C162.19 187.406 162.508 187.193 162.876 187.043C163.243 186.892 163.645 186.817 164.079 186.817C164.489 186.817 164.865 186.888 165.208 187.03C165.55 187.164 165.843 187.365 166.085 187.632C166.336 187.891 166.528 188.213 166.662 188.597C166.796 188.974 166.862 189.404 166.862 189.889V190.202H162.124C162.14 190.453 162.199 190.695 162.299 190.929C162.408 191.155 162.546 191.356 162.713 191.531C162.88 191.698 163.076 191.832 163.302 191.932C163.528 192.033 163.774 192.083 164.042 192.083C164.468 192.083 164.827 192.008 165.12 191.857C165.412 191.707 165.676 191.485 165.91 191.193L166.649 191.769ZM165.809 189.375C165.793 188.873 165.63 188.472 165.32 188.171C165.011 187.87 164.585 187.72 164.042 187.72C163.498 187.72 163.06 187.87 162.725 188.171C162.391 188.472 162.19 188.873 162.124 189.375H165.809ZM168.501 191.293C168.693 191.535 168.902 191.728 169.127 191.87C169.361 192.012 169.654 192.083 170.005 192.083C170.155 192.083 170.306 192.066 170.456 192.033C170.615 191.999 170.757 191.945 170.883 191.87C171.008 191.794 171.108 191.702 171.184 191.594C171.259 191.477 171.296 191.339 171.296 191.18C171.296 191.021 171.259 190.892 171.184 190.791C171.117 190.691 171.025 190.608 170.908 190.541C170.791 190.465 170.657 190.407 170.507 190.365C170.356 190.323 170.201 190.286 170.043 190.252C169.767 190.194 169.504 190.127 169.253 190.052C169.002 189.977 168.781 189.88 168.588 189.763C168.404 189.638 168.254 189.479 168.137 189.287C168.028 189.095 167.974 188.848 167.974 188.547C167.974 188.263 168.037 188.012 168.162 187.795C168.287 187.578 168.455 187.398 168.664 187.256C168.873 187.114 169.107 187.005 169.366 186.93C169.625 186.855 169.892 186.817 170.168 186.817C170.586 186.817 170.97 186.901 171.321 187.068C171.681 187.235 171.961 187.507 172.161 187.883L171.346 188.422C171.221 188.213 171.054 188.046 170.845 187.92C170.644 187.787 170.398 187.72 170.105 187.72C169.972 187.72 169.834 187.737 169.692 187.77C169.558 187.803 169.437 187.854 169.328 187.92C169.219 187.987 169.127 188.075 169.052 188.184C168.985 188.284 168.952 188.401 168.952 188.535C168.952 188.66 168.99 188.769 169.065 188.861C169.148 188.944 169.257 189.02 169.391 189.086C169.533 189.153 169.692 189.212 169.867 189.262C170.051 189.312 170.239 189.354 170.431 189.387C170.69 189.437 170.937 189.504 171.171 189.588C171.405 189.663 171.61 189.768 171.785 189.901C171.961 190.035 172.099 190.202 172.199 190.403C172.299 190.603 172.349 190.85 172.349 191.142C172.349 191.477 172.283 191.761 172.149 191.995C172.015 192.229 171.835 192.421 171.61 192.572C171.392 192.714 171.142 192.818 170.858 192.885C170.582 192.952 170.298 192.985 170.005 192.985C169.504 192.985 169.069 192.91 168.701 192.76C168.342 192.601 168.016 192.313 167.723 191.895L168.501 191.293ZM174.528 191.406C174.737 191.406 174.913 191.481 175.055 191.631C175.205 191.774 175.28 191.949 175.28 192.158C175.28 192.367 175.201 192.547 175.042 192.697C174.892 192.839 174.72 192.91 174.528 192.91C174.336 192.91 174.16 192.839 174.002 192.697C173.851 192.547 173.776 192.367 173.776 192.158C173.776 191.949 173.847 191.774 173.989 191.631C174.139 191.481 174.319 191.406 174.528 191.406Z" fill="black"/>
</svg>
