<svg width="217" height="202" viewBox="0 0 217 202" fill="none" xmlns="http://www.w3.org/2000/svg">
<path d="M18.1433 88.4189H20.5462V103.045H18.1433V96.7141H11.8749V103.045H9.47198V88.4189H11.8749V94.4157H18.1433V88.4189ZM25.4549 90.6129C25.1763 90.8915 24.842 91.0308 24.4519 91.0308C24.0619 91.0308 23.7206 90.8915 23.4281 90.6129C23.1495 90.3203 23.0102 89.979 23.0102 89.589C23.0102 89.199 23.1495 88.8647 23.4281 88.5861C23.7067 88.2935 24.048 88.1473 24.4519 88.1473C24.8559 88.1473 25.1972 88.2935 25.4758 88.5861C25.7544 88.8647 25.8937 89.199 25.8937 89.589C25.8937 89.979 25.7474 90.3203 25.4549 90.6129ZM23.3236 103.045V92.5979H25.5803V103.045H23.3236ZM36.5166 92.5979H38.7315V102.565C38.7315 104.153 38.2091 105.372 37.1643 106.221C36.1196 107.071 34.852 107.496 33.3615 107.496C30.9516 107.496 29.3009 106.653 28.4094 104.968L30.3526 103.839C30.8959 104.912 31.9128 105.448 33.4033 105.448C34.3784 105.448 35.1375 105.19 35.6808 104.675C36.238 104.174 36.5166 103.47 36.5166 102.565V101.29C35.6669 102.502 34.455 103.108 32.8809 103.108C31.4043 103.108 30.1576 102.586 29.1407 101.541C28.1238 100.482 27.6154 99.2076 27.6154 97.7171C27.6154 96.2266 28.1238 94.959 29.1407 93.9142C30.1576 92.8556 31.4043 92.3262 32.8809 92.3262C34.455 92.3262 35.6669 92.9322 36.5166 94.1441V92.5979ZM30.8123 100.057C31.4531 100.684 32.2471 100.998 33.1943 100.998C34.1416 100.998 34.9286 100.684 35.5554 100.057C36.1962 99.4305 36.5166 98.6504 36.5166 97.7171C36.5166 96.7838 36.1962 96.0037 35.5554 95.3769C34.9286 94.75 34.1416 94.4366 33.1943 94.4366C32.2471 94.4366 31.4531 94.75 30.8123 95.3769C30.1855 96.0037 29.872 96.7838 29.872 97.7171C29.872 98.6504 30.1855 99.4305 30.8123 100.057ZM46.8571 92.3262C48.0551 92.3262 49.0232 92.7093 49.7615 93.4754C50.4998 94.2416 50.8689 95.2933 50.8689 96.6306V103.045H48.6123V96.8604C48.6123 96.0803 48.4033 95.4814 47.9854 95.0635C47.5675 94.6456 46.9964 94.4366 46.272 94.4366C45.478 94.4366 44.8373 94.6873 44.3497 95.1888C43.8622 95.6764 43.6184 96.4286 43.6184 97.4455V103.045H41.3618V88.4189H43.6184V93.9351C44.301 92.8625 45.3805 92.3262 46.8571 92.3262ZM53.445 97.7798V95.6067H61.1761V97.7798H53.445ZM68.7609 103.317C67.354 103.317 66.156 102.997 65.167 102.356C64.1919 101.715 63.5094 100.837 63.1193 99.723L65.1879 98.5111C65.773 100.155 66.9849 100.977 68.8236 100.977C69.7291 100.977 70.4047 100.803 70.8504 100.454C71.3101 100.092 71.54 99.6255 71.54 99.0544C71.54 98.4554 71.2962 98.0027 70.8086 97.6962C70.3211 97.3758 69.4574 97.0276 68.2177 96.6515C67.5212 96.4425 66.957 96.2475 66.5252 96.0664C66.0934 95.8853 65.6337 95.6346 65.1461 95.3142C64.6725 94.9799 64.3173 94.5689 64.0805 94.0814C63.8437 93.5939 63.7253 93.0227 63.7253 92.368C63.7253 91.0725 64.185 90.0487 65.1043 89.2965C66.0237 88.5303 67.1311 88.1473 68.4266 88.1473C69.5967 88.1473 70.6206 88.4328 71.4982 89.004C72.3757 89.5751 73.0513 90.3621 73.525 91.3651L71.4982 92.5352C70.8852 91.1701 69.8614 90.4875 68.4266 90.4875C67.7301 90.4875 67.1729 90.6546 66.755 90.989C66.3371 91.3093 66.1282 91.7481 66.1282 92.3053C66.1282 92.8486 66.3371 93.2804 66.755 93.6008C67.1869 93.9073 67.96 94.2346 69.0744 94.5829C69.6316 94.764 70.0355 94.9033 70.2863 95.0008C70.5509 95.0844 70.9131 95.2237 71.3728 95.4187C71.8464 95.6137 72.2016 95.8087 72.4384 96.0037C72.6752 96.1987 72.926 96.4425 73.1906 96.735C73.4692 97.0276 73.6643 97.3619 73.7757 97.738C73.8871 98.1141 73.9429 98.539 73.9429 99.0126C73.9429 100.336 73.4623 101.388 72.5011 102.168C71.5539 102.934 70.3072 103.317 68.7609 103.317ZM81.8005 92.3262C83.2352 92.3262 84.4611 92.8625 85.478 93.9351C86.4948 94.9938 87.0033 96.2893 87.0033 97.8216C87.0033 99.3678 86.4948 100.67 85.478 101.729C84.4611 102.788 83.2352 103.317 81.8005 103.317C80.2125 103.317 78.9936 102.732 78.1439 101.562V107.224H75.8872V92.5979H78.1439V94.1023C78.9936 92.9183 80.2125 92.3262 81.8005 92.3262ZM79.0841 100.224C79.711 100.851 80.498 101.165 81.4453 101.165C82.3925 101.165 83.1795 100.851 83.8064 100.224C84.4332 99.5837 84.7466 98.7827 84.7466 97.8216C84.7466 96.8604 84.4332 96.0664 83.8064 95.4396C83.1795 94.7988 82.3925 94.4784 81.4453 94.4784C80.498 94.4784 79.711 94.7988 79.0841 95.4396C78.4573 96.0664 78.1439 96.8604 78.1439 97.8216C78.1439 98.7827 78.4573 99.5837 79.0841 100.224ZM90.8246 98.7827C90.9918 99.5767 91.3748 100.19 91.9738 100.621C92.5728 101.039 93.3041 101.248 94.1678 101.248C95.3657 101.248 96.2642 100.817 96.8632 99.9529L98.7228 101.039C97.692 102.558 96.1667 103.317 94.1469 103.317C92.4474 103.317 91.0753 102.802 90.0306 101.771C88.9858 100.726 88.4635 99.4096 88.4635 97.8216C88.4635 96.2614 88.9789 94.959 90.0097 93.9142C91.0405 92.8556 92.3638 92.3262 93.9797 92.3262C95.512 92.3262 96.7657 92.8625 97.7408 93.9351C98.7298 95.0077 99.2243 96.3102 99.2243 97.8425C99.2243 98.0793 99.1965 98.3927 99.1407 98.7827H90.8246ZM90.8037 96.944H96.9468C96.7936 96.0943 96.4383 95.4535 95.8811 95.0217C95.3379 94.5898 94.6971 94.3739 93.9588 94.3739C93.123 94.3739 92.4265 94.6038 91.8693 95.0635C91.3121 95.5231 90.9569 96.15 90.8037 96.944ZM102.925 98.7827C103.092 99.5767 103.475 100.19 104.074 100.621C104.673 101.039 105.404 101.248 106.268 101.248C107.466 101.248 108.364 100.817 108.963 99.9529L110.823 101.039C109.792 102.558 108.267 103.317 106.247 103.317C104.548 103.317 103.176 102.802 102.131 101.771C101.086 100.726 100.564 99.4096 100.564 97.8216C100.564 96.2614 101.079 94.959 102.11 93.9142C103.141 92.8556 104.464 92.3262 106.08 92.3262C107.612 92.3262 108.866 92.8625 109.841 93.9351C110.83 95.0077 111.325 96.3102 111.325 97.8425C111.325 98.0793 111.297 98.3927 111.241 98.7827H102.925ZM102.904 96.944H109.047C108.894 96.0943 108.539 95.4535 107.981 95.0217C107.438 94.5898 106.797 94.3739 106.059 94.3739C105.223 94.3739 104.527 94.6038 103.97 95.0635C103.412 95.5231 103.057 96.15 102.904 96.944ZM121.523 88.4189H123.78V103.045H121.523V101.541C120.674 102.725 119.455 103.317 117.867 103.317C116.432 103.317 115.206 102.788 114.189 101.729C113.172 100.656 112.664 99.3539 112.664 97.8216C112.664 96.2754 113.172 94.9729 114.189 93.9142C115.206 92.8556 116.432 92.3262 117.867 92.3262C119.455 92.3262 120.674 92.9113 121.523 94.0814V88.4189ZM115.861 100.224C116.488 100.851 117.275 101.165 118.222 101.165C119.169 101.165 119.956 100.851 120.583 100.224C121.21 99.5837 121.523 98.7827 121.523 97.8216C121.523 96.8604 121.21 96.0664 120.583 95.4396C119.956 94.7988 119.169 94.4784 118.222 94.4784C117.275 94.4784 116.488 94.7988 115.861 95.4396C115.234 96.0664 114.921 96.8604 114.921 97.8216C114.921 98.7827 115.234 99.5837 115.861 100.224ZM134.873 103.045L130.736 88.4189H133.264L136.335 99.8484L139.658 88.4189H141.873L145.174 99.8484L148.245 88.4189H150.774L146.637 103.045H143.858L140.765 92.368L137.652 103.045H134.873ZM154.232 90.6129C153.953 90.8915 153.619 91.0308 153.229 91.0308C152.839 91.0308 152.497 90.8915 152.205 90.6129C151.926 90.3203 151.787 89.979 151.787 89.589C151.787 89.199 151.926 88.8647 152.205 88.5861C152.483 88.2935 152.825 88.1473 153.229 88.1473C153.633 88.1473 153.974 88.2935 154.253 88.5861C154.531 88.8647 154.67 89.199 154.67 89.589C154.67 89.979 154.524 90.3203 154.232 90.6129ZM152.1 103.045V92.5979H154.357V103.045H152.1ZM159.234 94.353C159.805 93.0576 160.878 92.4098 162.452 92.4098V94.8545C161.588 94.7988 160.836 95.0077 160.195 95.4814C159.554 95.941 159.234 96.7072 159.234 97.7798V103.045H156.977V92.5979H159.234V94.353ZM165.405 98.7827C165.572 99.5767 165.956 100.19 166.555 100.621C167.154 101.039 167.885 101.248 168.748 101.248C169.946 101.248 170.845 100.817 171.444 99.9529L173.304 101.039C172.273 102.558 170.747 103.317 168.728 103.317C167.028 103.317 165.656 102.802 164.611 101.771C163.567 100.726 163.044 99.4096 163.044 97.8216C163.044 96.2614 163.56 94.959 164.59 93.9142C165.621 92.8556 166.945 92.3262 168.56 92.3262C170.093 92.3262 171.346 92.8625 172.322 93.9351C173.311 95.0077 173.805 96.3102 173.805 97.8425C173.805 98.0793 173.777 98.3927 173.721 98.7827H165.405ZM165.384 96.944H171.528C171.374 96.0943 171.019 95.4535 170.462 95.0217C169.919 94.5898 169.278 94.3739 168.54 94.3739C167.704 94.3739 167.007 94.6038 166.45 95.0635C165.893 95.5231 165.538 96.15 165.384 96.944ZM175.791 103.045V87.7921H178.047V103.045H175.791ZM182.444 98.7827C182.611 99.5767 182.994 100.19 183.593 100.621C184.192 101.039 184.923 101.248 185.787 101.248C186.985 101.248 187.883 100.817 188.482 99.9529L190.342 101.039C189.311 102.558 187.786 103.317 185.766 103.317C184.066 103.317 182.694 102.802 181.65 101.771C180.605 100.726 180.082 99.4096 180.082 97.8216C180.082 96.2614 180.598 94.959 181.629 93.9142C182.66 92.8556 183.983 92.3262 185.599 92.3262C187.131 92.3262 188.385 92.8625 189.36 93.9351C190.349 95.0077 190.843 96.3102 190.843 97.8425C190.843 98.0793 190.815 98.3927 190.76 98.7827H182.444ZM182.423 96.944H188.566C188.413 96.0943 188.057 95.4535 187.5 95.0217C186.957 94.5898 186.316 94.3739 185.578 94.3739C184.742 94.3739 184.046 94.6038 183.488 95.0635C182.931 95.5231 182.576 96.15 182.423 96.944ZM194.448 95.4814C194.448 95.8296 194.636 96.1082 195.012 96.3171C195.402 96.5122 195.869 96.6863 196.412 96.8395C196.969 96.9788 197.526 97.146 198.083 97.341C198.641 97.536 199.107 97.8703 199.483 98.3439C199.873 98.8036 200.068 99.3887 200.068 100.099C200.068 101.102 199.678 101.889 198.898 102.46C198.132 103.031 197.164 103.317 195.994 103.317C194.963 103.317 194.079 103.101 193.34 102.669C192.602 102.237 192.066 101.638 191.731 100.872L193.675 99.7439C194.037 100.747 194.81 101.248 195.994 101.248C197.178 101.248 197.77 100.858 197.77 100.078C197.77 99.7439 197.575 99.4723 197.185 99.2633C196.809 99.0544 196.342 98.8802 195.785 98.7409C195.242 98.5877 194.691 98.4136 194.134 98.2186C193.577 98.0236 193.103 97.7032 192.713 97.2574C192.337 96.7977 192.149 96.2196 192.149 95.5231C192.149 94.562 192.511 93.7889 193.236 93.2038C193.974 92.6188 194.886 92.3262 195.973 92.3262C196.837 92.3262 197.603 92.5213 198.271 92.9113C198.954 93.2874 199.476 93.8167 199.839 94.4993L197.937 95.5649C197.575 94.7709 196.92 94.3739 195.973 94.3739C195.541 94.3739 195.179 94.4714 194.886 94.6665C194.594 94.8475 194.448 95.1192 194.448 95.4814ZM203.446 95.4814C203.446 95.8296 203.634 96.1082 204.011 96.3171C204.401 96.5122 204.867 96.6863 205.41 96.8395C205.968 96.9788 206.525 97.146 207.082 97.341C207.639 97.536 208.106 97.8703 208.482 98.3439C208.872 98.8036 209.067 99.3887 209.067 100.099C209.067 101.102 208.677 101.889 207.897 102.46C207.131 103.031 206.163 103.317 204.993 103.317C203.962 103.317 203.077 103.101 202.339 102.669C201.601 102.237 201.064 101.638 200.73 100.872L202.673 99.7439C203.035 100.747 203.809 101.248 204.993 101.248C206.177 101.248 206.769 100.858 206.769 100.078C206.769 99.7439 206.574 99.4723 206.184 99.2633C205.807 99.0544 205.341 98.8802 204.784 98.7409C204.24 98.5877 203.69 98.4136 203.133 98.2186C202.576 98.0236 202.102 97.7032 201.712 97.2574C201.336 96.7977 201.148 96.2196 201.148 95.5231C201.148 94.562 201.51 93.7889 202.234 93.2038C202.973 92.6188 203.885 92.3262 204.972 92.3262C205.835 92.3262 206.601 92.5213 207.27 92.9113C207.953 93.2874 208.475 93.8167 208.837 94.4993L206.936 95.5649C206.574 94.7709 205.919 94.3739 204.972 94.3739C204.54 94.3739 204.178 94.4714 203.885 94.6665C203.593 94.8475 203.446 95.1192 203.446 95.4814Z" fill="black"/>
<path d="M108.125 52.703C110.386 52.703 112.219 50.8698 112.219 48.6085C112.219 46.3471 110.386 44.5139 108.125 44.5139C105.863 44.5139 104.03 46.3471 104.03 48.6085C104.03 50.8698 105.863 52.703 108.125 52.703Z" fill="#FD5B2F"/>
<path d="M139.346 14.0356C131.19 5.28522 120.147 0.466005 108.248 0.465881C96.3498 0.466005 85.306 5.28522 77.1501 14.0356C76.2158 15.0382 76.2711 16.6085 77.2736 17.5429C78.2763 18.4773 79.8465 18.4222 80.7809 17.4195C87.9874 9.68741 97.742 5.42915 108.249 5.42903C118.754 5.42915 128.509 9.68741 135.715 17.4195C136.204 17.9438 136.867 18.2091 137.531 18.2091C138.137 18.2091 138.745 17.9885 139.223 17.5429C140.225 16.6084 140.281 15.0382 139.346 14.0356Z" fill="#FD5B2F"/>
<path d="M130.235 24.2838C124.207 18.2097 116.398 14.8646 108.249 14.8649C100.098 14.865 92.2894 18.2102 86.2626 24.2841C85.2973 25.257 85.3034 26.8282 86.2763 27.7935C87.2492 28.7588 88.8204 28.7527 89.7857 27.7798C94.8736 22.6522 101.431 19.8281 108.249 19.828C115.066 19.8278 121.623 22.6519 126.712 27.7801C127.198 28.2688 127.836 28.5135 128.474 28.5135C129.106 28.5135 129.738 28.2736 130.222 27.7932C131.195 26.8278 131.201 25.2566 130.235 24.2838Z" fill="#FD5B2F"/>
<path d="M120.303 34.5618C117.075 31.3632 112.447 29.3763 108.226 29.3763C108.225 29.3763 108.224 29.3763 108.224 29.3763H108.045C108.044 29.3763 108.044 29.3763 108.043 29.3763C103.822 29.3763 99.1934 31.3633 95.965 34.5618C94.9915 35.5264 94.9842 37.0976 95.9488 38.0712C96.4341 38.561 97.0728 38.8063 97.7117 38.8063C98.3429 38.8063 98.9743 38.5669 99.4581 38.0876C101.756 35.8105 105.126 34.3394 108.043 34.3394C108.044 34.3394 108.044 34.3394 108.045 34.3394H108.224C108.225 34.3394 108.225 34.3394 108.225 34.3394C111.142 34.3394 114.512 35.8106 116.81 38.0876C117.784 39.0521 119.355 39.0451 120.32 38.0712C121.284 37.0977 121.277 35.5264 120.303 34.5618Z" fill="#FD5B2F"/>
<path d="M39.8631 133.959H40.8535L44.6271 142.835H43.3985L42.4958 140.654H38.0578L37.1426 142.835H35.9516L39.8631 133.959ZM40.3395 135.313H40.3144L38.4715 139.676H42.0946L40.3395 135.313ZM45.7191 133.357H46.697V142.835H45.7191V133.357ZM48.7431 133.357H49.721V142.835H48.7431V133.357ZM51.3287 139.901C51.3287 139.442 51.4081 139.024 51.5669 138.648C51.7257 138.272 51.943 137.95 52.2188 137.682C52.4946 137.406 52.8247 137.193 53.2092 137.043C53.5937 136.892 54.0116 136.817 54.4629 136.817C54.9142 136.817 55.3321 136.892 55.7166 137.043C56.1011 137.193 56.4312 137.406 56.707 137.682C56.9828 137.95 57.2001 138.272 57.3589 138.648C57.5177 139.024 57.5971 139.442 57.5971 139.901C57.5971 140.361 57.5177 140.779 57.3589 141.155C57.2001 141.531 56.9828 141.857 56.707 142.133C56.4312 142.4 56.1011 142.609 55.7166 142.76C55.3321 142.91 54.9142 142.985 54.4629 142.985C54.0116 142.985 53.5937 142.91 53.2092 142.76C52.8247 142.609 52.4946 142.4 52.2188 142.133C51.943 141.857 51.7257 141.531 51.5669 141.155C51.4081 140.779 51.3287 140.361 51.3287 139.901ZM52.3818 139.901C52.3818 140.211 52.4277 140.499 52.5197 140.766C52.62 141.025 52.7621 141.255 52.9459 141.456C53.1298 141.648 53.3471 141.803 53.5978 141.92C53.8569 142.028 54.1453 142.083 54.4629 142.083C54.7805 142.083 55.0647 142.028 55.3154 141.92C55.5745 141.803 55.796 141.648 55.9799 141.456C56.1637 141.255 56.3016 141.025 56.3936 140.766C56.4939 140.499 56.544 140.211 56.544 139.901C56.544 139.592 56.4939 139.308 56.3936 139.049C56.3016 138.781 56.1637 138.552 55.9799 138.359C55.796 138.159 55.5745 138.004 55.3154 137.895C55.0647 137.778 54.7805 137.72 54.4629 137.72C54.1453 137.72 53.8569 137.778 53.5978 137.895C53.3471 138.004 53.1298 138.159 52.9459 138.359C52.7621 138.552 52.62 138.781 52.5197 139.049C52.4277 139.308 52.3818 139.592 52.3818 139.901ZM65.4045 142.835H64.4391L62.7717 138.322H62.7467L61.2673 142.835H60.2643L58.3587 136.968H59.4369L60.7784 141.481H60.8034L62.3204 136.968H63.3484L64.8905 141.481H64.9155L66.2445 136.968H67.2976L65.4045 142.835ZM68.4912 136.968H69.4691V142.835H68.4912V136.968ZM68.2655 134.673C68.2655 134.481 68.3324 134.314 68.4661 134.172C68.6082 134.03 68.7796 133.959 68.9801 133.959C69.1807 133.959 69.3479 134.03 69.4816 134.172C69.6237 134.314 69.6947 134.481 69.6947 134.673C69.6947 134.882 69.6279 135.054 69.4942 135.187C69.3604 135.321 69.1891 135.388 68.9801 135.388C68.7712 135.388 68.5999 135.321 68.4661 135.187C68.3324 135.054 68.2655 134.882 68.2655 134.673ZM71.4152 138.359C71.4152 138.092 71.4069 137.841 71.3902 137.607C71.3735 137.373 71.3651 137.16 71.3651 136.968H72.2928C72.2928 137.126 72.297 137.285 72.3054 137.444C72.3137 137.603 72.3179 137.766 72.3179 137.933H72.343C72.4098 137.791 72.5018 137.653 72.6188 137.519C72.7442 137.386 72.8904 137.269 73.0576 137.168C73.2247 137.06 73.4128 136.976 73.6217 136.918C73.8307 136.851 74.0564 136.817 74.2987 136.817C74.6832 136.817 75.0133 136.876 75.2891 136.993C75.5733 137.11 75.8073 137.273 75.9912 137.482C76.1751 137.691 76.3088 137.946 76.3924 138.246C76.4843 138.539 76.5303 138.861 76.5303 139.212V142.835H75.5524V139.312C75.5524 138.819 75.4438 138.43 75.2265 138.146C75.0092 137.862 74.6707 137.72 74.211 137.72C73.8934 137.72 73.6176 137.774 73.3835 137.883C73.1579 137.992 72.9698 138.146 72.8194 138.347C72.6773 138.547 72.5686 138.786 72.4934 139.061C72.4266 139.337 72.3931 139.642 72.3931 139.977V142.835H71.4152V138.359ZM84.2363 142.572C84.2363 143.642 83.9605 144.452 83.4089 145.004C82.8656 145.564 82.0758 145.844 81.0394 145.844C80.4627 145.844 79.9403 145.76 79.4723 145.593C79.0126 145.426 78.5738 145.138 78.1559 144.728L78.858 143.926C79.1672 144.26 79.4932 144.511 79.8358 144.678C80.1869 144.853 80.588 144.941 81.0394 144.941C81.474 144.941 81.8334 144.874 82.1175 144.741C82.4101 144.615 82.6399 144.44 82.8071 144.214C82.9742 143.997 83.0912 143.746 83.1581 143.462C83.225 143.178 83.2584 142.881 83.2584 142.572V141.819H83.2333C82.9993 142.196 82.6942 142.471 82.3181 142.647C81.942 142.822 81.5576 142.91 81.1647 142.91C80.7051 142.91 80.283 142.835 79.8985 142.685C79.5141 142.534 79.1839 142.325 78.9081 142.058C78.6323 141.79 78.4192 141.473 78.2687 141.105C78.1183 140.737 78.0431 140.336 78.0431 139.901C78.0431 139.425 78.1183 138.994 78.2687 138.61C78.4192 138.226 78.6281 137.904 78.8956 137.645C79.1714 137.377 79.5015 137.172 79.886 137.03C80.2704 136.888 80.6967 136.817 81.1647 136.817C81.3653 136.817 81.5659 136.842 81.7665 136.892C81.9671 136.934 82.1593 137.005 82.3432 137.106C82.5354 137.198 82.7068 137.319 82.8572 137.469C83.0077 137.611 83.133 137.778 83.2333 137.971H83.2584V136.968H84.2363V142.572ZM79.0962 139.901C79.0962 140.202 79.1505 140.482 79.2591 140.741C79.3678 140.992 79.5141 141.214 79.6979 141.406C79.8902 141.59 80.1116 141.736 80.3624 141.845C80.6131 141.953 80.8806 142.008 81.1647 142.008C81.4991 142.008 81.7958 141.949 82.0549 141.832C82.314 141.715 82.5313 141.56 82.7068 141.368C82.8907 141.168 83.0286 140.942 83.1205 140.691C83.2124 140.432 83.2584 140.16 83.2584 139.876C83.2584 139.559 83.2083 139.27 83.108 139.011C83.0077 138.744 82.8656 138.514 82.6817 138.322C82.4978 138.129 82.2763 137.983 82.0173 137.883C81.7582 137.774 81.474 137.72 81.1647 137.72C80.8555 137.72 80.5713 137.778 80.3122 137.895C80.0615 138.004 79.8442 138.159 79.6603 138.359C79.4848 138.552 79.3469 138.781 79.2466 139.049C79.1463 139.308 79.0962 139.592 79.0962 139.901ZM93.7098 138.435C93.5008 138.184 93.2752 138.004 93.0328 137.895C92.7904 137.778 92.523 137.72 92.2304 137.72C91.9045 137.72 91.6161 137.778 91.3654 137.895C91.1146 138.004 90.9057 138.159 90.7385 138.359C90.5797 138.56 90.4585 138.794 90.375 139.061C90.2914 139.32 90.2496 139.6 90.2496 139.901C90.2496 140.202 90.2956 140.486 90.3875 140.754C90.4878 141.013 90.6215 141.243 90.7887 141.443C90.9642 141.644 91.1731 141.803 91.4155 141.92C91.6579 142.028 91.9295 142.083 92.2304 142.083C92.874 142.083 93.3713 141.84 93.7223 141.356L94.4495 142.045C94.1653 142.371 93.831 142.609 93.4465 142.76C93.062 142.91 92.6567 142.985 92.2304 142.985C91.7791 142.985 91.3654 142.91 90.9893 142.76C90.6132 142.609 90.2914 142.396 90.0239 142.12C89.7648 141.845 89.5601 141.519 89.4096 141.142C89.2675 140.766 89.1965 140.353 89.1965 139.901C89.1965 139.458 89.2675 139.049 89.4096 138.673C89.5601 138.297 89.769 137.971 90.0365 137.695C90.3039 137.419 90.6215 137.206 90.9893 137.055C91.3654 136.897 91.7791 136.817 92.2304 136.817C92.665 136.817 93.0746 136.892 93.459 137.043C93.8519 137.193 94.1945 137.427 94.4871 137.745L93.7098 138.435ZM95.2446 139.901C95.2446 139.442 95.324 139.024 95.4828 138.648C95.6416 138.272 95.8589 137.95 96.1347 137.682C96.4105 137.406 96.7406 137.193 97.1251 137.043C97.5096 136.892 97.9275 136.817 98.3788 136.817C98.8301 136.817 99.248 136.892 99.6325 137.043C100.017 137.193 100.347 137.406 100.623 137.682C100.899 137.95 101.116 138.272 101.275 138.648C101.434 139.024 101.513 139.442 101.513 139.901C101.513 140.361 101.434 140.779 101.275 141.155C101.116 141.531 100.899 141.857 100.623 142.133C100.347 142.4 100.017 142.609 99.6325 142.76C99.248 142.91 98.8301 142.985 98.3788 142.985C97.9275 142.985 97.5096 142.91 97.1251 142.76C96.7406 142.609 96.4105 142.4 96.1347 142.133C95.8589 141.857 95.6416 141.531 95.4828 141.155C95.324 140.779 95.2446 140.361 95.2446 139.901ZM96.2977 139.901C96.2977 140.211 96.3436 140.499 96.4356 140.766C96.5359 141.025 96.678 141.255 96.8618 141.456C97.0457 141.648 97.263 141.803 97.5137 141.92C97.7728 142.028 98.0612 142.083 98.3788 142.083C98.6964 142.083 98.9806 142.028 99.2313 141.92C99.4904 141.803 99.7119 141.648 99.8958 141.456C100.08 141.255 100.218 141.025 100.309 140.766C100.41 140.499 100.46 140.211 100.46 139.901C100.46 139.592 100.41 139.308 100.309 139.049C100.218 138.781 100.08 138.552 99.8958 138.359C99.7119 138.159 99.4904 138.004 99.2313 137.895C98.9806 137.778 98.6964 137.72 98.3788 137.72C98.0612 137.72 97.7728 137.778 97.5137 137.895C97.263 138.004 97.0457 138.159 96.8618 138.359C96.678 138.552 96.5359 138.781 96.4356 139.049C96.3436 139.308 96.2977 139.592 96.2977 139.901ZM103.152 141.293C103.344 141.535 103.553 141.728 103.779 141.87C104.013 142.012 104.306 142.083 104.657 142.083C104.807 142.083 104.958 142.066 105.108 142.033C105.267 141.999 105.409 141.945 105.534 141.87C105.66 141.794 105.76 141.702 105.835 141.594C105.91 141.477 105.948 141.339 105.948 141.18C105.948 141.021 105.91 140.892 105.835 140.791C105.768 140.691 105.676 140.608 105.559 140.541C105.442 140.465 105.309 140.407 105.158 140.365C105.008 140.323 104.853 140.286 104.694 140.252C104.418 140.194 104.155 140.127 103.904 140.052C103.654 139.977 103.432 139.88 103.24 139.763C103.056 139.638 102.906 139.479 102.789 139.287C102.68 139.095 102.626 138.848 102.626 138.547C102.626 138.263 102.688 138.012 102.814 137.795C102.939 137.578 103.106 137.398 103.315 137.256C103.524 137.114 103.758 137.005 104.017 136.93C104.276 136.855 104.544 136.817 104.82 136.817C105.238 136.817 105.622 136.901 105.973 137.068C106.332 137.235 106.612 137.507 106.813 137.883L105.998 138.422C105.873 138.213 105.706 138.046 105.497 137.92C105.296 137.787 105.049 137.72 104.757 137.72C104.623 137.72 104.485 137.737 104.343 137.77C104.21 137.803 104.088 137.854 103.98 137.92C103.871 137.987 103.779 138.075 103.704 138.184C103.637 138.284 103.604 138.401 103.604 138.535C103.604 138.66 103.641 138.769 103.716 138.861C103.8 138.944 103.909 139.02 104.042 139.086C104.184 139.153 104.343 139.212 104.519 139.262C104.703 139.312 104.891 139.354 105.083 139.387C105.342 139.437 105.589 139.504 105.823 139.588C106.057 139.663 106.261 139.768 106.437 139.901C106.612 140.035 106.75 140.202 106.851 140.403C106.951 140.603 107.001 140.85 107.001 141.142C107.001 141.477 106.934 141.761 106.8 141.995C106.667 142.229 106.487 142.421 106.261 142.572C106.044 142.714 105.793 142.818 105.509 142.885C105.233 142.952 104.949 142.985 104.657 142.985C104.155 142.985 103.721 142.91 103.353 142.76C102.993 142.601 102.667 142.313 102.375 141.895L103.152 141.293ZM111.574 137.795H109.844V140.729C109.844 140.921 109.848 141.101 109.857 141.268C109.865 141.427 109.899 141.569 109.957 141.694C110.016 141.811 110.103 141.907 110.22 141.982C110.337 142.049 110.504 142.083 110.722 142.083C110.864 142.083 111.01 142.066 111.161 142.033C111.311 141.999 111.453 141.949 111.587 141.882L111.624 142.772C111.457 142.847 111.269 142.902 111.06 142.935C110.86 142.969 110.667 142.985 110.484 142.985C110.133 142.985 109.853 142.939 109.644 142.847C109.435 142.756 109.272 142.626 109.155 142.459C109.038 142.292 108.958 142.087 108.916 141.845C108.883 141.594 108.866 141.318 108.866 141.017V137.795H107.588V136.968H108.866V135.3H109.844V136.968H111.574V137.795ZM116.387 141.293C116.579 141.535 116.788 141.728 117.014 141.87C117.248 142.012 117.54 142.083 117.891 142.083C118.042 142.083 118.192 142.066 118.343 142.033C118.502 141.999 118.644 141.945 118.769 141.87C118.894 141.794 118.995 141.702 119.07 141.594C119.145 141.477 119.183 141.339 119.183 141.18C119.183 141.021 119.145 140.892 119.07 140.791C119.003 140.691 118.911 140.608 118.794 140.541C118.677 140.465 118.543 140.407 118.393 140.365C118.242 140.323 118.088 140.286 117.929 140.252C117.653 140.194 117.39 140.127 117.139 140.052C116.888 139.977 116.667 139.88 116.475 139.763C116.291 139.638 116.14 139.479 116.023 139.287C115.915 139.095 115.86 138.848 115.86 138.547C115.86 138.263 115.923 138.012 116.048 137.795C116.174 137.578 116.341 137.398 116.55 137.256C116.759 137.114 116.993 137.005 117.252 136.93C117.511 136.855 117.779 136.817 118.054 136.817C118.472 136.817 118.857 136.901 119.208 137.068C119.567 137.235 119.847 137.507 120.048 137.883L119.233 138.422C119.107 138.213 118.94 138.046 118.731 137.92C118.531 137.787 118.284 137.72 117.992 137.72C117.858 137.72 117.72 137.737 117.578 137.77C117.444 137.803 117.323 137.854 117.214 137.92C117.106 137.987 117.014 138.075 116.939 138.184C116.872 138.284 116.838 138.401 116.838 138.535C116.838 138.66 116.876 138.769 116.951 138.861C117.035 138.944 117.143 139.02 117.277 139.086C117.419 139.153 117.578 139.212 117.754 139.262C117.937 139.312 118.125 139.354 118.318 139.387C118.577 139.437 118.823 139.504 119.057 139.588C119.291 139.663 119.496 139.768 119.672 139.901C119.847 140.035 119.985 140.202 120.085 140.403C120.186 140.603 120.236 140.85 120.236 141.142C120.236 141.477 120.169 141.761 120.035 141.995C119.901 142.229 119.722 142.421 119.496 142.572C119.279 142.714 119.028 142.818 118.744 142.885C118.468 142.952 118.184 142.985 117.891 142.985C117.39 142.985 116.955 142.91 116.588 142.76C116.228 142.601 115.902 142.313 115.61 141.895L116.387 141.293ZM121.524 137.72C121.825 137.411 122.18 137.185 122.59 137.043C123.008 136.892 123.43 136.817 123.856 136.817C124.725 136.817 125.352 137.022 125.737 137.432C126.121 137.841 126.313 138.464 126.313 139.3V141.819C126.313 141.987 126.322 142.162 126.339 142.346C126.355 142.522 126.376 142.685 126.401 142.835H125.461C125.428 142.701 125.407 142.555 125.398 142.396C125.398 142.229 125.398 142.083 125.398 141.957H125.373C125.181 142.258 124.922 142.505 124.596 142.697C124.278 142.889 123.894 142.985 123.443 142.985C123.142 142.985 122.857 142.948 122.59 142.873C122.331 142.797 122.101 142.689 121.9 142.547C121.708 142.396 121.554 142.212 121.437 141.995C121.32 141.778 121.261 141.527 121.261 141.243C121.261 140.758 121.386 140.378 121.637 140.102C121.888 139.826 122.197 139.621 122.565 139.488C122.941 139.354 123.342 139.27 123.768 139.237C124.203 139.203 124.6 139.187 124.959 139.187H125.336V139.011C125.336 138.585 125.206 138.263 124.947 138.046C124.696 137.829 124.341 137.72 123.881 137.72C123.564 137.72 123.25 137.774 122.941 137.883C122.64 137.983 122.373 138.142 122.139 138.359L121.524 137.72ZM124.358 140.014C123.731 140.014 123.234 140.102 122.866 140.277C122.498 140.453 122.314 140.741 122.314 141.142C122.314 141.51 122.435 141.774 122.678 141.932C122.929 142.083 123.238 142.158 123.606 142.158C123.89 142.158 124.136 142.112 124.345 142.02C124.562 141.92 124.742 141.79 124.884 141.631C125.026 141.473 125.135 141.289 125.21 141.08C125.285 140.862 125.327 140.633 125.336 140.39V140.014H124.358ZM130.771 142.835H129.693L127.298 136.968H128.439L130.27 141.569H130.295L132.037 136.968H133.09L130.771 142.835ZM134.236 136.968H135.214V142.835H134.236V136.968ZM134.011 134.673C134.011 134.481 134.078 134.314 134.211 134.172C134.354 134.03 134.525 133.959 134.725 133.959C134.926 133.959 135.093 134.03 135.227 134.172C135.369 134.314 135.44 134.481 135.44 134.673C135.44 134.882 135.373 135.054 135.239 135.187C135.106 135.321 134.934 135.388 134.725 135.388C134.516 135.388 134.345 135.321 134.211 135.187C134.078 135.054 134.011 134.882 134.011 134.673ZM137.161 138.359C137.161 138.092 137.152 137.841 137.135 137.607C137.119 137.373 137.11 137.16 137.11 136.968H138.038C138.038 137.126 138.042 137.285 138.051 137.444C138.059 137.603 138.063 137.766 138.063 137.933H138.088C138.155 137.791 138.247 137.653 138.364 137.519C138.489 137.386 138.636 137.269 138.803 137.168C138.97 137.06 139.158 136.976 139.367 136.918C139.576 136.851 139.802 136.817 140.044 136.817C140.429 136.817 140.759 136.876 141.034 136.993C141.319 137.11 141.553 137.273 141.737 137.482C141.92 137.691 142.054 137.946 142.138 138.246C142.23 138.539 142.276 138.861 142.276 139.212V142.835H141.298V139.312C141.298 138.819 141.189 138.43 140.972 138.146C140.754 137.862 140.416 137.72 139.956 137.72C139.639 137.72 139.363 137.774 139.129 137.883C138.903 137.992 138.715 138.146 138.565 138.347C138.423 138.547 138.314 138.786 138.239 139.061C138.172 139.337 138.138 139.642 138.138 139.977V142.835H137.161V138.359ZM149.982 142.572C149.982 143.642 149.706 144.452 149.154 145.004C148.611 145.564 147.821 145.844 146.785 145.844C146.208 145.844 145.686 145.76 145.218 145.593C144.758 145.426 144.319 145.138 143.901 144.728L144.603 143.926C144.913 144.26 145.238 144.511 145.581 144.678C145.932 144.853 146.333 144.941 146.785 144.941C147.219 144.941 147.579 144.874 147.863 144.741C148.155 144.615 148.385 144.44 148.552 144.214C148.72 143.997 148.837 143.746 148.903 143.462C148.97 143.178 149.004 142.881 149.004 142.572V141.819H148.979C148.745 142.196 148.44 142.471 148.063 142.647C147.687 142.822 147.303 142.91 146.91 142.91C146.45 142.91 146.028 142.835 145.644 142.685C145.259 142.534 144.929 142.325 144.653 142.058C144.378 141.79 144.164 141.473 144.014 141.105C143.864 140.737 143.788 140.336 143.788 139.901C143.788 139.425 143.864 138.994 144.014 138.61C144.164 138.226 144.373 137.904 144.641 137.645C144.917 137.377 145.247 137.172 145.631 137.03C146.016 136.888 146.442 136.817 146.91 136.817C147.111 136.817 147.311 136.842 147.512 136.892C147.712 136.934 147.905 137.005 148.089 137.106C148.281 137.198 148.452 137.319 148.603 137.469C148.753 137.611 148.878 137.778 148.979 137.971H149.004V136.968H149.982V142.572ZM144.841 139.901C144.841 140.202 144.896 140.482 145.004 140.741C145.113 140.992 145.259 141.214 145.443 141.406C145.635 141.59 145.857 141.736 146.108 141.845C146.358 141.953 146.626 142.008 146.91 142.008C147.244 142.008 147.541 141.949 147.8 141.832C148.059 141.715 148.277 141.56 148.452 141.368C148.636 141.168 148.774 140.942 148.866 140.691C148.958 140.432 149.004 140.16 149.004 139.876C149.004 139.559 148.954 139.27 148.853 139.011C148.753 138.744 148.611 138.514 148.427 138.322C148.243 138.129 148.022 137.983 147.763 137.883C147.503 137.774 147.219 137.72 146.91 137.72C146.601 137.72 146.317 137.778 146.058 137.895C145.807 138.004 145.589 138.159 145.406 138.359C145.23 138.552 145.092 138.781 144.992 139.049C144.892 139.308 144.841 139.592 144.841 139.901ZM151.916 141.293C152.109 141.535 152.318 141.728 152.543 141.87C152.777 142.012 153.07 142.083 153.421 142.083C153.571 142.083 153.722 142.066 153.872 142.033C154.031 141.999 154.173 141.945 154.298 141.87C154.424 141.794 154.524 141.702 154.599 141.594C154.675 141.477 154.712 141.339 154.712 141.18C154.712 141.021 154.675 140.892 154.599 140.791C154.532 140.691 154.44 140.608 154.323 140.541C154.206 140.465 154.073 140.407 153.922 140.365C153.772 140.323 153.617 140.286 153.458 140.252C153.183 140.194 152.919 140.127 152.669 140.052C152.418 139.977 152.196 139.88 152.004 139.763C151.82 139.638 151.67 139.479 151.553 139.287C151.444 139.095 151.39 138.848 151.39 138.547C151.39 138.263 151.453 138.012 151.578 137.795C151.703 137.578 151.87 137.398 152.079 137.256C152.288 137.114 152.522 137.005 152.781 136.93C153.041 136.855 153.308 136.817 153.584 136.817C154.002 136.817 154.386 136.901 154.737 137.068C155.097 137.235 155.377 137.507 155.577 137.883L154.762 138.422C154.637 138.213 154.47 138.046 154.261 137.92C154.06 137.787 153.814 137.72 153.521 137.72C153.387 137.72 153.249 137.737 153.107 137.77C152.974 137.803 152.852 137.854 152.744 137.92C152.635 137.987 152.543 138.075 152.468 138.184C152.401 138.284 152.368 138.401 152.368 138.535C152.368 138.66 152.405 138.769 152.481 138.861C152.564 138.944 152.673 139.02 152.807 139.086C152.949 139.153 153.107 139.212 153.283 139.262C153.467 139.312 153.655 139.354 153.847 139.387C154.106 139.437 154.353 139.504 154.587 139.588C154.821 139.663 155.026 139.768 155.201 139.901C155.377 140.035 155.514 140.202 155.615 140.403C155.715 140.603 155.765 140.85 155.765 141.142C155.765 141.477 155.698 141.761 155.565 141.995C155.431 142.229 155.251 142.421 155.026 142.572C154.808 142.714 154.557 142.818 154.273 142.885C153.998 142.952 153.713 142.985 153.421 142.985C152.919 142.985 152.485 142.91 152.117 142.76C151.758 142.601 151.432 142.313 151.139 141.895L151.916 141.293ZM160.543 137.72C160.844 137.411 161.199 137.185 161.609 137.043C162.027 136.892 162.449 136.817 162.875 136.817C163.744 136.817 164.371 137.022 164.755 137.432C165.14 137.841 165.332 138.464 165.332 139.3V141.819C165.332 141.987 165.341 142.162 165.357 142.346C165.374 142.522 165.395 142.685 165.42 142.835H164.48C164.446 142.701 164.425 142.555 164.417 142.396C164.417 142.229 164.417 142.083 164.417 141.957H164.392C164.2 142.258 163.941 142.505 163.615 142.697C163.297 142.889 162.913 142.985 162.461 142.985C162.16 142.985 161.876 142.948 161.609 142.873C161.35 142.797 161.12 142.689 160.919 142.547C160.727 142.396 160.572 142.212 160.455 141.995C160.338 141.778 160.28 141.527 160.28 141.243C160.28 140.758 160.405 140.378 160.656 140.102C160.907 139.826 161.216 139.621 161.584 139.488C161.96 139.354 162.361 139.27 162.787 139.237C163.222 139.203 163.619 139.187 163.978 139.187H164.354V139.011C164.354 138.585 164.225 138.263 163.966 138.046C163.715 137.829 163.36 137.72 162.9 137.72C162.582 137.72 162.269 137.774 161.96 137.883C161.659 137.983 161.391 138.142 161.157 138.359L160.543 137.72ZM163.376 140.014C162.75 140.014 162.252 140.102 161.885 140.277C161.517 140.453 161.333 140.741 161.333 141.142C161.333 141.51 161.454 141.774 161.696 141.932C161.947 142.083 162.256 142.158 162.624 142.158C162.908 142.158 163.155 142.112 163.364 142.02C163.581 141.92 163.761 141.79 163.903 141.631C164.045 141.473 164.154 141.289 164.229 141.08C164.304 140.862 164.346 140.633 164.354 140.39V140.014H163.376ZM167.119 138.359C167.119 138.092 167.111 137.841 167.094 137.607C167.078 137.373 167.069 137.16 167.069 136.968H167.997C167.997 137.126 168.001 137.285 168.009 137.444C168.018 137.603 168.022 137.766 168.022 137.933H168.047C168.114 137.791 168.206 137.653 168.323 137.519C168.448 137.386 168.595 137.269 168.762 137.168C168.929 137.06 169.117 136.976 169.326 136.918C169.535 136.851 169.76 136.817 170.003 136.817C170.387 136.817 170.717 136.876 170.993 136.993C171.277 137.11 171.511 137.273 171.695 137.482C171.879 137.691 172.013 137.946 172.097 138.246C172.188 138.539 172.234 138.861 172.234 139.212V142.835H171.257V139.312C171.257 138.819 171.148 138.43 170.931 138.146C170.713 137.862 170.375 137.72 169.915 137.72C169.597 137.72 169.322 137.774 169.088 137.883C168.862 137.992 168.674 138.146 168.523 138.347C168.381 138.547 168.273 138.786 168.198 139.061C168.131 139.337 168.097 139.642 168.097 139.977V142.835H167.119V138.359ZM178.963 141.794H178.937C178.754 142.129 178.461 142.413 178.06 142.647C177.667 142.873 177.207 142.985 176.681 142.985C176.271 142.985 175.887 142.91 175.527 142.76C175.168 142.601 174.855 142.384 174.587 142.108C174.328 141.832 174.123 141.506 173.973 141.13C173.822 140.754 173.747 140.344 173.747 139.901C173.747 139.458 173.822 139.049 173.973 138.673C174.123 138.297 174.332 137.971 174.6 137.695C174.867 137.419 175.189 137.206 175.565 137.055C175.949 136.897 176.372 136.817 176.831 136.817C177.257 136.817 177.646 136.905 177.997 137.081C178.357 137.256 178.67 137.503 178.937 137.82H178.963V133.357H179.94V142.835H178.963V141.794ZM178.963 139.901C178.963 139.592 178.912 139.308 178.812 139.049C178.72 138.781 178.582 138.552 178.398 138.359C178.214 138.159 177.993 138.004 177.734 137.895C177.483 137.778 177.199 137.72 176.881 137.72C176.564 137.72 176.275 137.778 176.016 137.895C175.766 138.004 175.548 138.159 175.364 138.359C175.181 138.552 175.038 138.781 174.938 139.049C174.846 139.308 174.8 139.592 174.8 139.901C174.8 140.211 174.846 140.499 174.938 140.766C175.038 141.025 175.181 141.255 175.364 141.456C175.548 141.648 175.766 141.803 176.016 141.92C176.275 142.028 176.564 142.083 176.881 142.083C177.199 142.083 177.483 142.028 177.734 141.92C177.993 141.803 178.214 141.648 178.398 141.456C178.582 141.255 178.72 141.025 178.812 140.766C178.912 140.499 178.963 140.211 178.963 139.901ZM24.4568 163.435C24.2479 163.184 24.0222 163.004 23.7798 162.895C23.5375 162.778 23.27 162.72 22.9775 162.72C22.6515 162.72 22.3632 162.778 22.1124 162.895C21.8617 163.004 21.6527 163.159 21.4856 163.359C21.3268 163.56 21.2056 163.794 21.122 164.061C21.0384 164.32 20.9967 164.6 20.9967 164.901C20.9967 165.202 21.0426 165.486 21.1346 165.754C21.2349 166.013 21.3686 166.243 21.5357 166.443C21.7113 166.644 21.9202 166.803 22.1626 166.92C22.405 167.028 22.6766 167.083 22.9775 167.083C23.621 167.083 24.1183 166.84 24.4694 166.356L25.1965 167.045C24.9123 167.371 24.578 167.609 24.1936 167.76C23.8091 167.91 23.4037 167.985 22.9775 167.985C22.5262 167.985 22.1124 167.91 21.7363 167.76C21.3602 167.609 21.0384 167.396 20.771 167.12C20.5119 166.845 20.3071 166.519 20.1567 166.142C20.0146 165.766 19.9436 165.353 19.9436 164.901C19.9436 164.458 20.0146 164.049 20.1567 163.673C20.3071 163.297 20.5161 162.971 20.7835 162.695C21.051 162.419 21.3686 162.206 21.7363 162.055C22.1124 161.897 22.5262 161.817 22.9775 161.817C23.4121 161.817 23.8216 161.892 24.2061 162.043C24.5989 162.193 24.9416 162.427 25.2341 162.745L24.4568 163.435ZM25.9916 164.901C25.9916 164.442 26.071 164.024 26.2298 163.648C26.3886 163.272 26.6059 162.95 26.8818 162.682C27.1576 162.406 27.4877 162.193 27.8722 162.043C28.2566 161.892 28.6745 161.817 29.1259 161.817C29.5772 161.817 29.9951 161.892 30.3795 162.043C30.764 162.193 31.0942 162.406 31.37 162.682C31.6458 162.95 31.8631 163.272 32.0219 163.648C32.1807 164.024 32.2601 164.442 32.2601 164.901C32.2601 165.361 32.1807 165.779 32.0219 166.155C31.8631 166.531 31.6458 166.857 31.37 167.133C31.0942 167.4 30.764 167.609 30.3795 167.76C29.9951 167.91 29.5772 167.985 29.1259 167.985C28.6745 167.985 28.2566 167.91 27.8722 167.76C27.4877 167.609 27.1576 167.4 26.8818 167.133C26.6059 166.857 26.3886 166.531 26.2298 166.155C26.071 165.779 25.9916 165.361 25.9916 164.901ZM27.0447 164.901C27.0447 165.211 27.0907 165.499 27.1826 165.766C27.2829 166.025 27.425 166.255 27.6089 166.456C27.7928 166.648 28.0101 166.803 28.2608 166.92C28.5199 167.028 28.8083 167.083 29.1259 167.083C29.4435 167.083 29.7276 167.028 29.9784 166.92C30.2375 166.803 30.4589 166.648 30.6428 166.456C30.8267 166.255 30.9646 166.025 31.0565 165.766C31.1568 165.499 31.207 165.211 31.207 164.901C31.207 164.592 31.1568 164.308 31.0565 164.049C30.9646 163.781 30.8267 163.552 30.6428 163.359C30.4589 163.159 30.2375 163.004 29.9784 162.895C29.7276 162.778 29.4435 162.72 29.1259 162.72C28.8083 162.72 28.5199 162.778 28.2608 162.895C28.0101 163.004 27.7928 163.159 27.6089 163.359C27.425 163.552 27.2829 163.781 27.1826 164.049C27.0907 164.308 27.0447 164.592 27.0447 164.901ZM33.7739 163.359C33.7739 163.092 33.7656 162.841 33.7488 162.607C33.7321 162.373 33.7238 162.16 33.7238 161.968H34.6515C34.6515 162.126 34.6557 162.285 34.664 162.444C34.6724 162.603 34.6766 162.766 34.6766 162.933H34.7016C34.7685 162.791 34.8604 162.653 34.9775 162.519C35.1028 162.386 35.2491 162.269 35.4162 162.168C35.5834 162.06 35.7715 161.976 35.9804 161.918C36.1894 161.851 36.415 161.817 36.6574 161.817C37.0419 161.817 37.372 161.876 37.6478 161.993C37.932 162.11 38.166 162.273 38.3499 162.482C38.5338 162.691 38.6675 162.946 38.7511 163.246C38.843 163.539 38.889 163.861 38.889 164.212V167.835H37.9111V164.312C37.9111 163.819 37.8024 163.43 37.5851 163.146C37.3678 162.862 37.0293 162.72 36.5696 162.72C36.252 162.72 35.9762 162.774 35.7422 162.883C35.5165 162.992 35.3285 163.146 35.178 163.347C35.036 163.547 34.9273 163.786 34.8521 164.061C34.7852 164.337 34.7518 164.642 34.7518 164.977V167.835H33.7739V163.359ZM43.4106 167.835H42.3324L39.9379 161.968H41.0787L42.9091 166.569H42.9342L44.6768 161.968H45.7299L43.4106 167.835ZM52.0287 166.769C51.6777 167.221 51.2932 167.538 50.8753 167.722C50.4574 167.898 49.9727 167.985 49.4211 167.985C48.9614 167.985 48.5476 167.906 48.1799 167.747C47.8121 167.58 47.4987 167.359 47.2396 167.083C46.9889 166.807 46.7925 166.481 46.6504 166.105C46.5167 165.729 46.4498 165.328 46.4498 164.901C46.4498 164.45 46.525 164.036 46.6755 163.66C46.8259 163.276 47.0349 162.95 47.3023 162.682C47.5698 162.406 47.8874 162.193 48.2551 162.043C48.6229 161.892 49.024 161.817 49.4587 161.817C49.8682 161.817 50.2443 161.888 50.587 162.03C50.9297 162.164 51.2222 162.365 51.4646 162.632C51.7153 162.891 51.9075 163.213 52.0413 163.597C52.175 163.974 52.2419 164.404 52.2419 164.889V165.202H47.5029C47.5196 165.453 47.5781 165.695 47.6784 165.929C47.7871 166.155 47.925 166.356 48.0921 166.531C48.2593 166.698 48.4557 166.832 48.6814 166.932C48.907 167.033 49.1536 167.083 49.4211 167.083C49.8473 167.083 50.2067 167.008 50.4992 166.857C50.7918 166.707 51.055 166.485 51.2891 166.193L52.0287 166.769ZM51.1888 164.375C51.172 163.873 51.0091 163.472 50.6998 163.171C50.3906 162.87 49.9643 162.72 49.4211 162.72C48.8778 162.72 48.439 162.87 48.1047 163.171C47.7704 163.472 47.5698 163.873 47.5029 164.375H51.1888ZM53.7546 163.359C53.7546 163.092 53.7463 162.841 53.7295 162.607C53.7128 162.373 53.7045 162.16 53.7045 161.968H54.6322C54.6322 162.126 54.6364 162.285 54.6447 162.444C54.6531 162.603 54.6573 162.766 54.6573 162.933H54.6823C54.7492 162.791 54.8411 162.653 54.9582 162.519C55.0835 162.386 55.2298 162.269 55.3969 162.168C55.5641 162.06 55.7522 161.976 55.9611 161.918C56.1701 161.851 56.3957 161.817 56.6381 161.817C57.0226 161.817 57.3527 161.876 57.6285 161.993C57.9127 162.11 58.1467 162.273 58.3306 162.482C58.5145 162.691 58.6482 162.946 58.7318 163.246C58.8237 163.539 58.8697 163.861 58.8697 164.212V167.835H57.8918V164.312C57.8918 163.819 57.7831 163.43 57.5658 163.146C57.3485 162.862 57.01 162.72 56.5503 162.72C56.2327 162.72 55.9569 162.774 55.7229 162.883C55.4972 162.992 55.3092 163.146 55.1587 163.347C55.0167 163.547 54.908 163.786 54.8328 164.061C54.7659 164.337 54.7325 164.642 54.7325 164.977V167.835H53.7546V163.359ZM60.8087 161.968H61.7866V167.835H60.8087V161.968ZM60.583 159.673C60.583 159.481 60.6499 159.314 60.7836 159.172C60.9257 159.03 61.097 158.959 61.2976 158.959C61.4982 158.959 61.6654 159.03 61.7991 159.172C61.9412 159.314 62.0122 159.481 62.0122 159.673C62.0122 159.882 61.9454 160.054 61.8116 160.187C61.6779 160.321 61.5066 160.388 61.2976 160.388C61.0887 160.388 60.9173 160.321 60.7836 160.187C60.6499 160.054 60.583 159.882 60.583 159.673ZM68.9731 166.769C68.6221 167.221 68.2376 167.538 67.8197 167.722C67.4019 167.898 66.9171 167.985 66.3655 167.985C65.9058 167.985 65.4921 167.906 65.1243 167.747C64.7566 167.58 64.4431 167.359 64.184 167.083C63.9333 166.807 63.7369 166.481 63.5948 166.105C63.4611 165.729 63.3942 165.328 63.3942 164.901C63.3942 164.45 63.4694 164.036 63.6199 163.66C63.7703 163.276 63.9793 162.95 64.2467 162.682C64.5142 162.406 64.8318 162.193 65.1995 162.043C65.5673 161.892 65.9685 161.817 66.4031 161.817C66.8126 161.817 67.1887 161.888 67.5314 162.03C67.8741 162.164 68.1666 162.365 68.409 162.632C68.6597 162.891 68.852 163.213 68.9857 163.597C69.1194 163.974 69.1863 164.404 69.1863 164.889V165.202H64.4473C64.464 165.453 64.5225 165.695 64.6228 165.929C64.7315 166.155 64.8694 166.356 65.0366 166.531C65.2037 166.698 65.4001 166.832 65.6258 166.932C65.8515 167.033 66.098 167.083 66.3655 167.083C66.7917 167.083 67.1511 167.008 67.4436 166.857C67.7362 166.707 67.9994 166.485 68.2335 166.193L68.9731 166.769ZM68.1332 164.375C68.1165 163.873 67.9535 163.472 67.6442 163.171C67.335 162.87 66.9087 162.72 66.3655 162.72C65.8222 162.72 65.3834 162.87 65.0491 163.171C64.7148 163.472 64.5142 163.873 64.4473 164.375H68.1332ZM70.699 163.359C70.699 163.092 70.6907 162.841 70.674 162.607C70.6572 162.373 70.6489 162.16 70.6489 161.968H71.5766C71.5766 162.126 71.5808 162.285 71.5891 162.444C71.5975 162.603 71.6017 162.766 71.6017 162.933H71.6268C71.6936 162.791 71.7856 162.653 71.9026 162.519C72.0279 162.386 72.1742 162.269 72.3414 162.168C72.5085 162.06 72.6966 161.976 72.9055 161.918C73.1145 161.851 73.3401 161.817 73.5825 161.817C73.967 161.817 74.2971 161.876 74.5729 161.993C74.8571 162.11 75.0911 162.273 75.275 162.482C75.4589 162.691 75.5926 162.946 75.6762 163.246C75.7681 163.539 75.8141 163.861 75.8141 164.212V167.835H74.8362V164.312C74.8362 163.819 74.7276 163.43 74.5102 163.146C74.2929 162.862 73.9544 162.72 73.4948 162.72C73.1772 162.72 72.9013 162.774 72.6673 162.883C72.4417 162.992 72.2536 163.146 72.1032 163.347C71.9611 163.547 71.8524 163.786 71.7772 164.061C71.7103 164.337 71.6769 164.642 71.6769 164.977V167.835H70.699V163.359ZM81.8401 163.435C81.6312 163.184 81.4055 163.004 81.1631 162.895C80.9208 162.778 80.6533 162.72 80.3608 162.72C80.0348 162.72 79.7465 162.778 79.4957 162.895C79.245 163.004 79.036 163.159 78.8689 163.359C78.7101 163.56 78.5889 163.794 78.5053 164.061C78.4217 164.32 78.3799 164.6 78.3799 164.901C78.3799 165.202 78.4259 165.486 78.5178 165.754C78.6181 166.013 78.7519 166.243 78.919 166.443C79.0945 166.644 79.3035 166.803 79.5459 166.92C79.7882 167.028 80.0599 167.083 80.3608 167.083C81.0043 167.083 81.5016 166.84 81.8527 166.356L82.5798 167.045C82.2956 167.371 81.9613 167.609 81.5768 167.76C81.1924 167.91 80.787 167.985 80.3608 167.985C79.9094 167.985 79.4957 167.91 79.1196 167.76C78.7435 167.609 78.4217 167.396 78.1543 167.12C77.8952 166.845 77.6904 166.519 77.54 166.142C77.3979 165.766 77.3268 165.353 77.3268 164.901C77.3268 164.458 77.3979 164.049 77.54 163.673C77.6904 163.297 77.8994 162.971 78.1668 162.695C78.4343 162.419 78.7519 162.206 79.1196 162.055C79.4957 161.897 79.9094 161.817 80.3608 161.817C80.7954 161.817 81.2049 161.892 81.5894 162.043C81.9822 162.193 82.3249 162.427 82.6174 162.745L81.8401 163.435ZM88.9538 166.769C88.6028 167.221 88.2183 167.538 87.8004 167.722C87.3825 167.898 86.8978 167.985 86.3462 167.985C85.8865 167.985 85.4728 167.906 85.105 167.747C84.7373 167.58 84.4238 167.359 84.1647 167.083C83.914 166.807 83.7176 166.481 83.5755 166.105C83.4418 165.729 83.3749 165.328 83.3749 164.901C83.3749 164.45 83.4501 164.036 83.6006 163.66C83.751 163.276 83.96 162.95 84.2274 162.682C84.4949 162.406 84.8125 162.193 85.1802 162.043C85.548 161.892 85.9492 161.817 86.3838 161.817C86.7933 161.817 87.1694 161.888 87.5121 162.03C87.8548 162.164 88.1473 162.365 88.3897 162.632C88.6404 162.891 88.8326 163.213 88.9664 163.597C89.1001 163.974 89.167 164.404 89.167 164.889V165.202H84.428C84.4447 165.453 84.5032 165.695 84.6035 165.929C84.7122 166.155 84.8501 166.356 85.0172 166.531C85.1844 166.698 85.3808 166.832 85.6065 166.932C85.8321 167.033 86.0787 167.083 86.3462 167.083C86.7724 167.083 87.1318 167.008 87.4243 166.857C87.7169 166.707 87.9801 166.485 88.2142 166.193L88.9538 166.769ZM88.1139 164.375C88.0971 163.873 87.9342 163.472 87.6249 163.171C87.3157 162.87 86.8894 162.72 86.3462 162.72C85.8029 162.72 85.3641 162.87 85.0298 163.171C84.6955 163.472 84.4949 163.873 84.428 164.375H88.1139ZM97.3784 162.795H95.6484V165.729C95.6484 165.921 95.6525 166.101 95.6609 166.268C95.6692 166.427 95.7027 166.569 95.7612 166.694C95.8197 166.811 95.9074 166.907 96.0245 166.982C96.1415 167.049 96.3086 167.083 96.5259 167.083C96.668 167.083 96.8143 167.066 96.9647 167.033C97.1152 166.999 97.2573 166.949 97.391 166.882L97.4286 167.772C97.2614 167.847 97.0734 167.902 96.8644 167.935C96.6638 167.969 96.4716 167.985 96.2877 167.985C95.9367 167.985 95.6567 167.939 95.4478 167.847C95.2388 167.756 95.0758 167.626 94.9588 167.459C94.8418 167.292 94.7624 167.087 94.7206 166.845C94.6872 166.594 94.6705 166.318 94.6705 166.017V162.795H93.3917V161.968H94.6705V160.3H95.6484V161.968H97.3784V162.795ZM98.5887 158.357H99.5666V162.783H99.5917C99.6586 162.666 99.7505 162.553 99.8675 162.444C99.9845 162.327 100.122 162.223 100.281 162.131C100.448 162.039 100.632 161.964 100.833 161.905C101.033 161.846 101.247 161.817 101.472 161.817C101.857 161.817 102.187 161.876 102.463 161.993C102.747 162.11 102.981 162.273 103.165 162.482C103.349 162.691 103.482 162.946 103.566 163.246C103.658 163.539 103.704 163.861 103.704 164.212V167.835H102.726V164.312C102.726 163.819 102.617 163.43 102.4 163.146C102.183 162.862 101.844 162.72 101.384 162.72C101.067 162.72 100.791 162.774 100.557 162.883C100.331 162.992 100.143 163.146 99.9929 163.347C99.8508 163.547 99.7421 163.786 99.6669 164.061C99.6001 164.337 99.5666 164.642 99.5666 164.977V167.835H98.5887V158.357ZM105.555 163.359C105.555 163.092 105.547 162.841 105.53 162.607C105.513 162.373 105.505 162.16 105.505 161.968H106.433C106.433 162.126 106.437 162.285 106.445 162.444C106.454 162.603 106.458 162.766 106.458 162.933H106.483C106.55 162.791 106.642 162.653 106.759 162.519C106.884 162.386 107.03 162.269 107.197 162.168C107.365 162.06 107.553 161.976 107.762 161.918C107.97 161.851 108.196 161.817 108.439 161.817C108.505 161.817 108.572 161.821 108.639 161.83C108.706 161.838 108.773 161.855 108.84 161.88L108.777 162.87C108.61 162.82 108.434 162.795 108.25 162.795C107.649 162.795 107.21 162.992 106.934 163.384C106.667 163.769 106.533 164.3 106.533 164.977V167.835H105.555V163.359ZM109.404 164.901C109.404 164.442 109.483 164.024 109.642 163.648C109.801 163.272 110.018 162.95 110.294 162.682C110.57 162.406 110.9 162.193 111.284 162.043C111.669 161.892 112.087 161.817 112.538 161.817C112.989 161.817 113.407 161.892 113.792 162.043C114.176 162.193 114.506 162.406 114.782 162.682C115.058 162.95 115.275 163.272 115.434 163.648C115.593 164.024 115.672 164.442 115.672 164.901C115.672 165.361 115.593 165.779 115.434 166.155C115.275 166.531 115.058 166.857 114.782 167.133C114.506 167.4 114.176 167.609 113.792 167.76C113.407 167.91 112.989 167.985 112.538 167.985C112.087 167.985 111.669 167.91 111.284 167.76C110.9 167.609 110.57 167.4 110.294 167.133C110.018 166.857 109.801 166.531 109.642 166.155C109.483 165.779 109.404 165.361 109.404 164.901ZM110.457 164.901C110.457 165.211 110.503 165.499 110.595 165.766C110.695 166.025 110.837 166.255 111.021 166.456C111.205 166.648 111.422 166.803 111.673 166.92C111.932 167.028 112.22 167.083 112.538 167.083C112.856 167.083 113.14 167.028 113.39 166.92C113.65 166.803 113.871 166.648 114.055 166.456C114.239 166.255 114.377 166.025 114.469 165.766C114.569 165.499 114.619 165.211 114.619 164.901C114.619 164.592 114.569 164.308 114.469 164.049C114.377 163.781 114.239 163.552 114.055 163.359C113.871 163.159 113.65 163.004 113.39 162.895C113.14 162.778 112.856 162.72 112.538 162.72C112.22 162.72 111.932 162.778 111.673 162.895C111.422 163.004 111.205 163.159 111.021 163.359C110.837 163.552 110.695 163.781 110.595 164.049C110.503 164.308 110.457 164.592 110.457 164.901ZM122.301 166.443C122.301 166.711 122.309 166.962 122.326 167.196C122.343 167.43 122.351 167.643 122.351 167.835H121.423C121.423 167.676 121.419 167.517 121.411 167.359C121.403 167.2 121.398 167.037 121.398 166.87H121.373C121.306 167.012 121.21 167.15 121.085 167.283C120.968 167.417 120.826 167.538 120.659 167.647C120.492 167.747 120.303 167.827 120.095 167.885C119.886 167.952 119.66 167.985 119.418 167.985C119.033 167.985 118.699 167.927 118.415 167.81C118.139 167.693 117.909 167.53 117.725 167.321C117.541 167.112 117.403 166.861 117.311 166.569C117.228 166.268 117.186 165.942 117.186 165.591V161.968H118.164V165.491C118.164 165.984 118.273 166.372 118.49 166.656C118.707 166.941 119.046 167.083 119.505 167.083C119.823 167.083 120.095 167.028 120.32 166.92C120.554 166.811 120.742 166.656 120.884 166.456C121.035 166.255 121.143 166.017 121.21 165.741C121.286 165.465 121.323 165.16 121.323 164.826V161.968H122.301V166.443ZM130.007 167.572C130.007 168.642 129.731 169.452 129.18 170.004C128.636 170.564 127.846 170.844 126.81 170.844C126.233 170.844 125.711 170.76 125.243 170.593C124.783 170.426 124.345 170.138 123.927 169.728L124.629 168.926C124.938 169.26 125.264 169.511 125.607 169.678C125.958 169.853 126.359 169.941 126.81 169.941C127.245 169.941 127.604 169.874 127.888 169.741C128.181 169.615 128.411 169.44 128.578 169.214C128.745 168.997 128.862 168.746 128.929 168.462C128.996 168.178 129.029 167.881 129.029 167.572V166.819H129.004C128.77 167.196 128.465 167.471 128.089 167.647C127.713 167.822 127.328 167.91 126.935 167.91C126.476 167.91 126.054 167.835 125.669 167.685C125.285 167.534 124.955 167.325 124.679 167.058C124.403 166.79 124.19 166.473 124.039 166.105C123.889 165.737 123.814 165.336 123.814 164.901C123.814 164.425 123.889 163.994 124.039 163.61C124.19 163.226 124.399 162.904 124.666 162.645C124.942 162.377 125.272 162.172 125.657 162.03C126.041 161.888 126.467 161.817 126.935 161.817C127.136 161.817 127.337 161.842 127.537 161.892C127.738 161.934 127.93 162.005 128.114 162.106C128.306 162.198 128.478 162.319 128.628 162.469C128.778 162.611 128.904 162.778 129.004 162.971H129.029V161.968H130.007V167.572ZM124.867 164.901C124.867 165.202 124.921 165.482 125.03 165.741C125.139 165.992 125.285 166.214 125.469 166.406C125.661 166.59 125.882 166.736 126.133 166.845C126.384 166.953 126.651 167.008 126.935 167.008C127.27 167.008 127.566 166.949 127.826 166.832C128.085 166.715 128.302 166.56 128.478 166.368C128.661 166.168 128.799 165.942 128.891 165.691C128.983 165.432 129.029 165.16 129.029 164.876C129.029 164.559 128.979 164.27 128.879 164.011C128.778 163.744 128.636 163.514 128.452 163.322C128.269 163.129 128.047 162.983 127.788 162.883C127.529 162.774 127.245 162.72 126.935 162.72C126.626 162.72 126.342 162.778 126.083 162.895C125.832 163.004 125.615 163.159 125.431 163.359C125.256 163.552 125.118 163.781 125.017 164.049C124.917 164.308 124.867 164.592 124.867 164.901ZM131.816 158.357H132.794V162.783H132.819C132.886 162.666 132.978 162.553 133.095 162.444C133.212 162.327 133.35 162.223 133.509 162.131C133.676 162.039 133.86 161.964 134.061 161.905C134.261 161.846 134.474 161.817 134.7 161.817C135.084 161.817 135.415 161.876 135.69 161.993C135.975 162.11 136.209 162.273 136.392 162.482C136.576 162.691 136.71 162.946 136.794 163.246C136.886 163.539 136.931 163.861 136.931 164.212V167.835H135.954V164.312C135.954 163.819 135.845 163.43 135.628 163.146C135.41 162.862 135.072 162.72 134.612 162.72C134.295 162.72 134.019 162.774 133.785 162.883C133.559 162.992 133.371 163.146 133.221 163.347C133.078 163.547 132.97 163.786 132.895 164.061C132.828 164.337 132.794 164.642 132.794 164.977V167.835H131.816V158.357ZM145.481 162.795H143.751V165.729C143.751 165.921 143.756 166.101 143.764 166.268C143.772 166.427 143.806 166.569 143.864 166.694C143.923 166.811 144.01 166.907 144.127 166.982C144.245 167.049 144.412 167.083 144.629 167.083C144.771 167.083 144.917 167.066 145.068 167.033C145.218 166.999 145.36 166.949 145.494 166.882L145.532 167.772C145.364 167.847 145.176 167.902 144.967 167.935C144.767 167.969 144.575 167.985 144.391 167.985C144.04 167.985 143.76 167.939 143.551 167.847C143.342 167.756 143.179 167.626 143.062 167.459C142.945 167.292 142.865 167.087 142.824 166.845C142.79 166.594 142.774 166.318 142.774 166.017V162.795H141.495V161.968H142.774V160.3H143.751V161.968H145.481V162.795ZM146.692 158.357H147.67V162.783H147.695C147.762 162.666 147.854 162.553 147.971 162.444C148.088 162.327 148.225 162.223 148.384 162.131C148.551 162.039 148.735 161.964 148.936 161.905C149.136 161.846 149.35 161.817 149.575 161.817C149.96 161.817 150.29 161.876 150.566 161.993C150.85 162.11 151.084 162.273 151.268 162.482C151.452 162.691 151.585 162.946 151.669 163.246C151.761 163.539 151.807 163.861 151.807 164.212V167.835H150.829V164.312C150.829 163.819 150.72 163.43 150.503 163.146C150.286 162.862 149.947 162.72 149.487 162.72C149.17 162.72 148.894 162.774 148.66 162.883C148.434 162.992 148.246 163.146 148.096 163.347C147.954 163.547 147.845 163.786 147.77 164.061C147.703 164.337 147.67 164.642 147.67 164.977V167.835H146.692V158.357ZM158.899 166.769C158.547 167.221 158.163 167.538 157.745 167.722C157.327 167.898 156.842 167.985 156.291 167.985C155.831 167.985 155.417 167.906 155.05 167.747C154.682 167.58 154.369 167.359 154.109 167.083C153.859 166.807 153.662 166.481 153.52 166.105C153.386 165.729 153.32 165.328 153.32 164.901C153.32 164.45 153.395 164.036 153.545 163.66C153.696 163.276 153.905 162.95 154.172 162.682C154.44 162.406 154.757 162.193 155.125 162.043C155.493 161.892 155.894 161.817 156.328 161.817C156.738 161.817 157.114 161.888 157.457 162.03C157.799 162.164 158.092 162.365 158.334 162.632C158.585 162.891 158.777 163.213 158.911 163.597C159.045 163.974 159.112 164.404 159.112 164.889V165.202H154.373C154.389 165.453 154.448 165.695 154.548 165.929C154.657 166.155 154.795 166.356 154.962 166.531C155.129 166.698 155.325 166.832 155.551 166.932C155.777 167.033 156.023 167.083 156.291 167.083C156.717 167.083 157.076 167.008 157.369 166.857C157.662 166.707 157.925 166.485 158.159 166.193L158.899 166.769ZM158.059 164.375C158.042 163.873 157.879 163.472 157.57 163.171C157.26 162.87 156.834 162.72 156.291 162.72C155.748 162.72 155.309 162.87 154.974 163.171C154.64 163.472 154.44 163.873 154.373 164.375H158.059ZM169.229 166.443C169.229 166.711 169.237 166.962 169.254 167.196C169.271 167.43 169.279 167.643 169.279 167.835H168.351C168.351 167.676 168.347 167.517 168.339 167.359C168.33 167.2 168.326 167.037 168.326 166.87H168.301C168.234 167.012 168.138 167.15 168.013 167.283C167.896 167.417 167.754 167.538 167.586 167.647C167.419 167.747 167.231 167.827 167.022 167.885C166.813 167.952 166.588 167.985 166.345 167.985C165.961 167.985 165.626 167.927 165.342 167.81C165.066 167.693 164.837 167.53 164.653 167.321C164.469 167.112 164.331 166.861 164.239 166.569C164.155 166.268 164.114 165.942 164.114 165.591V161.968H165.092V165.491C165.092 165.984 165.2 166.372 165.418 166.656C165.635 166.941 165.973 167.083 166.433 167.083C166.751 167.083 167.022 167.028 167.248 166.92C167.482 166.811 167.67 166.656 167.812 166.456C167.963 166.255 168.071 166.017 168.138 165.741C168.213 165.465 168.251 165.16 168.251 164.826V161.968H169.229V166.443ZM171.205 166.293C171.398 166.535 171.607 166.728 171.832 166.87C172.066 167.012 172.359 167.083 172.71 167.083C172.86 167.083 173.011 167.066 173.161 167.033C173.32 166.999 173.462 166.945 173.587 166.87C173.713 166.794 173.813 166.702 173.888 166.594C173.963 166.477 174.001 166.339 174.001 166.18C174.001 166.021 173.963 165.892 173.888 165.791C173.821 165.691 173.729 165.608 173.612 165.541C173.495 165.465 173.362 165.407 173.211 165.365C173.061 165.323 172.906 165.286 172.747 165.252C172.472 165.194 172.208 165.127 171.958 165.052C171.707 164.977 171.485 164.88 171.293 164.763C171.109 164.638 170.959 164.479 170.842 164.287C170.733 164.095 170.679 163.848 170.679 163.547C170.679 163.263 170.741 163.012 170.867 162.795C170.992 162.578 171.159 162.398 171.368 162.256C171.577 162.114 171.811 162.005 172.07 161.93C172.329 161.855 172.597 161.817 172.873 161.817C173.291 161.817 173.675 161.901 174.026 162.068C174.386 162.235 174.666 162.507 174.866 162.883L174.051 163.422C173.926 163.213 173.759 163.046 173.55 162.92C173.349 162.787 173.103 162.72 172.81 162.72C172.676 162.72 172.538 162.737 172.396 162.77C172.263 162.803 172.141 162.854 172.033 162.92C171.924 162.987 171.832 163.075 171.757 163.184C171.69 163.284 171.657 163.401 171.657 163.535C171.657 163.66 171.694 163.769 171.77 163.861C171.853 163.944 171.962 164.02 172.095 164.086C172.238 164.153 172.396 164.212 172.572 164.262C172.756 164.312 172.944 164.354 173.136 164.387C173.395 164.437 173.642 164.504 173.876 164.588C174.11 164.663 174.315 164.768 174.49 164.901C174.666 165.035 174.803 165.202 174.904 165.403C175.004 165.603 175.054 165.85 175.054 166.142C175.054 166.477 174.987 166.761 174.854 166.995C174.72 167.229 174.54 167.421 174.315 167.572C174.097 167.714 173.846 167.818 173.562 167.885C173.286 167.952 173.002 167.985 172.71 167.985C172.208 167.985 171.774 167.91 171.406 167.76C171.047 167.601 170.721 167.313 170.428 166.895L171.205 166.293ZM181.658 166.769C181.307 167.221 180.923 167.538 180.505 167.722C180.087 167.898 179.602 167.985 179.051 167.985C178.591 167.985 178.177 167.906 177.81 167.747C177.442 167.58 177.128 167.359 176.869 167.083C176.619 166.807 176.422 166.481 176.28 166.105C176.146 165.729 176.079 165.328 176.079 164.901C176.079 164.45 176.155 164.036 176.305 163.66C176.456 163.276 176.665 162.95 176.932 162.682C177.199 162.406 177.517 162.193 177.885 162.043C178.253 161.892 178.654 161.817 179.088 161.817C179.498 161.817 179.874 161.888 180.217 162.03C180.559 162.164 180.852 162.365 181.094 162.632C181.345 162.891 181.537 163.213 181.671 163.597C181.805 163.974 181.872 164.404 181.872 164.889V165.202H177.133C177.149 165.453 177.208 165.695 177.308 165.929C177.417 166.155 177.555 166.356 177.722 166.531C177.889 166.698 178.085 166.832 178.311 166.932C178.537 167.033 178.783 167.083 179.051 167.083C179.477 167.083 179.836 167.008 180.129 166.857C180.421 166.707 180.685 166.485 180.919 166.193L181.658 166.769ZM180.818 164.375C180.802 163.873 180.639 163.472 180.329 163.171C180.02 162.87 179.594 162.72 179.051 162.72C178.507 162.72 178.069 162.87 177.734 163.171C177.4 163.472 177.199 163.873 177.133 164.375H180.818ZM186.535 164.901C186.535 164.442 186.614 164.024 186.773 163.648C186.932 163.272 187.149 162.95 187.425 162.682C187.701 162.406 188.031 162.193 188.416 162.043C188.8 161.892 189.218 161.817 189.669 161.817C190.121 161.817 190.538 161.892 190.923 162.043C191.307 162.193 191.638 162.406 191.913 162.682C192.189 162.95 192.406 163.272 192.565 163.648C192.724 164.024 192.803 164.442 192.803 164.901C192.803 165.361 192.724 165.779 192.565 166.155C192.406 166.531 192.189 166.857 191.913 167.133C191.638 167.4 191.307 167.609 190.923 167.76C190.538 167.91 190.121 167.985 189.669 167.985C189.218 167.985 188.8 167.91 188.416 167.76C188.031 167.609 187.701 167.4 187.425 167.133C187.149 166.857 186.932 166.531 186.773 166.155C186.614 165.779 186.535 165.361 186.535 164.901ZM187.588 164.901C187.588 165.211 187.634 165.499 187.726 165.766C187.826 166.025 187.968 166.255 188.152 166.456C188.336 166.648 188.553 166.803 188.804 166.92C189.063 167.028 189.352 167.083 189.669 167.083C189.987 167.083 190.271 167.028 190.522 166.92C190.781 166.803 191.002 166.648 191.186 166.456C191.37 166.255 191.508 166.025 191.6 165.766C191.7 165.499 191.75 165.211 191.75 164.901C191.75 164.592 191.7 164.308 191.6 164.049C191.508 163.781 191.37 163.552 191.186 163.359C191.002 163.159 190.781 163.004 190.522 162.895C190.271 162.778 189.987 162.72 189.669 162.72C189.352 162.72 189.063 162.778 188.804 162.895C188.553 163.004 188.336 163.159 188.152 163.359C187.968 163.552 187.826 163.781 187.726 164.049C187.634 164.308 187.588 164.592 187.588 164.901ZM194.819 162.795H193.54V161.968H194.819V160.651C194.819 160.292 194.852 159.966 194.919 159.673C194.986 159.373 195.099 159.113 195.258 158.896C195.425 158.679 195.642 158.512 195.91 158.395C196.177 158.269 196.507 158.207 196.9 158.207C197.025 158.207 197.159 158.219 197.301 158.244C197.443 158.269 197.56 158.307 197.652 158.357L197.514 159.235C197.28 159.151 197.059 159.109 196.85 159.109C196.599 159.109 196.403 159.155 196.261 159.247C196.118 159.331 196.01 159.452 195.935 159.611C195.868 159.761 195.826 159.945 195.809 160.162C195.801 160.38 195.797 160.614 195.797 160.864V161.968H197.226V162.795H195.797V167.835H194.819V162.795ZM45.3986 188.435C45.1897 188.184 44.964 188.004 44.7216 187.895C44.4792 187.778 44.2118 187.72 43.9193 187.72C43.5933 187.72 43.3049 187.778 43.0542 187.895C42.8035 188.004 42.5945 188.159 42.4274 188.359C42.2686 188.56 42.1474 188.794 42.0638 189.061C41.9802 189.32 41.9384 189.6 41.9384 189.901C41.9384 190.202 41.9844 190.486 42.0763 190.754C42.1766 191.013 42.3104 191.243 42.4775 191.443C42.653 191.644 42.862 191.803 43.1044 191.92C43.3467 192.028 43.6184 192.083 43.9193 192.083C44.5628 192.083 45.0601 191.84 45.4111 191.356L46.1383 192.045C45.8541 192.371 45.5198 192.609 45.1353 192.76C44.7509 192.91 44.3455 192.985 43.9193 192.985C43.4679 192.985 43.0542 192.91 42.6781 192.76C42.302 192.609 41.9802 192.396 41.7128 192.12C41.4537 191.845 41.2489 191.519 41.0985 191.142C40.9564 190.766 40.8853 190.353 40.8853 189.901C40.8853 189.458 40.9564 189.049 41.0985 188.673C41.2489 188.297 41.4578 187.971 41.7253 187.695C41.9928 187.419 42.3104 187.206 42.6781 187.055C43.0542 186.897 43.4679 186.817 43.9193 186.817C44.3539 186.817 44.7634 186.892 45.1479 187.043C45.5407 187.193 45.8834 187.427 46.1759 187.745L45.3986 188.435ZM46.9334 189.901C46.9334 189.442 47.0128 189.024 47.1716 188.648C47.3304 188.272 47.5477 187.95 47.8235 187.682C48.0993 187.406 48.4295 187.193 48.8139 187.043C49.1984 186.892 49.6163 186.817 50.0676 186.817C50.519 186.817 50.9369 186.892 51.3213 187.043C51.7058 187.193 52.0359 187.406 52.3117 187.682C52.5875 187.95 52.8049 188.272 52.9637 188.648C53.1225 189.024 53.2019 189.442 53.2019 189.901C53.2019 190.361 53.1225 190.779 52.9637 191.155C52.8049 191.531 52.5875 191.857 52.3117 192.133C52.0359 192.4 51.7058 192.609 51.3213 192.76C50.9369 192.91 50.519 192.985 50.0676 192.985C49.6163 192.985 49.1984 192.91 48.8139 192.76C48.4295 192.609 48.0993 192.4 47.8235 192.133C47.5477 191.857 47.3304 191.531 47.1716 191.155C47.0128 190.779 46.9334 190.361 46.9334 189.901ZM47.9865 189.901C47.9865 190.211 48.0325 190.499 48.1244 190.766C48.2247 191.025 48.3668 191.255 48.5507 191.456C48.7345 191.648 48.9518 191.803 49.2026 191.92C49.4617 192.028 49.75 192.083 50.0676 192.083C50.3852 192.083 50.6694 192.028 50.9201 191.92C51.1792 191.803 51.4007 191.648 51.5846 191.456C51.7685 191.255 51.9064 191.025 51.9983 190.766C52.0986 190.499 52.1488 190.211 52.1488 189.901C52.1488 189.592 52.0986 189.308 51.9983 189.049C51.9064 188.781 51.7685 188.552 51.5846 188.359C51.4007 188.159 51.1792 188.004 50.9201 187.895C50.6694 187.778 50.3852 187.72 50.0676 187.72C49.75 187.72 49.4617 187.778 49.2026 187.895C48.9518 188.004 48.7345 188.159 48.5507 188.359C48.3668 188.552 48.2247 188.781 48.1244 189.049C48.0325 189.308 47.9865 189.592 47.9865 189.901ZM54.7157 188.359C54.7157 188.092 54.7073 187.841 54.6906 187.607C54.6739 187.373 54.6655 187.16 54.6655 186.968H55.5933C55.5933 187.126 55.5974 187.285 55.6058 187.444C55.6142 187.603 55.6183 187.766 55.6183 187.933H55.6434C55.7103 187.791 55.8022 187.653 55.9192 187.519C56.0446 187.386 56.1909 187.269 56.358 187.168C56.5252 187.06 56.7132 186.976 56.9222 186.918C57.1311 186.851 57.3568 186.817 57.5992 186.817C57.9168 186.817 58.1801 186.859 58.389 186.943C58.6063 187.018 58.786 187.114 58.9281 187.231C59.0702 187.34 59.1788 187.461 59.254 187.595C59.3376 187.72 59.4045 187.833 59.4546 187.933C59.6719 187.582 59.9227 187.31 60.2069 187.118C60.491 186.918 60.8588 186.817 61.3101 186.817C61.728 186.817 62.079 186.876 62.3632 186.993C62.6474 187.101 62.8772 187.264 63.0527 187.482C63.2282 187.691 63.3536 187.95 63.4288 188.259C63.5041 188.56 63.5417 188.898 63.5417 189.274V192.835H62.5638V189.325C62.5638 189.124 62.5429 188.928 62.5011 188.735C62.4593 188.543 62.3841 188.372 62.2754 188.221C62.1668 188.071 62.0205 187.95 61.8367 187.858C61.6528 187.766 61.4188 187.72 61.1346 187.72C60.9256 187.72 60.7292 187.762 60.5453 187.845C60.3615 187.929 60.1985 188.046 60.0564 188.196C59.9227 188.347 59.814 188.531 59.7305 188.748C59.6552 188.957 59.6176 189.191 59.6176 189.45V192.835H58.6397V189.513C58.6397 188.861 58.552 188.401 58.3765 188.134C58.2009 187.858 57.9126 187.72 57.5114 187.72C57.1938 187.72 56.918 187.774 56.684 187.883C56.4583 187.992 56.2703 188.146 56.1198 188.347C55.9777 188.547 55.8691 188.786 55.7939 189.061C55.727 189.337 55.6936 189.642 55.6936 189.977V192.835H54.7157V188.359ZM65.3916 188.359C65.3916 188.092 65.3833 187.841 65.3666 187.607C65.3499 187.373 65.3415 187.16 65.3415 186.968H66.2692C66.2692 187.126 66.2734 187.285 66.2818 187.444C66.2901 187.603 66.2943 187.766 66.2943 187.933H66.3194C66.3862 187.791 66.4782 187.653 66.5952 187.519C66.7206 187.386 66.8668 187.269 67.034 187.168C67.2011 187.06 67.3892 186.976 67.5981 186.918C67.8071 186.851 68.0328 186.817 68.2751 186.817C68.5927 186.817 68.856 186.859 69.065 186.943C69.2823 187.018 69.462 187.114 69.604 187.231C69.7461 187.34 69.8548 187.461 69.93 187.595C70.0136 187.72 70.0804 187.833 70.1306 187.933C70.3479 187.582 70.5986 187.31 70.8828 187.118C71.167 186.918 71.5347 186.817 71.9861 186.817C72.404 186.817 72.755 186.876 73.0392 186.993C73.3233 187.101 73.5532 187.264 73.7287 187.482C73.9042 187.691 74.0296 187.95 74.1048 188.259C74.18 188.56 74.2176 188.898 74.2176 189.274V192.835H73.2397V189.325C73.2397 189.124 73.2189 188.928 73.1771 188.735C73.1353 188.543 73.0601 188.372 72.9514 188.221C72.8427 188.071 72.6965 187.95 72.5126 187.858C72.3287 187.766 72.0947 187.72 71.8105 187.72C71.6016 187.72 71.4052 187.762 71.2213 187.845C71.0374 187.929 70.8745 188.046 70.7324 188.196C70.5986 188.347 70.49 188.531 70.4064 188.748C70.3312 188.957 70.2936 189.191 70.2936 189.45V192.835H69.3157V189.513C69.3157 188.861 69.2279 188.401 69.0524 188.134C68.8769 187.858 68.5886 187.72 68.1874 187.72C67.8698 187.72 67.594 187.774 67.3599 187.883C67.1343 187.992 66.9462 188.146 66.7958 188.347C66.6537 188.547 66.545 188.786 66.4698 189.061C66.403 189.337 66.3695 189.642 66.3695 189.977V192.835H65.3916V188.359ZM75.7291 189.901C75.7291 189.442 75.8085 189.024 75.9673 188.648C76.1261 188.272 76.3434 187.95 76.6192 187.682C76.895 187.406 77.2252 187.193 77.6096 187.043C77.9941 186.892 78.412 186.817 78.8633 186.817C79.3147 186.817 79.7326 186.892 80.117 187.043C80.5015 187.193 80.8316 187.406 81.1074 187.682C81.3833 187.95 81.6006 188.272 81.7594 188.648C81.9182 189.024 81.9976 189.442 81.9976 189.901C81.9976 190.361 81.9182 190.779 81.7594 191.155C81.6006 191.531 81.3833 191.857 81.1074 192.133C80.8316 192.4 80.5015 192.609 80.117 192.76C79.7326 192.91 79.3147 192.985 78.8633 192.985C78.412 192.985 77.9941 192.91 77.6096 192.76C77.2252 192.609 76.895 192.4 76.6192 192.133C76.3434 191.857 76.1261 191.531 75.9673 191.155C75.8085 190.779 75.7291 190.361 75.7291 189.901ZM76.7822 189.901C76.7822 190.211 76.8282 190.499 76.9201 190.766C77.0204 191.025 77.1625 191.255 77.3464 191.456C77.5302 191.648 77.7476 191.803 77.9983 191.92C78.2574 192.028 78.5457 192.083 78.8633 192.083C79.1809 192.083 79.4651 192.028 79.7158 191.92C79.9749 191.803 80.1964 191.648 80.3803 191.456C80.5642 191.255 80.7021 191.025 80.794 190.766C80.8943 190.499 80.9445 190.211 80.9445 189.901C80.9445 189.592 80.8943 189.308 80.794 189.049C80.7021 188.781 80.5642 188.552 80.3803 188.359C80.1964 188.159 79.9749 188.004 79.7158 187.895C79.4651 187.778 79.1809 187.72 78.8633 187.72C78.5457 187.72 78.2574 187.778 77.9983 187.895C77.7476 188.004 77.5302 188.159 77.3464 188.359C77.1625 188.552 77.0204 188.781 76.9201 189.049C76.8282 189.308 76.7822 189.592 76.7822 189.901ZM83.5114 188.359C83.5114 188.092 83.503 187.841 83.4863 187.607C83.4696 187.373 83.4612 187.16 83.4612 186.968H84.389C84.389 187.126 84.3932 187.285 84.4015 187.444C84.4099 187.603 84.4141 187.766 84.4141 187.933H84.4391C84.506 187.791 84.5979 187.653 84.7149 187.519C84.8403 187.386 84.9866 187.269 85.1537 187.168C85.3209 187.06 85.5089 186.976 85.7179 186.918C85.9268 186.851 86.1525 186.817 86.3949 186.817C86.7793 186.817 87.1095 186.876 87.3853 186.993C87.6695 187.11 87.9035 187.273 88.0874 187.482C88.2712 187.691 88.405 187.946 88.4885 188.246C88.5805 188.539 88.6265 188.861 88.6265 189.212V192.835H87.6486V189.312C87.6486 188.819 87.5399 188.43 87.3226 188.146C87.1053 187.862 86.7668 187.72 86.3071 187.72C85.9895 187.72 85.7137 187.774 85.4797 187.883C85.254 187.992 85.066 188.146 84.9155 188.347C84.7734 188.547 84.6648 188.786 84.5896 189.061C84.5227 189.337 84.4893 189.642 84.4893 189.977V192.835H83.5114V188.359ZM94.0547 186.968H95.0326V192.835H94.0547V186.968ZM93.8291 184.673C93.8291 184.481 93.8959 184.314 94.0297 184.172C94.1717 184.03 94.3431 183.959 94.5437 183.959C94.7443 183.959 94.9114 184.03 95.0452 184.172C95.1872 184.314 95.2583 184.481 95.2583 184.673C95.2583 184.882 95.1914 185.054 95.0577 185.187C94.924 185.321 94.7526 185.388 94.5437 185.388C94.3347 185.388 94.1634 185.321 94.0297 185.187C93.8959 185.054 93.8291 184.882 93.8291 184.673ZM96.9788 188.359C96.9788 188.092 96.9704 187.841 96.9537 187.607C96.937 187.373 96.9286 187.16 96.9286 186.968H97.8564C97.8564 187.126 97.8605 187.285 97.8689 187.444C97.8773 187.603 97.8814 187.766 97.8814 187.933H97.9065C97.9734 187.791 98.0653 187.653 98.1823 187.519C98.3077 187.386 98.4539 187.269 98.6211 187.168C98.7883 187.06 98.9763 186.976 99.1853 186.918C99.3942 186.851 99.6199 186.817 99.8623 186.817C100.247 186.817 100.577 186.876 100.853 186.993C101.137 187.11 101.371 187.273 101.555 187.482C101.739 187.691 101.872 187.946 101.956 188.246C102.048 188.539 102.094 188.861 102.094 189.212V192.835H101.116V189.312C101.116 188.819 101.007 188.43 100.79 188.146C100.573 187.862 100.234 187.72 99.7745 187.72C99.4569 187.72 99.1811 187.774 98.9471 187.883C98.7214 187.992 98.5333 188.146 98.3829 188.347C98.2408 188.547 98.1322 188.786 98.0569 189.061C97.9901 189.337 97.9567 189.642 97.9567 189.977V192.835H96.9788V188.359ZM104.447 187.795H103.168V186.968H104.447V185.651C104.447 185.292 104.48 184.966 104.547 184.673C104.614 184.373 104.727 184.113 104.885 183.896C105.053 183.679 105.27 183.512 105.537 183.395C105.805 183.269 106.135 183.207 106.528 183.207C106.653 183.207 106.787 183.219 106.929 183.244C107.071 183.269 107.188 183.307 107.28 183.357L107.142 184.235C106.908 184.151 106.686 184.109 106.478 184.109C106.227 184.109 106.03 184.155 105.888 184.247C105.746 184.331 105.638 184.452 105.562 184.611C105.495 184.761 105.454 184.945 105.437 185.162C105.429 185.38 105.424 185.614 105.424 185.864V186.968H106.854V187.795H105.424V192.835H104.447V187.795ZM107.9 188.359C107.9 188.092 107.891 187.841 107.875 187.607C107.858 187.373 107.849 187.16 107.849 186.968H108.777C108.777 187.126 108.781 187.285 108.79 187.444C108.798 187.603 108.802 187.766 108.802 187.933H108.827C108.894 187.791 108.986 187.653 109.103 187.519C109.229 187.386 109.375 187.269 109.542 187.168C109.709 187.06 109.897 186.976 110.106 186.918C110.315 186.851 110.541 186.817 110.783 186.817C110.85 186.817 110.917 186.821 110.984 186.83C111.051 186.838 111.117 186.855 111.184 186.88L111.122 187.87C110.954 187.82 110.779 187.795 110.595 187.795C109.993 187.795 109.554 187.992 109.279 188.384C109.011 188.769 108.877 189.3 108.877 189.977V192.835H107.9V188.359ZM112.232 187.72C112.533 187.411 112.888 187.185 113.298 187.043C113.715 186.892 114.137 186.817 114.564 186.817C115.433 186.817 116.06 187.022 116.444 187.432C116.829 187.841 117.021 188.464 117.021 189.3V191.819C117.021 191.987 117.029 192.162 117.046 192.346C117.063 192.522 117.084 192.685 117.109 192.835H116.168C116.135 192.701 116.114 192.555 116.106 192.396C116.106 192.229 116.106 192.083 116.106 191.957H116.081C115.888 192.258 115.629 192.505 115.303 192.697C114.986 192.889 114.601 192.985 114.15 192.985C113.849 192.985 113.565 192.948 113.298 192.873C113.038 192.797 112.809 192.689 112.608 192.547C112.416 192.396 112.261 192.212 112.144 191.995C112.027 191.778 111.969 191.527 111.969 191.243C111.969 190.758 112.094 190.378 112.345 190.102C112.595 189.826 112.905 189.621 113.272 189.488C113.649 189.354 114.05 189.27 114.476 189.237C114.911 189.203 115.308 189.187 115.667 189.187H116.043V189.011C116.043 188.585 115.914 188.263 115.654 188.046C115.404 187.829 115.049 187.72 114.589 187.72C114.271 187.72 113.958 187.774 113.649 187.883C113.348 187.983 113.08 188.142 112.846 188.359L112.232 187.72ZM115.065 190.014C114.438 190.014 113.941 190.102 113.573 190.277C113.206 190.453 113.022 190.741 113.022 191.142C113.022 191.51 113.143 191.774 113.385 191.932C113.636 192.083 113.945 192.158 114.313 192.158C114.597 192.158 114.844 192.112 115.053 192.02C115.27 191.92 115.45 191.79 115.592 191.631C115.734 191.473 115.843 191.289 115.918 191.08C115.993 190.862 116.035 190.633 116.043 190.39V190.014H115.065ZM118.934 191.293C119.126 191.535 119.335 191.728 119.56 191.87C119.794 192.012 120.087 192.083 120.438 192.083C120.588 192.083 120.739 192.066 120.889 192.033C121.048 191.999 121.19 191.945 121.316 191.87C121.441 191.794 121.541 191.702 121.616 191.594C121.692 191.477 121.729 191.339 121.729 191.18C121.729 191.021 121.692 190.892 121.616 190.791C121.55 190.691 121.458 190.608 121.341 190.541C121.224 190.465 121.09 190.407 120.939 190.365C120.789 190.323 120.634 190.286 120.476 190.252C120.2 190.194 119.937 190.127 119.686 190.052C119.435 189.977 119.214 189.88 119.021 189.763C118.837 189.638 118.687 189.479 118.57 189.287C118.461 189.095 118.407 188.848 118.407 188.547C118.407 188.263 118.47 188.012 118.595 187.795C118.72 187.578 118.888 187.398 119.097 187.256C119.305 187.114 119.539 187.005 119.799 186.93C120.058 186.855 120.325 186.817 120.601 186.817C121.019 186.817 121.403 186.901 121.754 187.068C122.114 187.235 122.394 187.507 122.594 187.883L121.779 188.422C121.654 188.213 121.487 188.046 121.278 187.92C121.077 187.787 120.831 187.72 120.538 187.72C120.405 187.72 120.267 187.737 120.125 187.77C119.991 187.803 119.87 187.854 119.761 187.92C119.652 187.987 119.56 188.075 119.485 188.184C119.418 188.284 119.385 188.401 119.385 188.535C119.385 188.66 119.422 188.769 119.498 188.861C119.581 188.944 119.69 189.02 119.824 189.086C119.966 189.153 120.125 189.212 120.3 189.262C120.484 189.312 120.672 189.354 120.864 189.387C121.123 189.437 121.37 189.504 121.604 189.588C121.838 189.663 122.043 189.768 122.218 189.901C122.394 190.035 122.532 190.202 122.632 190.403C122.732 190.603 122.782 190.85 122.782 191.142C122.782 191.477 122.716 191.761 122.582 191.995C122.448 192.229 122.268 192.421 122.043 192.572C121.825 192.714 121.575 192.818 121.29 192.885C121.015 192.952 120.731 192.985 120.438 192.985C119.937 192.985 119.502 192.91 119.134 192.76C118.775 192.601 118.449 192.313 118.156 191.895L118.934 191.293ZM127.356 187.795H125.626V190.729C125.626 190.921 125.63 191.101 125.638 191.268C125.646 191.427 125.68 191.569 125.738 191.694C125.797 191.811 125.885 191.907 126.002 191.982C126.119 192.049 126.286 192.083 126.503 192.083C126.645 192.083 126.791 192.066 126.942 192.033C127.092 191.999 127.234 191.949 127.368 191.882L127.406 192.772C127.239 192.847 127.051 192.902 126.842 192.935C126.641 192.969 126.449 192.985 126.265 192.985C125.914 192.985 125.634 192.939 125.425 192.847C125.216 192.756 125.053 192.626 124.936 192.459C124.819 192.292 124.74 192.087 124.698 191.845C124.664 191.594 124.648 191.318 124.648 191.017V187.795H123.369V186.968H124.648V185.3H125.626V186.968H127.356V187.795ZM128.554 188.359C128.554 188.092 128.545 187.841 128.529 187.607C128.512 187.373 128.504 187.16 128.504 186.968H129.431C129.431 187.126 129.435 187.285 129.444 187.444C129.452 187.603 129.456 187.766 129.456 187.933H129.481C129.548 187.791 129.64 187.653 129.757 187.519C129.883 187.386 130.029 187.269 130.196 187.168C130.363 187.06 130.551 186.976 130.76 186.918C130.969 186.851 131.195 186.817 131.437 186.817C131.504 186.817 131.571 186.821 131.638 186.83C131.705 186.838 131.771 186.855 131.838 186.88L131.776 187.87C131.608 187.82 131.433 187.795 131.249 187.795C130.647 187.795 130.209 187.992 129.933 188.384C129.665 188.769 129.532 189.3 129.532 189.977V192.835H128.554V188.359ZM138.076 191.443C138.076 191.711 138.085 191.962 138.101 192.196C138.118 192.43 138.126 192.643 138.126 192.835H137.199C137.199 192.676 137.194 192.517 137.186 192.359C137.178 192.2 137.174 192.037 137.174 191.87H137.149C137.082 192.012 136.986 192.15 136.86 192.283C136.743 192.417 136.601 192.538 136.434 192.647C136.267 192.747 136.079 192.827 135.87 192.885C135.661 192.952 135.435 192.985 135.193 192.985C134.808 192.985 134.474 192.927 134.19 192.81C133.914 192.693 133.684 192.53 133.5 192.321C133.316 192.112 133.178 191.861 133.087 191.569C133.003 191.268 132.961 190.942 132.961 190.591V186.968H133.939V190.491C133.939 190.984 134.048 191.372 134.265 191.656C134.482 191.941 134.821 192.083 135.281 192.083C135.598 192.083 135.87 192.028 136.095 191.92C136.329 191.811 136.517 191.656 136.66 191.456C136.81 191.255 136.919 191.017 136.986 190.741C137.061 190.465 137.098 190.16 137.098 189.826V186.968H138.076V191.443ZM144.102 188.435C143.893 188.184 143.668 188.004 143.425 187.895C143.183 187.778 142.915 187.72 142.623 187.72C142.297 187.72 142.009 187.778 141.758 187.895C141.507 188.004 141.298 188.159 141.131 188.359C140.972 188.56 140.851 188.794 140.767 189.061C140.684 189.32 140.642 189.6 140.642 189.901C140.642 190.202 140.688 190.486 140.78 190.754C140.88 191.013 141.014 191.243 141.181 191.443C141.357 191.644 141.566 191.803 141.808 191.92C142.05 192.028 142.322 192.083 142.623 192.083C143.266 192.083 143.764 191.84 144.115 191.356L144.842 192.045C144.558 192.371 144.223 192.609 143.839 192.76C143.455 192.91 143.049 192.985 142.623 192.985C142.172 192.985 141.758 192.91 141.382 192.76C141.006 192.609 140.684 192.396 140.416 192.12C140.157 191.845 139.953 191.519 139.802 191.142C139.66 190.766 139.589 190.353 139.589 189.901C139.589 189.458 139.66 189.049 139.802 188.673C139.953 188.297 140.162 187.971 140.429 187.695C140.696 187.419 141.014 187.206 141.382 187.055C141.758 186.897 142.172 186.817 142.623 186.817C143.058 186.817 143.467 186.892 143.852 187.043C144.244 187.193 144.587 187.427 144.88 187.745L144.102 188.435ZM149.185 187.795H147.455V190.729C147.455 190.921 147.459 191.101 147.467 191.268C147.476 191.427 147.509 191.569 147.568 191.694C147.626 191.811 147.714 191.907 147.831 191.982C147.948 192.049 148.115 192.083 148.332 192.083C148.475 192.083 148.621 192.066 148.771 192.033C148.922 191.999 149.064 191.949 149.198 191.882L149.235 192.772C149.068 192.847 148.88 192.902 148.671 192.935C148.47 192.969 148.278 192.985 148.094 192.985C147.743 192.985 147.463 192.939 147.254 192.847C147.045 192.756 146.882 192.626 146.765 192.459C146.648 192.292 146.569 192.087 146.527 191.845C146.494 191.594 146.477 191.318 146.477 191.017V187.795H145.198V186.968H146.477V185.3H147.455V186.968H149.185V187.795ZM155.498 191.443C155.498 191.711 155.506 191.962 155.523 192.196C155.54 192.43 155.548 192.643 155.548 192.835H154.621C154.621 192.676 154.616 192.517 154.608 192.359C154.6 192.2 154.595 192.037 154.595 191.87H154.57C154.504 192.012 154.407 192.15 154.282 192.283C154.165 192.417 154.023 192.538 153.856 192.647C153.689 192.747 153.501 192.827 153.292 192.885C153.083 192.952 152.857 192.985 152.615 192.985C152.23 192.985 151.896 192.927 151.612 192.81C151.336 192.693 151.106 192.53 150.922 192.321C150.738 192.112 150.6 191.861 150.508 191.569C150.425 191.268 150.383 190.942 150.383 190.591V186.968H151.361V190.491C151.361 190.984 151.47 191.372 151.687 191.656C151.904 191.941 152.243 192.083 152.702 192.083C153.02 192.083 153.292 192.028 153.517 191.92C153.751 191.811 153.939 191.656 154.081 191.456C154.232 191.255 154.341 191.017 154.407 190.741C154.483 190.465 154.52 190.16 154.52 189.826V186.968H155.498V191.443ZM157.349 188.359C157.349 188.092 157.341 187.841 157.324 187.607C157.308 187.373 157.299 187.16 157.299 186.968H158.227C158.227 187.126 158.231 187.285 158.239 187.444C158.248 187.603 158.252 187.766 158.252 187.933H158.277C158.344 187.791 158.436 187.653 158.553 187.519C158.678 187.386 158.825 187.269 158.992 187.168C159.159 187.06 159.347 186.976 159.556 186.918C159.765 186.851 159.99 186.817 160.233 186.817C160.3 186.817 160.367 186.821 160.433 186.83C160.5 186.838 160.567 186.855 160.634 186.88L160.571 187.87C160.404 187.82 160.229 187.795 160.045 187.795C159.443 187.795 159.004 187.992 158.728 188.384C158.461 188.769 158.327 189.3 158.327 189.977V192.835H157.349V188.359ZM166.777 191.769C166.426 192.221 166.041 192.538 165.624 192.722C165.206 192.898 164.721 192.985 164.169 192.985C163.71 192.985 163.296 192.906 162.928 192.747C162.56 192.58 162.247 192.359 161.988 192.083C161.737 191.807 161.541 191.481 161.399 191.105C161.265 190.729 161.198 190.328 161.198 189.901C161.198 189.45 161.273 189.036 161.424 188.66C161.574 188.276 161.783 187.95 162.051 187.682C162.318 187.406 162.636 187.193 163.003 187.043C163.371 186.892 163.772 186.817 164.207 186.817C164.616 186.817 164.993 186.888 165.335 187.03C165.678 187.164 165.97 187.365 166.213 187.632C166.464 187.891 166.656 188.213 166.789 188.597C166.923 188.974 166.99 189.404 166.99 189.889V190.202H162.251C162.268 190.453 162.326 190.695 162.427 190.929C162.535 191.155 162.673 191.356 162.84 191.531C163.007 191.698 163.204 191.832 163.43 191.932C163.655 192.033 163.902 192.083 164.169 192.083C164.596 192.083 164.955 192.008 165.247 191.857C165.54 191.707 165.803 191.485 166.037 191.193L166.777 191.769ZM165.937 189.375C165.92 188.873 165.757 188.472 165.448 188.171C165.139 187.87 164.713 187.72 164.169 187.72C163.626 187.72 163.187 187.87 162.853 188.171C162.519 188.472 162.318 188.873 162.251 189.375H165.937ZM168.628 191.293C168.82 191.535 169.029 191.728 169.255 191.87C169.489 192.012 169.782 192.083 170.133 192.083C170.283 192.083 170.433 192.066 170.584 192.033C170.743 191.999 170.885 191.945 171.01 191.87C171.136 191.794 171.236 191.702 171.311 191.594C171.386 191.477 171.424 191.339 171.424 191.18C171.424 191.021 171.386 190.892 171.311 190.791C171.244 190.691 171.152 190.608 171.035 190.541C170.918 190.465 170.785 190.407 170.634 190.365C170.484 190.323 170.329 190.286 170.17 190.252C169.894 190.194 169.631 190.127 169.38 190.052C169.13 189.977 168.908 189.88 168.716 189.763C168.532 189.638 168.382 189.479 168.265 189.287C168.156 189.095 168.102 188.848 168.102 188.547C168.102 188.263 168.164 188.012 168.29 187.795C168.415 187.578 168.582 187.398 168.791 187.256C169 187.114 169.234 187.005 169.493 186.93C169.752 186.855 170.02 186.817 170.296 186.817C170.713 186.817 171.098 186.901 171.449 187.068C171.808 187.235 172.088 187.507 172.289 187.883L171.474 188.422C171.349 188.213 171.182 188.046 170.973 187.92C170.772 187.787 170.525 187.72 170.233 187.72C170.099 187.72 169.961 187.737 169.819 187.77C169.685 187.803 169.564 187.854 169.456 187.92C169.347 187.987 169.255 188.075 169.18 188.184C169.113 188.284 169.08 188.401 169.08 188.535C169.08 188.66 169.117 188.769 169.192 188.861C169.276 188.944 169.385 189.02 169.518 189.086C169.66 189.153 169.819 189.212 169.995 189.262C170.179 189.312 170.367 189.354 170.559 189.387C170.818 189.437 171.065 189.504 171.299 189.588C171.533 189.663 171.737 189.768 171.913 189.901C172.088 190.035 172.226 190.202 172.327 190.403C172.427 190.603 172.477 190.85 172.477 191.142C172.477 191.477 172.41 191.761 172.276 191.995C172.143 192.229 171.963 192.421 171.737 192.572C171.52 192.714 171.269 192.818 170.985 192.885C170.709 192.952 170.425 192.985 170.133 192.985C169.631 192.985 169.197 192.91 168.829 192.76C168.469 192.601 168.143 192.313 167.851 191.895L168.628 191.293ZM174.656 191.406C174.865 191.406 175.04 191.481 175.182 191.631C175.333 191.774 175.408 191.949 175.408 192.158C175.408 192.367 175.328 192.547 175.17 192.697C175.019 192.839 174.848 192.91 174.656 192.91C174.463 192.91 174.288 192.839 174.129 192.697C173.979 192.547 173.903 192.367 173.903 192.158C173.903 191.949 173.975 191.774 174.117 191.631C174.267 191.481 174.447 191.406 174.656 191.406Z" fill="black"/>
</svg>
