<svg width="217" height="202" viewBox="0 0 217 202" fill="none" xmlns="http://www.w3.org/2000/svg">
<path d="M29.449 100.747H35.9264V103.045H27.0461V88.4189H35.8219V90.7173H29.449V94.5202H35.2996V96.7977H29.449V100.747ZM47.3198 103.045H44.708L42.117 99.4723L39.5051 103.045H36.8724L40.8006 97.6753L37.0813 92.5979H39.6932L42.0961 95.8993L44.499 92.5979H47.1318L43.4125 97.6962L47.3198 103.045ZM49.8564 98.7827C50.0236 99.5767 50.4067 100.19 51.0056 100.621C51.6046 101.039 52.3359 101.248 53.1996 101.248C54.3976 101.248 55.296 100.817 55.895 99.9529L57.7547 101.039C56.7239 102.558 55.1985 103.317 53.1787 103.317C51.4793 103.317 50.1072 102.802 49.0624 101.771C48.0177 100.726 47.4953 99.4096 47.4953 97.8216C47.4953 96.2614 48.0107 94.959 49.0415 93.9142C50.0723 92.8556 51.3957 92.3262 53.0115 92.3262C54.5438 92.3262 55.7975 92.8625 56.7726 93.9351C57.7616 95.0077 58.2562 96.3102 58.2562 97.8425C58.2562 98.0793 58.2283 98.3927 58.1726 98.7827H49.8564ZM49.8355 96.944H55.9786C55.8254 96.0943 55.4702 95.4535 54.913 95.0217C54.3697 94.5898 53.7289 94.3739 52.9906 94.3739C52.1549 94.3739 51.4584 94.6038 50.9012 95.0635C50.344 95.5231 49.9888 96.15 49.8355 96.944ZM62.4985 94.353C63.0696 93.0576 64.1422 92.4098 65.7163 92.4098V94.8545C64.8526 94.7988 64.1004 95.0077 63.4596 95.4814C62.8188 95.941 62.4985 96.7072 62.4985 97.7798V103.045H60.2418V92.5979H62.4985V94.353ZM71.8251 103.317C70.251 103.317 68.9346 102.788 67.8759 101.729C66.8312 100.67 66.3088 99.3678 66.3088 97.8216C66.3088 96.2614 66.8312 94.959 67.8759 93.9142C68.9346 92.8556 70.251 92.3262 71.8251 92.3262C72.8419 92.3262 73.7683 92.57 74.6041 93.0576C75.4399 93.5451 76.0667 94.1998 76.4846 95.0217L74.5414 96.15C74.3046 95.6485 73.9424 95.2585 73.4549 94.9799C72.9812 94.6873 72.431 94.5411 71.8042 94.5411C70.8848 94.5411 70.1117 94.8545 69.4848 95.4814C68.8719 96.1082 68.5655 96.8883 68.5655 97.8216C68.5655 98.7549 68.8719 99.535 69.4848 100.162C70.1117 100.789 70.8848 101.102 71.8042 101.102C72.4171 101.102 72.9673 100.956 73.4549 100.663C73.9563 100.371 74.3324 99.9807 74.5832 99.4932L76.5264 100.601C76.0807 101.436 75.4399 102.098 74.6041 102.586C73.7683 103.073 72.8419 103.317 71.8251 103.317ZM80.2888 90.6129C80.0102 90.8915 79.6759 91.0308 79.2858 91.0308C78.8958 91.0308 78.5545 90.8915 78.262 90.6129C77.9834 90.3203 77.8441 89.979 77.8441 89.589C77.8441 89.199 77.9834 88.8647 78.262 88.5861C78.5406 88.2935 78.8819 88.1473 79.2858 88.1473C79.6898 88.1473 80.0311 88.2935 80.3097 88.5861C80.5883 88.8647 80.7276 89.199 80.7276 89.589C80.7276 89.979 80.5813 90.3203 80.2888 90.6129ZM78.1575 103.045V92.5979H80.4142V103.045H78.1575ZM84.9999 95.4814C84.9999 95.8296 85.188 96.1082 85.5641 96.3171C85.9541 96.5122 86.4208 96.6863 86.964 96.8395C87.5212 96.9788 88.0784 97.146 88.6356 97.341C89.1928 97.536 89.6595 97.8703 90.0356 98.3439C90.4256 98.8036 90.6206 99.3887 90.6206 100.099C90.6206 101.102 90.2306 101.889 89.4505 102.46C88.6844 103.031 87.7163 103.317 86.5461 103.317C85.5153 103.317 84.6308 103.101 83.8925 102.669C83.1542 102.237 82.6179 101.638 82.2836 100.872L84.2268 99.7439C84.589 100.747 85.3621 101.248 86.5461 101.248C87.7302 101.248 88.3222 100.858 88.3222 100.078C88.3222 99.7439 88.1272 99.4723 87.7371 99.2633C87.361 99.0544 86.8944 98.8802 86.3372 98.7409C85.7939 98.5877 85.2437 98.4136 84.6865 98.2186C84.1293 98.0236 83.6557 97.7032 83.2656 97.2574C82.8895 96.7977 82.7015 96.2196 82.7015 95.5231C82.7015 94.562 83.0637 93.7889 83.788 93.2038C84.5263 92.6188 85.4387 92.3262 86.5252 92.3262C87.3889 92.3262 88.155 92.5213 88.8237 92.9113C89.5062 93.2874 90.0286 93.8167 90.3908 94.4993L88.4894 95.5649C88.1272 94.7709 87.4725 94.3739 86.5252 94.3739C86.0934 94.3739 85.7312 94.4714 85.4387 94.6665C85.1462 94.8475 84.9999 95.1192 84.9999 95.4814ZM94.1151 98.7827C94.2823 99.5767 94.6654 100.19 95.2644 100.621C95.8633 101.039 96.5947 101.248 97.4583 101.248C98.6563 101.248 99.5548 100.817 100.154 99.9529L102.013 101.039C100.983 102.558 99.4573 103.317 97.4374 103.317C95.738 103.317 94.3659 102.802 93.3211 101.771C92.2764 100.726 91.754 99.4096 91.754 97.8216C91.754 96.2614 92.2694 94.959 93.3002 93.9142C94.331 92.8556 95.6544 92.3262 97.2703 92.3262C98.8025 92.3262 100.056 92.8625 101.031 93.9351C102.02 95.0077 102.515 96.3102 102.515 97.8425C102.515 98.0793 102.487 98.3927 102.431 98.7827H94.1151ZM94.0942 96.944H100.237C100.084 96.0943 99.7289 95.4535 99.1717 95.0217C98.6284 94.5898 97.9876 94.3739 97.2494 94.3739C96.4136 94.3739 95.7171 94.6038 95.1599 95.0635C94.6027 95.5231 94.2475 96.15 94.0942 96.944ZM118.437 90.7173H112.273V94.8127H118.228V97.1112H112.273V103.045H109.87V88.4189H118.437V90.7173ZM128.813 92.5979H131.07V103.045H128.813V101.541C127.964 102.725 126.745 103.317 125.157 103.317C123.722 103.317 122.496 102.788 121.479 101.729C120.462 100.656 119.954 99.3539 119.954 97.8216C119.954 96.2754 120.462 94.9729 121.479 93.9142C122.496 92.8556 123.722 92.3262 125.157 92.3262C126.745 92.3262 127.964 92.9113 128.813 94.0814V92.5979ZM123.151 100.224C123.778 100.851 124.565 101.165 125.512 101.165C126.459 101.165 127.246 100.851 127.873 100.224C128.5 99.5837 128.813 98.7827 128.813 97.8216C128.813 96.8604 128.5 96.0664 127.873 95.4396C127.246 94.7988 126.459 94.4784 125.512 94.4784C124.565 94.4784 123.778 94.7988 123.151 95.4396C122.524 96.0664 122.211 96.8604 122.211 97.8216C122.211 98.7827 122.524 99.5837 123.151 100.224ZM138.631 103.317C137.057 103.317 135.741 102.788 134.682 101.729C133.638 100.67 133.115 99.3678 133.115 97.8216C133.115 96.2614 133.638 94.959 134.682 93.9142C135.741 92.8556 137.057 92.3262 138.631 92.3262C139.648 92.3262 140.575 92.57 141.41 93.0576C142.246 93.5451 142.873 94.1998 143.291 95.0217L141.348 96.15C141.111 95.6485 140.749 95.2585 140.261 94.9799C139.788 94.6873 139.237 94.5411 138.611 94.5411C137.691 94.5411 136.918 94.8545 136.291 95.4814C135.678 96.1082 135.372 96.8883 135.372 97.8216C135.372 98.7549 135.678 99.535 136.291 100.162C136.918 100.789 137.691 101.102 138.611 101.102C139.223 101.102 139.774 100.956 140.261 100.663C140.763 100.371 141.139 99.9807 141.39 99.4932L143.333 100.601C142.887 101.436 142.246 102.098 141.41 102.586C140.575 103.073 139.648 103.317 138.631 103.317ZM147.095 90.6129C146.817 90.8915 146.482 91.0308 146.092 91.0308C145.702 91.0308 145.361 90.8915 145.068 90.6129C144.79 90.3203 144.65 89.979 144.65 89.589C144.65 89.199 144.79 88.8647 145.068 88.5861C145.347 88.2935 145.688 88.1473 146.092 88.1473C146.496 88.1473 146.837 88.2935 147.116 88.5861C147.395 88.8647 147.534 89.199 147.534 89.589C147.534 89.979 147.388 90.3203 147.095 90.6129ZM144.964 103.045V92.5979H147.221V103.045H144.964ZM149.841 103.045V87.7921H152.097V103.045H149.841ZM156.849 90.6129C156.57 90.8915 156.236 91.0308 155.846 91.0308C155.456 91.0308 155.115 90.8915 154.822 90.6129C154.543 90.3203 154.404 89.979 154.404 89.589C154.404 89.199 154.543 88.8647 154.822 88.5861C155.101 88.2935 155.442 88.1473 155.846 88.1473C156.25 88.1473 156.591 88.2935 156.87 88.5861C157.148 88.8647 157.288 89.199 157.288 89.589C157.288 89.979 157.141 90.3203 156.849 90.6129ZM154.718 103.045V92.5979H156.974V103.045H154.718ZM165.424 94.7709H162.833V99.7857C162.833 100.218 162.931 100.531 163.126 100.726C163.321 100.907 163.606 101.012 163.982 101.039C164.372 101.053 164.853 101.046 165.424 101.018V103.045C163.697 103.254 162.457 103.108 161.705 102.606C160.953 102.091 160.576 101.151 160.576 99.7857V94.7709H158.654V92.5979H160.576V90.3412L162.833 89.6726V92.5979H165.424V94.7709ZM169.602 90.6129C169.323 90.8915 168.989 91.0308 168.599 91.0308C168.209 91.0308 167.868 90.8915 167.575 90.6129C167.297 90.3203 167.157 89.979 167.157 89.589C167.157 89.199 167.297 88.8647 167.575 88.5861C167.854 88.2935 168.195 88.1473 168.599 88.1473C169.003 88.1473 169.344 88.2935 169.623 88.5861C169.902 88.8647 170.041 89.199 170.041 89.589C170.041 89.979 169.895 90.3203 169.602 90.6129ZM167.471 103.045V92.5979H169.727V103.045H167.471ZM174.124 98.7827C174.291 99.5767 174.674 100.19 175.273 100.621C175.872 101.039 176.603 101.248 177.467 101.248C178.665 101.248 179.563 100.817 180.162 99.9529L182.022 101.039C180.991 102.558 179.466 103.317 177.446 103.317C175.746 103.317 174.374 102.802 173.33 101.771C172.285 100.726 171.763 99.4096 171.763 97.8216C171.763 96.2614 172.278 94.959 173.309 93.9142C174.34 92.8556 175.663 92.3262 177.279 92.3262C178.811 92.3262 180.065 92.8625 181.04 93.9351C182.029 95.0077 182.523 96.3102 182.523 97.8425C182.523 98.0793 182.495 98.3927 182.44 98.7827H174.124ZM174.103 96.944H180.246C180.093 96.0943 179.737 95.4535 179.18 95.0217C178.637 94.5898 177.996 94.3739 177.258 94.3739C176.422 94.3739 175.726 94.6038 175.168 95.0635C174.611 95.5231 174.256 96.15 174.103 96.944ZM186.128 95.4814C186.128 95.8296 186.316 96.1082 186.692 96.3171C187.082 96.5122 187.549 96.6863 188.092 96.8395C188.649 96.9788 189.206 97.146 189.763 97.341C190.321 97.536 190.787 97.8703 191.163 98.3439C191.553 98.8036 191.748 99.3887 191.748 100.099C191.748 101.102 191.358 101.889 190.578 102.46C189.812 103.031 188.844 103.317 187.674 103.317C186.643 103.317 185.759 103.101 185.02 102.669C184.282 102.237 183.746 101.638 183.411 100.872L185.355 99.7439C185.717 100.747 186.49 101.248 187.674 101.248C188.858 101.248 189.45 100.858 189.45 100.078C189.45 99.7439 189.255 99.4723 188.865 99.2633C188.489 99.0544 188.022 98.8802 187.465 98.7409C186.922 98.5877 186.371 98.4136 185.814 98.2186C185.257 98.0236 184.783 97.7032 184.393 97.2574C184.017 96.7977 183.829 96.2196 183.829 95.5231C183.829 94.562 184.191 93.7889 184.916 93.2038C185.654 92.6188 186.566 92.3262 187.653 92.3262C188.517 92.3262 189.283 92.5213 189.951 92.9113C190.634 93.2874 191.156 93.8167 191.519 94.4993L189.617 95.5649C189.255 94.7709 188.6 94.3739 187.653 94.3739C187.221 94.3739 186.859 94.4714 186.566 94.6665C186.274 94.8475 186.128 95.1192 186.128 95.4814Z" fill="black"/>
<path d="M145.891 18.4224H144.259V11.0765C144.259 7.47568 141.329 4.54691 137.729 4.54691C136.471 4.54691 135.294 4.90463 134.296 5.52444C133.629 2.62882 131.028 0.465881 127.935 0.465881H127.933C124.334 0.465881 121.403 3.39465 121.403 6.99552V18.4224H96.5946V6.99552C96.5946 3.39465 93.6639 0.465881 90.063 0.465881C86.9697 0.465881 84.3694 2.62882 83.7017 5.52444C82.7044 4.90463 81.5273 4.54691 80.2686 4.54691C76.669 4.54691 73.7389 7.47568 73.7389 11.0765V18.4224H72.1065C69.4067 18.4224 67.2093 20.6198 67.2093 23.3196V29.8493C67.2093 32.5491 69.4067 34.7465 72.1065 34.7465H73.7389V42.0923C73.7389 45.6932 76.669 48.622 80.2686 48.622C81.5273 48.622 82.7044 48.2642 83.7017 47.6444C84.3694 50.5401 86.9697 52.703 90.063 52.703H90.0649C93.6639 52.703 96.5946 49.7742 96.5946 46.1734V34.7465H121.403V46.1734C121.403 49.7742 124.334 52.703 127.935 52.703C131.028 52.703 133.629 50.5401 134.296 47.6444C135.294 48.2642 136.471 48.622 137.729 48.622C141.329 48.622 144.259 45.6932 144.259 42.0923V34.7465H145.891C148.591 34.7465 150.789 32.5491 150.789 29.8493V23.3196C150.789 20.6198 148.591 18.4224 145.891 18.4224V18.4224ZM73.7389 31.4817H72.1065C71.2068 31.4817 70.4741 30.749 70.4741 29.8493V23.3196C70.4741 22.4199 71.2068 21.6872 72.1065 21.6872H73.7389V31.4817ZM83.5334 42.0923C83.5334 42.9933 83.168 43.8096 82.5769 44.4007C81.9858 44.9918 81.1696 45.3572 80.2686 45.3572C78.4678 45.3572 77.0037 43.8931 77.0037 42.0923V11.0765C77.0037 9.27579 78.4678 7.81173 80.2686 7.81173C82.0693 7.81173 83.5334 9.27579 83.5334 11.0765V42.0923ZM93.3298 46.1734C93.3298 47.9741 91.8638 49.4382 90.0649 49.4382H90.063C88.2642 49.4382 86.7982 47.9741 86.7982 46.1734V6.99552C86.7982 5.19477 88.2642 3.7307 90.0649 3.7307C91.8638 3.7307 93.3298 5.19477 93.3298 6.99552V46.1734ZM121.394 24.952H109.978C109.077 24.952 108.346 25.6834 108.346 26.5844C108.346 27.4855 109.077 28.2168 109.978 28.2168H121.394V31.4817H96.5863V21.6872H121.394V24.952ZM131.2 46.1734C131.2 47.9741 129.734 49.4382 127.933 49.4382C126.134 49.4382 124.668 47.9741 124.668 46.1734V26.668C124.667 26.7037 124.664 26.7394 124.659 26.7738V26.3951C124.664 26.4295 124.667 26.4652 124.668 26.5009V6.99552C124.668 5.19477 126.134 3.7307 127.933 3.7307H127.935C129.734 3.7307 131.2 5.19477 131.2 6.99552V46.1734ZM140.994 42.0923C140.994 43.8931 139.53 45.3572 137.729 45.3572C135.929 45.3572 134.465 43.8931 134.465 42.0923V11.0765C134.465 9.27579 135.929 7.81173 137.729 7.81173C139.53 7.81173 140.994 9.27579 140.994 11.0765V42.0923ZM147.524 29.8493C147.524 30.749 146.791 31.4817 145.891 31.4817H144.259V21.6872H145.891C146.791 21.6872 147.524 22.4199 147.524 23.3196V29.8493Z" fill="#FD5B2F"/>
<path d="M103.452 28.2168C102.55 28.2168 101.819 27.4861 101.819 26.5844C101.819 25.6828 102.549 24.952 103.45 24.952H103.452C104.353 24.952 105.084 25.6828 105.084 26.5844C105.084 27.4861 104.353 28.2168 103.452 28.2168Z" fill="#FD5B2F"/>
<path d="M39.9907 133.959H40.9811L44.7547 142.835H43.5261L42.6235 140.654H38.1854L37.2702 142.835H36.0792L39.9907 133.959ZM40.4671 135.313H40.442L38.5991 139.676H42.2223L40.4671 135.313ZM45.8467 133.357H46.8246V142.835H45.8467V133.357ZM48.8708 133.357H49.8486V142.835H48.8708V133.357ZM51.4563 139.901C51.4563 139.442 51.5357 139.024 51.6945 138.648C51.8533 138.272 52.0706 137.95 52.3464 137.682C52.6222 137.406 52.9524 137.193 53.3368 137.043C53.7213 136.892 54.1392 136.817 54.5905 136.817C55.0418 136.817 55.4597 136.892 55.8442 137.043C56.2287 137.193 56.5588 137.406 56.8346 137.682C57.1104 137.95 57.3277 138.272 57.4865 138.648C57.6453 139.024 57.7247 139.442 57.7247 139.901C57.7247 140.361 57.6453 140.779 57.4865 141.155C57.3277 141.531 57.1104 141.857 56.8346 142.133C56.5588 142.4 56.2287 142.609 55.8442 142.76C55.4597 142.91 55.0418 142.985 54.5905 142.985C54.1392 142.985 53.7213 142.91 53.3368 142.76C52.9524 142.609 52.6222 142.4 52.3464 142.133C52.0706 141.857 51.8533 141.531 51.6945 141.155C51.5357 140.779 51.4563 140.361 51.4563 139.901ZM52.5094 139.901C52.5094 140.211 52.5554 140.499 52.6473 140.766C52.7476 141.025 52.8897 141.255 53.0736 141.456C53.2574 141.648 53.4747 141.803 53.7255 141.92C53.9846 142.028 54.2729 142.083 54.5905 142.083C54.9081 142.083 55.1923 142.028 55.443 141.92C55.7021 141.803 55.9236 141.648 56.1075 141.456C56.2914 141.255 56.4293 141.025 56.5212 140.766C56.6215 140.499 56.6716 140.211 56.6716 139.901C56.6716 139.592 56.6215 139.308 56.5212 139.049C56.4293 138.781 56.2914 138.552 56.1075 138.359C55.9236 138.159 55.7021 138.004 55.443 137.895C55.1923 137.778 54.9081 137.72 54.5905 137.72C54.2729 137.72 53.9846 137.778 53.7255 137.895C53.4747 138.004 53.2574 138.159 53.0736 138.359C52.8897 138.552 52.7476 138.781 52.6473 139.049C52.5554 139.308 52.5094 139.592 52.5094 139.901ZM65.5321 142.835H64.5668L62.8994 138.322H62.8743L61.3949 142.835H60.392L58.4864 136.968H59.5645L60.906 141.481H60.9311L62.448 136.968H63.4761L65.0181 141.481H65.0432L66.3721 136.968H67.4252L65.5321 142.835ZM68.6188 136.968H69.5967V142.835H68.6188V136.968ZM68.3932 134.673C68.3932 134.481 68.46 134.314 68.5938 134.172C68.7358 134.03 68.9072 133.959 69.1078 133.959C69.3084 133.959 69.4755 134.03 69.6092 134.172C69.7513 134.314 69.8224 134.481 69.8224 134.673C69.8224 134.882 69.7555 135.054 69.6218 135.187C69.4881 135.321 69.3167 135.388 69.1078 135.388C68.8988 135.388 68.7275 135.321 68.5938 135.187C68.46 135.054 68.3932 134.882 68.3932 134.673ZM71.5429 138.359C71.5429 138.092 71.5345 137.841 71.5178 137.607C71.5011 137.373 71.4927 137.16 71.4927 136.968H72.4204C72.4204 137.126 72.4246 137.285 72.433 137.444C72.4413 137.603 72.4455 137.766 72.4455 137.933H72.4706C72.5375 137.791 72.6294 137.653 72.7464 137.519C72.8718 137.386 73.018 137.269 73.1852 137.168C73.3524 137.06 73.5404 136.976 73.7494 136.918C73.9583 136.851 74.184 136.817 74.4264 136.817C74.8108 136.817 75.141 136.876 75.4168 136.993C75.7009 137.11 75.935 137.273 76.1188 137.482C76.3027 137.691 76.4364 137.946 76.52 138.246C76.612 138.539 76.6579 138.861 76.6579 139.212V142.835H75.68V139.312C75.68 138.819 75.5714 138.43 75.3541 138.146C75.1368 137.862 74.7983 137.72 74.3386 137.72C74.021 137.72 73.7452 137.774 73.5112 137.883C73.2855 137.992 73.0974 138.146 72.947 138.347C72.8049 138.547 72.6963 138.786 72.621 139.061C72.5542 139.337 72.5207 139.642 72.5207 139.977V142.835H71.5429V138.359ZM84.3639 142.572C84.3639 143.642 84.0881 144.452 83.5365 145.004C82.9932 145.564 82.2034 145.844 81.167 145.844C80.5903 145.844 80.0679 145.76 79.5999 145.593C79.1402 145.426 78.7014 145.138 78.2835 144.728L78.9856 143.926C79.2948 144.26 79.6208 144.511 79.9635 144.678C80.3145 144.853 80.7157 144.941 81.167 144.941C81.6016 144.941 81.961 144.874 82.2452 144.741C82.5377 144.615 82.7675 144.44 82.9347 144.214C83.1019 143.997 83.2189 143.746 83.2857 143.462C83.3526 143.178 83.386 142.881 83.386 142.572V141.819H83.361C83.1269 142.196 82.8219 142.471 82.4458 142.647C82.0697 142.822 81.6852 142.91 81.2924 142.91C80.8327 142.91 80.4106 142.835 80.0261 142.685C79.6417 142.534 79.3115 142.325 79.0357 142.058C78.7599 141.79 78.5468 141.473 78.3963 141.105C78.2459 140.737 78.1707 140.336 78.1707 139.901C78.1707 139.425 78.2459 138.994 78.3963 138.61C78.5468 138.226 78.7557 137.904 79.0232 137.645C79.299 137.377 79.6291 137.172 80.0136 137.03C80.3981 136.888 80.8243 136.817 81.2924 136.817C81.493 136.817 81.6935 136.842 81.8941 136.892C82.0947 136.934 82.287 137.005 82.4708 137.106C82.6631 137.198 82.8344 137.319 82.9849 137.469C83.1353 137.611 83.2607 137.778 83.361 137.971H83.386V136.968H84.3639V142.572ZM79.2238 139.901C79.2238 140.202 79.2781 140.482 79.3868 140.741C79.4954 140.992 79.6417 141.214 79.8256 141.406C80.0178 141.59 80.2393 141.736 80.49 141.845C80.7407 141.953 81.0082 142.008 81.2924 142.008C81.6267 142.008 81.9234 141.949 82.1825 141.832C82.4416 141.715 82.6589 141.56 82.8344 141.368C83.0183 141.168 83.1562 140.942 83.2481 140.691C83.3401 140.432 83.386 140.16 83.386 139.876C83.386 139.559 83.3359 139.27 83.2356 139.011C83.1353 138.744 82.9932 138.514 82.8093 138.322C82.6255 138.129 82.404 137.983 82.1449 137.883C81.8858 137.774 81.6016 137.72 81.2924 137.72C80.9831 137.72 80.699 137.778 80.4399 137.895C80.1891 138.004 79.9718 138.159 79.7879 138.359C79.6124 138.552 79.4745 138.781 79.3742 139.049C79.2739 139.308 79.2238 139.592 79.2238 139.901ZM93.8374 138.435C93.6285 138.184 93.4028 138.004 93.1604 137.895C92.918 137.778 92.6506 137.72 92.3581 137.72C92.0321 137.72 91.7437 137.778 91.493 137.895C91.2423 138.004 91.0333 138.159 90.8662 138.359C90.7074 138.56 90.5862 138.794 90.5026 139.061C90.419 139.32 90.3772 139.6 90.3772 139.901C90.3772 140.202 90.4232 140.486 90.5151 140.754C90.6154 141.013 90.7491 141.243 90.9163 141.443C91.0918 141.644 91.3008 141.803 91.5432 141.92C91.7855 142.028 92.0572 142.083 92.3581 142.083C93.0016 142.083 93.4989 141.84 93.8499 141.356L94.5771 142.045C94.2929 142.371 93.9586 142.609 93.5741 142.76C93.1897 142.91 92.7843 142.985 92.3581 142.985C91.9067 142.985 91.493 142.91 91.1169 142.76C90.7408 142.609 90.419 142.396 90.1516 142.12C89.8925 141.845 89.6877 141.519 89.5372 141.142C89.3952 140.766 89.3241 140.353 89.3241 139.901C89.3241 139.458 89.3952 139.049 89.5372 138.673C89.6877 138.297 89.8966 137.971 90.1641 137.695C90.4315 137.419 90.7491 137.206 91.1169 137.055C91.493 136.897 91.9067 136.817 92.3581 136.817C92.7927 136.817 93.2022 136.892 93.5867 137.043C93.9795 137.193 94.3222 137.427 94.6147 137.745L93.8374 138.435ZM95.3722 139.901C95.3722 139.442 95.4516 139.024 95.6104 138.648C95.7692 138.272 95.9865 137.95 96.2623 137.682C96.5381 137.406 96.8683 137.193 97.2527 137.043C97.6372 136.892 98.0551 136.817 98.5064 136.817C98.9577 136.817 99.3756 136.892 99.7601 137.043C100.145 137.193 100.475 137.406 100.751 137.682C101.026 137.95 101.244 138.272 101.402 138.648C101.561 139.024 101.641 139.442 101.641 139.901C101.641 140.361 101.561 140.779 101.402 141.155C101.244 141.531 101.026 141.857 100.751 142.133C100.475 142.4 100.145 142.609 99.7601 142.76C99.3756 142.91 98.9577 142.985 98.5064 142.985C98.0551 142.985 97.6372 142.91 97.2527 142.76C96.8683 142.609 96.5381 142.4 96.2623 142.133C95.9865 141.857 95.7692 141.531 95.6104 141.155C95.4516 140.779 95.3722 140.361 95.3722 139.901ZM96.4253 139.901C96.4253 140.211 96.4713 140.499 96.5632 140.766C96.6635 141.025 96.8056 141.255 96.9895 141.456C97.1733 141.648 97.3906 141.803 97.6414 141.92C97.9005 142.028 98.1888 142.083 98.5064 142.083C98.824 142.083 99.1082 142.028 99.3589 141.92C99.618 141.803 99.8395 141.648 100.023 141.456C100.207 141.255 100.345 141.025 100.437 140.766C100.537 140.499 100.588 140.211 100.588 139.901C100.588 139.592 100.537 139.308 100.437 139.049C100.345 138.781 100.207 138.552 100.023 138.359C99.8395 138.159 99.618 138.004 99.3589 137.895C99.1082 137.778 98.824 137.72 98.5064 137.72C98.1888 137.72 97.9005 137.778 97.6414 137.895C97.3906 138.004 97.1733 138.159 96.9895 138.359C96.8056 138.552 96.6635 138.781 96.5632 139.049C96.4713 139.308 96.4253 139.592 96.4253 139.901ZM103.28 141.293C103.472 141.535 103.681 141.728 103.907 141.87C104.141 142.012 104.433 142.083 104.784 142.083C104.935 142.083 105.085 142.066 105.236 142.033C105.394 141.999 105.536 141.945 105.662 141.87C105.787 141.794 105.888 141.702 105.963 141.594C106.038 141.477 106.076 141.339 106.076 141.18C106.076 141.021 106.038 140.892 105.963 140.791C105.896 140.691 105.804 140.608 105.687 140.541C105.57 140.465 105.436 140.407 105.286 140.365C105.135 140.323 104.981 140.286 104.822 140.252C104.546 140.194 104.283 140.127 104.032 140.052C103.781 139.977 103.56 139.88 103.368 139.763C103.184 139.638 103.033 139.479 102.916 139.287C102.808 139.095 102.753 138.848 102.753 138.547C102.753 138.263 102.816 138.012 102.941 137.795C103.067 137.578 103.234 137.398 103.443 137.256C103.652 137.114 103.886 137.005 104.145 136.93C104.404 136.855 104.671 136.817 104.947 136.817C105.365 136.817 105.75 136.901 106.101 137.068C106.46 137.235 106.74 137.507 106.941 137.883L106.126 138.422C106 138.213 105.833 138.046 105.624 137.92C105.424 137.787 105.177 137.72 104.885 137.72C104.751 137.72 104.613 137.737 104.471 137.77C104.337 137.803 104.216 137.854 104.107 137.92C103.999 137.987 103.907 138.075 103.831 138.184C103.765 138.284 103.731 138.401 103.731 138.535C103.731 138.66 103.769 138.769 103.844 138.861C103.928 138.944 104.036 139.02 104.17 139.086C104.312 139.153 104.471 139.212 104.646 139.262C104.83 139.312 105.018 139.354 105.211 139.387C105.47 139.437 105.716 139.504 105.95 139.588C106.184 139.663 106.389 139.768 106.565 139.901C106.74 140.035 106.878 140.202 106.978 140.403C107.079 140.603 107.129 140.85 107.129 141.142C107.129 141.477 107.062 141.761 106.928 141.995C106.794 142.229 106.615 142.421 106.389 142.572C106.172 142.714 105.921 142.818 105.637 142.885C105.361 142.952 105.077 142.985 104.784 142.985C104.283 142.985 103.848 142.91 103.48 142.76C103.121 142.601 102.795 142.313 102.503 141.895L103.28 141.293ZM111.702 137.795H109.972V140.729C109.972 140.921 109.976 141.101 109.984 141.268C109.993 141.427 110.026 141.569 110.085 141.694C110.143 141.811 110.231 141.907 110.348 141.982C110.465 142.049 110.632 142.083 110.849 142.083C110.991 142.083 111.138 142.066 111.288 142.033C111.439 141.999 111.581 141.949 111.714 141.882L111.752 142.772C111.585 142.847 111.397 142.902 111.188 142.935C110.987 142.969 110.795 142.985 110.611 142.985C110.26 142.985 109.98 142.939 109.771 142.847C109.562 142.756 109.399 142.626 109.282 142.459C109.165 142.292 109.086 142.087 109.044 141.845C109.011 141.594 108.994 141.318 108.994 141.017V137.795H107.715V136.968H108.994V135.3H109.972V136.968H111.702V137.795ZM116.515 141.293C116.707 141.535 116.916 141.728 117.141 141.87C117.375 142.012 117.668 142.083 118.019 142.083C118.169 142.083 118.32 142.066 118.47 142.033C118.629 141.999 118.771 141.945 118.897 141.87C119.022 141.794 119.122 141.702 119.198 141.594C119.273 141.477 119.31 141.339 119.31 141.18C119.31 141.021 119.273 140.892 119.198 140.791C119.131 140.691 119.039 140.608 118.922 140.541C118.805 140.465 118.671 140.407 118.521 140.365C118.37 140.323 118.215 140.286 118.057 140.252C117.781 140.194 117.518 140.127 117.267 140.052C117.016 139.977 116.795 139.88 116.602 139.763C116.418 139.638 116.268 139.479 116.151 139.287C116.042 139.095 115.988 138.848 115.988 138.547C115.988 138.263 116.051 138.012 116.176 137.795C116.301 137.578 116.469 137.398 116.678 137.256C116.887 137.114 117.121 137.005 117.38 136.93C117.639 136.855 117.906 136.817 118.182 136.817C118.6 136.817 118.984 136.901 119.335 137.068C119.695 137.235 119.975 137.507 120.175 137.883L119.36 138.422C119.235 138.213 119.068 138.046 118.859 137.92C118.658 137.787 118.412 137.72 118.119 137.72C117.986 137.72 117.848 137.737 117.706 137.77C117.572 137.803 117.451 137.854 117.342 137.92C117.233 137.987 117.141 138.075 117.066 138.184C116.999 138.284 116.966 138.401 116.966 138.535C116.966 138.66 117.004 138.769 117.079 138.861C117.162 138.944 117.271 139.02 117.405 139.086C117.547 139.153 117.706 139.212 117.881 139.262C118.065 139.312 118.253 139.354 118.445 139.387C118.704 139.437 118.951 139.504 119.185 139.588C119.419 139.663 119.624 139.768 119.799 139.901C119.975 140.035 120.113 140.202 120.213 140.403C120.313 140.603 120.363 140.85 120.363 141.142C120.363 141.477 120.297 141.761 120.163 141.995C120.029 142.229 119.849 142.421 119.624 142.572C119.406 142.714 119.156 142.818 118.872 142.885C118.596 142.952 118.312 142.985 118.019 142.985C117.518 142.985 117.083 142.91 116.715 142.76C116.356 142.601 116.03 142.313 115.737 141.895L116.515 141.293ZM121.652 137.72C121.953 137.411 122.308 137.185 122.718 137.043C123.136 136.892 123.558 136.817 123.984 136.817C124.853 136.817 125.48 137.022 125.864 137.432C126.249 137.841 126.441 138.464 126.441 139.3V141.819C126.441 141.987 126.449 142.162 126.466 142.346C126.483 142.522 126.504 142.685 126.529 142.835H125.589C125.555 142.701 125.534 142.555 125.526 142.396C125.526 142.229 125.526 142.083 125.526 141.957H125.501C125.309 142.258 125.05 142.505 124.724 142.697C124.406 142.889 124.021 142.985 123.57 142.985C123.269 142.985 122.985 142.948 122.718 142.873C122.459 142.797 122.229 142.689 122.028 142.547C121.836 142.396 121.681 142.212 121.564 141.995C121.447 141.778 121.389 141.527 121.389 141.243C121.389 140.758 121.514 140.378 121.765 140.102C122.016 139.826 122.325 139.621 122.693 139.488C123.069 139.354 123.47 139.27 123.896 139.237C124.331 139.203 124.728 139.187 125.087 139.187H125.463V139.011C125.463 138.585 125.334 138.263 125.075 138.046C124.824 137.829 124.469 137.72 124.009 137.72C123.691 137.72 123.378 137.774 123.069 137.883C122.768 137.983 122.5 138.142 122.266 138.359L121.652 137.72ZM124.485 140.014C123.858 140.014 123.361 140.102 122.993 140.277C122.626 140.453 122.442 140.741 122.442 141.142C122.442 141.51 122.563 141.774 122.805 141.932C123.056 142.083 123.365 142.158 123.733 142.158C124.017 142.158 124.264 142.112 124.473 142.02C124.69 141.92 124.87 141.79 125.012 141.631C125.154 141.473 125.263 141.289 125.338 141.08C125.413 140.862 125.455 140.633 125.463 140.39V140.014H124.485ZM130.899 142.835H129.82L127.426 136.968H128.567L130.397 141.569H130.422L132.165 136.968H133.218L130.899 142.835ZM134.364 136.968H135.342V142.835H134.364V136.968ZM134.138 134.673C134.138 134.481 134.205 134.314 134.339 134.172C134.481 134.03 134.652 133.959 134.853 133.959C135.054 133.959 135.221 134.03 135.355 134.172C135.497 134.314 135.568 134.481 135.568 134.673C135.568 134.882 135.501 135.054 135.367 135.187C135.233 135.321 135.062 135.388 134.853 135.388C134.644 135.388 134.473 135.321 134.339 135.187C134.205 135.054 134.138 134.882 134.138 134.673ZM137.288 138.359C137.288 138.092 137.28 137.841 137.263 137.607C137.246 137.373 137.238 137.16 137.238 136.968H138.166C138.166 137.126 138.17 137.285 138.178 137.444C138.187 137.603 138.191 137.766 138.191 137.933H138.216C138.283 137.791 138.375 137.653 138.492 137.519C138.617 137.386 138.763 137.269 138.931 137.168C139.098 137.06 139.286 136.976 139.495 136.918C139.704 136.851 139.929 136.817 140.172 136.817C140.556 136.817 140.886 136.876 141.162 136.993C141.446 137.11 141.68 137.273 141.864 137.482C142.048 137.691 142.182 137.946 142.265 138.246C142.357 138.539 142.403 138.861 142.403 139.212V142.835H141.425V139.312C141.425 138.819 141.317 138.43 141.099 138.146C140.882 137.862 140.544 137.72 140.084 137.72C139.766 137.72 139.49 137.774 139.256 137.883C139.031 137.992 138.843 138.146 138.692 138.347C138.55 138.547 138.442 138.786 138.366 139.061C138.299 139.337 138.266 139.642 138.266 139.977V142.835H137.288V138.359ZM150.109 142.572C150.109 143.642 149.833 144.452 149.282 145.004C148.739 145.564 147.949 145.844 146.912 145.844C146.336 145.844 145.813 145.76 145.345 145.593C144.886 145.426 144.447 145.138 144.029 144.728L144.731 143.926C145.04 144.26 145.366 144.511 145.709 144.678C146.06 144.853 146.461 144.941 146.912 144.941C147.347 144.941 147.706 144.874 147.99 144.741C148.283 144.615 148.513 144.44 148.68 144.214C148.847 143.997 148.964 143.746 149.031 143.462C149.098 143.178 149.131 142.881 149.131 142.572V141.819H149.106C148.872 142.196 148.567 142.471 148.191 142.647C147.815 142.822 147.43 142.91 147.038 142.91C146.578 142.91 146.156 142.835 145.771 142.685C145.387 142.534 145.057 142.325 144.781 142.058C144.505 141.79 144.292 141.473 144.142 141.105C143.991 140.737 143.916 140.336 143.916 139.901C143.916 139.425 143.991 138.994 144.142 138.61C144.292 138.226 144.501 137.904 144.768 137.645C145.044 137.377 145.374 137.172 145.759 137.03C146.143 136.888 146.57 136.817 147.038 136.817C147.238 136.817 147.439 136.842 147.639 136.892C147.84 136.934 148.032 137.005 148.216 137.106C148.408 137.198 148.58 137.319 148.73 137.469C148.881 137.611 149.006 137.778 149.106 137.971H149.131V136.968H150.109V142.572ZM144.969 139.901C144.969 140.202 145.023 140.482 145.132 140.741C145.241 140.992 145.387 141.214 145.571 141.406C145.763 141.59 145.985 141.736 146.235 141.845C146.486 141.953 146.754 142.008 147.038 142.008C147.372 142.008 147.669 141.949 147.928 141.832C148.187 141.715 148.404 141.56 148.58 141.368C148.764 141.168 148.901 140.942 148.993 140.691C149.085 140.432 149.131 140.16 149.131 139.876C149.131 139.559 149.081 139.27 148.981 139.011C148.881 138.744 148.739 138.514 148.555 138.322C148.371 138.129 148.149 137.983 147.89 137.883C147.631 137.774 147.347 137.72 147.038 137.72C146.728 137.72 146.444 137.778 146.185 137.895C145.934 138.004 145.717 138.159 145.533 138.359C145.358 138.552 145.22 138.781 145.12 139.049C145.019 139.308 144.969 139.592 144.969 139.901ZM152.044 141.293C152.236 141.535 152.445 141.728 152.671 141.87C152.905 142.012 153.197 142.083 153.548 142.083C153.699 142.083 153.849 142.066 154 142.033C154.159 141.999 154.301 141.945 154.426 141.87C154.551 141.794 154.652 141.702 154.727 141.594C154.802 141.477 154.84 141.339 154.84 141.18C154.84 141.021 154.802 140.892 154.727 140.791C154.66 140.691 154.568 140.608 154.451 140.541C154.334 140.465 154.2 140.407 154.05 140.365C153.899 140.323 153.745 140.286 153.586 140.252C153.31 140.194 153.047 140.127 152.796 140.052C152.545 139.977 152.324 139.88 152.132 139.763C151.948 139.638 151.797 139.479 151.68 139.287C151.572 139.095 151.517 138.848 151.517 138.547C151.517 138.263 151.58 138.012 151.706 137.795C151.831 137.578 151.998 137.398 152.207 137.256C152.416 137.114 152.65 137.005 152.909 136.93C153.168 136.855 153.436 136.817 153.711 136.817C154.129 136.817 154.514 136.901 154.865 137.068C155.224 137.235 155.504 137.507 155.705 137.883L154.89 138.422C154.765 138.213 154.597 138.046 154.388 137.92C154.188 137.787 153.941 137.72 153.649 137.72C153.515 137.72 153.377 137.737 153.235 137.77C153.101 137.803 152.98 137.854 152.871 137.92C152.763 137.987 152.671 138.075 152.596 138.184C152.529 138.284 152.495 138.401 152.495 138.535C152.495 138.66 152.533 138.769 152.608 138.861C152.692 138.944 152.8 139.02 152.934 139.086C153.076 139.153 153.235 139.212 153.411 139.262C153.594 139.312 153.782 139.354 153.975 139.387C154.234 139.437 154.48 139.504 154.714 139.588C154.948 139.663 155.153 139.768 155.329 139.901C155.504 140.035 155.642 140.202 155.742 140.403C155.843 140.603 155.893 140.85 155.893 141.142C155.893 141.477 155.826 141.761 155.692 141.995C155.559 142.229 155.379 142.421 155.153 142.572C154.936 142.714 154.685 142.818 154.401 142.885C154.125 142.952 153.841 142.985 153.548 142.985C153.047 142.985 152.612 142.91 152.245 142.76C151.885 142.601 151.559 142.313 151.267 141.895L152.044 141.293ZM160.671 137.72C160.972 137.411 161.327 137.185 161.736 137.043C162.154 136.892 162.576 136.817 163.003 136.817C163.872 136.817 164.499 137.022 164.883 137.432C165.268 137.841 165.46 138.464 165.46 139.3V141.819C165.46 141.987 165.468 142.162 165.485 142.346C165.502 142.522 165.522 142.685 165.548 142.835H164.607C164.574 142.701 164.553 142.555 164.545 142.396C164.545 142.229 164.545 142.083 164.545 141.957H164.52C164.327 142.258 164.068 142.505 163.742 142.697C163.425 142.889 163.04 142.985 162.589 142.985C162.288 142.985 162.004 142.948 161.736 142.873C161.477 142.797 161.247 142.689 161.047 142.547C160.855 142.396 160.7 142.212 160.583 141.995C160.466 141.778 160.407 141.527 160.407 141.243C160.407 140.758 160.533 140.378 160.784 140.102C161.034 139.826 161.344 139.621 161.711 139.488C162.087 139.354 162.489 139.27 162.915 139.237C163.349 139.203 163.746 139.187 164.106 139.187H164.482V139.011C164.482 138.585 164.352 138.263 164.093 138.046C163.843 137.829 163.487 137.72 163.028 137.72C162.71 137.72 162.397 137.774 162.087 137.883C161.786 137.983 161.519 138.142 161.285 138.359L160.671 137.72ZM163.504 140.014C162.877 140.014 162.38 140.102 162.012 140.277C161.644 140.453 161.461 140.741 161.461 141.142C161.461 141.51 161.582 141.774 161.824 141.932C162.075 142.083 162.384 142.158 162.752 142.158C163.036 142.158 163.283 142.112 163.491 142.02C163.709 141.92 163.888 141.79 164.031 141.631C164.173 141.473 164.281 141.289 164.357 141.08C164.432 140.862 164.474 140.633 164.482 140.39V140.014H163.504ZM167.247 138.359C167.247 138.092 167.239 137.841 167.222 137.607C167.205 137.373 167.197 137.16 167.197 136.968H168.125C168.125 137.126 168.129 137.285 168.137 137.444C168.145 137.603 168.15 137.766 168.15 137.933H168.175C168.242 137.791 168.334 137.653 168.451 137.519C168.576 137.386 168.722 137.269 168.889 137.168C169.056 137.06 169.245 136.976 169.453 136.918C169.662 136.851 169.888 136.817 170.13 136.817C170.515 136.817 170.845 136.876 171.121 136.993C171.405 137.11 171.639 137.273 171.823 137.482C172.007 137.691 172.141 137.946 172.224 138.246C172.316 138.539 172.362 138.861 172.362 139.212V142.835H171.384V139.312C171.384 138.819 171.276 138.43 171.058 138.146C170.841 137.862 170.502 137.72 170.043 137.72C169.725 137.72 169.449 137.774 169.215 137.883C168.99 137.992 168.802 138.146 168.651 138.347C168.509 138.547 168.4 138.786 168.325 139.061C168.258 139.337 168.225 139.642 168.225 139.977V142.835H167.247V138.359ZM179.09 141.794H179.065C178.881 142.129 178.589 142.413 178.187 142.647C177.795 142.873 177.335 142.985 176.808 142.985C176.399 142.985 176.014 142.91 175.655 142.76C175.296 142.601 174.982 142.384 174.715 142.108C174.456 141.832 174.251 141.506 174.1 141.13C173.95 140.754 173.875 140.344 173.875 139.901C173.875 139.458 173.95 139.049 174.1 138.673C174.251 138.297 174.46 137.971 174.727 137.695C174.995 137.419 175.317 137.206 175.693 137.055C176.077 136.897 176.499 136.817 176.959 136.817C177.385 136.817 177.774 136.905 178.125 137.081C178.484 137.256 178.798 137.503 179.065 137.82H179.09V133.357H180.068V142.835H179.09V141.794ZM179.09 139.901C179.09 139.592 179.04 139.308 178.94 139.049C178.848 138.781 178.71 138.552 178.526 138.359C178.342 138.159 178.121 138.004 177.862 137.895C177.611 137.778 177.327 137.72 177.009 137.72C176.691 137.72 176.403 137.778 176.144 137.895C175.893 138.004 175.676 138.159 175.492 138.359C175.308 138.552 175.166 138.781 175.066 139.049C174.974 139.308 174.928 139.592 174.928 139.901C174.928 140.211 174.974 140.499 175.066 140.766C175.166 141.025 175.308 141.255 175.492 141.456C175.676 141.648 175.893 141.803 176.144 141.92C176.403 142.028 176.691 142.083 177.009 142.083C177.327 142.083 177.611 142.028 177.862 141.92C178.121 141.803 178.342 141.648 178.526 141.456C178.71 141.255 178.848 141.025 178.94 140.766C179.04 140.499 179.09 140.211 179.09 139.901ZM24.5845 163.435C24.3755 163.184 24.1498 163.004 23.9075 162.895C23.6651 162.778 23.3976 162.72 23.1051 162.72C22.7791 162.72 22.4908 162.778 22.2401 162.895C21.9893 163.004 21.7804 163.159 21.6132 163.359C21.4544 163.56 21.3332 163.794 21.2496 164.061C21.1661 164.32 21.1243 164.6 21.1243 164.901C21.1243 165.202 21.1702 165.486 21.2622 165.754C21.3625 166.013 21.4962 166.243 21.6634 166.443C21.8389 166.644 22.0478 166.803 22.2902 166.92C22.5326 167.028 22.8042 167.083 23.1051 167.083C23.7487 167.083 24.246 166.84 24.597 166.356L25.3241 167.045C25.04 167.371 24.7057 167.609 24.3212 167.76C23.9367 167.91 23.5314 167.985 23.1051 167.985C22.6538 167.985 22.2401 167.91 21.864 167.76C21.4878 167.609 21.1661 167.396 20.8986 167.12C20.6395 166.845 20.4347 166.519 20.2843 166.142C20.1422 165.766 20.0712 165.353 20.0712 164.901C20.0712 164.458 20.1422 164.049 20.2843 163.673C20.4347 163.297 20.6437 162.971 20.9111 162.695C21.1786 162.419 21.4962 162.206 21.864 162.055C22.2401 161.897 22.6538 161.817 23.1051 161.817C23.5397 161.817 23.9493 161.892 24.3337 162.043C24.7265 162.193 25.0692 162.427 25.3618 162.745L24.5845 163.435ZM26.1193 164.901C26.1193 164.442 26.1987 164.024 26.3575 163.648C26.5163 163.272 26.7336 162.95 27.0094 162.682C27.2852 162.406 27.6153 162.193 27.9998 162.043C28.3843 161.892 28.8022 161.817 29.2535 161.817C29.7048 161.817 30.1227 161.892 30.5072 162.043C30.8916 162.193 31.2218 162.406 31.4976 162.682C31.7734 162.95 31.9907 163.272 32.1495 163.648C32.3083 164.024 32.3877 164.442 32.3877 164.901C32.3877 165.361 32.3083 165.779 32.1495 166.155C31.9907 166.531 31.7734 166.857 31.4976 167.133C31.2218 167.4 30.8916 167.609 30.5072 167.76C30.1227 167.91 29.7048 167.985 29.2535 167.985C28.8022 167.985 28.3843 167.91 27.9998 167.76C27.6153 167.609 27.2852 167.4 27.0094 167.133C26.7336 166.857 26.5163 166.531 26.3575 166.155C26.1987 165.779 26.1193 165.361 26.1193 164.901ZM27.1724 164.901C27.1724 165.211 27.2183 165.499 27.3103 165.766C27.4106 166.025 27.5526 166.255 27.7365 166.456C27.9204 166.648 28.1377 166.803 28.3884 166.92C28.6475 167.028 28.9359 167.083 29.2535 167.083C29.5711 167.083 29.8553 167.028 30.106 166.92C30.3651 166.803 30.5866 166.648 30.7704 166.456C30.9543 166.255 31.0922 166.025 31.1842 165.766C31.2845 165.499 31.3346 165.211 31.3346 164.901C31.3346 164.592 31.2845 164.308 31.1842 164.049C31.0922 163.781 30.9543 163.552 30.7704 163.359C30.5866 163.159 30.3651 163.004 30.106 162.895C29.8553 162.778 29.5711 162.72 29.2535 162.72C28.9359 162.72 28.6475 162.778 28.3884 162.895C28.1377 163.004 27.9204 163.159 27.7365 163.359C27.5526 163.552 27.4106 163.781 27.3103 164.049C27.2183 164.308 27.1724 164.592 27.1724 164.901ZM33.9015 163.359C33.9015 163.092 33.8932 162.841 33.8765 162.607C33.8597 162.373 33.8514 162.16 33.8514 161.968H34.7791C34.7791 162.126 34.7833 162.285 34.7917 162.444C34.8 162.603 34.8042 162.766 34.8042 162.933H34.8293C34.8961 162.791 34.9881 162.653 35.1051 162.519C35.2305 162.386 35.3767 162.269 35.5439 162.168C35.711 162.06 35.8991 161.976 36.108 161.918C36.317 161.851 36.5426 161.817 36.785 161.817C37.1695 161.817 37.4996 161.876 37.7754 161.993C38.0596 162.11 38.2936 162.273 38.4775 162.482C38.6614 162.691 38.7951 162.946 38.8787 163.246C38.9706 163.539 39.0166 163.861 39.0166 164.212V167.835H38.0387V164.312C38.0387 163.819 37.9301 163.43 37.7128 163.146C37.4955 162.862 37.157 162.72 36.6973 162.72C36.3797 162.72 36.1039 162.774 35.8698 162.883C35.6442 162.992 35.4561 163.146 35.3057 163.347C35.1636 163.547 35.0549 163.786 34.9797 164.061C34.9129 164.337 34.8794 164.642 34.8794 164.977V167.835H33.9015V163.359ZM43.5382 167.835H42.46L40.0655 161.968H41.2063L43.0367 166.569H43.0618L44.8044 161.968H45.8575L43.5382 167.835ZM52.1564 166.769C51.8053 167.221 51.4209 167.538 51.003 167.722C50.5851 167.898 50.1003 167.985 49.5487 167.985C49.089 167.985 48.6753 167.906 48.3075 167.747C47.9398 167.58 47.6263 167.359 47.3673 167.083C47.1165 166.807 46.9201 166.481 46.778 166.105C46.6443 165.729 46.5774 165.328 46.5774 164.901C46.5774 164.45 46.6526 164.036 46.8031 163.66C46.9535 163.276 47.1625 162.95 47.4299 162.682C47.6974 162.406 48.015 162.193 48.3827 162.043C48.7505 161.892 49.1517 161.817 49.5863 161.817C49.9958 161.817 50.3719 161.888 50.7146 162.03C51.0573 162.164 51.3498 162.365 51.5922 162.632C51.8429 162.891 52.0352 163.213 52.1689 163.597C52.3026 163.974 52.3695 164.404 52.3695 164.889V165.202H47.6305C47.6472 165.453 47.7057 165.695 47.806 165.929C47.9147 166.155 48.0526 166.356 48.2198 166.531C48.3869 166.698 48.5833 166.832 48.809 166.932C49.0347 167.033 49.2812 167.083 49.5487 167.083C49.9749 167.083 50.3343 167.008 50.6268 166.857C50.9194 166.707 51.1827 166.485 51.4167 166.193L52.1564 166.769ZM51.3164 164.375C51.2997 163.873 51.1367 163.472 50.8274 163.171C50.5182 162.87 50.0919 162.72 49.5487 162.72C49.0054 162.72 48.5666 162.87 48.2323 163.171C47.898 163.472 47.6974 163.873 47.6305 164.375H51.3164ZM53.8822 163.359C53.8822 163.092 53.8739 162.841 53.8572 162.607C53.8404 162.373 53.8321 162.16 53.8321 161.968H54.7598C54.7598 162.126 54.764 162.285 54.7724 162.444C54.7807 162.603 54.7849 162.766 54.7849 162.933H54.81C54.8768 162.791 54.9688 162.653 55.0858 162.519C55.2111 162.386 55.3574 162.269 55.5246 162.168C55.6917 162.06 55.8798 161.976 56.0887 161.918C56.2977 161.851 56.5233 161.817 56.7657 161.817C57.1502 161.817 57.4803 161.876 57.7561 161.993C58.0403 162.11 58.2743 162.273 58.4582 162.482C58.6421 162.691 58.7758 162.946 58.8594 163.246C58.9513 163.539 58.9973 163.861 58.9973 164.212V167.835H58.0194V164.312C58.0194 163.819 57.9108 163.43 57.6935 163.146C57.4761 162.862 57.1377 162.72 56.678 162.72C56.3604 162.72 56.0845 162.774 55.8505 162.883C55.6249 162.992 55.4368 163.146 55.2864 163.347C55.1443 163.547 55.0356 163.786 54.9604 164.061C54.8935 164.337 54.8601 164.642 54.8601 164.977V167.835H53.8822V163.359ZM60.9363 161.968H61.9142V167.835H60.9363V161.968ZM60.7106 159.673C60.7106 159.481 60.7775 159.314 60.9112 159.172C61.0533 159.03 61.2246 158.959 61.4252 158.959C61.6258 158.959 61.793 159.03 61.9267 159.172C62.0688 159.314 62.1398 159.481 62.1398 159.673C62.1398 159.882 62.073 160.054 61.9393 160.187C61.8055 160.321 61.6342 160.388 61.4252 160.388C61.2163 160.388 61.045 160.321 60.9112 160.187C60.7775 160.054 60.7106 159.882 60.7106 159.673ZM69.1008 166.769C68.7497 167.221 68.3653 167.538 67.9474 167.722C67.5295 167.898 67.0447 167.985 66.4931 167.985C66.0334 167.985 65.6197 167.906 65.2519 167.747C64.8842 167.58 64.5708 167.359 64.3117 167.083C64.0609 166.807 63.8645 166.481 63.7224 166.105C63.5887 165.729 63.5218 165.328 63.5218 164.901C63.5218 164.45 63.5971 164.036 63.7475 163.66C63.898 163.276 64.1069 162.95 64.3744 162.682C64.6418 162.406 64.9594 162.193 65.3272 162.043C65.6949 161.892 66.0961 161.817 66.5307 161.817C66.9402 161.817 67.3163 161.888 67.659 162.03C68.0017 162.164 68.2942 162.365 68.5366 162.632C68.7873 162.891 68.9796 163.213 69.1133 163.597C69.247 163.974 69.3139 164.404 69.3139 164.889V165.202H64.5749C64.5917 165.453 64.6502 165.695 64.7505 165.929C64.8591 166.155 64.997 166.356 65.1642 166.531C65.3313 166.698 65.5277 166.832 65.7534 166.932C65.9791 167.033 66.2256 167.083 66.4931 167.083C66.9193 167.083 67.2787 167.008 67.5713 166.857C67.8638 166.707 68.1271 166.485 68.3611 166.193L69.1008 166.769ZM68.2608 164.375C68.2441 163.873 68.0811 163.472 67.7719 163.171C67.4626 162.87 67.0364 162.72 66.4931 162.72C65.9498 162.72 65.511 162.87 65.1767 163.171C64.8424 163.472 64.6418 163.873 64.5749 164.375H68.2608ZM70.8266 163.359C70.8266 163.092 70.8183 162.841 70.8016 162.607C70.7849 162.373 70.7765 162.16 70.7765 161.968H71.7042C71.7042 162.126 71.7084 162.285 71.7168 162.444C71.7251 162.603 71.7293 162.766 71.7293 162.933H71.7544C71.8212 162.791 71.9132 162.653 72.0302 162.519C72.1556 162.386 72.3018 162.269 72.469 162.168C72.6361 162.06 72.8242 161.976 73.0331 161.918C73.2421 161.851 73.4678 161.817 73.7101 161.817C74.0946 161.817 74.4247 161.876 74.7006 161.993C74.9847 162.11 75.2187 162.273 75.4026 162.482C75.5865 162.691 75.7202 162.946 75.8038 163.246C75.8957 163.539 75.9417 163.861 75.9417 164.212V167.835H74.9638V164.312C74.9638 163.819 74.8552 163.43 74.6379 163.146C74.4206 162.862 74.0821 162.72 73.6224 162.72C73.3048 162.72 73.029 162.774 72.7949 162.883C72.5693 162.992 72.3812 163.146 72.2308 163.347C72.0887 163.547 71.98 163.786 71.9048 164.061C71.838 164.337 71.8045 164.642 71.8045 164.977V167.835H70.8266V163.359ZM81.9677 163.435C81.7588 163.184 81.5331 163.004 81.2908 162.895C81.0484 162.778 80.7809 162.72 80.4884 162.72C80.1624 162.72 79.8741 162.778 79.6233 162.895C79.3726 163.004 79.1637 163.159 78.9965 163.359C78.8377 163.56 78.7165 163.794 78.6329 164.061C78.5494 164.32 78.5076 164.6 78.5076 164.901C78.5076 165.202 78.5535 165.486 78.6455 165.754C78.7458 166.013 78.8795 166.243 79.0466 166.443C79.2222 166.644 79.4311 166.803 79.6735 166.92C79.9159 167.028 80.1875 167.083 80.4884 167.083C81.132 167.083 81.6293 166.84 81.9803 166.356L82.7074 167.045C82.4233 167.371 82.0889 167.609 81.7045 167.76C81.32 167.91 80.9146 167.985 80.4884 167.985C80.0371 167.985 79.6233 167.91 79.2472 167.76C78.8711 167.609 78.5494 167.396 78.2819 167.12C78.0228 166.845 77.818 166.519 77.6676 166.142C77.5255 165.766 77.4545 165.353 77.4545 164.901C77.4545 164.458 77.5255 164.049 77.6676 163.673C77.818 163.297 78.027 162.971 78.2944 162.695C78.5619 162.419 78.8795 162.206 79.2472 162.055C79.6233 161.897 80.0371 161.817 80.4884 161.817C80.923 161.817 81.3325 161.892 81.717 162.043C82.1098 162.193 82.4525 162.427 82.745 162.745L81.9677 163.435ZM89.0815 166.769C88.7304 167.221 88.346 167.538 87.9281 167.722C87.5102 167.898 87.0254 167.985 86.4738 167.985C86.0141 167.985 85.6004 167.906 85.2326 167.747C84.8649 167.58 84.5515 167.359 84.2924 167.083C84.0416 166.807 83.8452 166.481 83.7031 166.105C83.5694 165.729 83.5025 165.328 83.5025 164.901C83.5025 164.45 83.5778 164.036 83.7282 163.66C83.8786 163.276 84.0876 162.95 84.355 162.682C84.6225 162.406 84.9401 162.193 85.3078 162.043C85.6756 161.892 86.0768 161.817 86.5114 161.817C86.9209 161.817 87.297 161.888 87.6397 162.03C87.9824 162.164 88.2749 162.365 88.5173 162.632C88.768 162.891 88.9603 163.213 89.094 163.597C89.2277 163.974 89.2946 164.404 89.2946 164.889V165.202H84.5556C84.5724 165.453 84.6309 165.695 84.7312 165.929C84.8398 166.155 84.9777 166.356 85.1449 166.531C85.312 166.698 85.5084 166.832 85.7341 166.932C85.9598 167.033 86.2063 167.083 86.4738 167.083C86.9 167.083 87.2594 167.008 87.552 166.857C87.8445 166.707 88.1078 166.485 88.3418 166.193L89.0815 166.769ZM88.2415 164.375C88.2248 163.873 88.0618 163.472 87.7525 163.171C87.4433 162.87 87.017 162.72 86.4738 162.72C85.9305 162.72 85.4917 162.87 85.1574 163.171C84.8231 163.472 84.6225 163.873 84.5556 164.375H88.2415ZM97.5061 162.795H95.776V165.729C95.776 165.921 95.7802 166.101 95.7885 166.268C95.7969 166.427 95.8303 166.569 95.8888 166.694C95.9473 166.811 96.0351 166.907 96.1521 166.982C96.2691 167.049 96.4363 167.083 96.6536 167.083C96.7956 167.083 96.9419 167.066 97.0924 167.033C97.2428 166.999 97.3849 166.949 97.5186 166.882L97.5562 167.772C97.3891 167.847 97.201 167.902 96.9921 167.935C96.7915 167.969 96.5992 167.985 96.4154 167.985C96.0643 167.985 95.7843 167.939 95.5754 167.847C95.3664 167.756 95.2035 167.626 95.0864 167.459C94.9694 167.292 94.89 167.087 94.8482 166.845C94.8148 166.594 94.7981 166.318 94.7981 166.017V162.795H93.5193V161.968H94.7981V160.3H95.776V161.968H97.5061V162.795ZM98.7164 158.357H99.6942V162.783H99.7193C99.7862 162.666 99.8781 162.553 99.9951 162.444C100.112 162.327 100.25 162.223 100.409 162.131C100.576 162.039 100.76 161.964 100.96 161.905C101.161 161.846 101.374 161.817 101.6 161.817C101.984 161.817 102.314 161.876 102.59 161.993C102.874 162.11 103.108 162.273 103.292 162.482C103.476 162.691 103.61 162.946 103.694 163.246C103.785 163.539 103.831 163.861 103.831 164.212V167.835H102.854V164.312C102.854 163.819 102.745 163.43 102.528 163.146C102.31 162.862 101.972 162.72 101.512 162.72C101.194 162.72 100.919 162.774 100.685 162.883C100.459 162.992 100.271 163.146 100.121 163.347C99.9784 163.547 99.8698 163.786 99.7945 164.061C99.7277 164.337 99.6942 164.642 99.6942 164.977V167.835H98.7164V158.357ZM105.683 163.359C105.683 163.092 105.674 162.841 105.658 162.607C105.641 162.373 105.633 162.16 105.633 161.968H106.56C106.56 162.126 106.564 162.285 106.573 162.444C106.581 162.603 106.585 162.766 106.585 162.933H106.61C106.677 162.791 106.769 162.653 106.886 162.519C107.012 162.386 107.158 162.269 107.325 162.168C107.492 162.06 107.68 161.976 107.889 161.918C108.098 161.851 108.324 161.817 108.566 161.817C108.633 161.817 108.7 161.821 108.767 161.83C108.834 161.838 108.9 161.855 108.967 161.88L108.905 162.87C108.738 162.82 108.562 162.795 108.378 162.795C107.776 162.795 107.338 162.992 107.062 163.384C106.794 163.769 106.661 164.3 106.661 164.977V167.835H105.683V163.359ZM109.531 164.901C109.531 164.442 109.611 164.024 109.77 163.648C109.928 163.272 110.146 162.95 110.421 162.682C110.697 162.406 111.027 162.193 111.412 162.043C111.796 161.892 112.214 161.817 112.666 161.817C113.117 161.817 113.535 161.892 113.919 162.043C114.304 162.193 114.634 162.406 114.91 162.682C115.185 162.95 115.403 163.272 115.562 163.648C115.72 164.024 115.8 164.442 115.8 164.901C115.8 165.361 115.72 165.779 115.562 166.155C115.403 166.531 115.185 166.857 114.91 167.133C114.634 167.4 114.304 167.609 113.919 167.76C113.535 167.91 113.117 167.985 112.666 167.985C112.214 167.985 111.796 167.91 111.412 167.76C111.027 167.609 110.697 167.4 110.421 167.133C110.146 166.857 109.928 166.531 109.77 166.155C109.611 165.779 109.531 165.361 109.531 164.901ZM110.584 164.901C110.584 165.211 110.63 165.499 110.722 165.766C110.823 166.025 110.965 166.255 111.149 166.456C111.332 166.648 111.55 166.803 111.8 166.92C112.06 167.028 112.348 167.083 112.666 167.083C112.983 167.083 113.267 167.028 113.518 166.92C113.777 166.803 113.999 166.648 114.183 166.456C114.366 166.255 114.504 166.025 114.596 165.766C114.697 165.499 114.747 165.211 114.747 164.901C114.747 164.592 114.697 164.308 114.596 164.049C114.504 163.781 114.366 163.552 114.183 163.359C113.999 163.159 113.777 163.004 113.518 162.895C113.267 162.778 112.983 162.72 112.666 162.72C112.348 162.72 112.06 162.778 111.8 162.895C111.55 163.004 111.332 163.159 111.149 163.359C110.965 163.552 110.823 163.781 110.722 164.049C110.63 164.308 110.584 164.592 110.584 164.901ZM122.429 166.443C122.429 166.711 122.437 166.962 122.454 167.196C122.47 167.43 122.479 167.643 122.479 167.835H121.551C121.551 167.676 121.547 167.517 121.539 167.359C121.53 167.2 121.526 167.037 121.526 166.87H121.501C121.434 167.012 121.338 167.15 121.213 167.283C121.096 167.417 120.953 167.538 120.786 167.647C120.619 167.747 120.431 167.827 120.222 167.885C120.013 167.952 119.788 167.985 119.545 167.985C119.161 167.985 118.826 167.927 118.542 167.81C118.266 167.693 118.037 167.53 117.853 167.321C117.669 167.112 117.531 166.861 117.439 166.569C117.355 166.268 117.314 165.942 117.314 165.591V161.968H118.291V165.491C118.291 165.984 118.4 166.372 118.617 166.656C118.835 166.941 119.173 167.083 119.633 167.083C119.951 167.083 120.222 167.028 120.448 166.92C120.682 166.811 120.87 166.656 121.012 166.456C121.162 166.255 121.271 166.017 121.338 165.741C121.413 165.465 121.451 165.16 121.451 164.826V161.968H122.429V166.443ZM130.135 167.572C130.135 168.642 129.859 169.452 129.307 170.004C128.764 170.564 127.974 170.844 126.938 170.844C126.361 170.844 125.839 170.76 125.371 170.593C124.911 170.426 124.472 170.138 124.054 169.728L124.756 168.926C125.066 169.26 125.392 169.511 125.734 169.678C126.085 169.853 126.486 169.941 126.938 169.941C127.372 169.941 127.732 169.874 128.016 169.741C128.308 169.615 128.538 169.44 128.705 169.214C128.873 168.997 128.99 168.746 129.056 168.462C129.123 168.178 129.157 167.881 129.157 167.572V166.819H129.132C128.898 167.196 128.593 167.471 128.216 167.647C127.84 167.822 127.456 167.91 127.063 167.91C126.603 167.91 126.181 167.835 125.797 167.685C125.412 167.534 125.082 167.325 124.806 167.058C124.531 166.79 124.318 166.473 124.167 166.105C124.017 165.737 123.941 165.336 123.941 164.901C123.941 164.425 124.017 163.994 124.167 163.61C124.318 163.226 124.526 162.904 124.794 162.645C125.07 162.377 125.4 162.172 125.784 162.03C126.169 161.888 126.595 161.817 127.063 161.817C127.264 161.817 127.464 161.842 127.665 161.892C127.865 161.934 128.058 162.005 128.242 162.106C128.434 162.198 128.605 162.319 128.756 162.469C128.906 162.611 129.031 162.778 129.132 162.971H129.157V161.968H130.135V167.572ZM124.995 164.901C124.995 165.202 125.049 165.482 125.157 165.741C125.266 165.992 125.412 166.214 125.596 166.406C125.789 166.59 126.01 166.736 126.261 166.845C126.511 166.953 126.779 167.008 127.063 167.008C127.397 167.008 127.694 166.949 127.953 166.832C128.212 166.715 128.43 166.56 128.605 166.368C128.789 166.168 128.927 165.942 129.019 165.691C129.111 165.432 129.157 165.16 129.157 164.876C129.157 164.559 129.107 164.27 129.006 164.011C128.906 163.744 128.764 163.514 128.58 163.322C128.396 163.129 128.175 162.983 127.916 162.883C127.657 162.774 127.372 162.72 127.063 162.72C126.754 162.72 126.47 162.778 126.211 162.895C125.96 163.004 125.743 163.159 125.559 163.359C125.383 163.552 125.245 163.781 125.145 164.049C125.045 164.308 124.995 164.592 124.995 164.901ZM131.944 158.357H132.922V162.783H132.947C133.014 162.666 133.106 162.553 133.223 162.444C133.34 162.327 133.478 162.223 133.637 162.131C133.804 162.039 133.988 161.964 134.188 161.905C134.389 161.846 134.602 161.817 134.828 161.817C135.212 161.817 135.542 161.876 135.818 161.993C136.102 162.11 136.336 162.273 136.52 162.482C136.704 162.691 136.838 162.946 136.921 163.246C137.013 163.539 137.059 163.861 137.059 164.212V167.835H136.081V164.312C136.081 163.819 135.973 163.43 135.755 163.146C135.538 162.862 135.199 162.72 134.74 162.72C134.422 162.72 134.146 162.774 133.912 162.883C133.687 162.992 133.499 163.146 133.348 163.347C133.206 163.547 133.097 163.786 133.022 164.061C132.955 164.337 132.922 164.642 132.922 164.977V167.835H131.944V158.357ZM145.609 162.795H143.879V165.729C143.879 165.921 143.883 166.101 143.892 166.268C143.9 166.427 143.933 166.569 143.992 166.694C144.05 166.811 144.138 166.907 144.255 166.982C144.372 167.049 144.539 167.083 144.757 167.083C144.899 167.083 145.045 167.066 145.195 167.033C145.346 166.999 145.488 166.949 145.622 166.882L145.659 167.772C145.492 167.847 145.304 167.902 145.095 167.935C144.894 167.969 144.702 167.985 144.518 167.985C144.167 167.985 143.887 167.939 143.678 167.847C143.469 167.756 143.306 167.626 143.189 167.459C143.072 167.292 142.993 167.087 142.951 166.845C142.918 166.594 142.901 166.318 142.901 166.017V162.795H141.622V161.968H142.901V160.3H143.879V161.968H145.609V162.795ZM146.819 158.357H147.797V162.783H147.822C147.889 162.666 147.981 162.553 148.098 162.444C148.215 162.327 148.353 162.223 148.512 162.131C148.679 162.039 148.863 161.964 149.064 161.905C149.264 161.846 149.477 161.817 149.703 161.817C150.087 161.817 150.417 161.876 150.693 161.993C150.977 162.11 151.211 162.273 151.395 162.482C151.579 162.691 151.713 162.946 151.797 163.246C151.888 163.539 151.934 163.861 151.934 164.212V167.835H150.957V164.312C150.957 163.819 150.848 163.43 150.631 163.146C150.413 162.862 150.075 162.72 149.615 162.72C149.298 162.72 149.022 162.774 148.788 162.883C148.562 162.992 148.374 163.146 148.224 163.347C148.081 163.547 147.973 163.786 147.898 164.061C147.831 164.337 147.797 164.642 147.797 164.977V167.835H146.819V158.357ZM159.026 166.769C158.675 167.221 158.291 167.538 157.873 167.722C157.455 167.898 156.97 167.985 156.418 167.985C155.959 167.985 155.545 167.906 155.177 167.747C154.81 167.58 154.496 167.359 154.237 167.083C153.986 166.807 153.79 166.481 153.648 166.105C153.514 165.729 153.447 165.328 153.447 164.901C153.447 164.45 153.522 164.036 153.673 163.66C153.823 163.276 154.032 162.95 154.3 162.682C154.567 162.406 154.885 162.193 155.253 162.043C155.62 161.892 156.021 161.817 156.456 161.817C156.866 161.817 157.242 161.888 157.584 162.03C157.927 162.164 158.22 162.365 158.462 162.632C158.713 162.891 158.905 163.213 159.039 163.597C159.172 163.974 159.239 164.404 159.239 164.889V165.202H154.5C154.517 165.453 154.576 165.695 154.676 165.929C154.784 166.155 154.922 166.356 155.09 166.531C155.257 166.698 155.453 166.832 155.679 166.932C155.904 167.033 156.151 167.083 156.418 167.083C156.845 167.083 157.204 167.008 157.497 166.857C157.789 166.707 158.052 166.485 158.286 166.193L159.026 166.769ZM158.186 164.375C158.169 163.873 158.006 163.472 157.697 163.171C157.388 162.87 156.962 162.72 156.418 162.72C155.875 162.72 155.436 162.87 155.102 163.171C154.768 163.472 154.567 163.873 154.5 164.375H158.186ZM169.356 166.443C169.356 166.711 169.365 166.962 169.381 167.196C169.398 167.43 169.407 167.643 169.407 167.835H168.479C168.479 167.676 168.475 167.517 168.466 167.359C168.458 167.2 168.454 167.037 168.454 166.87H168.429C168.362 167.012 168.266 167.15 168.14 167.283C168.023 167.417 167.881 167.538 167.714 167.647C167.547 167.747 167.359 167.827 167.15 167.885C166.941 167.952 166.715 167.985 166.473 167.985C166.088 167.985 165.754 167.927 165.47 167.81C165.194 167.693 164.964 167.53 164.78 167.321C164.597 167.112 164.459 166.861 164.367 166.569C164.283 166.268 164.241 165.942 164.241 165.591V161.968H165.219V165.491C165.219 165.984 165.328 166.372 165.545 166.656C165.762 166.941 166.101 167.083 166.561 167.083C166.878 167.083 167.15 167.028 167.376 166.92C167.61 166.811 167.798 166.656 167.94 166.456C168.09 166.255 168.199 166.017 168.266 165.741C168.341 165.465 168.378 165.16 168.378 164.826V161.968H169.356V166.443ZM171.333 166.293C171.525 166.535 171.734 166.728 171.96 166.87C172.194 167.012 172.486 167.083 172.837 167.083C172.988 167.083 173.138 167.066 173.289 167.033C173.448 166.999 173.59 166.945 173.715 166.87C173.84 166.794 173.941 166.702 174.016 166.594C174.091 166.477 174.129 166.339 174.129 166.18C174.129 166.021 174.091 165.892 174.016 165.791C173.949 165.691 173.857 165.608 173.74 165.541C173.623 165.465 173.489 165.407 173.339 165.365C173.188 165.323 173.034 165.286 172.875 165.252C172.599 165.194 172.336 165.127 172.085 165.052C171.834 164.977 171.613 164.88 171.421 164.763C171.237 164.638 171.086 164.479 170.969 164.287C170.861 164.095 170.806 163.848 170.806 163.547C170.806 163.263 170.869 163.012 170.994 162.795C171.12 162.578 171.287 162.398 171.496 162.256C171.705 162.114 171.939 162.005 172.198 161.93C172.457 161.855 172.725 161.817 173 161.817C173.418 161.817 173.803 161.901 174.154 162.068C174.513 162.235 174.793 162.507 174.994 162.883L174.179 163.422C174.053 163.213 173.886 163.046 173.677 162.92C173.477 162.787 173.23 162.72 172.938 162.72C172.804 162.72 172.666 162.737 172.524 162.77C172.39 162.803 172.269 162.854 172.16 162.92C172.052 162.987 171.96 163.075 171.885 163.184C171.818 163.284 171.784 163.401 171.784 163.535C171.784 163.66 171.822 163.769 171.897 163.861C171.981 163.944 172.089 164.02 172.223 164.086C172.365 164.153 172.524 164.212 172.699 164.262C172.883 164.312 173.071 164.354 173.264 164.387C173.523 164.437 173.769 164.504 174.003 164.588C174.237 164.663 174.442 164.768 174.618 164.901C174.793 165.035 174.931 165.202 175.031 165.403C175.132 165.603 175.182 165.85 175.182 166.142C175.182 166.477 175.115 166.761 174.981 166.995C174.847 167.229 174.668 167.421 174.442 167.572C174.225 167.714 173.974 167.818 173.69 167.885C173.414 167.952 173.13 167.985 172.837 167.985C172.336 167.985 171.901 167.91 171.534 167.76C171.174 167.601 170.848 167.313 170.556 166.895L171.333 166.293ZM181.786 166.769C181.435 167.221 181.051 167.538 180.633 167.722C180.215 167.898 179.73 167.985 179.178 167.985C178.719 167.985 178.305 167.906 177.937 167.747C177.569 167.58 177.256 167.359 176.997 167.083C176.746 166.807 176.55 166.481 176.408 166.105C176.274 165.729 176.207 165.328 176.207 164.901C176.207 164.45 176.282 164.036 176.433 163.66C176.583 163.276 176.792 162.95 177.06 162.682C177.327 162.406 177.645 162.193 178.012 162.043C178.38 161.892 178.781 161.817 179.216 161.817C179.625 161.817 180.002 161.888 180.344 162.03C180.687 162.164 180.979 162.365 181.222 162.632C181.473 162.891 181.665 163.213 181.799 163.597C181.932 163.974 181.999 164.404 181.999 164.889V165.202H177.26C177.277 165.453 177.335 165.695 177.436 165.929C177.544 166.155 177.682 166.356 177.849 166.531C178.017 166.698 178.213 166.832 178.439 166.932C178.664 167.033 178.911 167.083 179.178 167.083C179.605 167.083 179.964 167.008 180.257 166.857C180.549 166.707 180.812 166.485 181.046 166.193L181.786 166.769ZM180.946 164.375C180.929 163.873 180.766 163.472 180.457 163.171C180.148 162.87 179.722 162.72 179.178 162.72C178.635 162.72 178.196 162.87 177.862 163.171C177.528 163.472 177.327 163.873 177.26 164.375H180.946ZM186.663 164.901C186.663 164.442 186.742 164.024 186.901 163.648C187.06 163.272 187.277 162.95 187.553 162.682C187.829 162.406 188.159 162.193 188.543 162.043C188.928 161.892 189.346 161.817 189.797 161.817C190.248 161.817 190.666 161.892 191.051 162.043C191.435 162.193 191.765 162.406 192.041 162.682C192.317 162.95 192.534 163.272 192.693 163.648C192.852 164.024 192.931 164.442 192.931 164.901C192.931 165.361 192.852 165.779 192.693 166.155C192.534 166.531 192.317 166.857 192.041 167.133C191.765 167.4 191.435 167.609 191.051 167.76C190.666 167.91 190.248 167.985 189.797 167.985C189.346 167.985 188.928 167.91 188.543 167.76C188.159 167.609 187.829 167.4 187.553 167.133C187.277 166.857 187.06 166.531 186.901 166.155C186.742 165.779 186.663 165.361 186.663 164.901ZM187.716 164.901C187.716 165.211 187.762 165.499 187.854 165.766C187.954 166.025 188.096 166.255 188.28 166.456C188.464 166.648 188.681 166.803 188.932 166.92C189.191 167.028 189.479 167.083 189.797 167.083C190.114 167.083 190.399 167.028 190.649 166.92C190.908 166.803 191.13 166.648 191.314 166.456C191.498 166.255 191.636 166.025 191.728 165.766C191.828 165.499 191.878 165.211 191.878 164.901C191.878 164.592 191.828 164.308 191.728 164.049C191.636 163.781 191.498 163.552 191.314 163.359C191.13 163.159 190.908 163.004 190.649 162.895C190.399 162.778 190.114 162.72 189.797 162.72C189.479 162.72 189.191 162.778 188.932 162.895C188.681 163.004 188.464 163.159 188.28 163.359C188.096 163.552 187.954 163.781 187.854 164.049C187.762 164.308 187.716 164.592 187.716 164.901ZM194.946 162.795H193.668V161.968H194.946V160.651C194.946 160.292 194.98 159.966 195.047 159.673C195.114 159.373 195.226 159.113 195.385 158.896C195.552 158.679 195.77 158.512 196.037 158.395C196.305 158.269 196.635 158.207 197.028 158.207C197.153 158.207 197.287 158.219 197.429 158.244C197.571 158.269 197.688 158.307 197.78 158.357L197.642 159.235C197.408 159.151 197.186 159.109 196.977 159.109C196.727 159.109 196.53 159.155 196.388 159.247C196.246 159.331 196.137 159.452 196.062 159.611C195.995 159.761 195.954 159.945 195.937 160.162C195.928 160.38 195.924 160.614 195.924 160.864V161.968H197.354V162.795H195.924V167.835H194.946V162.795ZM45.5262 188.435C45.3173 188.184 45.0916 188.004 44.8492 187.895C44.6069 187.778 44.3394 187.72 44.0469 187.72C43.7209 187.72 43.4326 187.778 43.1818 187.895C42.9311 188.004 42.7221 188.159 42.555 188.359C42.3962 188.56 42.275 188.794 42.1914 189.061C42.1078 189.32 42.066 189.6 42.066 189.901C42.066 190.202 42.112 190.486 42.204 190.754C42.3042 191.013 42.438 191.243 42.6051 191.443C42.7807 191.644 42.9896 191.803 43.232 191.92C43.4744 192.028 43.746 192.083 44.0469 192.083C44.6904 192.083 45.1877 191.84 45.5388 191.356L46.2659 192.045C45.9817 192.371 45.6474 192.609 45.263 192.76C44.8785 192.91 44.4731 192.985 44.0469 192.985C43.5956 192.985 43.1818 192.91 42.8057 192.76C42.4296 192.609 42.1078 192.396 41.8404 192.12C41.5813 191.845 41.3765 191.519 41.2261 191.142C41.084 190.766 41.0129 190.353 41.0129 189.901C41.0129 189.458 41.084 189.049 41.2261 188.673C41.3765 188.297 41.5855 187.971 41.8529 187.695C42.1204 187.419 42.438 187.206 42.8057 187.055C43.1818 186.897 43.5956 186.817 44.0469 186.817C44.4815 186.817 44.891 186.892 45.2755 187.043C45.6683 187.193 46.011 187.427 46.3035 187.745L45.5262 188.435ZM47.061 189.901C47.061 189.442 47.1404 189.024 47.2992 188.648C47.458 188.272 47.6753 187.95 47.9511 187.682C48.227 187.406 48.5571 187.193 48.9416 187.043C49.326 186.892 49.7439 186.817 50.1953 186.817C50.6466 186.817 51.0645 186.892 51.4489 187.043C51.8334 187.193 52.1635 187.406 52.4394 187.682C52.7152 187.95 52.9325 188.272 53.0913 188.648C53.2501 189.024 53.3295 189.442 53.3295 189.901C53.3295 190.361 53.2501 190.779 53.0913 191.155C52.9325 191.531 52.7152 191.857 52.4394 192.133C52.1635 192.4 51.8334 192.609 51.4489 192.76C51.0645 192.91 50.6466 192.985 50.1953 192.985C49.7439 192.985 49.326 192.91 48.9416 192.76C48.5571 192.609 48.227 192.4 47.9511 192.133C47.6753 191.857 47.458 191.531 47.2992 191.155C47.1404 190.779 47.061 190.361 47.061 189.901ZM48.1141 189.901C48.1141 190.211 48.1601 190.499 48.252 190.766C48.3523 191.025 48.4944 191.255 48.6783 191.456C48.8622 191.648 49.0795 191.803 49.3302 191.92C49.5893 192.028 49.8777 192.083 50.1953 192.083C50.5129 192.083 50.797 192.028 51.0478 191.92C51.3069 191.803 51.5283 191.648 51.7122 191.456C51.8961 191.255 52.034 191.025 52.1259 190.766C52.2262 190.499 52.2764 190.211 52.2764 189.901C52.2764 189.592 52.2262 189.308 52.1259 189.049C52.034 188.781 51.8961 188.552 51.7122 188.359C51.5283 188.159 51.3069 188.004 51.0478 187.895C50.797 187.778 50.5129 187.72 50.1953 187.72C49.8777 187.72 49.5893 187.778 49.3302 187.895C49.0795 188.004 48.8622 188.159 48.6783 188.359C48.4944 188.552 48.3523 188.781 48.252 189.049C48.1601 189.308 48.1141 189.592 48.1141 189.901ZM54.8433 188.359C54.8433 188.092 54.835 187.841 54.8182 187.607C54.8015 187.373 54.7932 187.16 54.7932 186.968H55.7209C55.7209 187.126 55.7251 187.285 55.7334 187.444C55.7418 187.603 55.746 187.766 55.746 187.933H55.771C55.8379 187.791 55.9298 187.653 56.0469 187.519C56.1722 187.386 56.3185 187.269 56.4856 187.168C56.6528 187.06 56.8409 186.976 57.0498 186.918C57.2588 186.851 57.4844 186.817 57.7268 186.817C58.0444 186.817 58.3077 186.859 58.5166 186.943C58.7339 187.018 58.9136 187.114 59.0557 187.231C59.1978 187.34 59.3065 187.461 59.3817 187.595C59.4653 187.72 59.5321 187.833 59.5823 187.933C59.7996 187.582 60.0503 187.31 60.3345 187.118C60.6186 186.918 60.9864 186.817 61.4377 186.817C61.8556 186.817 62.2067 186.876 62.4908 186.993C62.775 187.101 63.0048 187.264 63.1804 187.482C63.3559 187.691 63.4812 187.95 63.5565 188.259C63.6317 188.56 63.6693 188.898 63.6693 189.274V192.835H62.6914V189.325C62.6914 189.124 62.6705 188.928 62.6287 188.735C62.5869 188.543 62.5117 188.372 62.4031 188.221C62.2944 188.071 62.1482 187.95 61.9643 187.858C61.7804 187.766 61.5464 187.72 61.2622 187.72C61.0533 187.72 60.8568 187.762 60.673 187.845C60.4891 187.929 60.3261 188.046 60.184 188.196C60.0503 188.347 59.9417 188.531 59.8581 188.748C59.7829 188.957 59.7452 189.191 59.7452 189.45V192.835H58.7674V189.513C58.7674 188.861 58.6796 188.401 58.5041 188.134C58.3286 187.858 58.0402 187.72 57.639 187.72C57.3214 187.72 57.0456 187.774 56.8116 187.883C56.5859 187.992 56.3979 188.146 56.2474 188.347C56.1054 188.547 55.9967 188.786 55.9215 189.061C55.8546 189.337 55.8212 189.642 55.8212 189.977V192.835H54.8433V188.359ZM65.5193 188.359C65.5193 188.092 65.5109 187.841 65.4942 187.607C65.4775 187.373 65.4691 187.16 65.4691 186.968H66.3969C66.3969 187.126 66.401 187.285 66.4094 187.444C66.4177 187.603 66.4219 187.766 66.4219 187.933H66.447C66.5139 187.791 66.6058 187.653 66.7228 187.519C66.8482 187.386 66.9944 187.269 67.1616 187.168C67.3288 187.06 67.5168 186.976 67.7258 186.918C67.9347 186.851 68.1604 186.817 68.4028 186.817C68.7204 186.817 68.9836 186.859 69.1926 186.943C69.4099 187.018 69.5896 187.114 69.7317 187.231C69.8738 187.34 69.9824 187.461 70.0576 187.595C70.1412 187.72 70.2081 187.833 70.2582 187.933C70.4755 187.582 70.7263 187.31 71.0104 187.118C71.2946 186.918 71.6624 186.817 72.1137 186.817C72.5316 186.817 72.8826 186.876 73.1668 186.993C73.451 187.101 73.6808 187.264 73.8563 187.482C74.0318 187.691 74.1572 187.95 74.2324 188.259C74.3076 188.56 74.3453 188.898 74.3453 189.274V192.835H73.3674V189.325C73.3674 189.124 73.3465 188.928 73.3047 188.735C73.2629 188.543 73.1877 188.372 73.079 188.221C72.9704 188.071 72.8241 187.95 72.6402 187.858C72.4564 187.766 72.2223 187.72 71.9382 187.72C71.7292 187.72 71.5328 187.762 71.3489 187.845C71.1651 187.929 71.0021 188.046 70.86 188.196C70.7263 188.347 70.6176 188.531 70.534 188.748C70.4588 188.957 70.4212 189.191 70.4212 189.45V192.835H69.4433V189.513C69.4433 188.861 69.3556 188.401 69.18 188.134C69.0045 187.858 68.7162 187.72 68.315 187.72C67.9974 187.72 67.7216 187.774 67.4876 187.883C67.2619 187.992 67.0738 188.146 66.9234 188.347C66.7813 188.547 66.6727 188.786 66.5974 189.061C66.5306 189.337 66.4971 189.642 66.4971 189.977V192.835H65.5193V188.359ZM75.8567 189.901C75.8567 189.442 75.9361 189.024 76.0949 188.648C76.2537 188.272 76.471 187.95 76.7469 187.682C77.0227 187.406 77.3528 187.193 77.7373 187.043C78.1217 186.892 78.5396 186.817 78.991 186.817C79.4423 186.817 79.8602 186.892 80.2447 187.043C80.6291 187.193 80.9593 187.406 81.2351 187.682C81.5109 187.95 81.7282 188.272 81.887 188.648C82.0458 189.024 82.1252 189.442 82.1252 189.901C82.1252 190.361 82.0458 190.779 81.887 191.155C81.7282 191.531 81.5109 191.857 81.2351 192.133C80.9593 192.4 80.6291 192.609 80.2447 192.76C79.8602 192.91 79.4423 192.985 78.991 192.985C78.5396 192.985 78.1217 192.91 77.7373 192.76C77.3528 192.609 77.0227 192.4 76.7469 192.133C76.471 191.857 76.2537 191.531 76.0949 191.155C75.9361 190.779 75.8567 190.361 75.8567 189.901ZM76.9098 189.901C76.9098 190.211 76.9558 190.499 77.0477 190.766C77.148 191.025 77.2901 191.255 77.474 191.456C77.6579 191.648 77.8752 191.803 78.1259 191.92C78.385 192.028 78.6734 192.083 78.991 192.083C79.3086 192.083 79.5927 192.028 79.8435 191.92C80.1026 191.803 80.3241 191.648 80.5079 191.456C80.6918 191.255 80.8297 191.025 80.9216 190.766C81.0219 190.499 81.0721 190.211 81.0721 189.901C81.0721 189.592 81.0219 189.308 80.9216 189.049C80.8297 188.781 80.6918 188.552 80.5079 188.359C80.3241 188.159 80.1026 188.004 79.8435 187.895C79.5927 187.778 79.3086 187.72 78.991 187.72C78.6734 187.72 78.385 187.778 78.1259 187.895C77.8752 188.004 77.6579 188.159 77.474 188.359C77.2901 188.552 77.148 188.781 77.0477 189.049C76.9558 189.308 76.9098 189.592 76.9098 189.901ZM83.639 188.359C83.639 188.092 83.6307 187.841 83.6139 187.607C83.5972 187.373 83.5889 187.16 83.5889 186.968H84.5166C84.5166 187.126 84.5208 187.285 84.5291 187.444C84.5375 187.603 84.5417 187.766 84.5417 187.933H84.5668C84.6336 187.791 84.7256 187.653 84.8426 187.519C84.9679 187.386 85.1142 187.269 85.2814 187.168C85.4485 187.06 85.6366 186.976 85.8455 186.918C86.0545 186.851 86.2801 186.817 86.5225 186.817C86.907 186.817 87.2371 186.876 87.5129 186.993C87.7971 187.11 88.0311 187.273 88.215 187.482C88.3989 187.691 88.5326 187.946 88.6162 188.246C88.7081 188.539 88.7541 188.861 88.7541 189.212V192.835H87.7762V189.312C87.7762 188.819 87.6675 188.43 87.4502 188.146C87.2329 187.862 86.8944 187.72 86.4348 187.72C86.1171 187.72 85.8413 187.774 85.6073 187.883C85.3816 187.992 85.1936 188.146 85.0432 188.347C84.9011 188.547 84.7924 188.786 84.7172 189.061C84.6503 189.337 84.6169 189.642 84.6169 189.977V192.835H83.639V188.359ZM94.1824 186.968H95.1602V192.835H94.1824V186.968ZM93.9567 184.673C93.9567 184.481 94.0236 184.314 94.1573 184.172C94.2994 184.03 94.4707 183.959 94.6713 183.959C94.8719 183.959 95.039 184.03 95.1728 184.172C95.3149 184.314 95.3859 184.481 95.3859 184.673C95.3859 184.882 95.319 185.054 95.1853 185.187C95.0516 185.321 94.8802 185.388 94.6713 185.388C94.4624 185.388 94.291 185.321 94.1573 185.187C94.0236 185.054 93.9567 184.882 93.9567 184.673ZM97.1064 188.359C97.1064 188.092 97.098 187.841 97.0813 187.607C97.0646 187.373 97.0562 187.16 97.0562 186.968H97.984C97.984 187.126 97.9882 187.285 97.9965 187.444C98.0049 187.603 98.0091 187.766 98.0091 187.933H98.0341C98.101 187.791 98.1929 187.653 98.3099 187.519C98.4353 187.386 98.5816 187.269 98.7487 187.168C98.9159 187.06 99.1039 186.976 99.3129 186.918C99.5218 186.851 99.7475 186.817 99.9899 186.817C100.374 186.817 100.704 186.876 100.98 186.993C101.264 187.11 101.498 187.273 101.682 187.482C101.866 187.691 102 187.946 102.084 188.246C102.175 188.539 102.221 188.861 102.221 189.212V192.835H101.244V189.312C101.244 188.819 101.135 188.43 100.918 188.146C100.7 187.862 100.362 187.72 99.9021 187.72C99.5845 187.72 99.3087 187.774 99.0747 187.883C98.849 187.992 98.661 188.146 98.5105 188.347C98.3684 188.547 98.2598 188.786 98.1846 189.061C98.1177 189.337 98.0843 189.642 98.0843 189.977V192.835H97.1064V188.359ZM104.574 187.795H103.295V186.968H104.574V185.651C104.574 185.292 104.608 184.966 104.674 184.673C104.741 184.373 104.854 184.113 105.013 183.896C105.18 183.679 105.397 183.512 105.665 183.395C105.932 183.269 106.262 183.207 106.655 183.207C106.781 183.207 106.914 183.219 107.056 183.244C107.199 183.269 107.316 183.307 107.408 183.357L107.27 184.235C107.036 184.151 106.814 184.109 106.605 184.109C106.354 184.109 106.158 184.155 106.016 184.247C105.874 184.331 105.765 184.452 105.69 184.611C105.623 184.761 105.581 184.945 105.565 185.162C105.556 185.38 105.552 185.614 105.552 185.864V186.968H106.981V187.795H105.552V192.835H104.574V187.795ZM108.027 188.359C108.027 188.092 108.019 187.841 108.002 187.607C107.985 187.373 107.977 187.16 107.977 186.968H108.905C108.905 187.126 108.909 187.285 108.917 187.444C108.926 187.603 108.93 187.766 108.93 187.933H108.955C109.022 187.791 109.114 187.653 109.231 187.519C109.356 187.386 109.502 187.269 109.67 187.168C109.837 187.06 110.025 186.976 110.234 186.918C110.443 186.851 110.668 186.817 110.911 186.817C110.978 186.817 111.044 186.821 111.111 186.83C111.178 186.838 111.245 186.855 111.312 186.88L111.249 187.87C111.082 187.82 110.907 187.795 110.723 187.795C110.121 187.795 109.682 187.992 109.406 188.384C109.139 188.769 109.005 189.3 109.005 189.977V192.835H108.027V188.359ZM112.36 187.72C112.66 187.411 113.016 187.185 113.425 187.043C113.843 186.892 114.265 186.817 114.691 186.817C115.561 186.817 116.187 187.022 116.572 187.432C116.956 187.841 117.149 188.464 117.149 189.3V191.819C117.149 191.987 117.157 192.162 117.174 192.346C117.19 192.522 117.211 192.685 117.236 192.835H116.296C116.263 192.701 116.242 192.555 116.233 192.396C116.233 192.229 116.233 192.083 116.233 191.957H116.208C116.016 192.258 115.757 192.505 115.431 192.697C115.113 192.889 114.729 192.985 114.278 192.985C113.977 192.985 113.693 192.948 113.425 192.873C113.166 192.797 112.936 192.689 112.736 192.547C112.543 192.396 112.389 192.212 112.272 191.995C112.155 191.778 112.096 191.527 112.096 191.243C112.096 190.758 112.222 190.378 112.472 190.102C112.723 189.826 113.032 189.621 113.4 189.488C113.776 189.354 114.177 189.27 114.604 189.237C115.038 189.203 115.435 189.187 115.795 189.187H116.171V189.011C116.171 188.585 116.041 188.263 115.782 188.046C115.531 187.829 115.176 187.72 114.716 187.72C114.399 187.72 114.085 187.774 113.776 187.883C113.475 187.983 113.208 188.142 112.974 188.359L112.36 187.72ZM115.193 190.014C114.566 190.014 114.069 190.102 113.701 190.277C113.333 190.453 113.149 190.741 113.149 191.142C113.149 191.51 113.271 191.774 113.513 191.932C113.764 192.083 114.073 192.158 114.441 192.158C114.725 192.158 114.971 192.112 115.18 192.02C115.398 191.92 115.577 191.79 115.719 191.631C115.861 191.473 115.97 191.289 116.045 191.08C116.121 190.862 116.162 190.633 116.171 190.39V190.014H115.193ZM119.061 191.293C119.253 191.535 119.462 191.728 119.688 191.87C119.922 192.012 120.215 192.083 120.566 192.083C120.716 192.083 120.866 192.066 121.017 192.033C121.176 191.999 121.318 191.945 121.443 191.87C121.569 191.794 121.669 191.702 121.744 191.594C121.819 191.477 121.857 191.339 121.857 191.18C121.857 191.021 121.819 190.892 121.744 190.791C121.677 190.691 121.585 190.608 121.468 190.541C121.351 190.465 121.218 190.407 121.067 190.365C120.917 190.323 120.762 190.286 120.603 190.252C120.327 190.194 120.064 190.127 119.813 190.052C119.563 189.977 119.341 189.88 119.149 189.763C118.965 189.638 118.815 189.479 118.698 189.287C118.589 189.095 118.535 188.848 118.535 188.547C118.535 188.263 118.597 188.012 118.723 187.795C118.848 187.578 119.015 187.398 119.224 187.256C119.433 187.114 119.667 187.005 119.926 186.93C120.185 186.855 120.453 186.817 120.729 186.817C121.146 186.817 121.531 186.901 121.882 187.068C122.241 187.235 122.521 187.507 122.722 187.883L121.907 188.422C121.782 188.213 121.615 188.046 121.406 187.92C121.205 187.787 120.958 187.72 120.666 187.72C120.532 187.72 120.394 187.737 120.252 187.77C120.118 187.803 119.997 187.854 119.889 187.92C119.78 187.987 119.688 188.075 119.613 188.184C119.546 188.284 119.513 188.401 119.513 188.535C119.513 188.66 119.55 188.769 119.625 188.861C119.709 188.944 119.818 189.02 119.951 189.086C120.093 189.153 120.252 189.212 120.428 189.262C120.612 189.312 120.8 189.354 120.992 189.387C121.251 189.437 121.498 189.504 121.732 189.588C121.966 189.663 122.17 189.768 122.346 189.901C122.521 190.035 122.659 190.202 122.76 190.403C122.86 190.603 122.91 190.85 122.91 191.142C122.91 191.477 122.843 191.761 122.709 191.995C122.576 192.229 122.396 192.421 122.17 192.572C121.953 192.714 121.702 192.818 121.418 192.885C121.142 192.952 120.858 192.985 120.566 192.985C120.064 192.985 119.63 192.91 119.262 192.76C118.902 192.601 118.576 192.313 118.284 191.895L119.061 191.293ZM127.483 187.795H125.753V190.729C125.753 190.921 125.757 191.101 125.766 191.268C125.774 191.427 125.807 191.569 125.866 191.694C125.924 191.811 126.012 191.907 126.129 191.982C126.246 192.049 126.413 192.083 126.631 192.083C126.773 192.083 126.919 192.066 127.07 192.033C127.22 191.999 127.362 191.949 127.496 191.882L127.533 192.772C127.366 192.847 127.178 192.902 126.969 192.935C126.769 192.969 126.576 192.985 126.393 192.985C126.041 192.985 125.761 192.939 125.553 192.847C125.344 192.756 125.181 192.626 125.064 192.459C124.947 192.292 124.867 192.087 124.825 191.845C124.792 191.594 124.775 191.318 124.775 191.017V187.795H123.496V186.968H124.775V185.3H125.753V186.968H127.483V187.795ZM128.681 188.359C128.681 188.092 128.673 187.841 128.656 187.607C128.639 187.373 128.631 187.16 128.631 186.968H129.559C129.559 187.126 129.563 187.285 129.571 187.444C129.58 187.603 129.584 187.766 129.584 187.933H129.609C129.676 187.791 129.768 187.653 129.885 187.519C130.01 187.386 130.156 187.269 130.324 187.168C130.491 187.06 130.679 186.976 130.888 186.918C131.097 186.851 131.322 186.817 131.565 186.817C131.632 186.817 131.699 186.821 131.765 186.83C131.832 186.838 131.899 186.855 131.966 186.88L131.903 187.87C131.736 187.82 131.561 187.795 131.377 187.795C130.775 187.795 130.336 187.992 130.06 188.384C129.793 188.769 129.659 189.3 129.659 189.977V192.835H128.681V188.359ZM138.204 191.443C138.204 191.711 138.212 191.962 138.229 192.196C138.246 192.43 138.254 192.643 138.254 192.835H137.326C137.326 192.676 137.322 192.517 137.314 192.359C137.305 192.2 137.301 192.037 137.301 191.87H137.276C137.209 192.012 137.113 192.15 136.988 192.283C136.871 192.417 136.729 192.538 136.562 192.647C136.394 192.747 136.206 192.827 135.997 192.885C135.788 192.952 135.563 192.985 135.32 192.985C134.936 192.985 134.602 192.927 134.317 192.81C134.042 192.693 133.812 192.53 133.628 192.321C133.444 192.112 133.306 191.861 133.214 191.569C133.131 191.268 133.089 190.942 133.089 190.591V186.968H134.067V190.491C134.067 190.984 134.175 191.372 134.393 191.656C134.61 191.941 134.948 192.083 135.408 192.083C135.726 192.083 135.997 192.028 136.223 191.92C136.457 191.811 136.645 191.656 136.787 191.456C136.938 191.255 137.046 191.017 137.113 190.741C137.188 190.465 137.226 190.16 137.226 189.826V186.968H138.204V191.443ZM144.23 188.435C144.021 188.184 143.795 188.004 143.553 187.895C143.311 187.778 143.043 187.72 142.751 187.72C142.425 187.72 142.136 187.778 141.886 187.895C141.635 188.004 141.426 188.159 141.259 188.359C141.1 188.56 140.979 188.794 140.895 189.061C140.812 189.32 140.77 189.6 140.77 189.901C140.77 190.202 140.816 190.486 140.908 190.754C141.008 191.013 141.142 191.243 141.309 191.443C141.484 191.644 141.693 191.803 141.936 191.92C142.178 192.028 142.45 192.083 142.751 192.083C143.394 192.083 143.891 191.84 144.242 191.356L144.97 192.045C144.685 192.371 144.351 192.609 143.967 192.76C143.582 192.91 143.177 192.985 142.751 192.985C142.299 192.985 141.886 192.91 141.509 192.76C141.133 192.609 140.812 192.396 140.544 192.12C140.285 191.845 140.08 191.519 139.93 191.142C139.788 190.766 139.717 190.353 139.717 189.901C139.717 189.458 139.788 189.049 139.93 188.673C140.08 188.297 140.289 187.971 140.557 187.695C140.824 187.419 141.142 187.206 141.509 187.055C141.886 186.897 142.299 186.817 142.751 186.817C143.185 186.817 143.595 186.892 143.979 187.043C144.372 187.193 144.715 187.427 145.007 187.745L144.23 188.435ZM149.313 187.795H147.583V190.729C147.583 190.921 147.587 191.101 147.595 191.268C147.603 191.427 147.637 191.569 147.695 191.694C147.754 191.811 147.842 191.907 147.959 191.982C148.076 192.049 148.243 192.083 148.46 192.083C148.602 192.083 148.748 192.066 148.899 192.033C149.049 191.999 149.191 191.949 149.325 191.882L149.363 192.772C149.196 192.847 149.008 192.902 148.799 192.935C148.598 192.969 148.406 192.985 148.222 192.985C147.871 192.985 147.591 192.939 147.382 192.847C147.173 192.756 147.01 192.626 146.893 192.459C146.776 192.292 146.697 192.087 146.655 191.845C146.621 191.594 146.605 191.318 146.605 191.017V187.795H145.326V186.968H146.605V185.3H147.583V186.968H149.313V187.795ZM155.626 191.443C155.626 191.711 155.634 191.962 155.651 192.196C155.668 192.43 155.676 192.643 155.676 192.835H154.748C154.748 192.676 154.744 192.517 154.736 192.359C154.727 192.2 154.723 192.037 154.723 191.87H154.698C154.631 192.012 154.535 192.15 154.41 192.283C154.293 192.417 154.151 192.538 153.983 192.647C153.816 192.747 153.628 192.827 153.419 192.885C153.21 192.952 152.985 192.985 152.742 192.985C152.358 192.985 152.023 192.927 151.739 192.81C151.463 192.693 151.234 192.53 151.05 192.321C150.866 192.112 150.728 191.861 150.636 191.569C150.552 191.268 150.511 190.942 150.511 190.591V186.968H151.489V190.491C151.489 190.984 151.597 191.372 151.815 191.656C152.032 191.941 152.37 192.083 152.83 192.083C153.148 192.083 153.419 192.028 153.645 191.92C153.879 191.811 154.067 191.656 154.209 191.456C154.36 191.255 154.468 191.017 154.535 190.741C154.61 190.465 154.648 190.16 154.648 189.826V186.968H155.626V191.443ZM157.477 188.359C157.477 188.092 157.469 187.841 157.452 187.607C157.435 187.373 157.427 187.16 157.427 186.968H158.355C158.355 187.126 158.359 187.285 158.367 187.444C158.375 187.603 158.38 187.766 158.38 187.933H158.405C158.472 187.791 158.564 187.653 158.681 187.519C158.806 187.386 158.952 187.269 159.119 187.168C159.286 187.06 159.475 186.976 159.683 186.918C159.892 186.851 160.118 186.817 160.36 186.817C160.427 186.817 160.494 186.821 160.561 186.83C160.628 186.838 160.695 186.855 160.762 186.88L160.699 187.87C160.532 187.82 160.356 187.795 160.172 187.795C159.571 187.795 159.132 187.992 158.856 188.384C158.589 188.769 158.455 189.3 158.455 189.977V192.835H157.477V188.359ZM166.905 191.769C166.554 192.221 166.169 192.538 165.751 192.722C165.333 192.898 164.848 192.985 164.297 192.985C163.837 192.985 163.423 192.906 163.056 192.747C162.688 192.58 162.375 192.359 162.115 192.083C161.865 191.807 161.668 191.481 161.526 191.105C161.392 190.729 161.326 190.328 161.326 189.901C161.326 189.45 161.401 189.036 161.551 188.66C161.702 188.276 161.911 187.95 162.178 187.682C162.446 187.406 162.763 187.193 163.131 187.043C163.499 186.892 163.9 186.817 164.334 186.817C164.744 186.817 165.12 186.888 165.463 187.03C165.805 187.164 166.098 187.365 166.34 187.632C166.591 187.891 166.783 188.213 166.917 188.597C167.051 188.974 167.118 189.404 167.118 189.889V190.202H162.379C162.395 190.453 162.454 190.695 162.554 190.929C162.663 191.155 162.801 191.356 162.968 191.531C163.135 191.698 163.332 191.832 163.557 191.932C163.783 192.033 164.029 192.083 164.297 192.083C164.723 192.083 165.083 192.008 165.375 191.857C165.668 191.707 165.931 191.485 166.165 191.193L166.905 191.769ZM166.065 189.375C166.048 188.873 165.885 188.472 165.576 188.171C165.266 187.87 164.84 187.72 164.297 187.72C163.754 187.72 163.315 187.87 162.98 188.171C162.646 188.472 162.446 188.873 162.379 189.375H166.065ZM168.756 191.293C168.948 191.535 169.157 191.728 169.383 191.87C169.617 192.012 169.909 192.083 170.26 192.083C170.411 192.083 170.561 192.066 170.712 192.033C170.87 191.999 171.012 191.945 171.138 191.87C171.263 191.794 171.363 191.702 171.439 191.594C171.514 191.477 171.552 191.339 171.552 191.18C171.552 191.021 171.514 190.892 171.439 190.791C171.372 190.691 171.28 190.608 171.163 190.541C171.046 190.465 170.912 190.407 170.762 190.365C170.611 190.323 170.457 190.286 170.298 190.252C170.022 190.194 169.759 190.127 169.508 190.052C169.257 189.977 169.036 189.88 168.844 189.763C168.66 189.638 168.509 189.479 168.392 189.287C168.284 189.095 168.229 188.848 168.229 188.547C168.229 188.263 168.292 188.012 168.417 187.795C168.543 187.578 168.71 187.398 168.919 187.256C169.128 187.114 169.362 187.005 169.621 186.93C169.88 186.855 170.147 186.817 170.423 186.817C170.841 186.817 171.226 186.901 171.577 187.068C171.936 187.235 172.216 187.507 172.417 187.883L171.602 188.422C171.476 188.213 171.309 188.046 171.1 187.92C170.9 187.787 170.653 187.72 170.361 187.72C170.227 187.72 170.089 187.737 169.947 187.77C169.813 187.803 169.692 187.854 169.583 187.92C169.475 187.987 169.383 188.075 169.307 188.184C169.241 188.284 169.207 188.401 169.207 188.535C169.207 188.66 169.245 188.769 169.32 188.861C169.404 188.944 169.512 189.02 169.646 189.086C169.788 189.153 169.947 189.212 170.122 189.262C170.306 189.312 170.494 189.354 170.686 189.387C170.946 189.437 171.192 189.504 171.426 189.588C171.66 189.663 171.865 189.768 172.04 189.901C172.216 190.035 172.354 190.202 172.454 190.403C172.554 190.603 172.605 190.85 172.605 191.142C172.605 191.477 172.538 191.761 172.404 191.995C172.27 192.229 172.091 192.421 171.865 192.572C171.648 192.714 171.397 192.818 171.113 192.885C170.837 192.952 170.553 192.985 170.26 192.985C169.759 192.985 169.324 192.91 168.956 192.76C168.597 192.601 168.271 192.313 167.979 191.895L168.756 191.293ZM174.783 191.406C174.992 191.406 175.168 191.481 175.31 191.631C175.46 191.774 175.536 191.949 175.536 192.158C175.536 192.367 175.456 192.547 175.297 192.697C175.147 192.839 174.976 192.91 174.783 192.91C174.591 192.91 174.416 192.839 174.257 192.697C174.106 192.547 174.031 192.367 174.031 192.158C174.031 191.949 174.102 191.774 174.244 191.631C174.395 191.481 174.574 191.406 174.783 191.406Z" fill="black"/>
</svg>
