<svg width="218" height="202" viewBox="0 0 218 202" fill="none" xmlns="http://www.w3.org/2000/svg">
<path d="M34.6896 103.317C32.4887 103.317 30.6639 102.593 29.2152 101.144C27.7665 99.6812 27.0421 97.8773 27.0421 95.7321C27.0421 93.5869 27.7665 91.7899 29.2152 90.3412C30.6639 88.8786 32.4887 88.1473 34.6896 88.1473C36.013 88.1473 37.2318 88.4607 38.3462 89.0875C39.4745 89.7144 40.3521 90.5641 40.979 91.6367L38.8895 92.8486C38.4994 92.1242 37.9283 91.5531 37.1761 91.1352C36.4378 90.7034 35.609 90.4875 34.6896 90.4875C33.1295 90.4875 31.8618 90.982 30.8868 91.971C29.9256 92.96 29.445 94.2137 29.445 95.7321C29.445 97.2505 29.9256 98.5041 30.8868 99.4932C31.8618 100.482 33.1295 100.977 34.6896 100.977C35.609 100.977 36.4448 100.768 37.197 100.35C37.9492 99.918 38.5134 99.3399 38.8895 98.6156L40.979 99.8066C40.3661 100.879 39.4954 101.736 38.3671 102.377C37.2527 103.003 36.0269 103.317 34.6896 103.317ZM47.7398 103.317C46.2075 103.317 44.905 102.788 43.8324 101.729C42.7598 100.67 42.2235 99.3678 42.2235 97.8216C42.2235 96.2754 42.7598 94.9729 43.8324 93.9142C44.905 92.8556 46.2075 92.3262 47.7398 92.3262C49.286 92.3262 50.5884 92.8556 51.6471 93.9142C52.7197 94.9729 53.256 96.2754 53.256 97.8216C53.256 99.3678 52.7197 100.67 51.6471 101.729C50.5884 102.788 49.286 103.317 47.7398 103.317ZM45.4204 100.183C46.0473 100.81 46.8204 101.123 47.7398 101.123C48.6591 101.123 49.4322 100.81 50.0591 100.183C50.6859 99.5558 50.9994 98.7688 50.9994 97.8216C50.9994 96.8743 50.6859 96.0873 50.0591 95.4605C49.4322 94.8336 48.6591 94.5202 47.7398 94.5202C46.8204 94.5202 46.0473 94.8336 45.4204 95.4605C44.7936 96.0873 44.4802 96.8743 44.4802 97.8216C44.4802 98.7688 44.7936 99.5558 45.4204 100.183ZM66.7051 92.3262C67.8891 92.3262 68.8433 92.7093 69.5677 93.4754C70.292 94.2416 70.6542 95.2724 70.6542 96.5679V103.045H68.3976V96.7141C68.3976 95.9898 68.2165 95.4326 67.8543 95.0426C67.4921 94.6386 66.9976 94.4366 66.3708 94.4366C65.6743 94.4366 65.1171 94.6665 64.6992 95.1261C64.2952 95.5858 64.0932 96.2754 64.0932 97.1947V103.045H61.8366V96.7141C61.8366 95.9898 61.6625 95.4326 61.3142 95.0426C60.9799 94.6386 60.4993 94.4366 59.8725 94.4366C59.1899 94.4366 58.6327 94.6734 58.2009 95.147C57.7691 95.6067 57.5531 96.2893 57.5531 97.1947V103.045H55.2965V92.5979H57.5531V93.8516C58.2218 92.8347 59.2178 92.3262 60.5411 92.3262C61.8784 92.3262 62.8674 92.8765 63.5082 93.9769C64.2047 92.8765 65.2703 92.3262 66.7051 92.3262ZM78.5438 90.3203C76.9001 90.1671 76.0782 90.8566 76.0782 92.3889V92.5979H78.5438V94.7709H76.0782V103.045H73.8216V94.7709H72.2336V92.5979H73.8216V92.3889C73.8216 90.9541 74.2186 89.8676 75.0126 89.1293C75.8205 88.3771 76.9976 88.0498 78.5438 88.1473V90.3203ZM84.3057 103.317C82.7734 103.317 81.471 102.788 80.3984 101.729C79.3258 100.67 78.7895 99.3678 78.7895 97.8216C78.7895 96.2754 79.3258 94.9729 80.3984 93.9142C81.471 92.8556 82.7734 92.3262 84.3057 92.3262C85.852 92.3262 87.1544 92.8556 88.2131 93.9142C89.2857 94.9729 89.822 96.2754 89.822 97.8216C89.822 99.3678 89.2857 100.67 88.2131 101.729C87.1544 102.788 85.852 103.317 84.3057 103.317ZM81.9864 100.183C82.6133 100.81 83.3864 101.123 84.3057 101.123C85.2251 101.123 85.9982 100.81 86.6251 100.183C87.2519 99.5558 87.5653 98.7688 87.5653 97.8216C87.5653 96.8743 87.2519 96.0873 86.6251 95.4605C85.9982 94.8336 85.2251 94.5202 84.3057 94.5202C83.3864 94.5202 82.6133 94.8336 81.9864 95.4605C81.3596 96.0873 81.0461 96.8743 81.0461 97.8216C81.0461 98.7688 81.3596 99.5558 81.9864 100.183ZM94.1191 94.353C94.6903 93.0576 95.7629 92.4098 97.3369 92.4098V94.8545C96.4733 94.7988 95.7211 95.0077 95.0803 95.4814C94.4395 95.941 94.1191 96.7072 94.1191 97.7798V103.045H91.8625V92.5979H94.1191V94.353ZM105.099 94.7709H102.508V99.7857C102.508 100.218 102.606 100.531 102.801 100.726C102.996 100.907 103.281 101.012 103.657 101.039C104.048 101.053 104.528 101.046 105.099 101.018V103.045C103.372 103.254 102.132 103.108 101.38 102.606C100.628 102.091 100.252 101.151 100.252 99.7857V94.7709H98.3293V92.5979H100.252V90.3412L102.508 89.6726V92.5979H105.099V94.7709ZM115.021 100.747H120.976V103.045H112.618V88.4189H115.021V100.747ZM127.218 103.317C125.685 103.317 124.383 102.788 123.31 101.729C122.238 100.67 121.701 99.3678 121.701 97.8216C121.701 96.2754 122.238 94.9729 123.31 93.9142C124.383 92.8556 125.685 92.3262 127.218 92.3262C128.764 92.3262 130.066 92.8556 131.125 93.9142C132.198 94.9729 132.734 96.2754 132.734 97.8216C132.734 99.3678 132.198 100.67 131.125 101.729C130.066 102.788 128.764 103.317 127.218 103.317ZM124.898 100.183C125.525 100.81 126.298 101.123 127.218 101.123C128.137 101.123 128.91 100.81 129.537 100.183C130.164 99.5558 130.477 98.7688 130.477 97.8216C130.477 96.8743 130.164 96.0873 129.537 95.4605C128.91 94.8336 128.137 94.5202 127.218 94.5202C126.298 94.5202 125.525 94.8336 124.898 95.4605C124.272 96.0873 123.958 96.8743 123.958 97.8216C123.958 98.7688 124.272 99.5558 124.898 100.183ZM141.816 92.5979H144.073V103.045H141.816V101.708C141.133 102.781 140.054 103.317 138.577 103.317C137.379 103.317 136.411 102.934 135.673 102.168C134.935 101.402 134.566 100.35 134.566 99.0126V92.5979H136.822V98.7827C136.822 99.5628 137.031 100.162 137.449 100.58C137.867 100.998 138.438 101.207 139.162 101.207C139.956 101.207 140.597 100.963 141.085 100.475C141.572 99.9737 141.816 99.2146 141.816 98.1977V92.5979ZM152.207 92.3262C153.405 92.3262 154.373 92.7093 155.111 93.4754C155.849 94.2416 156.219 95.2933 156.219 96.6306V103.045H153.962V96.8604C153.962 96.0803 153.753 95.4814 153.335 95.0635C152.917 94.6456 152.346 94.4366 151.622 94.4366C150.828 94.4366 150.187 94.6873 149.699 95.1888C149.212 95.6764 148.968 96.4286 148.968 97.4455V103.045H146.711V92.5979H148.968V93.9351C149.651 92.8625 150.73 92.3262 152.207 92.3262ZM166.965 92.5979H169.179V102.565C169.179 104.153 168.657 105.372 167.612 106.221C166.568 107.071 165.3 107.496 163.809 107.496C161.4 107.496 159.749 106.653 158.857 104.968L160.801 103.839C161.344 104.912 162.361 105.448 163.851 105.448C164.826 105.448 165.586 105.19 166.129 104.675C166.686 104.174 166.965 103.47 166.965 102.565V101.29C166.115 102.502 164.903 103.108 163.329 103.108C161.852 103.108 160.606 102.586 159.589 101.541C158.572 100.482 158.063 99.2076 158.063 97.7171C158.063 96.2266 158.572 94.959 159.589 93.9142C160.606 92.8556 161.852 92.3262 163.329 92.3262C164.903 92.3262 166.115 92.9322 166.965 94.1441V92.5979ZM161.26 100.057C161.901 100.684 162.695 100.998 163.642 100.998C164.59 100.998 165.377 100.684 166.003 100.057C166.644 99.4305 166.965 98.6504 166.965 97.7171C166.965 96.7838 166.644 96.0037 166.003 95.3769C165.377 94.75 164.59 94.4366 163.642 94.4366C162.695 94.4366 161.901 94.75 161.26 95.3769C160.633 96.0037 160.32 96.7838 160.32 97.7171C160.32 98.6504 160.633 99.4305 161.26 100.057ZM173.586 98.7827C173.753 99.5767 174.136 100.19 174.735 100.621C175.334 101.039 176.065 101.248 176.929 101.248C178.127 101.248 179.025 100.817 179.624 99.9529L181.484 101.039C180.453 102.558 178.928 103.317 176.908 103.317C175.209 103.317 173.837 102.802 172.792 101.771C171.747 100.726 171.225 99.4096 171.225 97.8216C171.225 96.2614 171.74 94.959 172.771 93.9142C173.802 92.8556 175.125 92.3262 176.741 92.3262C178.273 92.3262 179.527 92.8625 180.502 93.9351C181.491 95.0077 181.986 96.3102 181.986 97.8425C181.986 98.0793 181.958 98.3927 181.902 98.7827H173.586ZM173.565 96.944H179.708C179.555 96.0943 179.2 95.4535 178.642 95.0217C178.099 94.5898 177.458 94.3739 176.72 94.3739C175.884 94.3739 175.188 94.6038 174.631 95.0635C174.073 95.5231 173.718 96.15 173.565 96.944ZM185.59 95.4814C185.59 95.8296 185.778 96.1082 186.154 96.3171C186.544 96.5122 187.011 96.6863 187.554 96.8395C188.111 96.9788 188.668 97.146 189.226 97.341C189.783 97.536 190.249 97.8703 190.626 98.3439C191.016 98.8036 191.211 99.3887 191.211 100.099C191.211 101.102 190.821 101.889 190.041 102.46C189.274 103.031 188.306 103.317 187.136 103.317C186.105 103.317 185.221 103.101 184.482 102.669C183.744 102.237 183.208 101.638 182.874 100.872L184.817 99.7439C185.179 100.747 185.952 101.248 187.136 101.248C188.32 101.248 188.912 100.858 188.912 100.078C188.912 99.7439 188.717 99.4723 188.327 99.2633C187.951 99.0544 187.484 98.8802 186.927 98.7409C186.384 98.5877 185.834 98.4136 185.276 98.2186C184.719 98.0236 184.246 97.7032 183.856 97.2574C183.48 96.7977 183.291 96.2196 183.291 95.5231C183.291 94.562 183.654 93.7889 184.378 93.2038C185.116 92.6188 186.029 92.3262 187.115 92.3262C187.979 92.3262 188.745 92.5213 189.414 92.9113C190.096 93.2874 190.619 93.8167 190.981 94.4993L189.079 95.5649C188.717 94.7709 188.062 94.3739 187.115 94.3739C186.683 94.3739 186.321 94.4714 186.029 94.6665C185.736 94.8475 185.59 95.1192 185.59 95.4814Z" fill="black"/>
<path d="M127.732 17.9963V8.13913C127.732 2.47273 123.777 0.465881 120.059 0.465881H97.9834C94.2648 0.465881 90.3101 2.47273 90.3101 8.13913V17.9963C87.595 18.7046 85.5881 21.1246 85.5881 24.0759V39.8946C85.5881 44.5576 88.7165 46.3873 91.7858 46.5644V50.5781C91.7858 51.7586 92.7302 52.703 93.9107 52.703H96.0946C97.2751 52.703 98.2195 51.7586 98.2195 50.5781V46.5644H119.882V50.5781C119.882 51.7586 120.826 52.703 122.007 52.703H124.19C125.371 52.703 126.315 51.7586 126.315 50.5781V46.5644C130.86 46.3283 132.513 43.0229 132.513 39.8946V24.0169C132.395 21.1246 130.388 18.6456 127.732 17.9963ZM92.435 8.13913C92.435 3.29908 95.9175 2.53176 97.9834 2.53176H120.059C122.125 2.53176 125.607 3.24006 125.607 8.0801V17.7602C122.42 18.0553 119.882 20.7115 119.882 24.0169V25.4925H98.1605V24.0169C98.1605 20.7115 95.6224 18.0553 92.435 17.7602V8.13913ZM119.823 27.6174V34.9365H98.1605V27.6174H119.823ZM96.0946 50.5781H93.9107V46.5644H96.0946V50.5781ZM124.131 50.5781H121.948V46.5644H124.131V50.5781ZM130.388 39.8946H130.329C130.329 41.9604 129.562 44.4985 125.725 44.4985H124.131H121.948H96.0946H93.9107H92.317C90.2511 44.4985 87.713 43.7312 87.713 39.8946V24.0169C87.713 21.7149 89.6018 19.8261 91.9038 19.8261C94.2058 19.8261 96.0946 21.7149 96.0946 24.0169V35.9989C96.0946 36.5892 96.5668 37.0614 97.157 37.0614H120.944C121.534 37.0614 122.007 36.5892 122.007 35.9989V24.0169C122.007 21.7149 123.895 19.8261 126.197 19.8261C128.499 19.8261 130.388 21.7149 130.388 24.0169V39.8946Z" fill="#FD5B2F"/>
<path d="M40.6078 133.959H41.5982L45.3719 142.835H44.1432L43.2406 140.654H38.8025L37.8873 142.835H36.6963L40.6078 133.959ZM41.0842 135.313H41.0592L39.2162 139.676H42.8394L41.0842 135.313ZM46.4638 133.357H47.4417V142.835H46.4638V133.357ZM49.4879 133.357H50.4658V142.835H49.4879V133.357ZM52.0734 139.901C52.0734 139.442 52.1528 139.024 52.3116 138.648C52.4704 138.272 52.6877 137.95 52.9635 137.682C53.2394 137.406 53.5695 137.193 53.954 137.043C54.3384 136.892 54.7563 136.817 55.2076 136.817C55.659 136.817 56.0769 136.892 56.4613 137.043C56.8458 137.193 57.1759 137.406 57.4518 137.682C57.7276 137.95 57.9449 138.272 58.1037 138.648C58.2625 139.024 58.3419 139.442 58.3419 139.901C58.3419 140.361 58.2625 140.779 58.1037 141.155C57.9449 141.531 57.7276 141.857 57.4518 142.133C57.1759 142.4 56.8458 142.609 56.4613 142.76C56.0769 142.91 55.659 142.985 55.2076 142.985C54.7563 142.985 54.3384 142.91 53.954 142.76C53.5695 142.609 53.2394 142.4 52.9635 142.133C52.6877 141.857 52.4704 141.531 52.3116 141.155C52.1528 140.779 52.0734 140.361 52.0734 139.901ZM53.1265 139.901C53.1265 140.211 53.1725 140.499 53.2644 140.766C53.3647 141.025 53.5068 141.255 53.6907 141.456C53.8746 141.648 54.0919 141.803 54.3426 141.92C54.6017 142.028 54.89 142.083 55.2076 142.083C55.5252 142.083 55.8094 142.028 56.0602 141.92C56.3193 141.803 56.5407 141.648 56.7246 141.456C56.9085 141.255 57.0464 141.025 57.1383 140.766C57.2386 140.499 57.2888 140.211 57.2888 139.901C57.2888 139.592 57.2386 139.308 57.1383 139.049C57.0464 138.781 56.9085 138.552 56.7246 138.359C56.5407 138.159 56.3193 138.004 56.0602 137.895C55.8094 137.778 55.5252 137.72 55.2076 137.72C54.89 137.72 54.6017 137.778 54.3426 137.895C54.0919 138.004 53.8746 138.159 53.6907 138.359C53.5068 138.552 53.3647 138.781 53.2644 139.049C53.1725 139.308 53.1265 139.592 53.1265 139.901ZM66.1492 142.835H65.1839L63.5165 138.322H63.4914L62.0121 142.835H61.0091L59.1035 136.968H60.1817L61.5231 141.481H61.5482L63.0652 136.968H64.0932L65.6352 141.481H65.6603L66.9892 136.968H68.0423L66.1492 142.835ZM69.236 136.968H70.2138V142.835H69.236V136.968ZM69.0103 134.673C69.0103 134.481 69.0772 134.314 69.2109 134.172C69.353 134.03 69.5243 133.959 69.7249 133.959C69.9255 133.959 70.0926 134.03 70.2264 134.172C70.3685 134.314 70.4395 134.481 70.4395 134.673C70.4395 134.882 70.3726 135.054 70.2389 135.187C70.1052 135.321 69.9338 135.388 69.7249 135.388C69.5159 135.388 69.3446 135.321 69.2109 135.187C69.0772 135.054 69.0103 134.882 69.0103 134.673ZM72.16 138.359C72.16 138.092 72.1516 137.841 72.1349 137.607C72.1182 137.373 72.1098 137.16 72.1098 136.968H73.0376C73.0376 137.126 73.0418 137.285 73.0501 137.444C73.0585 137.603 73.0627 137.766 73.0627 137.933H73.0877C73.1546 137.791 73.2465 137.653 73.3635 137.519C73.4889 137.386 73.6352 137.269 73.8023 137.168C73.9695 137.06 74.1575 136.976 74.3665 136.918C74.5754 136.851 74.8011 136.817 75.0435 136.817C75.4279 136.817 75.7581 136.876 76.0339 136.993C76.3181 137.11 76.5521 137.273 76.736 137.482C76.9198 137.691 77.0536 137.946 77.1371 138.246C77.2291 138.539 77.2751 138.861 77.2751 139.212V142.835H76.2972V139.312C76.2972 138.819 76.1885 138.43 75.9712 138.146C75.7539 137.862 75.4154 137.72 74.9557 137.72C74.6381 137.72 74.3623 137.774 74.1283 137.883C73.9026 137.992 73.7146 138.146 73.5641 138.347C73.422 138.547 73.3134 138.786 73.2382 139.061C73.1713 139.337 73.1379 139.642 73.1379 139.977V142.835H72.16V138.359ZM84.981 142.572C84.981 143.642 84.7052 144.452 84.1536 145.004C83.6103 145.564 82.8205 145.844 81.7841 145.844C81.2074 145.844 80.6851 145.76 80.217 145.593C79.7573 145.426 79.3185 145.138 78.9006 144.728L79.6027 143.926C79.9119 144.26 80.2379 144.511 80.5806 144.678C80.9316 144.853 81.3328 144.941 81.7841 144.941C82.2187 144.941 82.5781 144.874 82.8623 144.741C83.1548 144.615 83.3847 144.44 83.5518 144.214C83.719 143.997 83.836 143.746 83.9029 143.462C83.9697 143.178 84.0032 142.881 84.0032 142.572V141.819H83.9781C83.7441 142.196 83.439 142.471 83.0629 142.647C82.6868 142.822 82.3023 142.91 81.9095 142.91C81.4498 142.91 81.0277 142.835 80.6433 142.685C80.2588 142.534 79.9287 142.325 79.6529 142.058C79.377 141.79 79.1639 141.473 79.0135 141.105C78.863 140.737 78.7878 140.336 78.7878 139.901C78.7878 139.425 78.863 138.994 79.0135 138.61C79.1639 138.226 79.3729 137.904 79.6403 137.645C79.9161 137.377 80.2463 137.172 80.6307 137.03C81.0152 136.888 81.4415 136.817 81.9095 136.817C82.1101 136.817 82.3107 136.842 82.5113 136.892C82.7119 136.934 82.9041 137.005 83.088 137.106C83.2802 137.198 83.4515 137.319 83.602 137.469C83.7524 137.611 83.8778 137.778 83.9781 137.971H84.0032V136.968H84.981V142.572ZM79.8409 139.901C79.8409 140.202 79.8952 140.482 80.0039 140.741C80.1125 140.992 80.2588 141.214 80.4427 141.406C80.6349 141.59 80.8564 141.736 81.1071 141.845C81.3579 141.953 81.6253 142.008 81.9095 142.008C82.2438 142.008 82.5405 141.949 82.7996 141.832C83.0587 141.715 83.276 141.56 83.4515 141.368C83.6354 141.168 83.7733 140.942 83.8653 140.691C83.9572 140.432 84.0032 140.16 84.0032 139.876C84.0032 139.559 83.953 139.27 83.8527 139.011C83.7524 138.744 83.6103 138.514 83.4265 138.322C83.2426 138.129 83.0211 137.983 82.762 137.883C82.5029 137.774 82.2187 137.72 81.9095 137.72C81.6003 137.72 81.3161 137.778 81.057 137.895C80.8062 138.004 80.5889 138.159 80.4051 138.359C80.2295 138.552 80.0916 138.781 79.9913 139.049C79.8911 139.308 79.8409 139.592 79.8409 139.901ZM94.4545 138.435C94.2456 138.184 94.0199 138.004 93.7775 137.895C93.5352 137.778 93.2677 137.72 92.9752 137.72C92.6492 137.72 92.3609 137.778 92.1101 137.895C91.8594 138.004 91.6504 138.159 91.4833 138.359C91.3245 138.56 91.2033 138.794 91.1197 139.061C91.0361 139.32 90.9943 139.6 90.9943 139.901C90.9943 140.202 91.0403 140.486 91.1323 140.754C91.2325 141.013 91.3663 141.243 91.5334 141.443C91.709 141.644 91.9179 141.803 92.1603 141.92C92.4027 142.028 92.6743 142.083 92.9752 142.083C93.6187 142.083 94.116 141.84 94.4671 141.356L95.1942 142.045C94.91 142.371 94.5757 142.609 94.1913 142.76C93.8068 142.91 93.4014 142.985 92.9752 142.985C92.5239 142.985 92.1101 142.91 91.734 142.76C91.3579 142.609 91.0361 142.396 90.7687 142.12C90.5096 141.845 90.3048 141.519 90.1544 141.142C90.0123 140.766 89.9412 140.353 89.9412 139.901C89.9412 139.458 90.0123 139.049 90.1544 138.673C90.3048 138.297 90.5138 137.971 90.7812 137.695C91.0487 137.419 91.3663 137.206 91.734 137.055C92.1101 136.897 92.5239 136.817 92.9752 136.817C93.4098 136.817 93.8193 136.892 94.2038 137.043C94.5966 137.193 94.9393 137.427 95.2318 137.745L94.4545 138.435ZM95.9893 139.901C95.9893 139.442 96.0687 139.024 96.2275 138.648C96.3863 138.272 96.6036 137.95 96.8794 137.682C97.1553 137.406 97.4854 137.193 97.8699 137.043C98.2543 136.892 98.6722 136.817 99.1235 136.817C99.5749 136.817 99.9928 136.892 100.377 137.043C100.762 137.193 101.092 137.406 101.368 137.682C101.643 137.95 101.861 138.272 102.02 138.648C102.178 139.024 102.258 139.442 102.258 139.901C102.258 140.361 102.178 140.779 102.02 141.155C101.861 141.531 101.643 141.857 101.368 142.133C101.092 142.4 100.762 142.609 100.377 142.76C99.9928 142.91 99.5749 142.985 99.1235 142.985C98.6722 142.985 98.2543 142.91 97.8699 142.76C97.4854 142.609 97.1553 142.4 96.8794 142.133C96.6036 141.857 96.3863 141.531 96.2275 141.155C96.0687 140.779 95.9893 140.361 95.9893 139.901ZM97.0424 139.901C97.0424 140.211 97.0884 140.499 97.1803 140.766C97.2806 141.025 97.4227 141.255 97.6066 141.456C97.7905 141.648 98.0078 141.803 98.2585 141.92C98.5176 142.028 98.8059 142.083 99.1235 142.083C99.4411 142.083 99.7253 142.028 99.9761 141.92C100.235 141.803 100.457 141.648 100.641 141.456C100.824 141.255 100.962 141.025 101.054 140.766C101.155 140.499 101.205 140.211 101.205 139.901C101.205 139.592 101.155 139.308 101.054 139.049C100.962 138.781 100.824 138.552 100.641 138.359C100.457 138.159 100.235 138.004 99.9761 137.895C99.7253 137.778 99.4411 137.72 99.1235 137.72C98.8059 137.72 98.5176 137.778 98.2585 137.895C98.0078 138.004 97.7905 138.159 97.6066 138.359C97.4227 138.552 97.2806 138.781 97.1803 139.049C97.0884 139.308 97.0424 139.592 97.0424 139.901ZM103.897 141.293C104.089 141.535 104.298 141.728 104.524 141.87C104.758 142.012 105.05 142.083 105.401 142.083C105.552 142.083 105.702 142.066 105.853 142.033C106.012 141.999 106.154 141.945 106.279 141.87C106.404 141.794 106.505 141.702 106.58 141.594C106.655 141.477 106.693 141.339 106.693 141.18C106.693 141.021 106.655 140.892 106.58 140.791C106.513 140.691 106.421 140.608 106.304 140.541C106.187 140.465 106.053 140.407 105.903 140.365C105.752 140.323 105.598 140.286 105.439 140.252C105.163 140.194 104.9 140.127 104.649 140.052C104.398 139.977 104.177 139.88 103.985 139.763C103.801 139.638 103.65 139.479 103.533 139.287C103.425 139.095 103.37 138.848 103.37 138.547C103.37 138.263 103.433 138.012 103.558 137.795C103.684 137.578 103.851 137.398 104.06 137.256C104.269 137.114 104.503 137.005 104.762 136.93C105.021 136.855 105.289 136.817 105.564 136.817C105.982 136.817 106.367 136.901 106.718 137.068C107.077 137.235 107.357 137.507 107.558 137.883L106.743 138.422C106.617 138.213 106.45 138.046 106.241 137.92C106.041 137.787 105.794 137.72 105.502 137.72C105.368 137.72 105.23 137.737 105.088 137.77C104.954 137.803 104.833 137.854 104.724 137.92C104.616 137.987 104.524 138.075 104.449 138.184C104.382 138.284 104.348 138.401 104.348 138.535C104.348 138.66 104.386 138.769 104.461 138.861C104.545 138.944 104.653 139.02 104.787 139.086C104.929 139.153 105.088 139.212 105.264 139.262C105.447 139.312 105.635 139.354 105.828 139.387C106.087 139.437 106.333 139.504 106.567 139.588C106.801 139.663 107.006 139.768 107.182 139.901C107.357 140.035 107.495 140.202 107.595 140.403C107.696 140.603 107.746 140.85 107.746 141.142C107.746 141.477 107.679 141.761 107.545 141.995C107.411 142.229 107.232 142.421 107.006 142.572C106.789 142.714 106.538 142.818 106.254 142.885C105.978 142.952 105.694 142.985 105.401 142.985C104.9 142.985 104.465 142.91 104.098 142.76C103.738 142.601 103.412 142.313 103.12 141.895L103.897 141.293ZM112.319 137.795H110.589V140.729C110.589 140.921 110.593 141.101 110.601 141.268C110.61 141.427 110.643 141.569 110.702 141.694C110.76 141.811 110.848 141.907 110.965 141.982C111.082 142.049 111.249 142.083 111.467 142.083C111.609 142.083 111.755 142.066 111.905 142.033C112.056 141.999 112.198 141.949 112.332 141.882L112.369 142.772C112.202 142.847 112.014 142.902 111.805 142.935C111.604 142.969 111.412 142.985 111.228 142.985C110.877 142.985 110.597 142.939 110.388 142.847C110.179 142.756 110.016 142.626 109.899 142.459C109.782 142.292 109.703 142.087 109.661 141.845C109.628 141.594 109.611 141.318 109.611 141.017V137.795H108.332V136.968H109.611V135.3H110.589V136.968H112.319V137.795ZM117.132 141.293C117.324 141.535 117.533 141.728 117.759 141.87C117.993 142.012 118.285 142.083 118.636 142.083C118.787 142.083 118.937 142.066 119.087 142.033C119.246 141.999 119.388 141.945 119.514 141.87C119.639 141.794 119.739 141.702 119.815 141.594C119.89 141.477 119.927 141.339 119.927 141.18C119.927 141.021 119.89 140.892 119.815 140.791C119.748 140.691 119.656 140.608 119.539 140.541C119.422 140.465 119.288 140.407 119.138 140.365C118.987 140.323 118.833 140.286 118.674 140.252C118.398 140.194 118.135 140.127 117.884 140.052C117.633 139.977 117.412 139.88 117.219 139.763C117.036 139.638 116.885 139.479 116.768 139.287C116.66 139.095 116.605 138.848 116.605 138.547C116.605 138.263 116.668 138.012 116.793 137.795C116.919 137.578 117.086 137.398 117.295 137.256C117.504 137.114 117.738 137.005 117.997 136.93C118.256 136.855 118.523 136.817 118.799 136.817C119.217 136.817 119.602 136.901 119.953 137.068C120.312 137.235 120.592 137.507 120.793 137.883L119.978 138.422C119.852 138.213 119.685 138.046 119.476 137.92C119.276 137.787 119.029 137.72 118.736 137.72C118.603 137.72 118.465 137.737 118.323 137.77C118.189 137.803 118.068 137.854 117.959 137.92C117.851 137.987 117.759 138.075 117.683 138.184C117.616 138.284 117.583 138.401 117.583 138.535C117.583 138.66 117.621 138.769 117.696 138.861C117.779 138.944 117.888 139.02 118.022 139.086C118.164 139.153 118.323 139.212 118.498 139.262C118.682 139.312 118.87 139.354 119.062 139.387C119.322 139.437 119.568 139.504 119.802 139.588C120.036 139.663 120.241 139.768 120.416 139.901C120.592 140.035 120.73 140.202 120.83 140.403C120.93 140.603 120.981 140.85 120.981 141.142C120.981 141.477 120.914 141.761 120.78 141.995C120.646 142.229 120.467 142.421 120.241 142.572C120.024 142.714 119.773 142.818 119.489 142.885C119.213 142.952 118.929 142.985 118.636 142.985C118.135 142.985 117.7 142.91 117.332 142.76C116.973 142.601 116.647 142.313 116.354 141.895L117.132 141.293ZM122.269 137.72C122.57 137.411 122.925 137.185 123.335 137.043C123.753 136.892 124.175 136.817 124.601 136.817C125.47 136.817 126.097 137.022 126.482 137.432C126.866 137.841 127.058 138.464 127.058 139.3V141.819C127.058 141.987 127.067 142.162 127.083 142.346C127.1 142.522 127.121 142.685 127.146 142.835H126.206C126.172 142.701 126.151 142.555 126.143 142.396C126.143 142.229 126.143 142.083 126.143 141.957H126.118C125.926 142.258 125.667 142.505 125.341 142.697C125.023 142.889 124.639 142.985 124.187 142.985C123.886 142.985 123.602 142.948 123.335 142.873C123.076 142.797 122.846 142.689 122.645 142.547C122.453 142.396 122.298 142.212 122.181 141.995C122.064 141.778 122.006 141.527 122.006 141.243C122.006 140.758 122.131 140.378 122.382 140.102C122.633 139.826 122.942 139.621 123.31 139.488C123.686 139.354 124.087 139.27 124.513 139.237C124.948 139.203 125.345 139.187 125.704 139.187H126.08V139.011C126.08 138.585 125.951 138.263 125.692 138.046C125.441 137.829 125.086 137.72 124.626 137.72C124.308 137.72 123.995 137.774 123.686 137.883C123.385 137.983 123.117 138.142 122.883 138.359L122.269 137.72ZM125.102 140.014C124.476 140.014 123.978 140.102 123.611 140.277C123.243 140.453 123.059 140.741 123.059 141.142C123.059 141.51 123.18 141.774 123.423 141.932C123.673 142.083 123.983 142.158 124.35 142.158C124.634 142.158 124.881 142.112 125.09 142.02C125.307 141.92 125.487 141.79 125.629 141.631C125.771 141.473 125.88 141.289 125.955 141.08C126.03 140.862 126.072 140.633 126.08 140.39V140.014H125.102ZM131.516 142.835H130.438L128.043 136.968H129.184L131.014 141.569H131.039L132.782 136.968H133.835L131.516 142.835ZM134.981 136.968H135.959V142.835H134.981V136.968ZM134.756 134.673C134.756 134.481 134.822 134.314 134.956 134.172C135.098 134.03 135.27 133.959 135.47 133.959C135.671 133.959 135.838 134.03 135.972 134.172C136.114 134.314 136.185 134.481 136.185 134.673C136.185 134.882 136.118 135.054 135.984 135.187C135.85 135.321 135.679 135.388 135.47 135.388C135.261 135.388 135.09 135.321 134.956 135.187C134.822 135.054 134.756 134.882 134.756 134.673ZM137.905 138.359C137.905 138.092 137.897 137.841 137.88 137.607C137.864 137.373 137.855 137.16 137.855 136.968H138.783C138.783 137.126 138.787 137.285 138.795 137.444C138.804 137.603 138.808 137.766 138.808 137.933H138.833C138.9 137.791 138.992 137.653 139.109 137.519C139.234 137.386 139.38 137.269 139.548 137.168C139.715 137.06 139.903 136.976 140.112 136.918C140.321 136.851 140.546 136.817 140.789 136.817C141.173 136.817 141.503 136.876 141.779 136.993C142.063 137.11 142.297 137.273 142.481 137.482C142.665 137.691 142.799 137.946 142.882 138.246C142.974 138.539 143.02 138.861 143.02 139.212V142.835H142.042V139.312C142.042 138.819 141.934 138.43 141.717 138.146C141.499 137.862 141.161 137.72 140.701 137.72C140.383 137.72 140.108 137.774 139.874 137.883C139.648 137.992 139.46 138.146 139.309 138.347C139.167 138.547 139.059 138.786 138.983 139.061C138.917 139.337 138.883 139.642 138.883 139.977V142.835H137.905V138.359ZM150.726 142.572C150.726 143.642 150.451 144.452 149.899 145.004C149.356 145.564 148.566 145.844 147.529 145.844C146.953 145.844 146.43 145.76 145.962 145.593C145.503 145.426 145.064 145.138 144.646 144.728L145.348 143.926C145.657 144.26 145.983 144.511 146.326 144.678C146.677 144.853 147.078 144.941 147.529 144.941C147.964 144.941 148.323 144.874 148.608 144.741C148.9 144.615 149.13 144.44 149.297 144.214C149.464 143.997 149.581 143.746 149.648 143.462C149.715 143.178 149.748 142.881 149.748 142.572V141.819H149.723C149.489 142.196 149.184 142.471 148.808 142.647C148.432 142.822 148.048 142.91 147.655 142.91C147.195 142.91 146.773 142.835 146.389 142.685C146.004 142.534 145.674 142.325 145.398 142.058C145.122 141.79 144.909 141.473 144.759 141.105C144.608 140.737 144.533 140.336 144.533 139.901C144.533 139.425 144.608 138.994 144.759 138.61C144.909 138.226 145.118 137.904 145.386 137.645C145.661 137.377 145.992 137.172 146.376 137.03C146.761 136.888 147.187 136.817 147.655 136.817C147.855 136.817 148.056 136.842 148.257 136.892C148.457 136.934 148.649 137.005 148.833 137.106C149.026 137.198 149.197 137.319 149.347 137.469C149.498 137.611 149.623 137.778 149.723 137.971H149.748V136.968H150.726V142.572ZM145.586 139.901C145.586 140.202 145.641 140.482 145.749 140.741C145.858 140.992 146.004 141.214 146.188 141.406C146.38 141.59 146.602 141.736 146.852 141.845C147.103 141.953 147.371 142.008 147.655 142.008C147.989 142.008 148.286 141.949 148.545 141.832C148.804 141.715 149.021 141.56 149.197 141.368C149.381 141.168 149.519 140.942 149.611 140.691C149.702 140.432 149.748 140.16 149.748 139.876C149.748 139.559 149.698 139.27 149.598 139.011C149.498 138.744 149.356 138.514 149.172 138.322C148.988 138.129 148.766 137.983 148.507 137.883C148.248 137.774 147.964 137.72 147.655 137.72C147.346 137.72 147.061 137.778 146.802 137.895C146.552 138.004 146.334 138.159 146.15 138.359C145.975 138.552 145.837 138.781 145.737 139.049C145.636 139.308 145.586 139.592 145.586 139.901ZM152.661 141.293C152.853 141.535 153.062 141.728 153.288 141.87C153.522 142.012 153.815 142.083 154.166 142.083C154.316 142.083 154.466 142.066 154.617 142.033C154.776 141.999 154.918 141.945 155.043 141.87C155.169 141.794 155.269 141.702 155.344 141.594C155.419 141.477 155.457 141.339 155.457 141.18C155.457 141.021 155.419 140.892 155.344 140.791C155.277 140.691 155.185 140.608 155.068 140.541C154.951 140.465 154.817 140.407 154.667 140.365C154.517 140.323 154.362 140.286 154.203 140.252C153.927 140.194 153.664 140.127 153.413 140.052C153.163 139.977 152.941 139.88 152.749 139.763C152.565 139.638 152.415 139.479 152.298 139.287C152.189 139.095 152.135 138.848 152.135 138.547C152.135 138.263 152.197 138.012 152.323 137.795C152.448 137.578 152.615 137.398 152.824 137.256C153.033 137.114 153.267 137.005 153.526 136.93C153.785 136.855 154.053 136.817 154.329 136.817C154.746 136.817 155.131 136.901 155.482 137.068C155.841 137.235 156.121 137.507 156.322 137.883L155.507 138.422C155.382 138.213 155.214 138.046 155.006 137.92C154.805 137.787 154.558 137.72 154.266 137.72C154.132 137.72 153.994 137.737 153.852 137.77C153.718 137.803 153.597 137.854 153.489 137.92C153.38 137.987 153.288 138.075 153.213 138.184C153.146 138.284 153.112 138.401 153.112 138.535C153.112 138.66 153.15 138.769 153.225 138.861C153.309 138.944 153.418 139.02 153.551 139.086C153.693 139.153 153.852 139.212 154.028 139.262C154.212 139.312 154.4 139.354 154.592 139.387C154.851 139.437 155.097 139.504 155.331 139.588C155.566 139.663 155.77 139.768 155.946 139.901C156.121 140.035 156.259 140.202 156.36 140.403C156.46 140.603 156.51 140.85 156.51 141.142C156.51 141.477 156.443 141.761 156.309 141.995C156.176 142.229 155.996 142.421 155.77 142.572C155.553 142.714 155.302 142.818 155.018 142.885C154.742 142.952 154.458 142.985 154.166 142.985C153.664 142.985 153.229 142.91 152.862 142.76C152.502 142.601 152.176 142.313 151.884 141.895L152.661 141.293ZM161.288 137.72C161.589 137.411 161.944 137.185 162.353 137.043C162.771 136.892 163.193 136.817 163.62 136.817C164.489 136.817 165.116 137.022 165.5 137.432C165.885 137.841 166.077 138.464 166.077 139.3V141.819C166.077 141.987 166.085 142.162 166.102 142.346C166.119 142.522 166.14 142.685 166.165 142.835H165.224C165.191 142.701 165.17 142.555 165.162 142.396C165.162 142.229 165.162 142.083 165.162 141.957H165.137C164.944 142.258 164.685 142.505 164.359 142.697C164.042 142.889 163.657 142.985 163.206 142.985C162.905 142.985 162.621 142.948 162.353 142.873C162.094 142.797 161.865 142.689 161.664 142.547C161.472 142.396 161.317 142.212 161.2 141.995C161.083 141.778 161.025 141.527 161.025 141.243C161.025 140.758 161.15 140.378 161.401 140.102C161.651 139.826 161.961 139.621 162.328 139.488C162.704 139.354 163.106 139.27 163.532 139.237C163.967 139.203 164.364 139.187 164.723 139.187H165.099V139.011C165.099 138.585 164.969 138.263 164.71 138.046C164.46 137.829 164.104 137.72 163.645 137.72C163.327 137.72 163.014 137.774 162.704 137.883C162.404 137.983 162.136 138.142 161.902 138.359L161.288 137.72ZM164.121 140.014C163.494 140.014 162.997 140.102 162.629 140.277C162.262 140.453 162.078 140.741 162.078 141.142C162.078 141.51 162.199 141.774 162.441 141.932C162.692 142.083 163.001 142.158 163.369 142.158C163.653 142.158 163.9 142.112 164.109 142.02C164.326 141.92 164.506 141.79 164.648 141.631C164.79 141.473 164.898 141.289 164.974 141.08C165.049 140.862 165.091 140.633 165.099 140.39V140.014H164.121ZM167.864 138.359C167.864 138.092 167.856 137.841 167.839 137.607C167.822 137.373 167.814 137.16 167.814 136.968H168.742C168.742 137.126 168.746 137.285 168.754 137.444C168.763 137.603 168.767 137.766 168.767 137.933H168.792C168.859 137.791 168.951 137.653 169.068 137.519C169.193 137.386 169.339 137.269 169.506 137.168C169.674 137.06 169.862 136.976 170.071 136.918C170.28 136.851 170.505 136.817 170.748 136.817C171.132 136.817 171.462 136.876 171.738 136.993C172.022 137.11 172.256 137.273 172.44 137.482C172.624 137.691 172.758 137.946 172.841 138.246C172.933 138.539 172.979 138.861 172.979 139.212V142.835H172.001V139.312C172.001 138.819 171.893 138.43 171.675 138.146C171.458 137.862 171.12 137.72 170.66 137.72C170.342 137.72 170.066 137.774 169.832 137.883C169.607 137.992 169.419 138.146 169.268 138.347C169.126 138.547 169.017 138.786 168.942 139.061C168.875 139.337 168.842 139.642 168.842 139.977V142.835H167.864V138.359ZM179.707 141.794H179.682C179.498 142.129 179.206 142.413 178.805 142.647C178.412 142.873 177.952 142.985 177.426 142.985C177.016 142.985 176.632 142.91 176.272 142.76C175.913 142.601 175.599 142.384 175.332 142.108C175.073 141.832 174.868 141.506 174.718 141.13C174.567 140.754 174.492 140.344 174.492 139.901C174.492 139.458 174.567 139.049 174.718 138.673C174.868 138.297 175.077 137.971 175.344 137.695C175.612 137.419 175.934 137.206 176.31 137.055C176.694 136.897 177.116 136.817 177.576 136.817C178.002 136.817 178.391 136.905 178.742 137.081C179.101 137.256 179.415 137.503 179.682 137.82H179.707V133.357H180.685V142.835H179.707V141.794ZM179.707 139.901C179.707 139.592 179.657 139.308 179.557 139.049C179.465 138.781 179.327 138.552 179.143 138.359C178.959 138.159 178.738 138.004 178.479 137.895C178.228 137.778 177.944 137.72 177.626 137.72C177.309 137.72 177.02 137.778 176.761 137.895C176.51 138.004 176.293 138.159 176.109 138.359C175.925 138.552 175.783 138.781 175.683 139.049C175.591 139.308 175.545 139.592 175.545 139.901C175.545 140.211 175.591 140.499 175.683 140.766C175.783 141.025 175.925 141.255 176.109 141.456C176.293 141.648 176.51 141.803 176.761 141.92C177.02 142.028 177.309 142.083 177.626 142.083C177.944 142.083 178.228 142.028 178.479 141.92C178.738 141.803 178.959 141.648 179.143 141.456C179.327 141.255 179.465 141.025 179.557 140.766C179.657 140.499 179.707 140.211 179.707 139.901ZM25.2016 163.435C24.9926 163.184 24.767 163.004 24.5246 162.895C24.2822 162.778 24.0148 162.72 23.7222 162.72C23.3963 162.72 23.1079 162.778 22.8572 162.895C22.6064 163.004 22.3975 163.159 22.2303 163.359C22.0715 163.56 21.9504 163.794 21.8668 164.061C21.7832 164.32 21.7414 164.6 21.7414 164.901C21.7414 165.202 21.7874 165.486 21.8793 165.754C21.9796 166.013 22.1133 166.243 22.2805 166.443C22.456 166.644 22.665 166.803 22.9073 166.92C23.1497 167.028 23.4213 167.083 23.7222 167.083C24.3658 167.083 24.8631 166.84 25.2141 166.356L25.9413 167.045C25.6571 167.371 25.3228 167.609 24.9383 167.76C24.5538 167.91 24.1485 167.985 23.7222 167.985C23.2709 167.985 22.8572 167.91 22.4811 167.76C22.105 167.609 21.7832 167.396 21.5157 167.12C21.2566 166.845 21.0519 166.519 20.9014 166.142C20.7593 165.766 20.6883 165.353 20.6883 164.901C20.6883 164.458 20.7593 164.049 20.9014 163.673C21.0519 163.297 21.2608 162.971 21.5283 162.695C21.7957 162.419 22.1133 162.206 22.4811 162.055C22.8572 161.897 23.2709 161.817 23.7222 161.817C24.1568 161.817 24.5664 161.892 24.9509 162.043C25.3437 162.193 25.6863 162.427 25.9789 162.745L25.2016 163.435ZM26.7364 164.901C26.7364 164.442 26.8158 164.024 26.9746 163.648C27.1334 163.272 27.3507 162.95 27.6265 162.682C27.9023 162.406 28.2325 162.193 28.6169 162.043C29.0014 161.892 29.4193 161.817 29.8706 161.817C30.3219 161.817 30.7398 161.892 31.1243 162.043C31.5088 162.193 31.8389 162.406 32.1147 162.682C32.3905 162.95 32.6078 163.272 32.7666 163.648C32.9254 164.024 33.0048 164.442 33.0048 164.901C33.0048 165.361 32.9254 165.779 32.7666 166.155C32.6078 166.531 32.3905 166.857 32.1147 167.133C31.8389 167.4 31.5088 167.609 31.1243 167.76C30.7398 167.91 30.3219 167.985 29.8706 167.985C29.4193 167.985 29.0014 167.91 28.6169 167.76C28.2325 167.609 27.9023 167.4 27.6265 167.133C27.3507 166.857 27.1334 166.531 26.9746 166.155C26.8158 165.779 26.7364 165.361 26.7364 164.901ZM27.7895 164.901C27.7895 165.211 27.8354 165.499 27.9274 165.766C28.0277 166.025 28.1698 166.255 28.3536 166.456C28.5375 166.648 28.7548 166.803 29.0056 166.92C29.2647 167.028 29.553 167.083 29.8706 167.083C30.1882 167.083 30.4724 167.028 30.7231 166.92C30.9822 166.803 31.2037 166.648 31.3876 166.456C31.5714 166.255 31.7094 166.025 31.8013 165.766C31.9016 165.499 31.9517 165.211 31.9517 164.901C31.9517 164.592 31.9016 164.308 31.8013 164.049C31.7094 163.781 31.5714 163.552 31.3876 163.359C31.2037 163.159 30.9822 163.004 30.7231 162.895C30.4724 162.778 30.1882 162.72 29.8706 162.72C29.553 162.72 29.2647 162.778 29.0056 162.895C28.7548 163.004 28.5375 163.159 28.3536 163.359C28.1698 163.552 28.0277 163.781 27.9274 164.049C27.8354 164.308 27.7895 164.592 27.7895 164.901ZM34.5187 163.359C34.5187 163.092 34.5103 162.841 34.4936 162.607C34.4769 162.373 34.4685 162.16 34.4685 161.968H35.3962C35.3962 162.126 35.4004 162.285 35.4088 162.444C35.4171 162.603 35.4213 162.766 35.4213 162.933H35.4464C35.5133 162.791 35.6052 162.653 35.7222 162.519C35.8476 162.386 35.9938 162.269 36.161 162.168C36.3282 162.06 36.5162 161.976 36.7252 161.918C36.9341 161.851 37.1598 161.817 37.4022 161.817C37.7866 161.817 38.1168 161.876 38.3926 161.993C38.6767 162.11 38.9108 162.273 39.0946 162.482C39.2785 162.691 39.4122 162.946 39.4958 163.246C39.5878 163.539 39.6337 163.861 39.6337 164.212V167.835H38.6558V164.312C38.6558 163.819 38.5472 163.43 38.3299 163.146C38.1126 162.862 37.7741 162.72 37.3144 162.72C36.9968 162.72 36.721 162.774 36.487 162.883C36.2613 162.992 36.0732 163.146 35.9228 163.347C35.7807 163.547 35.6721 163.786 35.5968 164.061C35.53 164.337 35.4965 164.642 35.4965 164.977V167.835H34.5187V163.359ZM44.1553 167.835H43.0772L40.6826 161.968H41.8235L43.6539 166.569H43.6789L45.4216 161.968H46.4747L44.1553 167.835ZM52.7735 166.769C52.4224 167.221 52.038 167.538 51.6201 167.722C51.2022 167.898 50.7174 167.985 50.1658 167.985C49.7061 167.985 49.2924 167.906 48.9246 167.747C48.5569 167.58 48.2435 167.359 47.9844 167.083C47.7336 166.807 47.5372 166.481 47.3951 166.105C47.2614 165.729 47.1946 165.328 47.1946 164.901C47.1946 164.45 47.2698 164.036 47.4202 163.66C47.5707 163.276 47.7796 162.95 48.0471 162.682C48.3145 162.406 48.6321 162.193 48.9999 162.043C49.3676 161.892 49.7688 161.817 50.2034 161.817C50.613 161.817 50.9891 161.888 51.3317 162.03C51.6744 162.164 51.9669 162.365 52.2093 162.632C52.4601 162.891 52.6523 163.213 52.786 163.597C52.9197 163.974 52.9866 164.404 52.9866 164.889V165.202H48.2477C48.2644 165.453 48.3229 165.695 48.4232 165.929C48.5318 166.155 48.6697 166.356 48.8369 166.531C49.004 166.698 49.2005 166.832 49.4261 166.932C49.6518 167.033 49.8983 167.083 50.1658 167.083C50.5921 167.083 50.9514 167.008 51.244 166.857C51.5365 166.707 51.7998 166.485 52.0338 166.193L52.7735 166.769ZM51.9335 164.375C51.9168 163.873 51.7538 163.472 51.4446 163.171C51.1353 162.87 50.7091 162.72 50.1658 162.72C49.6225 162.72 49.1837 162.87 48.8494 163.171C48.5151 163.472 48.3145 163.873 48.2477 164.375H51.9335ZM54.4994 163.359C54.4994 163.092 54.491 162.841 54.4743 162.607C54.4576 162.373 54.4492 162.16 54.4492 161.968H55.3769C55.3769 162.126 55.3811 162.285 55.3895 162.444C55.3978 162.603 55.402 162.766 55.402 162.933H55.4271C55.494 162.791 55.5859 162.653 55.7029 162.519C55.8283 162.386 55.9745 162.269 56.1417 162.168C56.3089 162.06 56.4969 161.976 56.7059 161.918C56.9148 161.851 57.1405 161.817 57.3828 161.817C57.7673 161.817 58.0975 161.876 58.3733 161.993C58.6574 162.11 58.8915 162.273 59.0753 162.482C59.2592 162.691 59.3929 162.946 59.4765 163.246C59.5684 163.539 59.6144 163.861 59.6144 164.212V167.835H58.6365V164.312C58.6365 163.819 58.5279 163.43 58.3106 163.146C58.0933 162.862 57.7548 162.72 57.2951 162.72C56.9775 162.72 56.7017 162.774 56.4677 162.883C56.242 162.992 56.0539 163.146 55.9035 163.347C55.7614 163.547 55.6528 163.786 55.5775 164.061C55.5107 164.337 55.4772 164.642 55.4772 164.977V167.835H54.4994V163.359ZM61.5534 161.968H62.5313V167.835H61.5534V161.968ZM61.3278 159.673C61.3278 159.481 61.3946 159.314 61.5284 159.172C61.6704 159.03 61.8418 158.959 62.0424 158.959C62.243 158.959 62.4101 159.03 62.5438 159.172C62.6859 159.314 62.757 159.481 62.757 159.673C62.757 159.882 62.6901 160.054 62.5564 160.187C62.4227 160.321 62.2513 160.388 62.0424 160.388C61.8334 160.388 61.6621 160.321 61.5284 160.187C61.3946 160.054 61.3278 159.882 61.3278 159.673ZM69.7179 166.769C69.3669 167.221 68.9824 167.538 68.5645 167.722C68.1466 167.898 67.6618 167.985 67.1102 167.985C66.6505 167.985 66.2368 167.906 65.8691 167.747C65.5013 167.58 65.1879 167.359 64.9288 167.083C64.6781 166.807 64.4816 166.481 64.3396 166.105C64.2058 165.729 64.139 165.328 64.139 164.901C64.139 164.45 64.2142 164.036 64.3646 163.66C64.5151 163.276 64.724 162.95 64.9915 162.682C65.2589 162.406 65.5765 162.193 65.9443 162.043C66.312 161.892 66.7132 161.817 67.1478 161.817C67.5574 161.817 67.9335 161.888 68.2762 162.03C68.6188 162.164 68.9114 162.365 69.1537 162.632C69.4045 162.891 69.5967 163.213 69.7304 163.597C69.8642 163.974 69.931 164.404 69.931 164.889V165.202H65.1921C65.2088 165.453 65.2673 165.695 65.3676 165.929C65.4762 166.155 65.6141 166.356 65.7813 166.531C65.9485 166.698 66.1449 166.832 66.3705 166.932C66.5962 167.033 66.8428 167.083 67.1102 167.083C67.5365 167.083 67.8959 167.008 68.1884 166.857C68.4809 166.707 68.7442 166.485 68.9782 166.193L69.7179 166.769ZM68.8779 164.375C68.8612 163.873 68.6982 163.472 68.389 163.171C68.0797 162.87 67.6535 162.72 67.1102 162.72C66.567 162.72 66.1282 162.87 65.7938 163.171C65.4595 163.472 65.2589 163.873 65.1921 164.375H68.8779ZM71.4438 163.359C71.4438 163.092 71.4354 162.841 71.4187 162.607C71.402 162.373 71.3936 162.16 71.3936 161.968H72.3214C72.3214 162.126 72.3255 162.285 72.3339 162.444C72.3423 162.603 72.3464 162.766 72.3464 162.933H72.3715C72.4384 162.791 72.5303 162.653 72.6473 162.519C72.7727 162.386 72.919 162.269 73.0861 162.168C73.2533 162.06 73.4413 161.976 73.6503 161.918C73.8592 161.851 74.0849 161.817 74.3273 161.817C74.7117 161.817 75.0419 161.876 75.3177 161.993C75.6019 162.11 75.8359 162.273 76.0197 162.482C76.2036 162.691 76.3373 162.946 76.4209 163.246C76.5129 163.539 76.5588 163.861 76.5588 164.212V167.835H75.581V164.312C75.581 163.819 75.4723 163.43 75.255 163.146C75.0377 162.862 74.6992 162.72 74.2395 162.72C73.9219 162.72 73.6461 162.774 73.4121 162.883C73.1864 162.992 72.9984 163.146 72.8479 163.347C72.7058 163.547 72.5972 163.786 72.5219 164.061C72.4551 164.337 72.4217 164.642 72.4217 164.977V167.835H71.4438V163.359ZM82.5849 163.435C82.3759 163.184 82.1503 163.004 81.9079 162.895C81.6655 162.778 81.398 162.72 81.1055 162.72C80.7796 162.72 80.4912 162.778 80.2405 162.895C79.9897 163.004 79.7808 163.159 79.6136 163.359C79.4548 163.56 79.3336 163.794 79.2501 164.061C79.1665 164.32 79.1247 164.6 79.1247 164.901C79.1247 165.202 79.1707 165.486 79.2626 165.754C79.3629 166.013 79.4966 166.243 79.6638 166.443C79.8393 166.644 80.0482 166.803 80.2906 166.92C80.533 167.028 80.8046 167.083 81.1055 167.083C81.7491 167.083 82.2464 166.84 82.5974 166.356L83.3246 167.045C83.0404 167.371 82.7061 167.609 82.3216 167.76C81.9371 167.91 81.5318 167.985 81.1055 167.985C80.6542 167.985 80.2405 167.91 79.8644 167.76C79.4883 167.609 79.1665 167.396 78.899 167.12C78.6399 166.845 78.4352 166.519 78.2847 166.142C78.1426 165.766 78.0716 165.353 78.0716 164.901C78.0716 164.458 78.1426 164.049 78.2847 163.673C78.4352 163.297 78.6441 162.971 78.9116 162.695C79.179 162.419 79.4966 162.206 79.8644 162.055C80.2405 161.897 80.6542 161.817 81.1055 161.817C81.5401 161.817 81.9497 161.892 82.3341 162.043C82.727 162.193 83.0696 162.427 83.3622 162.745L82.5849 163.435ZM89.6986 166.769C89.3476 167.221 88.9631 167.538 88.5452 167.722C88.1273 167.898 87.6425 167.985 87.0909 167.985C86.6312 167.985 86.2175 167.906 85.8498 167.747C85.482 167.58 85.1686 167.359 84.9095 167.083C84.6587 166.807 84.4623 166.481 84.3203 166.105C84.1865 165.729 84.1197 165.328 84.1197 164.901C84.1197 164.45 84.1949 164.036 84.3453 163.66C84.4958 163.276 84.7047 162.95 84.9722 162.682C85.2396 162.406 85.5572 162.193 85.925 162.043C86.2927 161.892 86.6939 161.817 87.1285 161.817C87.5381 161.817 87.9142 161.888 88.2568 162.03C88.5995 162.164 88.892 162.365 89.1344 162.632C89.3852 162.891 89.5774 163.213 89.7111 163.597C89.8448 163.974 89.9117 164.404 89.9117 164.889V165.202H85.1728C85.1895 165.453 85.248 165.695 85.3483 165.929C85.4569 166.155 85.5948 166.356 85.762 166.531C85.9292 166.698 86.1256 166.832 86.3512 166.932C86.5769 167.033 86.8235 167.083 87.0909 167.083C87.5172 167.083 87.8766 167.008 88.1691 166.857C88.4616 166.707 88.7249 166.485 88.9589 166.193L89.6986 166.769ZM88.8586 164.375C88.8419 163.873 88.6789 163.472 88.3697 163.171C88.0604 162.87 87.6342 162.72 87.0909 162.72C86.5476 162.72 86.1089 162.87 85.7745 163.171C85.4402 163.472 85.2396 163.873 85.1728 164.375H88.8586ZM98.1232 162.795H96.3931V165.729C96.3931 165.921 96.3973 166.101 96.4056 166.268C96.414 166.427 96.4474 166.569 96.5059 166.694C96.5644 166.811 96.6522 166.907 96.7692 166.982C96.8862 167.049 97.0534 167.083 97.2707 167.083C97.4128 167.083 97.559 167.066 97.7095 167.033C97.8599 166.999 98.002 166.949 98.1357 166.882L98.1733 167.772C98.0062 167.847 97.8181 167.902 97.6092 167.935C97.4086 167.969 97.2164 167.985 97.0325 167.985C96.6815 167.985 96.4015 167.939 96.1925 167.847C95.9836 167.756 95.8206 167.626 95.7036 167.459C95.5866 167.292 95.5072 167.087 95.4654 166.845C95.4319 166.594 95.4152 166.318 95.4152 166.017V162.795H94.1365V161.968H95.4152V160.3H96.3931V161.968H98.1232V162.795ZM99.3335 158.357H100.311V162.783H100.336C100.403 162.666 100.495 162.553 100.612 162.444C100.729 162.327 100.867 162.223 101.026 162.131C101.193 162.039 101.377 161.964 101.578 161.905C101.778 161.846 101.991 161.817 102.217 161.817C102.601 161.817 102.932 161.876 103.207 161.993C103.492 162.11 103.726 162.273 103.909 162.482C104.093 162.691 104.227 162.946 104.311 163.246C104.403 163.539 104.449 163.861 104.449 164.212V167.835H103.471V164.312C103.471 163.819 103.362 163.43 103.145 163.146C102.927 162.862 102.589 162.72 102.129 162.72C101.812 162.72 101.536 162.774 101.302 162.883C101.076 162.992 100.888 163.146 100.738 163.347C100.596 163.547 100.487 163.786 100.412 164.061C100.345 164.337 100.311 164.642 100.311 164.977V167.835H99.3335V158.357ZM106.3 163.359C106.3 163.092 106.291 162.841 106.275 162.607C106.258 162.373 106.25 162.16 106.25 161.968H107.177C107.177 162.126 107.182 162.285 107.19 162.444C107.198 162.603 107.202 162.766 107.202 162.933H107.228C107.294 162.791 107.386 162.653 107.503 162.519C107.629 162.386 107.775 162.269 107.942 162.168C108.109 162.06 108.297 161.976 108.506 161.918C108.715 161.851 108.941 161.817 109.183 161.817C109.25 161.817 109.317 161.821 109.384 161.83C109.451 161.838 109.518 161.855 109.584 161.88L109.522 162.87C109.355 162.82 109.179 162.795 108.995 162.795C108.393 162.795 107.955 162.992 107.679 163.384C107.411 163.769 107.278 164.3 107.278 164.977V167.835H106.3V163.359ZM110.148 164.901C110.148 164.442 110.228 164.024 110.387 163.648C110.545 163.272 110.763 162.95 111.039 162.682C111.314 162.406 111.645 162.193 112.029 162.043C112.413 161.892 112.831 161.817 113.283 161.817C113.734 161.817 114.152 161.892 114.536 162.043C114.921 162.193 115.251 162.406 115.527 162.682C115.803 162.95 116.02 163.272 116.179 163.648C116.337 164.024 116.417 164.442 116.417 164.901C116.417 165.361 116.337 165.779 116.179 166.155C116.02 166.531 115.803 166.857 115.527 167.133C115.251 167.4 114.921 167.609 114.536 167.76C114.152 167.91 113.734 167.985 113.283 167.985C112.831 167.985 112.413 167.91 112.029 167.76C111.645 167.609 111.314 167.4 111.039 167.133C110.763 166.857 110.545 166.531 110.387 166.155C110.228 165.779 110.148 165.361 110.148 164.901ZM111.202 164.901C111.202 165.211 111.248 165.499 111.339 165.766C111.44 166.025 111.582 166.255 111.766 166.456C111.95 166.648 112.167 166.803 112.418 166.92C112.677 167.028 112.965 167.083 113.283 167.083C113.6 167.083 113.884 167.028 114.135 166.92C114.394 166.803 114.616 166.648 114.8 166.456C114.984 166.255 115.121 166.025 115.213 165.766C115.314 165.499 115.364 165.211 115.364 164.901C115.364 164.592 115.314 164.308 115.213 164.049C115.121 163.781 114.984 163.552 114.8 163.359C114.616 163.159 114.394 163.004 114.135 162.895C113.884 162.778 113.6 162.72 113.283 162.72C112.965 162.72 112.677 162.778 112.418 162.895C112.167 163.004 111.95 163.159 111.766 163.359C111.582 163.552 111.44 163.781 111.339 164.049C111.248 164.308 111.202 164.592 111.202 164.901ZM123.046 166.443C123.046 166.711 123.054 166.962 123.071 167.196C123.088 167.43 123.096 167.643 123.096 167.835H122.168C122.168 167.676 122.164 167.517 122.156 167.359C122.147 167.2 122.143 167.037 122.143 166.87H122.118C122.051 167.012 121.955 167.15 121.83 167.283C121.713 167.417 121.571 167.538 121.403 167.647C121.236 167.747 121.048 167.827 120.839 167.885C120.63 167.952 120.405 167.985 120.162 167.985C119.778 167.985 119.444 167.927 119.159 167.81C118.884 167.693 118.654 167.53 118.47 167.321C118.286 167.112 118.148 166.861 118.056 166.569C117.973 166.268 117.931 165.942 117.931 165.591V161.968H118.909V165.491C118.909 165.984 119.017 166.372 119.235 166.656C119.452 166.941 119.79 167.083 120.25 167.083C120.568 167.083 120.839 167.028 121.065 166.92C121.299 166.811 121.487 166.656 121.629 166.456C121.78 166.255 121.888 166.017 121.955 165.741C122.03 165.465 122.068 165.16 122.068 164.826V161.968H123.046V166.443ZM130.752 167.572C130.752 168.642 130.476 169.452 129.924 170.004C129.381 170.564 128.591 170.844 127.555 170.844C126.978 170.844 126.456 170.76 125.988 170.593C125.528 170.426 125.089 170.138 124.671 169.728L125.373 168.926C125.683 169.26 126.009 169.511 126.351 169.678C126.702 169.853 127.104 169.941 127.555 169.941C127.989 169.941 128.349 169.874 128.633 169.741C128.926 169.615 129.155 169.44 129.323 169.214C129.49 168.997 129.607 168.746 129.674 168.462C129.74 168.178 129.774 167.881 129.774 167.572V166.819H129.749C129.515 167.196 129.21 167.471 128.834 167.647C128.458 167.822 128.073 167.91 127.68 167.91C127.221 167.91 126.798 167.835 126.414 167.685C126.03 167.534 125.699 167.325 125.424 167.058C125.148 166.79 124.935 166.473 124.784 166.105C124.634 165.737 124.559 165.336 124.559 164.901C124.559 164.425 124.634 163.994 124.784 163.61C124.935 163.226 125.144 162.904 125.411 162.645C125.687 162.377 126.017 162.172 126.401 162.03C126.786 161.888 127.212 161.817 127.68 161.817C127.881 161.817 128.081 161.842 128.282 161.892C128.483 161.934 128.675 162.005 128.859 162.106C129.051 162.198 129.222 162.319 129.373 162.469C129.523 162.611 129.649 162.778 129.749 162.971H129.774V161.968H130.752V167.572ZM125.612 164.901C125.612 165.202 125.666 165.482 125.775 165.741C125.883 165.992 126.03 166.214 126.213 166.406C126.406 166.59 126.627 166.736 126.878 166.845C127.129 166.953 127.396 167.008 127.68 167.008C128.015 167.008 128.311 166.949 128.57 166.832C128.829 166.715 129.047 166.56 129.222 166.368C129.406 166.168 129.544 165.942 129.636 165.691C129.728 165.432 129.774 165.16 129.774 164.876C129.774 164.559 129.724 164.27 129.623 164.011C129.523 163.744 129.381 163.514 129.197 163.322C129.013 163.129 128.792 162.983 128.533 162.883C128.274 162.774 127.989 162.72 127.68 162.72C127.371 162.72 127.087 162.778 126.828 162.895C126.577 163.004 126.36 163.159 126.176 163.359C126 163.552 125.862 163.781 125.762 164.049C125.662 164.308 125.612 164.592 125.612 164.901ZM132.561 158.357H133.539V162.783H133.564C133.631 162.666 133.723 162.553 133.84 162.444C133.957 162.327 134.095 162.223 134.254 162.131C134.421 162.039 134.605 161.964 134.805 161.905C135.006 161.846 135.219 161.817 135.445 161.817C135.829 161.817 136.159 161.876 136.435 161.993C136.719 162.11 136.953 162.273 137.137 162.482C137.321 162.691 137.455 162.946 137.538 163.246C137.63 163.539 137.676 163.861 137.676 164.212V167.835H136.698V164.312C136.698 163.819 136.59 163.43 136.372 163.146C136.155 162.862 135.817 162.72 135.357 162.72C135.039 162.72 134.764 162.774 134.529 162.883C134.304 162.992 134.116 163.146 133.965 163.347C133.823 163.547 133.715 163.786 133.639 164.061C133.572 164.337 133.539 164.642 133.539 164.977V167.835H132.561V158.357ZM146.226 162.795H144.496V165.729C144.496 165.921 144.5 166.101 144.509 166.268C144.517 166.427 144.55 166.569 144.609 166.694C144.667 166.811 144.755 166.907 144.872 166.982C144.989 167.049 145.156 167.083 145.374 167.083C145.516 167.083 145.662 167.066 145.813 167.033C145.963 166.999 146.105 166.949 146.239 166.882L146.276 167.772C146.109 167.847 145.921 167.902 145.712 167.935C145.512 167.969 145.319 167.985 145.136 167.985C144.784 167.985 144.504 167.939 144.296 167.847C144.087 167.756 143.924 167.626 143.807 167.459C143.69 167.292 143.61 167.087 143.568 166.845C143.535 166.594 143.518 166.318 143.518 166.017V162.795H142.239V161.968H143.518V160.3H144.496V161.968H146.226V162.795ZM147.437 158.357H148.414V162.783H148.439C148.506 162.666 148.598 162.553 148.715 162.444C148.832 162.327 148.97 162.223 149.129 162.131C149.296 162.039 149.48 161.964 149.681 161.905C149.881 161.846 150.094 161.817 150.32 161.817C150.704 161.817 151.035 161.876 151.31 161.993C151.595 162.11 151.829 162.273 152.012 162.482C152.196 162.691 152.33 162.946 152.414 163.246C152.506 163.539 152.552 163.861 152.552 164.212V167.835H151.574V164.312C151.574 163.819 151.465 163.43 151.248 163.146C151.03 162.862 150.692 162.72 150.232 162.72C149.915 162.72 149.639 162.774 149.405 162.883C149.179 162.992 148.991 163.146 148.841 163.347C148.699 163.547 148.59 163.786 148.515 164.061C148.448 164.337 148.414 164.642 148.414 164.977V167.835H147.437V158.357ZM159.643 166.769C159.292 167.221 158.908 167.538 158.49 167.722C158.072 167.898 157.587 167.985 157.036 167.985C156.576 167.985 156.162 167.906 155.794 167.747C155.427 167.58 155.113 167.359 154.854 167.083C154.603 166.807 154.407 166.481 154.265 166.105C154.131 165.729 154.064 165.328 154.064 164.901C154.064 164.45 154.14 164.036 154.29 163.66C154.44 163.276 154.649 162.95 154.917 162.682C155.184 162.406 155.502 162.193 155.87 162.043C156.237 161.892 156.639 161.817 157.073 161.817C157.483 161.817 157.859 161.888 158.202 162.03C158.544 162.164 158.837 162.365 159.079 162.632C159.33 162.891 159.522 163.213 159.656 163.597C159.79 163.974 159.856 164.404 159.856 164.889V165.202H155.117C155.134 165.453 155.193 165.695 155.293 165.929C155.402 166.155 155.54 166.356 155.707 166.531C155.874 166.698 156.07 166.832 156.296 166.932C156.522 167.033 156.768 167.083 157.036 167.083C157.462 167.083 157.821 167.008 158.114 166.857C158.406 166.707 158.67 166.485 158.904 166.193L159.643 166.769ZM158.803 164.375C158.787 163.873 158.624 163.472 158.314 163.171C158.005 162.87 157.579 162.72 157.036 162.72C156.492 162.72 156.054 162.87 155.719 163.171C155.385 163.472 155.184 163.873 155.117 164.375H158.803ZM169.973 166.443C169.973 166.711 169.982 166.962 169.999 167.196C170.015 167.43 170.024 167.643 170.024 167.835H169.096C169.096 167.676 169.092 167.517 169.083 167.359C169.075 167.2 169.071 167.037 169.071 166.87H169.046C168.979 167.012 168.883 167.15 168.757 167.283C168.64 167.417 168.498 167.538 168.331 167.647C168.164 167.747 167.976 167.827 167.767 167.885C167.558 167.952 167.332 167.985 167.09 167.985C166.706 167.985 166.371 167.927 166.087 167.81C165.811 167.693 165.581 167.53 165.398 167.321C165.214 167.112 165.076 166.861 164.984 166.569C164.9 166.268 164.858 165.942 164.858 165.591V161.968H165.836V165.491C165.836 165.984 165.945 166.372 166.162 166.656C166.38 166.941 166.718 167.083 167.178 167.083C167.495 167.083 167.767 167.028 167.993 166.92C168.227 166.811 168.415 166.656 168.557 166.456C168.707 166.255 168.816 166.017 168.883 165.741C168.958 165.465 168.996 165.16 168.996 164.826V161.968H169.973V166.443ZM171.95 166.293C172.142 166.535 172.351 166.728 172.577 166.87C172.811 167.012 173.103 167.083 173.455 167.083C173.605 167.083 173.755 167.066 173.906 167.033C174.065 166.999 174.207 166.945 174.332 166.87C174.457 166.794 174.558 166.702 174.633 166.594C174.708 166.477 174.746 166.339 174.746 166.18C174.746 166.021 174.708 165.892 174.633 165.791C174.566 165.691 174.474 165.608 174.357 165.541C174.24 165.465 174.106 165.407 173.956 165.365C173.806 165.323 173.651 165.286 173.492 165.252C173.216 165.194 172.953 165.127 172.702 165.052C172.452 164.977 172.23 164.88 172.038 164.763C171.854 164.638 171.704 164.479 171.587 164.287C171.478 164.095 171.424 163.848 171.424 163.547C171.424 163.263 171.486 163.012 171.612 162.795C171.737 162.578 171.904 162.398 172.113 162.256C172.322 162.114 172.556 162.005 172.815 161.93C173.074 161.855 173.342 161.817 173.618 161.817C174.035 161.817 174.42 161.901 174.771 162.068C175.13 162.235 175.41 162.507 175.611 162.883L174.796 163.422C174.671 163.213 174.503 163.046 174.295 162.92C174.094 162.787 173.847 162.72 173.555 162.72C173.421 162.72 173.283 162.737 173.141 162.77C173.007 162.803 172.886 162.854 172.778 162.92C172.669 162.987 172.577 163.075 172.502 163.184C172.435 163.284 172.401 163.401 172.401 163.535C172.401 163.66 172.439 163.769 172.514 163.861C172.598 163.944 172.706 164.02 172.84 164.086C172.982 164.153 173.141 164.212 173.317 164.262C173.501 164.312 173.689 164.354 173.881 164.387C174.14 164.437 174.386 164.504 174.62 164.588C174.854 164.663 175.059 164.768 175.235 164.901C175.41 165.035 175.548 165.202 175.648 165.403C175.749 165.603 175.799 165.85 175.799 166.142C175.799 166.477 175.732 166.761 175.598 166.995C175.465 167.229 175.285 167.421 175.059 167.572C174.842 167.714 174.591 167.818 174.307 167.885C174.031 167.952 173.747 167.985 173.455 167.985C172.953 167.985 172.518 167.91 172.151 167.76C171.791 167.601 171.465 167.313 171.173 166.895L171.95 166.293ZM182.403 166.769C182.052 167.221 181.668 167.538 181.25 167.722C180.832 167.898 180.347 167.985 179.795 167.985C179.336 167.985 178.922 167.906 178.554 167.747C178.187 167.58 177.873 167.359 177.614 167.083C177.363 166.807 177.167 166.481 177.025 166.105C176.891 165.729 176.824 165.328 176.824 164.901C176.824 164.45 176.899 164.036 177.05 163.66C177.2 163.276 177.409 162.95 177.677 162.682C177.944 162.406 178.262 162.193 178.63 162.043C178.997 161.892 179.398 161.817 179.833 161.817C180.243 161.817 180.619 161.888 180.961 162.03C181.304 162.164 181.597 162.365 181.839 162.632C182.09 162.891 182.282 163.213 182.416 163.597C182.549 163.974 182.616 164.404 182.616 164.889V165.202H177.877C177.894 165.453 177.953 165.695 178.053 165.929C178.161 166.155 178.299 166.356 178.467 166.531C178.634 166.698 178.83 166.832 179.056 166.932C179.281 167.033 179.528 167.083 179.795 167.083C180.222 167.083 180.581 167.008 180.874 166.857C181.166 166.707 181.429 166.485 181.663 166.193L182.403 166.769ZM181.563 164.375C181.546 163.873 181.383 163.472 181.074 163.171C180.765 162.87 180.339 162.72 179.795 162.72C179.252 162.72 178.813 162.87 178.479 163.171C178.145 163.472 177.944 163.873 177.877 164.375H181.563ZM187.28 164.901C187.28 164.442 187.359 164.024 187.518 163.648C187.677 163.272 187.894 162.95 188.17 162.682C188.446 162.406 188.776 162.193 189.16 162.043C189.545 161.892 189.963 161.817 190.414 161.817C190.865 161.817 191.283 161.892 191.668 162.043C192.052 162.193 192.382 162.406 192.658 162.682C192.934 162.95 193.151 163.272 193.31 163.648C193.469 164.024 193.548 164.442 193.548 164.901C193.548 165.361 193.469 165.779 193.31 166.155C193.151 166.531 192.934 166.857 192.658 167.133C192.382 167.4 192.052 167.609 191.668 167.76C191.283 167.91 190.865 167.985 190.414 167.985C189.963 167.985 189.545 167.91 189.16 167.76C188.776 167.609 188.446 167.4 188.17 167.133C187.894 166.857 187.677 166.531 187.518 166.155C187.359 165.779 187.28 165.361 187.28 164.901ZM188.333 164.901C188.333 165.211 188.379 165.499 188.471 165.766C188.571 166.025 188.713 166.255 188.897 166.456C189.081 166.648 189.298 166.803 189.549 166.92C189.808 167.028 190.096 167.083 190.414 167.083C190.732 167.083 191.016 167.028 191.267 166.92C191.526 166.803 191.747 166.648 191.931 166.456C192.115 166.255 192.253 166.025 192.345 165.766C192.445 165.499 192.495 165.211 192.495 164.901C192.495 164.592 192.445 164.308 192.345 164.049C192.253 163.781 192.115 163.552 191.931 163.359C191.747 163.159 191.526 163.004 191.267 162.895C191.016 162.778 190.732 162.72 190.414 162.72C190.096 162.72 189.808 162.778 189.549 162.895C189.298 163.004 189.081 163.159 188.897 163.359C188.713 163.552 188.571 163.781 188.471 164.049C188.379 164.308 188.333 164.592 188.333 164.901ZM195.564 162.795H194.285V161.968H195.564V160.651C195.564 160.292 195.597 159.966 195.664 159.673C195.731 159.373 195.844 159.113 196.002 158.896C196.169 158.679 196.387 158.512 196.654 158.395C196.922 158.269 197.252 158.207 197.645 158.207C197.77 158.207 197.904 158.219 198.046 158.244C198.188 158.269 198.305 158.307 198.397 158.357L198.259 159.235C198.025 159.151 197.803 159.109 197.595 159.109C197.344 159.109 197.147 159.155 197.005 159.247C196.863 159.331 196.755 159.452 196.679 159.611C196.612 159.761 196.571 159.945 196.554 160.162C196.546 160.38 196.541 160.614 196.541 160.864V161.968H197.971V162.795H196.541V167.835H195.564V162.795ZM46.1434 188.435C45.9344 188.184 45.7087 188.004 45.4664 187.895C45.224 187.778 44.9565 187.72 44.664 187.72C44.338 187.72 44.0497 187.778 43.799 187.895C43.5482 188.004 43.3393 188.159 43.1721 188.359C43.0133 188.56 42.8921 188.794 42.8085 189.061C42.725 189.32 42.6832 189.6 42.6832 189.901C42.6832 190.202 42.7291 190.486 42.8211 190.754C42.9214 191.013 43.0551 191.243 43.2223 191.443C43.3978 191.644 43.6067 191.803 43.8491 191.92C44.0915 192.028 44.3631 192.083 44.664 192.083C45.3076 192.083 45.8049 191.84 46.1559 191.356L46.883 192.045C46.5989 192.371 46.2646 192.609 45.8801 192.76C45.4956 192.91 45.0903 192.985 44.664 192.985C44.2127 192.985 43.799 192.91 43.4229 192.76C43.0467 192.609 42.725 192.396 42.4575 192.12C42.1984 191.845 41.9936 191.519 41.8432 191.142C41.7011 190.766 41.6301 190.353 41.6301 189.901C41.6301 189.458 41.7011 189.049 41.8432 188.673C41.9936 188.297 42.2026 187.971 42.47 187.695C42.7375 187.419 43.0551 187.206 43.4229 187.055C43.799 186.897 44.2127 186.817 44.664 186.817C45.0986 186.817 45.5082 186.892 45.8926 187.043C46.2854 187.193 46.6281 187.427 46.9206 187.745L46.1434 188.435ZM47.6782 189.901C47.6782 189.442 47.7576 189.024 47.9164 188.648C48.0752 188.272 48.2925 187.95 48.5683 187.682C48.8441 187.406 49.1742 187.193 49.5587 187.043C49.9432 186.892 50.361 186.817 50.8124 186.817C51.2637 186.817 51.6816 186.892 52.0661 187.043C52.4505 187.193 52.7807 187.406 53.0565 187.682C53.3323 187.95 53.5496 188.272 53.7084 188.648C53.8672 189.024 53.9466 189.442 53.9466 189.901C53.9466 190.361 53.8672 190.779 53.7084 191.155C53.5496 191.531 53.3323 191.857 53.0565 192.133C52.7807 192.4 52.4505 192.609 52.0661 192.76C51.6816 192.91 51.2637 192.985 50.8124 192.985C50.361 192.985 49.9432 192.91 49.5587 192.76C49.1742 192.609 48.8441 192.4 48.5683 192.133C48.2925 191.857 48.0752 191.531 47.9164 191.155C47.7576 190.779 47.6782 190.361 47.6782 189.901ZM48.7313 189.901C48.7313 190.211 48.7772 190.499 48.8692 190.766C48.9695 191.025 49.1115 191.255 49.2954 191.456C49.4793 191.648 49.6966 191.803 49.9473 191.92C50.2064 192.028 50.4948 192.083 50.8124 192.083C51.13 192.083 51.4141 192.028 51.6649 191.92C51.924 191.803 52.1455 191.648 52.3293 191.456C52.5132 191.255 52.6511 191.025 52.7431 190.766C52.8434 190.499 52.8935 190.211 52.8935 189.901C52.8935 189.592 52.8434 189.308 52.7431 189.049C52.6511 188.781 52.5132 188.552 52.3293 188.359C52.1455 188.159 51.924 188.004 51.6649 187.895C51.4141 187.778 51.13 187.72 50.8124 187.72C50.4948 187.72 50.2064 187.778 49.9473 187.895C49.6966 188.004 49.4793 188.159 49.2954 188.359C49.1115 188.552 48.9695 188.781 48.8692 189.049C48.7772 189.308 48.7313 189.592 48.7313 189.901ZM55.4604 188.359C55.4604 188.092 55.4521 187.841 55.4354 187.607C55.4186 187.373 55.4103 187.16 55.4103 186.968H56.338C56.338 187.126 56.3422 187.285 56.3506 187.444C56.3589 187.603 56.3631 187.766 56.3631 187.933H56.3882C56.455 187.791 56.547 187.653 56.664 187.519C56.7894 187.386 56.9356 187.269 57.1028 187.168C57.2699 187.06 57.458 186.976 57.6669 186.918C57.8759 186.851 58.1015 186.817 58.3439 186.817C58.6615 186.817 58.9248 186.859 59.1338 186.943C59.3511 187.018 59.5308 187.114 59.6728 187.231C59.8149 187.34 59.9236 187.461 59.9988 187.595C60.0824 187.72 60.1492 187.833 60.1994 187.933C60.4167 187.582 60.6674 187.31 60.9516 187.118C61.2358 186.918 61.6035 186.817 62.0549 186.817C62.4727 186.817 62.8238 186.876 63.108 186.993C63.3921 187.101 63.622 187.264 63.7975 187.482C63.973 187.691 64.0984 187.95 64.1736 188.259C64.2488 188.56 64.2864 188.898 64.2864 189.274V192.835H63.3085V189.325C63.3085 189.124 63.2876 188.928 63.2459 188.735C63.2041 188.543 63.1288 188.372 63.0202 188.221C62.9115 188.071 62.7653 187.95 62.5814 187.858C62.3975 187.766 62.1635 187.72 61.8793 187.72C61.6704 187.72 61.474 187.762 61.2901 187.845C61.1062 187.929 60.9432 188.046 60.8012 188.196C60.6674 188.347 60.5588 188.531 60.4752 188.748C60.4 188.957 60.3624 189.191 60.3624 189.45V192.835H59.3845V189.513C59.3845 188.861 59.2967 188.401 59.1212 188.134C58.9457 187.858 58.6574 187.72 58.2562 187.72C57.9386 187.72 57.6628 187.774 57.4287 187.883C57.2031 187.992 57.015 188.146 56.8646 188.347C56.7225 188.547 56.6138 188.786 56.5386 189.061C56.4717 189.337 56.4383 189.642 56.4383 189.977V192.835H55.4604V188.359ZM66.1364 188.359C66.1364 188.092 66.128 187.841 66.1113 187.607C66.0946 187.373 66.0862 187.16 66.0862 186.968H67.014C67.014 187.126 67.0182 187.285 67.0265 187.444C67.0349 187.603 67.0391 187.766 67.0391 187.933H67.0641C67.131 187.791 67.2229 187.653 67.3399 187.519C67.4653 187.386 67.6116 187.269 67.7787 187.168C67.9459 187.06 68.1339 186.976 68.3429 186.918C68.5518 186.851 68.7775 186.817 69.0199 186.817C69.3375 186.817 69.6008 186.859 69.8097 186.943C70.027 187.018 70.2067 187.114 70.3488 187.231C70.4909 187.34 70.5995 187.461 70.6748 187.595C70.7583 187.72 70.8252 187.833 70.8753 187.933C71.0927 187.582 71.3434 187.31 71.6276 187.118C71.9117 186.918 72.2795 186.817 72.7308 186.817C73.1487 186.817 73.4997 186.876 73.7839 186.993C74.0681 187.101 74.2979 187.264 74.4734 187.482C74.649 187.691 74.7743 187.95 74.8495 188.259C74.9248 188.56 74.9624 188.898 74.9624 189.274V192.835H73.9845V189.325C73.9845 189.124 73.9636 188.928 73.9218 188.735C73.88 188.543 73.8048 188.372 73.6962 188.221C73.5875 188.071 73.4412 187.95 73.2574 187.858C73.0735 187.766 72.8395 187.72 72.5553 187.72C72.3463 187.72 72.1499 187.762 71.9661 187.845C71.7822 187.929 71.6192 188.046 71.4771 188.196C71.3434 188.347 71.2347 188.531 71.1512 188.748C71.0759 188.957 71.0383 189.191 71.0383 189.45V192.835H70.0604V189.513C70.0604 188.861 69.9727 188.401 69.7972 188.134C69.6217 187.858 69.3333 187.72 68.9321 187.72C68.6145 187.72 68.3387 187.774 68.1047 187.883C67.879 187.992 67.691 188.146 67.5405 188.347C67.3984 188.547 67.2898 188.786 67.2146 189.061C67.1477 189.337 67.1143 189.642 67.1143 189.977V192.835H66.1364V188.359ZM76.4739 189.901C76.4739 189.442 76.5533 189.024 76.7121 188.648C76.8709 188.272 77.0882 187.95 77.364 187.682C77.6398 187.406 77.9699 187.193 78.3544 187.043C78.7389 186.892 79.1568 186.817 79.6081 186.817C80.0594 186.817 80.4773 186.892 80.8618 187.043C81.2462 187.193 81.5764 187.406 81.8522 187.682C82.128 187.95 82.3453 188.272 82.5041 188.648C82.6629 189.024 82.7423 189.442 82.7423 189.901C82.7423 190.361 82.6629 190.779 82.5041 191.155C82.3453 191.531 82.128 191.857 81.8522 192.133C81.5764 192.4 81.2462 192.609 80.8618 192.76C80.4773 192.91 80.0594 192.985 79.6081 192.985C79.1568 192.985 78.7389 192.91 78.3544 192.76C77.9699 192.609 77.6398 192.4 77.364 192.133C77.0882 191.857 76.8709 191.531 76.7121 191.155C76.5533 190.779 76.4739 190.361 76.4739 189.901ZM77.527 189.901C77.527 190.211 77.5729 190.499 77.6649 190.766C77.7652 191.025 77.9072 191.255 78.0911 191.456C78.275 191.648 78.4923 191.803 78.743 191.92C79.0021 192.028 79.2905 192.083 79.6081 192.083C79.9257 192.083 80.2099 192.028 80.4606 191.92C80.7197 191.803 80.9412 191.648 81.1251 191.456C81.3089 191.255 81.4468 191.025 81.5388 190.766C81.6391 190.499 81.6892 190.211 81.6892 189.901C81.6892 189.592 81.6391 189.308 81.5388 189.049C81.4468 188.781 81.3089 188.552 81.1251 188.359C80.9412 188.159 80.7197 188.004 80.4606 187.895C80.2099 187.778 79.9257 187.72 79.6081 187.72C79.2905 187.72 79.0021 187.778 78.743 187.895C78.4923 188.004 78.275 188.159 78.0911 188.359C77.9072 188.552 77.7652 188.781 77.6649 189.049C77.5729 189.308 77.527 189.592 77.527 189.901ZM84.2561 188.359C84.2561 188.092 84.2478 187.841 84.2311 187.607C84.2144 187.373 84.206 187.16 84.206 186.968H85.1337C85.1337 187.126 85.1379 187.285 85.1463 187.444C85.1546 187.603 85.1588 187.766 85.1588 187.933H85.1839C85.2507 187.791 85.3427 187.653 85.4597 187.519C85.5851 187.386 85.7313 187.269 85.8985 187.168C86.0656 187.06 86.2537 186.976 86.4626 186.918C86.6716 186.851 86.8973 186.817 87.1396 186.817C87.5241 186.817 87.8542 186.876 88.1301 186.993C88.4142 187.11 88.6482 187.273 88.8321 187.482C89.016 187.691 89.1497 187.946 89.2333 188.246C89.3252 188.539 89.3712 188.861 89.3712 189.212V192.835H88.3933V189.312C88.3933 188.819 88.2847 188.43 88.0674 188.146C87.8501 187.862 87.5116 187.72 87.0519 187.72C86.7343 187.72 86.4585 187.774 86.2244 187.883C85.9988 187.992 85.8107 188.146 85.6603 188.347C85.5182 188.547 85.4095 188.786 85.3343 189.061C85.2675 189.337 85.234 189.642 85.234 189.977V192.835H84.2561V188.359ZM94.7995 186.968H95.7774V192.835H94.7995V186.968ZM94.5738 184.673C94.5738 184.481 94.6407 184.314 94.7744 184.172C94.9165 184.03 95.0878 183.959 95.2884 183.959C95.489 183.959 95.6562 184.03 95.7899 184.172C95.932 184.314 96.003 184.481 96.003 184.673C96.003 184.882 95.9362 185.054 95.8024 185.187C95.6687 185.321 95.4974 185.388 95.2884 185.388C95.0795 185.388 94.9081 185.321 94.7744 185.187C94.6407 185.054 94.5738 184.882 94.5738 184.673ZM97.7235 188.359C97.7235 188.092 97.7152 187.841 97.6984 187.607C97.6817 187.373 97.6734 187.16 97.6734 186.968H98.6011C98.6011 187.126 98.6053 187.285 98.6136 187.444C98.622 187.603 98.6262 187.766 98.6262 187.933H98.6513C98.7181 187.791 98.8101 187.653 98.9271 187.519C99.0524 187.386 99.1987 187.269 99.3659 187.168C99.533 187.06 99.7211 186.976 99.93 186.918C100.139 186.851 100.365 186.817 100.607 186.817C100.991 186.817 101.322 186.876 101.597 186.993C101.882 187.11 102.116 187.273 102.299 187.482C102.483 187.691 102.617 187.946 102.701 188.246C102.793 188.539 102.839 188.861 102.839 189.212V192.835H101.861V189.312C101.861 188.819 101.752 188.43 101.535 188.146C101.317 187.862 100.979 187.72 100.519 187.72C100.202 187.72 99.9258 187.774 99.6918 187.883C99.4662 187.992 99.2781 188.146 99.1277 188.347C98.9856 188.547 98.8769 188.786 98.8017 189.061C98.7348 189.337 98.7014 189.642 98.7014 189.977V192.835H97.7235V188.359ZM105.191 187.795H103.913V186.968H105.191V185.651C105.191 185.292 105.225 184.966 105.292 184.673C105.358 184.373 105.471 184.113 105.63 183.896C105.797 183.679 106.015 183.512 106.282 183.395C106.549 183.269 106.88 183.207 107.272 183.207C107.398 183.207 107.532 183.219 107.674 183.244C107.816 183.269 107.933 183.307 108.025 183.357L107.887 184.235C107.653 184.151 107.431 184.109 107.222 184.109C106.972 184.109 106.775 184.155 106.633 184.247C106.491 184.331 106.382 184.452 106.307 184.611C106.24 184.761 106.198 184.945 106.182 185.162C106.173 185.38 106.169 185.614 106.169 185.864V186.968H107.598V187.795H106.169V192.835H105.191V187.795ZM108.644 188.359C108.644 188.092 108.636 187.841 108.619 187.607C108.603 187.373 108.594 187.16 108.594 186.968H109.522C109.522 187.126 109.526 187.285 109.534 187.444C109.543 187.603 109.547 187.766 109.547 187.933H109.572C109.639 187.791 109.731 187.653 109.848 187.519C109.973 187.386 110.12 187.269 110.287 187.168C110.454 187.06 110.642 186.976 110.851 186.918C111.06 186.851 111.285 186.817 111.528 186.817C111.595 186.817 111.662 186.821 111.728 186.83C111.795 186.838 111.862 186.855 111.929 186.88L111.866 187.87C111.699 187.82 111.524 187.795 111.34 187.795C110.738 187.795 110.299 187.992 110.023 188.384C109.756 188.769 109.622 189.3 109.622 189.977V192.835H108.644V188.359ZM112.977 187.72C113.278 187.411 113.633 187.185 114.042 187.043C114.46 186.892 114.882 186.817 115.308 186.817C116.178 186.817 116.805 187.022 117.189 187.432C117.573 187.841 117.766 188.464 117.766 189.3V191.819C117.766 191.987 117.774 192.162 117.791 192.346C117.808 192.522 117.828 192.685 117.853 192.835H116.913C116.88 192.701 116.859 192.555 116.851 192.396C116.851 192.229 116.851 192.083 116.851 191.957H116.825C116.633 192.258 116.374 192.505 116.048 192.697C115.731 192.889 115.346 192.985 114.895 192.985C114.594 192.985 114.31 192.948 114.042 192.873C113.783 192.797 113.553 192.689 113.353 192.547C113.161 192.396 113.006 192.212 112.889 191.995C112.772 191.778 112.713 191.527 112.713 191.243C112.713 190.758 112.839 190.378 113.089 190.102C113.34 189.826 113.649 189.621 114.017 189.488C114.393 189.354 114.794 189.27 115.221 189.237C115.655 189.203 116.052 189.187 116.412 189.187H116.788V189.011C116.788 188.585 116.658 188.263 116.399 188.046C116.148 187.829 115.793 187.72 115.334 187.72C115.016 187.72 114.703 187.774 114.393 187.883C114.092 187.983 113.825 188.142 113.591 188.359L112.977 187.72ZM115.81 190.014C115.183 190.014 114.686 190.102 114.318 190.277C113.95 190.453 113.766 190.741 113.766 191.142C113.766 191.51 113.888 191.774 114.13 191.932C114.381 192.083 114.69 192.158 115.058 192.158C115.342 192.158 115.588 192.112 115.797 192.02C116.015 191.92 116.194 191.79 116.337 191.631C116.479 191.473 116.587 191.289 116.662 191.08C116.738 190.862 116.779 190.633 116.788 190.39V190.014H115.81ZM119.678 191.293C119.871 191.535 120.079 191.728 120.305 191.87C120.539 192.012 120.832 192.083 121.183 192.083C121.333 192.083 121.484 192.066 121.634 192.033C121.793 191.999 121.935 191.945 122.06 191.87C122.186 191.794 122.286 191.702 122.361 191.594C122.436 191.477 122.474 191.339 122.474 191.18C122.474 191.021 122.436 190.892 122.361 190.791C122.294 190.691 122.202 190.608 122.085 190.541C121.968 190.465 121.835 190.407 121.684 190.365C121.534 190.323 121.379 190.286 121.22 190.252C120.945 190.194 120.681 190.127 120.431 190.052C120.18 189.977 119.958 189.88 119.766 189.763C119.582 189.638 119.432 189.479 119.315 189.287C119.206 189.095 119.152 188.848 119.152 188.547C119.152 188.263 119.214 188.012 119.34 187.795C119.465 187.578 119.632 187.398 119.841 187.256C120.05 187.114 120.284 187.005 120.543 186.93C120.802 186.855 121.07 186.817 121.346 186.817C121.764 186.817 122.148 186.901 122.499 187.068C122.858 187.235 123.138 187.507 123.339 187.883L122.524 188.422C122.399 188.213 122.232 188.046 122.023 187.92C121.822 187.787 121.576 187.72 121.283 187.72C121.149 187.72 121.011 187.737 120.869 187.77C120.736 187.803 120.614 187.854 120.506 187.92C120.397 187.987 120.305 188.075 120.23 188.184C120.163 188.284 120.13 188.401 120.13 188.535C120.13 188.66 120.167 188.769 120.242 188.861C120.326 188.944 120.435 189.02 120.568 189.086C120.711 189.153 120.869 189.212 121.045 189.262C121.229 189.312 121.417 189.354 121.609 189.387C121.868 189.437 122.115 189.504 122.349 189.588C122.583 189.663 122.787 189.768 122.963 189.901C123.138 190.035 123.276 190.202 123.377 190.403C123.477 190.603 123.527 190.85 123.527 191.142C123.527 191.477 123.46 191.761 123.327 191.995C123.193 192.229 123.013 192.421 122.787 192.572C122.57 192.714 122.319 192.818 122.035 192.885C121.759 192.952 121.475 192.985 121.183 192.985C120.681 192.985 120.247 192.91 119.879 192.76C119.519 192.601 119.194 192.313 118.901 191.895L119.678 191.293ZM128.1 187.795H126.37V190.729C126.37 190.921 126.374 191.101 126.383 191.268C126.391 191.427 126.425 191.569 126.483 191.694C126.542 191.811 126.629 191.907 126.746 191.982C126.863 192.049 127.031 192.083 127.248 192.083C127.39 192.083 127.536 192.066 127.687 192.033C127.837 191.999 127.979 191.949 128.113 191.882L128.151 192.772C127.983 192.847 127.795 192.902 127.586 192.935C127.386 192.969 127.194 192.985 127.01 192.985C126.659 192.985 126.379 192.939 126.17 192.847C125.961 192.756 125.798 192.626 125.681 192.459C125.564 192.292 125.484 192.087 125.443 191.845C125.409 191.594 125.392 191.318 125.392 191.017V187.795H124.114V186.968H125.392V185.3H126.37V186.968H128.1V187.795ZM129.298 188.359C129.298 188.092 129.29 187.841 129.273 187.607C129.257 187.373 129.248 187.16 129.248 186.968H130.176C130.176 187.126 130.18 187.285 130.189 187.444C130.197 187.603 130.201 187.766 130.201 187.933H130.226C130.293 187.791 130.385 187.653 130.502 187.519C130.627 187.386 130.774 187.269 130.941 187.168C131.108 187.06 131.296 186.976 131.505 186.918C131.714 186.851 131.94 186.817 132.182 186.817C132.249 186.817 132.316 186.821 132.382 186.83C132.449 186.838 132.516 186.855 132.583 186.88L132.52 187.87C132.353 187.82 132.178 187.795 131.994 187.795C131.392 187.795 130.953 187.992 130.677 188.384C130.41 188.769 130.276 189.3 130.276 189.977V192.835H129.298V188.359ZM138.821 191.443C138.821 191.711 138.829 191.962 138.846 192.196C138.863 192.43 138.871 192.643 138.871 192.835H137.943C137.943 192.676 137.939 192.517 137.931 192.359C137.923 192.2 137.918 192.037 137.918 191.87H137.893C137.826 192.012 137.73 192.15 137.605 192.283C137.488 192.417 137.346 192.538 137.179 192.647C137.011 192.747 136.823 192.827 136.614 192.885C136.406 192.952 136.18 192.985 135.937 192.985C135.553 192.985 135.219 192.927 134.935 192.81C134.659 192.693 134.429 192.53 134.245 192.321C134.061 192.112 133.923 191.861 133.831 191.569C133.748 191.268 133.706 190.942 133.706 190.591V186.968H134.684V190.491C134.684 190.984 134.792 191.372 135.01 191.656C135.227 191.941 135.566 192.083 136.025 192.083C136.343 192.083 136.614 192.028 136.84 191.92C137.074 191.811 137.262 191.656 137.404 191.456C137.555 191.255 137.663 191.017 137.73 190.741C137.805 190.465 137.843 190.16 137.843 189.826V186.968H138.821V191.443ZM144.847 188.435C144.638 188.184 144.412 188.004 144.17 187.895C143.928 187.778 143.66 187.72 143.368 187.72C143.042 187.72 142.753 187.778 142.503 187.895C142.252 188.004 142.043 188.159 141.876 188.359C141.717 188.56 141.596 188.794 141.512 189.061C141.429 189.32 141.387 189.6 141.387 189.901C141.387 190.202 141.433 190.486 141.525 190.754C141.625 191.013 141.759 191.243 141.926 191.443C142.101 191.644 142.31 191.803 142.553 191.92C142.795 192.028 143.067 192.083 143.368 192.083C144.011 192.083 144.509 191.84 144.86 191.356L145.587 192.045C145.303 192.371 144.968 192.609 144.584 192.76C144.199 192.91 143.794 192.985 143.368 192.985C142.916 192.985 142.503 192.91 142.127 192.76C141.75 192.609 141.429 192.396 141.161 192.12C140.902 191.845 140.697 191.519 140.547 191.142C140.405 190.766 140.334 190.353 140.334 189.901C140.334 189.458 140.405 189.049 140.547 188.673C140.697 188.297 140.906 187.971 141.174 187.695C141.441 187.419 141.759 187.206 142.127 187.055C142.503 186.897 142.916 186.817 143.368 186.817C143.802 186.817 144.212 186.892 144.596 187.043C144.989 187.193 145.332 187.427 145.624 187.745L144.847 188.435ZM149.93 187.795H148.2V190.729C148.2 190.921 148.204 191.101 148.212 191.268C148.221 191.427 148.254 191.569 148.312 191.694C148.371 191.811 148.459 191.907 148.576 191.982C148.693 192.049 148.86 192.083 149.077 192.083C149.219 192.083 149.366 192.066 149.516 192.033C149.666 191.999 149.809 191.949 149.942 191.882L149.98 192.772C149.813 192.847 149.625 192.902 149.416 192.935C149.215 192.969 149.023 192.985 148.839 192.985C148.488 192.985 148.208 192.939 147.999 192.847C147.79 192.756 147.627 192.626 147.51 192.459C147.393 192.292 147.314 192.087 147.272 191.845C147.238 191.594 147.222 191.318 147.222 191.017V187.795H145.943V186.968H147.222V185.3H148.2V186.968H149.93V187.795ZM156.243 191.443C156.243 191.711 156.251 191.962 156.268 192.196C156.285 192.43 156.293 192.643 156.293 192.835H155.365C155.365 192.676 155.361 192.517 155.353 192.359C155.344 192.2 155.34 192.037 155.34 191.87H155.315C155.248 192.012 155.152 192.15 155.027 192.283C154.91 192.417 154.768 192.538 154.601 192.647C154.433 192.747 154.245 192.827 154.036 192.885C153.827 192.952 153.602 192.985 153.359 192.985C152.975 192.985 152.641 192.927 152.356 192.81C152.081 192.693 151.851 192.53 151.667 192.321C151.483 192.112 151.345 191.861 151.253 191.569C151.17 191.268 151.128 190.942 151.128 190.591V186.968H152.106V190.491C152.106 190.984 152.214 191.372 152.432 191.656C152.649 191.941 152.987 192.083 153.447 192.083C153.765 192.083 154.036 192.028 154.262 191.92C154.496 191.811 154.684 191.656 154.826 191.456C154.977 191.255 155.085 191.017 155.152 190.741C155.227 190.465 155.265 190.16 155.265 189.826V186.968H156.243V191.443ZM158.094 188.359C158.094 188.092 158.086 187.841 158.069 187.607C158.052 187.373 158.044 187.16 158.044 186.968H158.972C158.972 187.126 158.976 187.285 158.984 187.444C158.993 187.603 158.997 187.766 158.997 187.933H159.022C159.089 187.791 159.181 187.653 159.298 187.519C159.423 187.386 159.569 187.269 159.736 187.168C159.904 187.06 160.092 186.976 160.301 186.918C160.51 186.851 160.735 186.817 160.978 186.817C161.044 186.817 161.111 186.821 161.178 186.83C161.245 186.838 161.312 186.855 161.379 186.88L161.316 187.87C161.149 187.82 160.973 187.795 160.79 187.795C160.188 187.795 159.749 187.992 159.473 188.384C159.206 188.769 159.072 189.3 159.072 189.977V192.835H158.094V188.359ZM167.522 191.769C167.171 192.221 166.786 192.538 166.368 192.722C165.95 192.898 165.466 192.985 164.914 192.985C164.454 192.985 164.041 192.906 163.673 192.747C163.305 192.58 162.992 192.359 162.733 192.083C162.482 191.807 162.285 191.481 162.143 191.105C162.01 190.729 161.943 190.328 161.943 189.901C161.943 189.45 162.018 189.036 162.168 188.66C162.319 188.276 162.528 187.95 162.795 187.682C163.063 187.406 163.38 187.193 163.748 187.043C164.116 186.892 164.517 186.817 164.952 186.817C165.361 186.817 165.737 186.888 166.08 187.03C166.423 187.164 166.715 187.365 166.958 187.632C167.208 187.891 167.4 188.213 167.534 188.597C167.668 188.974 167.735 189.404 167.735 189.889V190.202H162.996C163.013 190.453 163.071 190.695 163.171 190.929C163.28 191.155 163.418 191.356 163.585 191.531C163.752 191.698 163.949 191.832 164.174 191.932C164.4 192.033 164.647 192.083 164.914 192.083C165.34 192.083 165.7 192.008 165.992 191.857C166.285 191.707 166.548 191.485 166.782 191.193L167.522 191.769ZM166.682 189.375C166.665 188.873 166.502 188.472 166.193 188.171C165.884 187.87 165.457 187.72 164.914 187.72C164.371 187.72 163.932 187.87 163.598 188.171C163.263 188.472 163.063 188.873 162.996 189.375H166.682ZM169.373 191.293C169.565 191.535 169.774 191.728 170 191.87C170.234 192.012 170.526 192.083 170.877 192.083C171.028 192.083 171.178 192.066 171.329 192.033C171.487 191.999 171.63 191.945 171.755 191.87C171.88 191.794 171.981 191.702 172.056 191.594C172.131 191.477 172.169 191.339 172.169 191.18C172.169 191.021 172.131 190.892 172.056 190.791C171.989 190.691 171.897 190.608 171.78 190.541C171.663 190.465 171.529 190.407 171.379 190.365C171.228 190.323 171.074 190.286 170.915 190.252C170.639 190.194 170.376 190.127 170.125 190.052C169.874 189.977 169.653 189.88 169.461 189.763C169.277 189.638 169.126 189.479 169.009 189.287C168.901 189.095 168.846 188.848 168.846 188.547C168.846 188.263 168.909 188.012 169.034 187.795C169.16 187.578 169.327 187.398 169.536 187.256C169.745 187.114 169.979 187.005 170.238 186.93C170.497 186.855 170.765 186.817 171.04 186.817C171.458 186.817 171.843 186.901 172.194 187.068C172.553 187.235 172.833 187.507 173.034 187.883L172.219 188.422C172.093 188.213 171.926 188.046 171.717 187.92C171.517 187.787 171.27 187.72 170.978 187.72C170.844 187.72 170.706 187.737 170.564 187.77C170.43 187.803 170.309 187.854 170.2 187.92C170.092 187.987 170 188.075 169.925 188.184C169.858 188.284 169.824 188.401 169.824 188.535C169.824 188.66 169.862 188.769 169.937 188.861C170.021 188.944 170.129 189.02 170.263 189.086C170.405 189.153 170.564 189.212 170.739 189.262C170.923 189.312 171.111 189.354 171.304 189.387C171.563 189.437 171.809 189.504 172.043 189.588C172.277 189.663 172.482 189.768 172.658 189.901C172.833 190.035 172.971 190.202 173.071 190.403C173.172 190.603 173.222 190.85 173.222 191.142C173.222 191.477 173.155 191.761 173.021 191.995C172.887 192.229 172.708 192.421 172.482 192.572C172.265 192.714 172.014 192.818 171.73 192.885C171.454 192.952 171.17 192.985 170.877 192.985C170.376 192.985 169.941 192.91 169.574 192.76C169.214 192.601 168.888 192.313 168.596 191.895L169.373 191.293ZM175.4 191.406C175.609 191.406 175.785 191.481 175.927 191.631C176.077 191.774 176.153 191.949 176.153 192.158C176.153 192.367 176.073 192.547 175.914 192.697C175.764 192.839 175.593 192.91 175.4 192.91C175.208 192.91 175.033 192.839 174.874 192.697C174.723 192.547 174.648 192.367 174.648 192.158C174.648 191.949 174.719 191.774 174.861 191.631C175.012 191.481 175.191 191.406 175.4 191.406Z" fill="black"/>
</svg>
