<svg width="217" height="202" viewBox="0 0 217 202" fill="none" xmlns="http://www.w3.org/2000/svg">
<path d="M28.0091 103.317C25.8082 103.317 23.9833 102.593 22.5346 101.144C21.0859 99.6812 20.3616 97.8773 20.3616 95.7321C20.3616 93.5869 21.0859 91.7899 22.5346 90.3412C23.9833 88.8786 25.8082 88.1473 28.0091 88.1473C29.3324 88.1473 30.5513 88.4607 31.6657 89.0875C32.794 89.7144 33.6716 90.5641 34.2984 91.6367L32.209 92.8486C31.8189 92.1242 31.2478 91.5531 30.4956 91.1352C29.7573 90.7034 28.9285 90.4875 28.0091 90.4875C26.4489 90.4875 25.1813 90.982 24.2062 91.971C23.2451 92.96 22.7645 94.2137 22.7645 95.7321C22.7645 97.2505 23.2451 98.5041 24.2062 99.4932C25.1813 100.482 26.4489 100.977 28.0091 100.977C28.9285 100.977 29.7643 100.768 30.5165 100.35C31.2687 99.918 31.8328 99.3399 32.209 98.6156L34.2984 99.8066C33.6855 100.879 32.8149 101.736 31.6866 102.377C30.5722 103.003 29.3464 103.317 28.0091 103.317ZM41.0592 103.317C39.5269 103.317 38.2245 102.788 37.1519 101.729C36.0793 100.67 35.543 99.3678 35.543 97.8216C35.543 96.2754 36.0793 94.9729 37.1519 93.9142C38.2245 92.8556 39.5269 92.3262 41.0592 92.3262C42.6054 92.3262 43.9079 92.8556 44.9666 93.9142C46.0392 94.9729 46.5755 96.2754 46.5755 97.8216C46.5755 99.3678 46.0392 100.67 44.9666 101.729C43.9079 102.788 42.6054 103.317 41.0592 103.317ZM38.7399 100.183C39.3667 100.81 40.1399 101.123 41.0592 101.123C41.9786 101.123 42.7517 100.81 43.3786 100.183C44.0054 99.5558 44.3188 98.7688 44.3188 97.8216C44.3188 96.8743 44.0054 96.0873 43.3786 95.4605C42.7517 94.8336 41.9786 94.5202 41.0592 94.5202C40.1399 94.5202 39.3667 94.8336 38.7399 95.4605C38.1131 96.0873 37.7996 96.8743 37.7996 97.8216C37.7996 98.7688 38.1131 99.5558 38.7399 100.183ZM60.0246 92.3262C61.2086 92.3262 62.1628 92.7093 62.8872 93.4754C63.6115 94.2416 63.9737 95.2724 63.9737 96.5679V103.045H61.717V96.7141C61.717 95.9898 61.536 95.4326 61.1738 95.0426C60.8116 94.6386 60.3171 94.4366 59.6902 94.4366C58.9938 94.4366 58.4366 94.6665 58.0187 95.1261C57.6147 95.5858 57.4127 96.2754 57.4127 97.1947V103.045H55.1561V96.7141C55.1561 95.9898 54.9819 95.4326 54.6337 95.0426C54.2994 94.6386 53.8188 94.4366 53.1919 94.4366C52.5094 94.4366 51.9522 94.6734 51.5204 95.147C51.0885 95.6067 50.8726 96.2893 50.8726 97.1947V103.045H48.616V92.5979H50.8726V93.8516C51.5413 92.8347 52.5372 92.3262 53.8606 92.3262C55.1979 92.3262 56.1869 92.8765 56.8277 93.9769C57.5241 92.8765 58.5898 92.3262 60.0246 92.3262ZM77.7974 92.3262C78.9815 92.3262 79.9357 92.7093 80.66 93.4754C81.3844 94.2416 81.7466 95.2724 81.7466 96.5679V103.045H79.4899V96.7141C79.4899 95.9898 79.3088 95.4326 78.9466 95.0426C78.5845 94.6386 78.09 94.4366 77.4631 94.4366C76.7666 94.4366 76.2094 94.6665 75.7915 95.1261C75.3876 95.5858 75.1856 96.2754 75.1856 97.1947V103.045H72.9289V96.7141C72.9289 95.9898 72.7548 95.4326 72.4066 95.0426C72.0722 94.6386 71.5917 94.4366 70.9648 94.4366C70.2822 94.4366 69.725 94.6734 69.2932 95.147C68.8614 95.6067 68.6455 96.2893 68.6455 97.1947V103.045H66.3888V92.5979H68.6455V93.8516C69.3141 92.8347 70.3101 92.3262 71.6334 92.3262C72.9707 92.3262 73.9597 92.8765 74.6005 93.9769C75.297 92.8765 76.3626 92.3262 77.7974 92.3262ZM91.2033 92.5979H93.4599V103.045H91.2033V101.708C90.5207 102.781 89.4411 103.317 87.9646 103.317C86.7666 103.317 85.7985 102.934 85.0602 102.168C84.3219 101.402 83.9528 100.35 83.9528 99.0126V92.5979H86.2094V98.7827C86.2094 99.5628 86.4183 100.162 86.8362 100.58C87.2541 100.998 87.8253 101.207 88.5496 101.207C89.3436 101.207 89.9844 100.963 90.4719 100.475C90.9595 99.9737 91.2033 99.2146 91.2033 98.1977V92.5979ZM101.594 92.3262C102.792 92.3262 103.76 92.7093 104.498 93.4754C105.237 94.2416 105.606 95.2933 105.606 96.6306V103.045H103.349V96.8604C103.349 96.0803 103.14 95.4814 102.722 95.0635C102.304 94.6456 101.733 94.4366 101.009 94.4366C100.215 94.4366 99.5742 94.6873 99.0867 95.1888C98.5991 95.6764 98.3553 96.4286 98.3553 97.4455V103.045H96.0987V92.5979H98.3553V93.9351C99.0379 92.8625 100.117 92.3262 101.594 92.3262ZM110.167 90.6129C109.888 90.8915 109.554 91.0308 109.164 91.0308C108.774 91.0308 108.433 90.8915 108.14 90.6129C107.862 90.3203 107.722 89.979 107.722 89.589C107.722 89.199 107.862 88.8647 108.14 88.5861C108.419 88.2935 108.76 88.1473 109.164 88.1473C109.568 88.1473 109.909 88.2935 110.188 88.5861C110.466 88.8647 110.606 89.199 110.606 89.589C110.606 89.979 110.459 90.3203 110.167 90.6129ZM108.036 103.045V92.5979H110.292V103.045H108.036ZM118.742 94.7709H116.151V99.7857C116.151 100.218 116.249 100.531 116.444 100.726C116.639 100.907 116.924 101.012 117.3 101.039C117.69 101.053 118.171 101.046 118.742 101.018V103.045C117.015 103.254 115.775 103.108 115.023 102.606C114.271 102.091 113.895 101.151 113.895 99.7857V94.7709H111.972V92.5979H113.895V90.3412L116.151 89.6726V92.5979H118.742V94.7709ZM128.035 92.5979H130.437L126.426 103.38C125.423 106.082 123.723 107.364 121.327 107.224V105.114C122.038 105.156 122.609 105.002 123.041 104.654C123.472 104.32 123.828 103.791 124.106 103.066L124.211 102.857L119.781 92.5979H122.247L125.36 100.183L128.035 92.5979ZM139.621 100.747H146.099V103.045H137.218V88.4189H145.994V90.7173H139.621V94.5202H145.472V96.7977H139.621V100.747ZM155.236 92.5979H157.701L153.627 103.045H151.015L146.94 92.5979H149.406L152.331 100.538L155.236 92.5979ZM160.498 98.7827C160.665 99.5767 161.048 100.19 161.647 100.621C162.246 101.039 162.978 101.248 163.841 101.248C165.039 101.248 165.938 100.817 166.537 99.9529L168.396 101.039C167.366 102.558 165.84 103.317 163.82 103.317C162.121 103.317 160.749 102.802 159.704 101.771C158.659 100.726 158.137 99.4096 158.137 97.8216C158.137 96.2614 158.652 94.959 159.683 93.9142C160.714 92.8556 162.037 92.3262 163.653 92.3262C165.185 92.3262 166.439 92.8625 167.414 93.9351C168.403 95.0077 168.898 96.3102 168.898 97.8425C168.898 98.0793 168.87 98.3927 168.814 98.7827H160.498ZM160.477 96.944H166.62C166.467 96.0943 166.112 95.4535 165.555 95.0217C165.011 94.5898 164.371 94.3739 163.632 94.3739C162.797 94.3739 162.1 94.6038 161.543 95.0635C160.986 95.5231 160.63 96.15 160.477 96.944ZM176.379 92.3262C177.577 92.3262 178.545 92.7093 179.283 93.4754C180.021 94.2416 180.391 95.2933 180.391 96.6306V103.045H178.134V96.8604C178.134 96.0803 177.925 95.4814 177.507 95.0635C177.089 94.6456 176.518 94.4366 175.794 94.4366C175 94.4366 174.359 94.6873 173.871 95.1888C173.384 95.6764 173.14 96.4286 173.14 97.4455V103.045H170.883V92.5979H173.14V93.9351C173.823 92.8625 174.902 92.3262 176.379 92.3262ZM188.65 94.7709H186.059V99.7857C186.059 100.218 186.157 100.531 186.352 100.726C186.547 100.907 186.832 101.012 187.208 101.039C187.598 101.053 188.079 101.046 188.65 101.018V103.045C186.923 103.254 185.683 103.108 184.931 102.606C184.179 102.091 183.803 101.151 183.803 99.7857V94.7709H181.88V92.5979H183.803V90.3412L186.059 89.6726V92.5979H188.65V94.7709ZM192.336 95.4814C192.336 95.8296 192.524 96.1082 192.9 96.3171C193.29 96.5122 193.757 96.6863 194.3 96.8395C194.857 96.9788 195.414 97.146 195.972 97.341C196.529 97.536 196.995 97.8703 197.372 98.3439C197.762 98.8036 197.957 99.3887 197.957 100.099C197.957 101.102 197.567 101.889 196.787 102.46C196.02 103.031 195.052 103.317 193.882 103.317C192.851 103.317 191.967 103.101 191.229 102.669C190.49 102.237 189.954 101.638 189.62 100.872L191.563 99.7439C191.925 100.747 192.698 101.248 193.882 101.248C195.066 101.248 195.658 100.858 195.658 100.078C195.658 99.7439 195.463 99.4723 195.073 99.2633C194.697 99.0544 194.23 98.8802 193.673 98.7409C193.13 98.5877 192.58 98.4136 192.023 98.2186C191.465 98.0236 190.992 97.7032 190.602 97.2574C190.226 96.7977 190.038 96.2196 190.038 95.5231C190.038 94.562 190.4 93.7889 191.124 93.2038C191.862 92.6188 192.775 92.3262 193.861 92.3262C194.725 92.3262 195.491 92.5213 196.16 92.9113C196.842 93.2874 197.365 93.8167 197.727 94.4993L195.825 95.5649C195.463 94.7709 194.808 94.3739 193.861 94.3739C193.429 94.3739 193.067 94.4714 192.775 94.6665C192.482 94.8475 192.336 95.1192 192.336 95.4814Z" fill="black"/>
<path d="M40.1183 133.959H41.1087L44.8824 142.835H43.6537L42.7511 140.654H38.313L37.3978 142.835H36.2068L40.1183 133.959ZM40.5947 135.313H40.5697L38.7267 139.676H42.3499L40.5947 135.313ZM45.9743 133.357H46.9522V142.835H45.9743V133.357ZM48.9984 133.357H49.9763V142.835H48.9984V133.357ZM51.5839 139.901C51.5839 139.442 51.6633 139.024 51.8221 138.648C51.9809 138.272 52.1982 137.95 52.474 137.682C52.7498 137.406 53.08 137.193 53.4645 137.043C53.8489 136.892 54.2668 136.817 54.7181 136.817C55.1695 136.817 55.5874 136.892 55.9718 137.043C56.3563 137.193 56.6864 137.406 56.9623 137.682C57.2381 137.95 57.4554 138.272 57.6142 138.648C57.773 139.024 57.8524 139.442 57.8524 139.901C57.8524 140.361 57.773 140.779 57.6142 141.155C57.4554 141.531 57.2381 141.857 56.9623 142.133C56.6864 142.4 56.3563 142.609 55.9718 142.76C55.5874 142.91 55.1695 142.985 54.7181 142.985C54.2668 142.985 53.8489 142.91 53.4645 142.76C53.08 142.609 52.7498 142.4 52.474 142.133C52.1982 141.857 51.9809 141.531 51.8221 141.155C51.6633 140.779 51.5839 140.361 51.5839 139.901ZM52.637 139.901C52.637 140.211 52.683 140.499 52.7749 140.766C52.8752 141.025 53.0173 141.255 53.2012 141.456C53.3851 141.648 53.6024 141.803 53.8531 141.92C54.1122 142.028 54.4005 142.083 54.7181 142.083C55.0357 142.083 55.3199 142.028 55.5707 141.92C55.8297 141.803 56.0512 141.648 56.2351 141.456C56.419 141.255 56.5569 141.025 56.6488 140.766C56.7491 140.499 56.7993 140.211 56.7993 139.901C56.7993 139.592 56.7491 139.308 56.6488 139.049C56.5569 138.781 56.419 138.552 56.2351 138.359C56.0512 138.159 55.8297 138.004 55.5707 137.895C55.3199 137.778 55.0357 137.72 54.7181 137.72C54.4005 137.72 54.1122 137.778 53.8531 137.895C53.6024 138.004 53.3851 138.159 53.2012 138.359C53.0173 138.552 52.8752 138.781 52.7749 139.049C52.683 139.308 52.637 139.592 52.637 139.901ZM65.6597 142.835H64.6944L63.027 138.322H63.0019L61.5225 142.835H60.5196L58.614 136.968H59.6922L61.0336 141.481H61.0587L62.5756 136.968H63.6037L65.1457 141.481H65.1708L66.4997 136.968H67.5528L65.6597 142.835ZM68.7465 136.968H69.7243V142.835H68.7465V136.968ZM68.5208 134.673C68.5208 134.481 68.5877 134.314 68.7214 134.172C68.8635 134.03 69.0348 133.959 69.2354 133.959C69.436 133.959 69.6031 134.03 69.7369 134.172C69.879 134.314 69.95 134.481 69.95 134.673C69.95 134.882 69.8831 135.054 69.7494 135.187C69.6157 135.321 69.4443 135.388 69.2354 135.388C69.0264 135.388 68.8551 135.321 68.7214 135.187C68.5877 135.054 68.5208 134.882 68.5208 134.673ZM71.6705 138.359C71.6705 138.092 71.6621 137.841 71.6454 137.607C71.6287 137.373 71.6203 137.16 71.6203 136.968H72.5481C72.5481 137.126 72.5523 137.285 72.5606 137.444C72.569 137.603 72.5731 137.766 72.5731 137.933H72.5982C72.6651 137.791 72.757 137.653 72.874 137.519C72.9994 137.386 73.1457 137.269 73.3128 137.168C73.48 137.06 73.668 136.976 73.877 136.918C74.0859 136.851 74.3116 136.817 74.554 136.817C74.9384 136.817 75.2686 136.876 75.5444 136.993C75.8286 137.11 76.0626 137.273 76.2465 137.482C76.4303 137.691 76.5641 137.946 76.6476 138.246C76.7396 138.539 76.7855 138.861 76.7855 139.212V142.835H75.8077V139.312C75.8077 138.819 75.699 138.43 75.4817 138.146C75.2644 137.862 74.9259 137.72 74.4662 137.72C74.1486 137.72 73.8728 137.774 73.6388 137.883C73.4131 137.992 73.2251 138.146 73.0746 138.347C72.9325 138.547 72.8239 138.786 72.7487 139.061C72.6818 139.337 72.6484 139.642 72.6484 139.977V142.835H71.6705V138.359ZM84.4915 142.572C84.4915 143.642 84.2157 144.452 83.6641 145.004C83.1208 145.564 82.331 145.844 81.2946 145.844C80.7179 145.844 80.1956 145.76 79.7275 145.593C79.2678 145.426 78.829 145.138 78.4111 144.728L79.1132 143.926C79.4224 144.26 79.7484 144.511 80.0911 144.678C80.4421 144.853 80.8433 144.941 81.2946 144.941C81.7292 144.941 82.0886 144.874 82.3728 144.741C82.6653 144.615 82.8952 144.44 83.0623 144.214C83.2295 143.997 83.3465 143.746 83.4134 143.462C83.4802 143.178 83.5137 142.881 83.5137 142.572V141.819H83.4886C83.2546 142.196 82.9495 142.471 82.5734 142.647C82.1973 142.822 81.8128 142.91 81.42 142.91C80.9603 142.91 80.5382 142.835 80.1538 142.685C79.7693 142.534 79.4392 142.325 79.1633 142.058C78.8875 141.79 78.6744 141.473 78.524 141.105C78.3735 140.737 78.2983 140.336 78.2983 139.901C78.2983 139.425 78.3735 138.994 78.524 138.61C78.6744 138.226 78.8834 137.904 79.1508 137.645C79.4266 137.377 79.7568 137.172 80.1412 137.03C80.5257 136.888 80.9519 136.817 81.42 136.817C81.6206 136.817 81.8212 136.842 82.0218 136.892C82.2224 136.934 82.4146 137.005 82.5985 137.106C82.7907 137.198 82.962 137.319 83.1125 137.469C83.2629 137.611 83.3883 137.778 83.4886 137.971H83.5137V136.968H84.4915V142.572ZM79.3514 139.901C79.3514 140.202 79.4057 140.482 79.5144 140.741C79.623 140.992 79.7693 141.214 79.9532 141.406C80.1454 141.59 80.3669 141.736 80.6176 141.845C80.8684 141.953 81.1358 142.008 81.42 142.008C81.7543 142.008 82.051 141.949 82.3101 141.832C82.5692 141.715 82.7865 141.56 82.962 141.368C83.1459 141.168 83.2838 140.942 83.3758 140.691C83.4677 140.432 83.5137 140.16 83.5137 139.876C83.5137 139.559 83.4635 139.27 83.3632 139.011C83.2629 138.744 83.1208 138.514 82.937 138.322C82.7531 138.129 82.5316 137.983 82.2725 137.883C82.0134 137.774 81.7292 137.72 81.42 137.72C81.1107 137.72 80.8266 137.778 80.5675 137.895C80.3167 138.004 80.0994 138.159 79.9156 138.359C79.74 138.552 79.6021 138.781 79.5018 139.049C79.4016 139.308 79.3514 139.592 79.3514 139.901ZM93.965 138.435C93.7561 138.184 93.5304 138.004 93.288 137.895C93.0457 137.778 92.7782 137.72 92.4857 137.72C92.1597 137.72 91.8714 137.778 91.6206 137.895C91.3699 138.004 91.1609 138.159 90.9938 138.359C90.835 138.56 90.7138 138.794 90.6302 139.061C90.5466 139.32 90.5048 139.6 90.5048 139.901C90.5048 140.202 90.5508 140.486 90.6428 140.754C90.743 141.013 90.8768 141.243 91.0439 141.443C91.2194 141.644 91.4284 141.803 91.6708 141.92C91.9132 142.028 92.1848 142.083 92.4857 142.083C93.1292 142.083 93.6265 141.84 93.9776 141.356L94.7047 142.045C94.4205 142.371 94.0862 142.609 93.7018 142.76C93.3173 142.91 92.9119 142.985 92.4857 142.985C92.0343 142.985 91.6206 142.91 91.2445 142.76C90.8684 142.609 90.5466 142.396 90.2792 142.12C90.0201 141.845 89.8153 141.519 89.6649 141.142C89.5228 140.766 89.4517 140.353 89.4517 139.901C89.4517 139.458 89.5228 139.049 89.6649 138.673C89.8153 138.297 90.0243 137.971 90.2917 137.695C90.5592 137.419 90.8768 137.206 91.2445 137.055C91.6206 136.897 92.0343 136.817 92.4857 136.817C92.9203 136.817 93.3298 136.892 93.7143 137.043C94.1071 137.193 94.4498 137.427 94.7423 137.745L93.965 138.435ZM95.4998 139.901C95.4998 139.442 95.5792 139.024 95.738 138.648C95.8968 138.272 96.1141 137.95 96.3899 137.682C96.6658 137.406 96.9959 137.193 97.3804 137.043C97.7648 136.892 98.1827 136.817 98.634 136.817C99.0854 136.817 99.5033 136.892 99.8877 137.043C100.272 137.193 100.602 137.406 100.878 137.682C101.154 137.95 101.371 138.272 101.53 138.648C101.689 139.024 101.768 139.442 101.768 139.901C101.768 140.361 101.689 140.779 101.53 141.155C101.371 141.531 101.154 141.857 100.878 142.133C100.602 142.4 100.272 142.609 99.8877 142.76C99.5033 142.91 99.0854 142.985 98.634 142.985C98.1827 142.985 97.7648 142.91 97.3804 142.76C96.9959 142.609 96.6658 142.4 96.3899 142.133C96.1141 141.857 95.8968 141.531 95.738 141.155C95.5792 140.779 95.4998 140.361 95.4998 139.901ZM96.5529 139.901C96.5529 140.211 96.5989 140.499 96.6908 140.766C96.7911 141.025 96.9332 141.255 97.1171 141.456C97.301 141.648 97.5183 141.803 97.769 141.92C98.0281 142.028 98.3164 142.083 98.634 142.083C98.9516 142.083 99.2358 142.028 99.4866 141.92C99.7457 141.803 99.9671 141.648 100.151 141.456C100.335 141.255 100.473 141.025 100.565 140.766C100.665 140.499 100.715 140.211 100.715 139.901C100.715 139.592 100.665 139.308 100.565 139.049C100.473 138.781 100.335 138.552 100.151 138.359C99.9671 138.159 99.7457 138.004 99.4866 137.895C99.2358 137.778 98.9516 137.72 98.634 137.72C98.3164 137.72 98.0281 137.778 97.769 137.895C97.5183 138.004 97.301 138.159 97.1171 138.359C96.9332 138.552 96.7911 138.781 96.6908 139.049C96.5989 139.308 96.5529 139.592 96.5529 139.901ZM103.407 141.293C103.6 141.535 103.809 141.728 104.034 141.87C104.268 142.012 104.561 142.083 104.912 142.083C105.062 142.083 105.213 142.066 105.363 142.033C105.522 141.999 105.664 141.945 105.789 141.87C105.915 141.794 106.015 141.702 106.09 141.594C106.166 141.477 106.203 141.339 106.203 141.18C106.203 141.021 106.166 140.892 106.09 140.791C106.024 140.691 105.932 140.608 105.815 140.541C105.698 140.465 105.564 140.407 105.413 140.365C105.263 140.323 105.108 140.286 104.95 140.252C104.674 140.194 104.41 140.127 104.16 140.052C103.909 139.977 103.687 139.88 103.495 139.763C103.311 139.638 103.161 139.479 103.044 139.287C102.935 139.095 102.881 138.848 102.881 138.547C102.881 138.263 102.944 138.012 103.069 137.795C103.194 137.578 103.362 137.398 103.57 137.256C103.779 137.114 104.013 137.005 104.273 136.93C104.532 136.855 104.799 136.817 105.075 136.817C105.493 136.817 105.877 136.901 106.228 137.068C106.588 137.235 106.868 137.507 107.068 137.883L106.253 138.422C106.128 138.213 105.961 138.046 105.752 137.92C105.551 137.787 105.305 137.72 105.012 137.72C104.878 137.72 104.741 137.737 104.598 137.77C104.465 137.803 104.344 137.854 104.235 137.92C104.126 137.987 104.034 138.075 103.959 138.184C103.892 138.284 103.859 138.401 103.859 138.535C103.859 138.66 103.896 138.769 103.972 138.861C104.055 138.944 104.164 139.02 104.298 139.086C104.44 139.153 104.598 139.212 104.774 139.262C104.958 139.312 105.146 139.354 105.338 139.387C105.597 139.437 105.844 139.504 106.078 139.588C106.312 139.663 106.517 139.768 106.692 139.901C106.868 140.035 107.006 140.202 107.106 140.403C107.206 140.603 107.256 140.85 107.256 141.142C107.256 141.477 107.189 141.761 107.056 141.995C106.922 142.229 106.742 142.421 106.517 142.572C106.299 142.714 106.049 142.818 105.764 142.885C105.489 142.952 105.204 142.985 104.912 142.985C104.41 142.985 103.976 142.91 103.608 142.76C103.249 142.601 102.923 142.313 102.63 141.895L103.407 141.293ZM111.83 137.795H110.099V140.729C110.099 140.921 110.104 141.101 110.112 141.268C110.12 141.427 110.154 141.569 110.212 141.694C110.271 141.811 110.359 141.907 110.476 141.982C110.593 142.049 110.76 142.083 110.977 142.083C111.119 142.083 111.265 142.066 111.416 142.033C111.566 141.999 111.708 141.949 111.842 141.882L111.88 142.772C111.713 142.847 111.524 142.902 111.316 142.935C111.115 142.969 110.923 142.985 110.739 142.985C110.388 142.985 110.108 142.939 109.899 142.847C109.69 142.756 109.527 142.626 109.41 142.459C109.293 142.292 109.213 142.087 109.172 141.845C109.138 141.594 109.122 141.318 109.122 141.017V137.795H107.843V136.968H109.122V135.3H110.099V136.968H111.83V137.795ZM116.642 141.293C116.834 141.535 117.043 141.728 117.269 141.87C117.503 142.012 117.796 142.083 118.147 142.083C118.297 142.083 118.448 142.066 118.598 142.033C118.757 141.999 118.899 141.945 119.024 141.87C119.15 141.794 119.25 141.702 119.325 141.594C119.4 141.477 119.438 141.339 119.438 141.18C119.438 141.021 119.4 140.892 119.325 140.791C119.258 140.691 119.166 140.608 119.049 140.541C118.932 140.465 118.799 140.407 118.648 140.365C118.498 140.323 118.343 140.286 118.184 140.252C117.908 140.194 117.645 140.127 117.394 140.052C117.144 139.977 116.922 139.88 116.73 139.763C116.546 139.638 116.396 139.479 116.279 139.287C116.17 139.095 116.116 138.848 116.116 138.547C116.116 138.263 116.178 138.012 116.304 137.795C116.429 137.578 116.596 137.398 116.805 137.256C117.014 137.114 117.248 137.005 117.507 136.93C117.766 136.855 118.034 136.817 118.31 136.817C118.728 136.817 119.112 136.901 119.463 137.068C119.822 137.235 120.102 137.507 120.303 137.883L119.488 138.422C119.363 138.213 119.196 138.046 118.987 137.92C118.786 137.787 118.539 137.72 118.247 137.72C118.113 137.72 117.975 137.737 117.833 137.77C117.7 137.803 117.578 137.854 117.47 137.92C117.361 137.987 117.269 138.075 117.194 138.184C117.127 138.284 117.094 138.401 117.094 138.535C117.094 138.66 117.131 138.769 117.206 138.861C117.29 138.944 117.399 139.02 117.532 139.086C117.674 139.153 117.833 139.212 118.009 139.262C118.193 139.312 118.381 139.354 118.573 139.387C118.832 139.437 119.079 139.504 119.313 139.588C119.547 139.663 119.751 139.768 119.927 139.901C120.102 140.035 120.24 140.202 120.341 140.403C120.441 140.603 120.491 140.85 120.491 141.142C120.491 141.477 120.424 141.761 120.29 141.995C120.157 142.229 119.977 142.421 119.751 142.572C119.534 142.714 119.283 142.818 118.999 142.885C118.723 142.952 118.439 142.985 118.147 142.985C117.645 142.985 117.211 142.91 116.843 142.76C116.483 142.601 116.157 142.313 115.865 141.895L116.642 141.293ZM121.78 137.72C122.081 137.411 122.436 137.185 122.845 137.043C123.263 136.892 123.685 136.817 124.111 136.817C124.981 136.817 125.608 137.022 125.992 137.432C126.376 137.841 126.569 138.464 126.569 139.3V141.819C126.569 141.987 126.577 142.162 126.594 142.346C126.611 142.522 126.631 142.685 126.656 142.835H125.716C125.683 142.701 125.662 142.555 125.654 142.396C125.654 142.229 125.654 142.083 125.654 141.957H125.628C125.436 142.258 125.177 142.505 124.851 142.697C124.534 142.889 124.149 142.985 123.698 142.985C123.397 142.985 123.113 142.948 122.845 142.873C122.586 142.797 122.356 142.689 122.156 142.547C121.964 142.396 121.809 142.212 121.692 141.995C121.575 141.778 121.516 141.527 121.516 141.243C121.516 140.758 121.642 140.378 121.892 140.102C122.143 139.826 122.452 139.621 122.82 139.488C123.196 139.354 123.597 139.27 124.024 139.237C124.458 139.203 124.855 139.187 125.215 139.187H125.591V139.011C125.591 138.585 125.461 138.263 125.202 138.046C124.951 137.829 124.596 137.72 124.137 137.72C123.819 137.72 123.506 137.774 123.196 137.883C122.895 137.983 122.628 138.142 122.394 138.359L121.78 137.72ZM124.613 140.014C123.986 140.014 123.489 140.102 123.121 140.277C122.753 140.453 122.569 140.741 122.569 141.142C122.569 141.51 122.691 141.774 122.933 141.932C123.184 142.083 123.493 142.158 123.861 142.158C124.145 142.158 124.391 142.112 124.6 142.02C124.818 141.92 124.997 141.79 125.14 141.631C125.282 141.473 125.39 141.289 125.465 141.08C125.541 140.862 125.582 140.633 125.591 140.39V140.014H124.613ZM131.026 142.835H129.948L127.554 136.968H128.694L130.525 141.569H130.55L132.293 136.968H133.346L131.026 142.835ZM134.492 136.968H135.47V142.835H134.492V136.968ZM134.266 134.673C134.266 134.481 134.333 134.314 134.467 134.172C134.609 134.03 134.78 133.959 134.981 133.959C135.181 133.959 135.348 134.03 135.482 134.172C135.624 134.314 135.695 134.481 135.695 134.673C135.695 134.882 135.628 135.054 135.495 135.187C135.361 135.321 135.19 135.388 134.981 135.388C134.772 135.388 134.6 135.321 134.467 135.187C134.333 135.054 134.266 134.882 134.266 134.673ZM137.416 138.359C137.416 138.092 137.407 137.841 137.391 137.607C137.374 137.373 137.366 137.16 137.366 136.968H138.293C138.293 137.126 138.298 137.285 138.306 137.444C138.314 137.603 138.318 137.766 138.318 137.933H138.344C138.41 137.791 138.502 137.653 138.619 137.519C138.745 137.386 138.891 137.269 139.058 137.168C139.225 137.06 139.413 136.976 139.622 136.918C139.831 136.851 140.057 136.817 140.299 136.817C140.684 136.817 141.014 136.876 141.29 136.993C141.574 137.11 141.808 137.273 141.992 137.482C142.176 137.691 142.309 137.946 142.393 138.246C142.485 138.539 142.531 138.861 142.531 139.212V142.835H141.553V139.312C141.553 138.819 141.444 138.43 141.227 138.146C141.01 137.862 140.671 137.72 140.212 137.72C139.894 137.72 139.618 137.774 139.384 137.883C139.158 137.992 138.97 138.146 138.82 138.347C138.678 138.547 138.569 138.786 138.494 139.061C138.427 139.337 138.394 139.642 138.394 139.977V142.835H137.416V138.359ZM150.237 142.572C150.237 143.642 149.961 144.452 149.409 145.004C148.866 145.564 148.076 145.844 147.04 145.844C146.463 145.844 145.941 145.76 145.473 145.593C145.013 145.426 144.574 145.138 144.156 144.728L144.859 143.926C145.168 144.26 145.494 144.511 145.836 144.678C146.187 144.853 146.589 144.941 147.04 144.941C147.475 144.941 147.834 144.874 148.118 144.741C148.411 144.615 148.64 144.44 148.808 144.214C148.975 143.997 149.092 143.746 149.159 143.462C149.226 143.178 149.259 142.881 149.259 142.572V141.819H149.234C149 142.196 148.695 142.471 148.319 142.647C147.943 142.822 147.558 142.91 147.165 142.91C146.706 142.91 146.284 142.835 145.899 142.685C145.515 142.534 145.184 142.325 144.909 142.058C144.633 141.79 144.42 141.473 144.269 141.105C144.119 140.737 144.044 140.336 144.044 139.901C144.044 139.425 144.119 138.994 144.269 138.61C144.42 138.226 144.629 137.904 144.896 137.645C145.172 137.377 145.502 137.172 145.887 137.03C146.271 136.888 146.697 136.817 147.165 136.817C147.366 136.817 147.566 136.842 147.767 136.892C147.968 136.934 148.16 137.005 148.344 137.106C148.536 137.198 148.707 137.319 148.858 137.469C149.008 137.611 149.134 137.778 149.234 137.971H149.259V136.968H150.237V142.572ZM145.097 139.901C145.097 140.202 145.151 140.482 145.26 140.741C145.368 140.992 145.515 141.214 145.698 141.406C145.891 141.59 146.112 141.736 146.363 141.845C146.614 141.953 146.881 142.008 147.165 142.008C147.5 142.008 147.796 141.949 148.055 141.832C148.315 141.715 148.532 141.56 148.707 141.368C148.891 141.168 149.029 140.942 149.121 140.691C149.213 140.432 149.259 140.16 149.259 139.876C149.259 139.559 149.209 139.27 149.109 139.011C149.008 138.744 148.866 138.514 148.682 138.322C148.498 138.129 148.277 137.983 148.018 137.883C147.759 137.774 147.475 137.72 147.165 137.72C146.856 137.72 146.572 137.778 146.313 137.895C146.062 138.004 145.845 138.159 145.661 138.359C145.485 138.552 145.347 138.781 145.247 139.049C145.147 139.308 145.097 139.592 145.097 139.901ZM152.172 141.293C152.364 141.535 152.573 141.728 152.798 141.87C153.032 142.012 153.325 142.083 153.676 142.083C153.827 142.083 153.977 142.066 154.127 142.033C154.286 141.999 154.428 141.945 154.554 141.87C154.679 141.794 154.779 141.702 154.855 141.594C154.93 141.477 154.967 141.339 154.967 141.18C154.967 141.021 154.93 140.892 154.855 140.791C154.788 140.691 154.696 140.608 154.579 140.541C154.462 140.465 154.328 140.407 154.178 140.365C154.027 140.323 153.872 140.286 153.714 140.252C153.438 140.194 153.175 140.127 152.924 140.052C152.673 139.977 152.452 139.88 152.259 139.763C152.076 139.638 151.925 139.479 151.808 139.287C151.699 139.095 151.645 138.848 151.645 138.547C151.645 138.263 151.708 138.012 151.833 137.795C151.959 137.578 152.126 137.398 152.335 137.256C152.544 137.114 152.778 137.005 153.037 136.93C153.296 136.855 153.563 136.817 153.839 136.817C154.257 136.817 154.641 136.901 154.992 137.068C155.352 137.235 155.632 137.507 155.832 137.883L155.018 138.422C154.892 138.213 154.725 138.046 154.516 137.92C154.315 137.787 154.069 137.72 153.776 137.72C153.643 137.72 153.505 137.737 153.363 137.77C153.229 137.803 153.108 137.854 152.999 137.92C152.89 137.987 152.798 138.075 152.723 138.184C152.656 138.284 152.623 138.401 152.623 138.535C152.623 138.66 152.661 138.769 152.736 138.861C152.819 138.944 152.928 139.02 153.062 139.086C153.204 139.153 153.363 139.212 153.538 139.262C153.722 139.312 153.91 139.354 154.102 139.387C154.361 139.437 154.608 139.504 154.842 139.588C155.076 139.663 155.281 139.768 155.456 139.901C155.632 140.035 155.77 140.202 155.87 140.403C155.97 140.603 156.02 140.85 156.02 141.142C156.02 141.477 155.954 141.761 155.82 141.995C155.686 142.229 155.506 142.421 155.281 142.572C155.063 142.714 154.813 142.818 154.529 142.885C154.253 142.952 153.969 142.985 153.676 142.985C153.175 142.985 152.74 142.91 152.372 142.76C152.013 142.601 151.687 142.313 151.394 141.895L152.172 141.293ZM160.798 137.72C161.099 137.411 161.454 137.185 161.864 137.043C162.282 136.892 162.704 136.817 163.13 136.817C163.999 136.817 164.626 137.022 165.011 137.432C165.395 137.841 165.587 138.464 165.587 139.3V141.819C165.587 141.987 165.596 142.162 165.612 142.346C165.629 142.522 165.65 142.685 165.675 142.835H164.735C164.701 142.701 164.681 142.555 164.672 142.396C164.672 142.229 164.672 142.083 164.672 141.957H164.647C164.455 142.258 164.196 142.505 163.87 142.697C163.552 142.889 163.168 142.985 162.716 142.985C162.416 142.985 162.131 142.948 161.864 142.873C161.605 142.797 161.375 142.689 161.174 142.547C160.982 142.396 160.828 142.212 160.711 141.995C160.594 141.778 160.535 141.527 160.535 141.243C160.535 140.758 160.66 140.378 160.911 140.102C161.162 139.826 161.471 139.621 161.839 139.488C162.215 139.354 162.616 139.27 163.042 139.237C163.477 139.203 163.874 139.187 164.233 139.187H164.61V139.011C164.61 138.585 164.48 138.263 164.221 138.046C163.97 137.829 163.615 137.72 163.155 137.72C162.838 137.72 162.524 137.774 162.215 137.883C161.914 137.983 161.647 138.142 161.413 138.359L160.798 137.72ZM163.632 140.014C163.005 140.014 162.508 140.102 162.14 140.277C161.772 140.453 161.588 140.741 161.588 141.142C161.588 141.51 161.709 141.774 161.952 141.932C162.202 142.083 162.512 142.158 162.879 142.158C163.164 142.158 163.41 142.112 163.619 142.02C163.836 141.92 164.016 141.79 164.158 141.631C164.3 141.473 164.409 141.289 164.484 141.08C164.559 140.862 164.601 140.633 164.61 140.39V140.014H163.632ZM167.375 138.359C167.375 138.092 167.366 137.841 167.35 137.607C167.333 137.373 167.324 137.16 167.324 136.968H168.252C168.252 137.126 168.256 137.285 168.265 137.444C168.273 137.603 168.277 137.766 168.277 137.933H168.302C168.369 137.791 168.461 137.653 168.578 137.519C168.704 137.386 168.85 137.269 169.017 137.168C169.184 137.06 169.372 136.976 169.581 136.918C169.79 136.851 170.016 136.817 170.258 136.817C170.643 136.817 170.973 136.876 171.249 136.993C171.533 137.11 171.767 137.273 171.951 137.482C172.134 137.691 172.268 137.946 172.352 138.246C172.444 138.539 172.49 138.861 172.49 139.212V142.835H171.512V139.312C171.512 138.819 171.403 138.43 171.186 138.146C170.969 137.862 170.63 137.72 170.17 137.72C169.853 137.72 169.577 137.774 169.343 137.883C169.117 137.992 168.929 138.146 168.779 138.347C168.637 138.547 168.528 138.786 168.453 139.061C168.386 139.337 168.352 139.642 168.352 139.977V142.835H167.375V138.359ZM179.218 141.794H179.193C179.009 142.129 178.716 142.413 178.315 142.647C177.922 142.873 177.463 142.985 176.936 142.985C176.527 142.985 176.142 142.91 175.783 142.76C175.423 142.601 175.11 142.384 174.842 142.108C174.583 141.832 174.379 141.506 174.228 141.13C174.078 140.754 174.002 140.344 174.002 139.901C174.002 139.458 174.078 139.049 174.228 138.673C174.379 138.297 174.587 137.971 174.855 137.695C175.122 137.419 175.444 137.206 175.82 137.055C176.205 136.897 176.627 136.817 177.086 136.817C177.513 136.817 177.901 136.905 178.252 137.081C178.612 137.256 178.925 137.503 179.193 137.82H179.218V133.357H180.196V142.835H179.218V141.794ZM179.218 139.901C179.218 139.592 179.168 139.308 179.067 139.049C178.975 138.781 178.837 138.552 178.654 138.359C178.47 138.159 178.248 138.004 177.989 137.895C177.738 137.778 177.454 137.72 177.137 137.72C176.819 137.72 176.531 137.778 176.272 137.895C176.021 138.004 175.804 138.159 175.62 138.359C175.436 138.552 175.294 138.781 175.193 139.049C175.101 139.308 175.056 139.592 175.056 139.901C175.056 140.211 175.101 140.499 175.193 140.766C175.294 141.025 175.436 141.255 175.62 141.456C175.804 141.648 176.021 141.803 176.272 141.92C176.531 142.028 176.819 142.083 177.137 142.083C177.454 142.083 177.738 142.028 177.989 141.92C178.248 141.803 178.47 141.648 178.654 141.456C178.837 141.255 178.975 141.025 179.067 140.766C179.168 140.499 179.218 140.211 179.218 139.901ZM24.7121 163.435C24.5031 163.184 24.2775 163.004 24.0351 162.895C23.7927 162.778 23.5253 162.72 23.2327 162.72C22.9068 162.72 22.6184 162.778 22.3677 162.895C22.1169 163.004 21.908 163.159 21.7408 163.359C21.582 163.56 21.4608 163.794 21.3773 164.061C21.2937 164.32 21.2519 164.6 21.2519 164.901C21.2519 165.202 21.2979 165.486 21.3898 165.754C21.4901 166.013 21.6238 166.243 21.791 166.443C21.9665 166.644 22.1755 166.803 22.4178 166.92C22.6602 167.028 22.9318 167.083 23.2327 167.083C23.8763 167.083 24.3736 166.84 24.7246 166.356L25.4518 167.045C25.1676 167.371 24.8333 167.609 24.4488 167.76C24.0643 167.91 23.659 167.985 23.2327 167.985C22.7814 167.985 22.3677 167.91 21.9916 167.76C21.6155 167.609 21.2937 167.396 21.0262 167.12C20.7671 166.845 20.5624 166.519 20.4119 166.142C20.2698 165.766 20.1988 165.353 20.1988 164.901C20.1988 164.458 20.2698 164.049 20.4119 163.673C20.5624 163.297 20.7713 162.971 21.0388 162.695C21.3062 162.419 21.6238 162.206 21.9916 162.055C22.3677 161.897 22.7814 161.817 23.2327 161.817C23.6673 161.817 24.0769 161.892 24.4613 162.043C24.8542 162.193 25.1968 162.427 25.4894 162.745L24.7121 163.435ZM26.2469 164.901C26.2469 164.442 26.3263 164.024 26.4851 163.648C26.6439 163.272 26.8612 162.95 27.137 162.682C27.4128 162.406 27.7429 162.193 28.1274 162.043C28.5119 161.892 28.9298 161.817 29.3811 161.817C29.8324 161.817 30.2503 161.892 30.6348 162.043C31.0193 162.193 31.3494 162.406 31.6252 162.682C31.901 162.95 32.1183 163.272 32.2771 163.648C32.4359 164.024 32.5153 164.442 32.5153 164.901C32.5153 165.361 32.4359 165.779 32.2771 166.155C32.1183 166.531 31.901 166.857 31.6252 167.133C31.3494 167.4 31.0193 167.609 30.6348 167.76C30.2503 167.91 29.8324 167.985 29.3811 167.985C28.9298 167.985 28.5119 167.91 28.1274 167.76C27.7429 167.609 27.4128 167.4 27.137 167.133C26.8612 166.857 26.6439 166.531 26.4851 166.155C26.3263 165.779 26.2469 165.361 26.2469 164.901ZM27.3 164.901C27.3 165.211 27.3459 165.499 27.4379 165.766C27.5382 166.025 27.6803 166.255 27.8641 166.456C28.048 166.648 28.2653 166.803 28.5161 166.92C28.7752 167.028 29.0635 167.083 29.3811 167.083C29.6987 167.083 29.9829 167.028 30.2336 166.92C30.4927 166.803 30.7142 166.648 30.8981 166.456C31.0819 166.255 31.2199 166.025 31.3118 165.766C31.4121 165.499 31.4622 165.211 31.4622 164.901C31.4622 164.592 31.4121 164.308 31.3118 164.049C31.2199 163.781 31.0819 163.552 30.8981 163.359C30.7142 163.159 30.4927 163.004 30.2336 162.895C29.9829 162.778 29.6987 162.72 29.3811 162.72C29.0635 162.72 28.7752 162.778 28.5161 162.895C28.2653 163.004 28.048 163.159 27.8641 163.359C27.6803 163.552 27.5382 163.781 27.4379 164.049C27.3459 164.308 27.3 164.592 27.3 164.901ZM34.0292 163.359C34.0292 163.092 34.0208 162.841 34.0041 162.607C33.9874 162.373 33.979 162.16 33.979 161.968H34.9067C34.9067 162.126 34.9109 162.285 34.9193 162.444C34.9276 162.603 34.9318 162.766 34.9318 162.933H34.9569C35.0238 162.791 35.1157 162.653 35.2327 162.519C35.3581 162.386 35.5043 162.269 35.6715 162.168C35.8387 162.06 36.0267 161.976 36.2357 161.918C36.4446 161.851 36.6703 161.817 36.9127 161.817C37.2971 161.817 37.6273 161.876 37.9031 161.993C38.1872 162.11 38.4213 162.273 38.6051 162.482C38.789 162.691 38.9227 162.946 39.0063 163.246C39.0983 163.539 39.1442 163.861 39.1442 164.212V167.835H38.1663V164.312C38.1663 163.819 38.0577 163.43 37.8404 163.146C37.6231 162.862 37.2846 162.72 36.8249 162.72C36.5073 162.72 36.2315 162.774 35.9975 162.883C35.7718 162.992 35.5837 163.146 35.4333 163.347C35.2912 163.547 35.1826 163.786 35.1073 164.061C35.0405 164.337 35.007 164.642 35.007 164.977V167.835H34.0292V163.359ZM43.6658 167.835H42.5877L40.1931 161.968H41.334L43.1644 166.569H43.1894L44.9321 161.968H45.9852L43.6658 167.835ZM52.284 166.769C51.9329 167.221 51.5485 167.538 51.1306 167.722C50.7127 167.898 50.2279 167.985 49.6763 167.985C49.2166 167.985 48.8029 167.906 48.4351 167.747C48.0674 167.58 47.754 167.359 47.4949 167.083C47.2441 166.807 47.0477 166.481 46.9056 166.105C46.7719 165.729 46.7051 165.328 46.7051 164.901C46.7051 164.45 46.7803 164.036 46.9307 163.66C47.0812 163.276 47.2901 162.95 47.5576 162.682C47.825 162.406 48.1426 162.193 48.5104 162.043C48.8781 161.892 49.2793 161.817 49.7139 161.817C50.1234 161.817 50.4996 161.888 50.8422 162.03C51.1849 162.164 51.4774 162.365 51.7198 162.632C51.9706 162.891 52.1628 163.213 52.2965 163.597C52.4302 163.974 52.4971 164.404 52.4971 164.889V165.202H47.7582C47.7749 165.453 47.8334 165.695 47.9337 165.929C48.0423 166.155 48.1802 166.356 48.3474 166.531C48.5145 166.698 48.711 166.832 48.9366 166.932C49.1623 167.033 49.4088 167.083 49.6763 167.083C50.1026 167.083 50.4619 167.008 50.7545 166.857C51.047 166.707 51.3103 166.485 51.5443 166.193L52.284 166.769ZM51.444 164.375C51.4273 163.873 51.2643 163.472 50.9551 163.171C50.6458 162.87 50.2196 162.72 49.6763 162.72C49.133 162.72 48.6942 162.87 48.3599 163.171C48.0256 163.472 47.825 163.873 47.7582 164.375H51.444ZM54.0099 163.359C54.0099 163.092 54.0015 162.841 53.9848 162.607C53.9681 162.373 53.9597 162.16 53.9597 161.968H54.8874C54.8874 162.126 54.8916 162.285 54.9 162.444C54.9083 162.603 54.9125 162.766 54.9125 162.933H54.9376C55.0045 162.791 55.0964 162.653 55.2134 162.519C55.3388 162.386 55.485 162.269 55.6522 162.168C55.8194 162.06 56.0074 161.976 56.2164 161.918C56.4253 161.851 56.651 161.817 56.8933 161.817C57.2778 161.817 57.608 161.876 57.8838 161.993C58.1679 162.11 58.402 162.273 58.5858 162.482C58.7697 162.691 58.9034 162.946 58.987 163.246C59.0789 163.539 59.1249 163.861 59.1249 164.212V167.835H58.147V164.312C58.147 163.819 58.0384 163.43 57.8211 163.146C57.6038 162.862 57.2653 162.72 56.8056 162.72C56.488 162.72 56.2122 162.774 55.9782 162.883C55.7525 162.992 55.5644 163.146 55.414 163.347C55.2719 163.547 55.1633 163.786 55.088 164.061C55.0212 164.337 54.9877 164.642 54.9877 164.977V167.835H54.0099V163.359ZM61.0639 161.968H62.0418V167.835H61.0639V161.968ZM60.8383 159.673C60.8383 159.481 60.9051 159.314 61.0389 159.172C61.1809 159.03 61.3523 158.959 61.5529 158.959C61.7535 158.959 61.9206 159.03 62.0543 159.172C62.1964 159.314 62.2675 159.481 62.2675 159.673C62.2675 159.882 62.2006 160.054 62.0669 160.187C61.9332 160.321 61.7618 160.388 61.5529 160.388C61.3439 160.388 61.1726 160.321 61.0389 160.187C60.9051 160.054 60.8383 159.882 60.8383 159.673ZM69.2284 166.769C68.8774 167.221 68.4929 167.538 68.075 167.722C67.6571 167.898 67.1723 167.985 66.6207 167.985C66.161 167.985 65.7473 167.906 65.3796 167.747C65.0118 167.58 64.6984 167.359 64.4393 167.083C64.1886 166.807 63.9921 166.481 63.8501 166.105C63.7163 165.729 63.6495 165.328 63.6495 164.901C63.6495 164.45 63.7247 164.036 63.8751 163.66C64.0256 163.276 64.2345 162.95 64.502 162.682C64.7694 162.406 65.087 162.193 65.4548 162.043C65.8225 161.892 66.2237 161.817 66.6583 161.817C67.0679 161.817 67.444 161.888 67.7866 162.03C68.1293 162.164 68.4219 162.365 68.6642 162.632C68.915 162.891 69.1072 163.213 69.2409 163.597C69.3747 163.974 69.4415 164.404 69.4415 164.889V165.202H64.7026C64.7193 165.453 64.7778 165.695 64.8781 165.929C64.9867 166.155 65.1246 166.356 65.2918 166.531C65.459 166.698 65.6554 166.832 65.881 166.932C66.1067 167.033 66.3533 167.083 66.6207 167.083C67.047 167.083 67.4064 167.008 67.6989 166.857C67.9914 166.707 68.2547 166.485 68.4887 166.193L69.2284 166.769ZM68.3884 164.375C68.3717 163.873 68.2087 163.472 67.8995 163.171C67.5902 162.87 67.164 162.72 66.6207 162.72C66.0774 162.72 65.6387 162.87 65.3043 163.171C64.97 163.472 64.7694 163.873 64.7026 164.375H68.3884ZM70.9543 163.359C70.9543 163.092 70.9459 162.841 70.9292 162.607C70.9125 162.373 70.9041 162.16 70.9041 161.968H71.8319C71.8319 162.126 71.836 162.285 71.8444 162.444C71.8528 162.603 71.8569 162.766 71.8569 162.933H71.882C71.9489 162.791 72.0408 162.653 72.1578 162.519C72.2832 162.386 72.4294 162.269 72.5966 162.168C72.7638 162.06 72.9518 161.976 73.1608 161.918C73.3697 161.851 73.5954 161.817 73.8378 161.817C74.2222 161.817 74.5524 161.876 74.8282 161.993C75.1123 162.11 75.3464 162.273 75.5302 162.482C75.7141 162.691 75.8478 162.946 75.9314 163.246C76.0234 163.539 76.0693 163.861 76.0693 164.212V167.835H75.0915V164.312C75.0915 163.819 74.9828 163.43 74.7655 163.146C74.5482 162.862 74.2097 162.72 73.75 162.72C73.4324 162.72 73.1566 162.774 72.9226 162.883C72.6969 162.992 72.5089 163.146 72.3584 163.347C72.2163 163.547 72.1077 163.786 72.0324 164.061C71.9656 164.337 71.9322 164.642 71.9322 164.977V167.835H70.9543V163.359ZM82.0954 163.435C81.8864 163.184 81.6608 163.004 81.4184 162.895C81.176 162.778 80.9085 162.72 80.616 162.72C80.2901 162.72 80.0017 162.778 79.751 162.895C79.5002 163.004 79.2913 163.159 79.1241 163.359C78.9653 163.56 78.8441 163.794 78.7606 164.061C78.677 164.32 78.6352 164.6 78.6352 164.901C78.6352 165.202 78.6812 165.486 78.7731 165.754C78.8734 166.013 79.0071 166.243 79.1743 166.443C79.3498 166.644 79.5587 166.803 79.8011 166.92C80.0435 167.028 80.3151 167.083 80.616 167.083C81.2596 167.083 81.7569 166.84 82.1079 166.356L82.8351 167.045C82.5509 167.371 82.2166 167.609 81.8321 167.76C81.4476 167.91 81.0423 167.985 80.616 167.985C80.1647 167.985 79.751 167.91 79.3749 167.76C78.9988 167.609 78.677 167.396 78.4095 167.12C78.1504 166.845 77.9457 166.519 77.7952 166.142C77.6531 165.766 77.5821 165.353 77.5821 164.901C77.5821 164.458 77.6531 164.049 77.7952 163.673C77.9457 163.297 78.1546 162.971 78.4221 162.695C78.6895 162.419 79.0071 162.206 79.3749 162.055C79.751 161.897 80.1647 161.817 80.616 161.817C81.0506 161.817 81.4602 161.892 81.8446 162.043C82.2375 162.193 82.5801 162.427 82.8727 162.745L82.0954 163.435ZM89.2091 166.769C88.858 167.221 88.4736 167.538 88.0557 167.722C87.6378 167.898 87.153 167.985 86.6014 167.985C86.1417 167.985 85.728 167.906 85.3603 167.747C84.9925 167.58 84.6791 167.359 84.42 167.083C84.1692 166.807 83.9728 166.481 83.8307 166.105C83.697 165.729 83.6302 165.328 83.6302 164.901C83.6302 164.45 83.7054 164.036 83.8558 163.66C84.0063 163.276 84.2152 162.95 84.4827 162.682C84.7501 162.406 85.0677 162.193 85.4355 162.043C85.8032 161.892 86.2044 161.817 86.639 161.817C87.0486 161.817 87.4247 161.888 87.7673 162.03C88.11 162.164 88.4025 162.365 88.6449 162.632C88.8957 162.891 89.0879 163.213 89.2216 163.597C89.3553 163.974 89.4222 164.404 89.4222 164.889V165.202H84.6833C84.7 165.453 84.7585 165.695 84.8588 165.929C84.9674 166.155 85.1053 166.356 85.2725 166.531C85.4397 166.698 85.6361 166.832 85.8617 166.932C86.0874 167.033 86.334 167.083 86.6014 167.083C87.0277 167.083 87.3871 167.008 87.6796 166.857C87.9721 166.707 88.2354 166.485 88.4694 166.193L89.2091 166.769ZM88.3691 164.375C88.3524 163.873 88.1894 163.472 87.8802 163.171C87.5709 162.87 87.1447 162.72 86.6014 162.72C86.0581 162.72 85.6193 162.87 85.285 163.171C84.9507 163.472 84.7501 163.873 84.6833 164.375H88.3691ZM97.6337 162.795H95.9036V165.729C95.9036 165.921 95.9078 166.101 95.9161 166.268C95.9245 166.427 95.9579 166.569 96.0164 166.694C96.0749 166.811 96.1627 166.907 96.2797 166.982C96.3967 167.049 96.5639 167.083 96.7812 167.083C96.9233 167.083 97.0695 167.066 97.22 167.033C97.3704 166.999 97.5125 166.949 97.6462 166.882L97.6838 167.772C97.5167 167.847 97.3286 167.902 97.1197 167.935C96.9191 167.969 96.7269 167.985 96.543 167.985C96.1919 167.985 95.912 167.939 95.703 167.847C95.4941 167.756 95.3311 167.626 95.2141 167.459C95.0971 167.292 95.0177 167.087 94.9759 166.845C94.9424 166.594 94.9257 166.318 94.9257 166.017V162.795H93.647V161.968H94.9257V160.3H95.9036V161.968H97.6337V162.795ZM98.844 158.357H99.8219V162.783H99.8469C99.9138 162.666 100.006 162.553 100.123 162.444C100.24 162.327 100.378 162.223 100.536 162.131C100.704 162.039 100.888 161.964 101.088 161.905C101.289 161.846 101.502 161.817 101.727 161.817C102.112 161.817 102.442 161.876 102.718 161.993C103.002 162.11 103.236 162.273 103.42 162.482C103.604 162.691 103.738 162.946 103.821 163.246C103.913 163.539 103.959 163.861 103.959 164.212V167.835H102.981V164.312C102.981 163.819 102.873 163.43 102.655 163.146C102.438 162.862 102.099 162.72 101.64 162.72C101.322 162.72 101.046 162.774 100.812 162.883C100.587 162.992 100.399 163.146 100.248 163.347C100.106 163.547 99.9974 163.786 99.9222 164.061C99.8553 164.337 99.8219 164.642 99.8219 164.977V167.835H98.844V158.357ZM105.81 163.359C105.81 163.092 105.802 162.841 105.785 162.607C105.769 162.373 105.76 162.16 105.76 161.968H106.688C106.688 162.126 106.692 162.285 106.7 162.444C106.709 162.603 106.713 162.766 106.713 162.933H106.738C106.805 162.791 106.897 162.653 107.014 162.519C107.139 162.386 107.285 162.269 107.453 162.168C107.62 162.06 107.808 161.976 108.017 161.918C108.226 161.851 108.451 161.817 108.694 161.817C108.761 161.817 108.828 161.821 108.894 161.83C108.961 161.838 109.028 161.855 109.095 161.88L109.032 162.87C108.865 162.82 108.69 162.795 108.506 162.795C107.904 162.795 107.465 162.992 107.189 163.384C106.922 163.769 106.788 164.3 106.788 164.977V167.835H105.81V163.359ZM109.659 164.901C109.659 164.442 109.738 164.024 109.897 163.648C110.056 163.272 110.273 162.95 110.549 162.682C110.825 162.406 111.155 162.193 111.539 162.043C111.924 161.892 112.342 161.817 112.793 161.817C113.244 161.817 113.662 161.892 114.047 162.043C114.431 162.193 114.761 162.406 115.037 162.682C115.313 162.95 115.53 163.272 115.689 163.648C115.848 164.024 115.927 164.442 115.927 164.901C115.927 165.361 115.848 165.779 115.689 166.155C115.53 166.531 115.313 166.857 115.037 167.133C114.761 167.4 114.431 167.609 114.047 167.76C113.662 167.91 113.244 167.985 112.793 167.985C112.342 167.985 111.924 167.91 111.539 167.76C111.155 167.609 110.825 167.4 110.549 167.133C110.273 166.857 110.056 166.531 109.897 166.155C109.738 165.779 109.659 165.361 109.659 164.901ZM110.712 164.901C110.712 165.211 110.758 165.499 110.85 165.766C110.95 166.025 111.092 166.255 111.276 166.456C111.46 166.648 111.677 166.803 111.928 166.92C112.187 167.028 112.476 167.083 112.793 167.083C113.111 167.083 113.395 167.028 113.646 166.92C113.905 166.803 114.126 166.648 114.31 166.456C114.494 166.255 114.632 166.025 114.724 165.766C114.824 165.499 114.874 165.211 114.874 164.901C114.874 164.592 114.824 164.308 114.724 164.049C114.632 163.781 114.494 163.552 114.31 163.359C114.126 163.159 113.905 163.004 113.646 162.895C113.395 162.778 113.111 162.72 112.793 162.72C112.476 162.72 112.187 162.778 111.928 162.895C111.677 163.004 111.46 163.159 111.276 163.359C111.092 163.552 110.95 163.781 110.85 164.049C110.758 164.308 110.712 164.592 110.712 164.901ZM122.556 166.443C122.556 166.711 122.565 166.962 122.581 167.196C122.598 167.43 122.606 167.643 122.606 167.835H121.679C121.679 167.676 121.675 167.517 121.666 167.359C121.658 167.2 121.654 167.037 121.654 166.87H121.629C121.562 167.012 121.466 167.15 121.34 167.283C121.223 167.417 121.081 167.538 120.914 167.647C120.747 167.747 120.559 167.827 120.35 167.885C120.141 167.952 119.915 167.985 119.673 167.985C119.288 167.985 118.954 167.927 118.67 167.81C118.394 167.693 118.164 167.53 117.98 167.321C117.796 167.112 117.659 166.861 117.567 166.569C117.483 166.268 117.441 165.942 117.441 165.591V161.968H118.419V165.491C118.419 165.984 118.528 166.372 118.745 166.656C118.962 166.941 119.301 167.083 119.761 167.083C120.078 167.083 120.35 167.028 120.575 166.92C120.809 166.811 120.998 166.656 121.14 166.456C121.29 166.255 121.399 166.017 121.466 165.741C121.541 165.465 121.578 165.16 121.578 164.826V161.968H122.556V166.443ZM130.262 167.572C130.262 168.642 129.986 169.452 129.435 170.004C128.892 170.564 128.102 170.844 127.065 170.844C126.489 170.844 125.966 170.76 125.498 170.593C125.039 170.426 124.6 170.138 124.182 169.728L124.884 168.926C125.193 169.26 125.519 169.511 125.862 169.678C126.213 169.853 126.614 169.941 127.065 169.941C127.5 169.941 127.859 169.874 128.144 169.741C128.436 169.615 128.666 169.44 128.833 169.214C129 168.997 129.117 168.746 129.184 168.462C129.251 168.178 129.284 167.881 129.284 167.572V166.819H129.259C129.025 167.196 128.72 167.471 128.344 167.647C127.968 167.822 127.584 167.91 127.191 167.91C126.731 167.91 126.309 167.835 125.924 167.685C125.54 167.534 125.21 167.325 124.934 167.058C124.658 166.79 124.445 166.473 124.295 166.105C124.144 165.737 124.069 165.336 124.069 164.901C124.069 164.425 124.144 163.994 124.295 163.61C124.445 163.226 124.654 162.904 124.922 162.645C125.197 162.377 125.527 162.172 125.912 162.03C126.296 161.888 126.723 161.817 127.191 161.817C127.391 161.817 127.592 161.842 127.792 161.892C127.993 161.934 128.185 162.005 128.369 162.106C128.561 162.198 128.733 162.319 128.883 162.469C129.034 162.611 129.159 162.778 129.259 162.971H129.284V161.968H130.262V167.572ZM125.122 164.901C125.122 165.202 125.176 165.482 125.285 165.741C125.394 165.992 125.54 166.214 125.724 166.406C125.916 166.59 126.138 166.736 126.388 166.845C126.639 166.953 126.907 167.008 127.191 167.008C127.525 167.008 127.822 166.949 128.081 166.832C128.34 166.715 128.557 166.56 128.733 166.368C128.917 166.168 129.055 165.942 129.146 165.691C129.238 165.432 129.284 165.16 129.284 164.876C129.284 164.559 129.234 164.27 129.134 164.011C129.034 163.744 128.892 163.514 128.708 163.322C128.524 163.129 128.302 162.983 128.043 162.883C127.784 162.774 127.5 162.72 127.191 162.72C126.881 162.72 126.597 162.778 126.338 162.895C126.087 163.004 125.87 163.159 125.686 163.359C125.511 163.552 125.373 163.781 125.273 164.049C125.172 164.308 125.122 164.592 125.122 164.901ZM132.072 158.357H133.05V162.783H133.075C133.141 162.666 133.233 162.553 133.35 162.444C133.467 162.327 133.605 162.223 133.764 162.131C133.931 162.039 134.115 161.964 134.316 161.905C134.516 161.846 134.73 161.817 134.955 161.817C135.34 161.817 135.67 161.876 135.946 161.993C136.23 162.11 136.464 162.273 136.648 162.482C136.832 162.691 136.965 162.946 137.049 163.246C137.141 163.539 137.187 163.861 137.187 164.212V167.835H136.209V164.312C136.209 163.819 136.1 163.43 135.883 163.146C135.666 162.862 135.327 162.72 134.867 162.72C134.55 162.72 134.274 162.774 134.04 162.883C133.814 162.992 133.626 163.146 133.476 163.347C133.334 163.547 133.225 163.786 133.15 164.061C133.083 164.337 133.05 164.642 133.05 164.977V167.835H132.072V158.357ZM145.737 162.795H144.007V165.729C144.007 165.921 144.011 166.101 144.019 166.268C144.028 166.427 144.061 166.569 144.119 166.694C144.178 166.811 144.266 166.907 144.383 166.982C144.5 167.049 144.667 167.083 144.884 167.083C145.026 167.083 145.173 167.066 145.323 167.033C145.473 166.999 145.616 166.949 145.749 166.882L145.787 167.772C145.62 167.847 145.432 167.902 145.223 167.935C145.022 167.969 144.83 167.985 144.646 167.985C144.295 167.985 144.015 167.939 143.806 167.847C143.597 167.756 143.434 167.626 143.317 167.459C143.2 167.292 143.121 167.087 143.079 166.845C143.045 166.594 143.029 166.318 143.029 166.017V162.795H141.75V161.968H143.029V160.3H144.007V161.968H145.737V162.795ZM146.947 158.357H147.925V162.783H147.95C148.017 162.666 148.109 162.553 148.226 162.444C148.343 162.327 148.481 162.223 148.64 162.131C148.807 162.039 148.991 161.964 149.191 161.905C149.392 161.846 149.605 161.817 149.831 161.817C150.215 161.817 150.545 161.876 150.821 161.993C151.105 162.11 151.339 162.273 151.523 162.482C151.707 162.691 151.841 162.946 151.924 163.246C152.016 163.539 152.062 163.861 152.062 164.212V167.835H151.084V164.312C151.084 163.819 150.976 163.43 150.758 163.146C150.541 162.862 150.202 162.72 149.743 162.72C149.425 162.72 149.149 162.774 148.915 162.883C148.69 162.992 148.502 163.146 148.351 163.347C148.209 163.547 148.1 163.786 148.025 164.061C147.958 164.337 147.925 164.642 147.925 164.977V167.835H146.947V158.357ZM159.154 166.769C158.803 167.221 158.418 167.538 158 167.722C157.582 167.898 157.098 167.985 156.546 167.985C156.086 167.985 155.673 167.906 155.305 167.747C154.937 167.58 154.624 167.359 154.365 167.083C154.114 166.807 153.918 166.481 153.775 166.105C153.642 165.729 153.575 165.328 153.575 164.901C153.575 164.45 153.65 164.036 153.8 163.66C153.951 163.276 154.16 162.95 154.427 162.682C154.695 162.406 155.012 162.193 155.38 162.043C155.748 161.892 156.149 161.817 156.584 161.817C156.993 161.817 157.369 161.888 157.712 162.03C158.055 162.164 158.347 162.365 158.59 162.632C158.84 162.891 159.033 163.213 159.166 163.597C159.3 163.974 159.367 164.404 159.367 164.889V165.202H154.628C154.645 165.453 154.703 165.695 154.803 165.929C154.912 166.155 155.05 166.356 155.217 166.531C155.384 166.698 155.581 166.832 155.806 166.932C156.032 167.033 156.279 167.083 156.546 167.083C156.972 167.083 157.332 167.008 157.624 166.857C157.917 166.707 158.18 166.485 158.414 166.193L159.154 166.769ZM158.314 164.375C158.297 163.873 158.134 163.472 157.825 163.171C157.516 162.87 157.089 162.72 156.546 162.72C156.003 162.72 155.564 162.87 155.23 163.171C154.895 163.472 154.695 163.873 154.628 164.375H158.314ZM169.484 166.443C169.484 166.711 169.492 166.962 169.509 167.196C169.526 167.43 169.534 167.643 169.534 167.835H168.606C168.606 167.676 168.602 167.517 168.594 167.359C168.586 167.2 168.581 167.037 168.581 166.87H168.556C168.489 167.012 168.393 167.15 168.268 167.283C168.151 167.417 168.009 167.538 167.842 167.647C167.674 167.747 167.486 167.827 167.277 167.885C167.069 167.952 166.843 167.985 166.6 167.985C166.216 167.985 165.882 167.927 165.598 167.81C165.322 167.693 165.092 167.53 164.908 167.321C164.724 167.112 164.586 166.861 164.494 166.569C164.411 166.268 164.369 165.942 164.369 165.591V161.968H165.347V165.491C165.347 165.984 165.455 166.372 165.673 166.656C165.89 166.941 166.229 167.083 166.688 167.083C167.006 167.083 167.277 167.028 167.503 166.92C167.737 166.811 167.925 166.656 168.067 166.456C168.218 166.255 168.326 166.017 168.393 165.741C168.468 165.465 168.506 165.16 168.506 164.826V161.968H169.484V166.443ZM171.461 166.293C171.653 166.535 171.862 166.728 172.087 166.87C172.321 167.012 172.614 167.083 172.965 167.083C173.115 167.083 173.266 167.066 173.416 167.033C173.575 166.999 173.717 166.945 173.843 166.87C173.968 166.794 174.068 166.702 174.143 166.594C174.219 166.477 174.256 166.339 174.256 166.18C174.256 166.021 174.219 165.892 174.143 165.791C174.077 165.691 173.985 165.608 173.868 165.541C173.751 165.465 173.617 165.407 173.467 165.365C173.316 165.323 173.161 165.286 173.003 165.252C172.727 165.194 172.464 165.127 172.213 165.052C171.962 164.977 171.741 164.88 171.548 164.763C171.364 164.638 171.214 164.479 171.097 164.287C170.988 164.095 170.934 163.848 170.934 163.547C170.934 163.263 170.997 163.012 171.122 162.795C171.247 162.578 171.415 162.398 171.624 162.256C171.833 162.114 172.067 162.005 172.326 161.93C172.585 161.855 172.852 161.817 173.128 161.817C173.546 161.817 173.93 161.901 174.281 162.068C174.641 162.235 174.921 162.507 175.121 162.883L174.306 163.422C174.181 163.213 174.014 163.046 173.805 162.92C173.604 162.787 173.358 162.72 173.065 162.72C172.932 162.72 172.794 162.737 172.652 162.77C172.518 162.803 172.397 162.854 172.288 162.92C172.179 162.987 172.087 163.075 172.012 163.184C171.945 163.284 171.912 163.401 171.912 163.535C171.912 163.66 171.95 163.769 172.025 163.861C172.108 163.944 172.217 164.02 172.351 164.086C172.493 164.153 172.652 164.212 172.827 164.262C173.011 164.312 173.199 164.354 173.391 164.387C173.65 164.437 173.897 164.504 174.131 164.588C174.365 164.663 174.57 164.768 174.745 164.901C174.921 165.035 175.059 165.202 175.159 165.403C175.259 165.603 175.309 165.85 175.309 166.142C175.309 166.477 175.243 166.761 175.109 166.995C174.975 167.229 174.795 167.421 174.57 167.572C174.352 167.714 174.102 167.818 173.818 167.885C173.542 167.952 173.258 167.985 172.965 167.985C172.464 167.985 172.029 167.91 171.661 167.76C171.302 167.601 170.976 167.313 170.683 166.895L171.461 166.293ZM181.914 166.769C181.563 167.221 181.178 167.538 180.76 167.722C180.342 167.898 179.858 167.985 179.306 167.985C178.846 167.985 178.433 167.906 178.065 167.747C177.697 167.58 177.384 167.359 177.125 167.083C176.874 166.807 176.677 166.481 176.535 166.105C176.402 165.729 176.335 165.328 176.335 164.901C176.335 164.45 176.41 164.036 176.56 163.66C176.711 163.276 176.92 162.95 177.187 162.682C177.455 162.406 177.772 162.193 178.14 162.043C178.508 161.892 178.909 161.817 179.344 161.817C179.753 161.817 180.129 161.888 180.472 162.03C180.815 162.164 181.107 162.365 181.349 162.632C181.6 162.891 181.792 163.213 181.926 163.597C182.06 163.974 182.127 164.404 182.127 164.889V165.202H177.388C177.405 165.453 177.463 165.695 177.563 165.929C177.672 166.155 177.81 166.356 177.977 166.531C178.144 166.698 178.341 166.832 178.566 166.932C178.792 167.033 179.039 167.083 179.306 167.083C179.732 167.083 180.092 167.008 180.384 166.857C180.677 166.707 180.94 166.485 181.174 166.193L181.914 166.769ZM181.074 164.375C181.057 163.873 180.894 163.472 180.585 163.171C180.275 162.87 179.849 162.72 179.306 162.72C178.763 162.72 178.324 162.87 177.99 163.171C177.655 163.472 177.455 163.873 177.388 164.375H181.074ZM186.79 164.901C186.79 164.442 186.87 164.024 187.028 163.648C187.187 163.272 187.405 162.95 187.68 162.682C187.956 162.406 188.286 162.193 188.671 162.043C189.055 161.892 189.473 161.817 189.925 161.817C190.376 161.817 190.794 161.892 191.178 162.043C191.563 162.193 191.893 162.406 192.169 162.682C192.444 162.95 192.662 163.272 192.821 163.648C192.979 164.024 193.059 164.442 193.059 164.901C193.059 165.361 192.979 165.779 192.821 166.155C192.662 166.531 192.444 166.857 192.169 167.133C191.893 167.4 191.563 167.609 191.178 167.76C190.794 167.91 190.376 167.985 189.925 167.985C189.473 167.985 189.055 167.91 188.671 167.76C188.286 167.609 187.956 167.4 187.68 167.133C187.405 166.857 187.187 166.531 187.028 166.155C186.87 165.779 186.79 165.361 186.79 164.901ZM187.843 164.901C187.843 165.211 187.889 165.499 187.981 165.766C188.082 166.025 188.224 166.255 188.408 166.456C188.591 166.648 188.809 166.803 189.059 166.92C189.319 167.028 189.607 167.083 189.925 167.083C190.242 167.083 190.526 167.028 190.777 166.92C191.036 166.803 191.258 166.648 191.441 166.456C191.625 166.255 191.763 166.025 191.855 165.766C191.955 165.499 192.006 165.211 192.006 164.901C192.006 164.592 191.955 164.308 191.855 164.049C191.763 163.781 191.625 163.552 191.441 163.359C191.258 163.159 191.036 163.004 190.777 162.895C190.526 162.778 190.242 162.72 189.925 162.72C189.607 162.72 189.319 162.778 189.059 162.895C188.809 163.004 188.591 163.159 188.408 163.359C188.224 163.552 188.082 163.781 187.981 164.049C187.889 164.308 187.843 164.592 187.843 164.901ZM195.074 162.795H193.795V161.968H195.074V160.651C195.074 160.292 195.107 159.966 195.174 159.673C195.241 159.373 195.354 159.113 195.513 158.896C195.68 158.679 195.897 158.512 196.165 158.395C196.432 158.269 196.762 158.207 197.155 158.207C197.281 158.207 197.414 158.219 197.556 158.244C197.698 158.269 197.815 158.307 197.907 158.357L197.769 159.235C197.535 159.151 197.314 159.109 197.105 159.109C196.854 159.109 196.658 159.155 196.516 159.247C196.374 159.331 196.265 159.452 196.19 159.611C196.123 159.761 196.081 159.945 196.064 160.162C196.056 160.38 196.052 160.614 196.052 160.864V161.968H197.481V162.795H196.052V167.835H195.074V162.795ZM45.6539 188.435C45.4449 188.184 45.2192 188.004 44.9769 187.895C44.7345 187.778 44.467 187.72 44.1745 187.72C43.8485 187.72 43.5602 187.778 43.3095 187.895C43.0587 188.004 42.8498 188.159 42.6826 188.359C42.5238 188.56 42.4026 188.794 42.319 189.061C42.2355 189.32 42.1937 189.6 42.1937 189.901C42.1937 190.202 42.2396 190.486 42.3316 190.754C42.4319 191.013 42.5656 191.243 42.7328 191.443C42.9083 191.644 43.1172 191.803 43.3596 191.92C43.602 192.028 43.8736 192.083 44.1745 192.083C44.8181 192.083 45.3154 191.84 45.6664 191.356L46.3935 192.045C46.1094 192.371 45.775 192.609 45.3906 192.76C45.0061 192.91 44.6008 192.985 44.1745 192.985C43.7232 192.985 43.3095 192.91 42.9334 192.76C42.5572 192.609 42.2355 192.396 41.968 192.12C41.7089 191.845 41.5041 191.519 41.3537 191.142C41.2116 190.766 41.1406 190.353 41.1406 189.901C41.1406 189.458 41.2116 189.049 41.3537 188.673C41.5041 188.297 41.7131 187.971 41.9805 187.695C42.248 187.419 42.5656 187.206 42.9334 187.055C43.3095 186.897 43.7232 186.817 44.1745 186.817C44.6091 186.817 45.0187 186.892 45.4031 187.043C45.7959 187.193 46.1386 187.427 46.4311 187.745L45.6539 188.435ZM47.1886 189.901C47.1886 189.442 47.268 189.024 47.4269 188.648C47.5857 188.272 47.803 187.95 48.0788 187.682C48.3546 187.406 48.6847 187.193 49.0692 187.043C49.4537 186.892 49.8715 186.817 50.3229 186.817C50.7742 186.817 51.1921 186.892 51.5766 187.043C51.961 187.193 52.2912 187.406 52.567 187.682C52.8428 187.95 53.0601 188.272 53.2189 188.648C53.3777 189.024 53.4571 189.442 53.4571 189.901C53.4571 190.361 53.3777 190.779 53.2189 191.155C53.0601 191.531 52.8428 191.857 52.567 192.133C52.2912 192.4 51.961 192.609 51.5766 192.76C51.1921 192.91 50.7742 192.985 50.3229 192.985C49.8715 192.985 49.4537 192.91 49.0692 192.76C48.6847 192.609 48.3546 192.4 48.0788 192.133C47.803 191.857 47.5857 191.531 47.4269 191.155C47.268 190.779 47.1886 190.361 47.1886 189.901ZM48.2417 189.901C48.2417 190.211 48.2877 190.499 48.3797 190.766C48.48 191.025 48.622 191.255 48.8059 191.456C48.9898 191.648 49.2071 191.803 49.4578 191.92C49.7169 192.028 50.0053 192.083 50.3229 192.083C50.6405 192.083 50.9246 192.028 51.1754 191.92C51.4345 191.803 51.656 191.648 51.8398 191.456C52.0237 191.255 52.1616 191.025 52.2536 190.766C52.3539 190.499 52.404 190.211 52.404 189.901C52.404 189.592 52.3539 189.308 52.2536 189.049C52.1616 188.781 52.0237 188.552 51.8398 188.359C51.656 188.159 51.4345 188.004 51.1754 187.895C50.9246 187.778 50.6405 187.72 50.3229 187.72C50.0053 187.72 49.7169 187.778 49.4578 187.895C49.2071 188.004 48.9898 188.159 48.8059 188.359C48.622 188.552 48.48 188.781 48.3797 189.049C48.2877 189.308 48.2417 189.592 48.2417 189.901ZM54.9709 188.359C54.9709 188.092 54.9626 187.841 54.9459 187.607C54.9291 187.373 54.9208 187.16 54.9208 186.968H55.8485C55.8485 187.126 55.8527 187.285 55.8611 187.444C55.8694 187.603 55.8736 187.766 55.8736 187.933H55.8987C55.9655 187.791 56.0575 187.653 56.1745 187.519C56.2998 187.386 56.4461 187.269 56.6133 187.168C56.7804 187.06 56.9685 186.976 57.1774 186.918C57.3864 186.851 57.612 186.817 57.8544 186.817C58.172 186.817 58.4353 186.859 58.6443 186.943C58.8616 187.018 59.0413 187.114 59.1833 187.231C59.3254 187.34 59.4341 187.461 59.5093 187.595C59.5929 187.72 59.6597 187.833 59.7099 187.933C59.9272 187.582 60.1779 187.31 60.4621 187.118C60.7463 186.918 61.114 186.817 61.5653 186.817C61.9832 186.817 62.3343 186.876 62.6184 186.993C62.9026 187.101 63.1325 187.264 63.308 187.482C63.4835 187.691 63.6089 187.95 63.6841 188.259C63.7593 188.56 63.7969 188.898 63.7969 189.274V192.835H62.819V189.325C62.819 189.124 62.7981 188.928 62.7564 188.735C62.7146 188.543 62.6393 188.372 62.5307 188.221C62.422 188.071 62.2758 187.95 62.0919 187.858C61.908 187.766 61.674 187.72 61.3898 187.72C61.1809 187.72 60.9845 187.762 60.8006 187.845C60.6167 187.929 60.4537 188.046 60.3117 188.196C60.1779 188.347 60.0693 188.531 59.9857 188.748C59.9105 188.957 59.8729 189.191 59.8729 189.45V192.835H58.895V189.513C58.895 188.861 58.8072 188.401 58.6317 188.134C58.4562 187.858 58.1678 187.72 57.7667 187.72C57.4491 187.72 57.1733 187.774 56.9392 187.883C56.7136 187.992 56.5255 188.146 56.3751 188.347C56.233 188.547 56.1243 188.786 56.0491 189.061C55.9822 189.337 55.9488 189.642 55.9488 189.977V192.835H54.9709V188.359ZM65.6469 188.359C65.6469 188.092 65.6385 187.841 65.6218 187.607C65.6051 187.373 65.5967 187.16 65.5967 186.968H66.5245C66.5245 187.126 66.5287 187.285 66.537 187.444C66.5454 187.603 66.5496 187.766 66.5496 187.933H66.5746C66.6415 187.791 66.7334 187.653 66.8504 187.519C66.9758 187.386 67.1221 187.269 67.2892 187.168C67.4564 187.06 67.6444 186.976 67.8534 186.918C68.0623 186.851 68.288 186.817 68.5304 186.817C68.848 186.817 69.1113 186.859 69.3202 186.943C69.5375 187.018 69.7172 187.114 69.8593 187.231C70.0014 187.34 70.11 187.461 70.1853 187.595C70.2688 187.72 70.3357 187.833 70.3858 187.933C70.6032 187.582 70.8539 187.31 71.1381 187.118C71.4222 186.918 71.79 186.817 72.2413 186.817C72.6592 186.817 73.0102 186.876 73.2944 186.993C73.5786 187.101 73.8084 187.264 73.9839 187.482C74.1595 187.691 74.2848 187.95 74.36 188.259C74.4353 188.56 74.4729 188.898 74.4729 189.274V192.835H73.495V189.325C73.495 189.124 73.4741 188.928 73.4323 188.735C73.3905 188.543 73.3153 188.372 73.2066 188.221C73.098 188.071 72.9517 187.95 72.7679 187.858C72.584 187.766 72.35 187.72 72.0658 187.72C71.8568 187.72 71.6604 187.762 71.4766 187.845C71.2927 187.929 71.1297 188.046 70.9876 188.196C70.8539 188.347 70.7452 188.531 70.6617 188.748C70.5864 188.957 70.5488 189.191 70.5488 189.45V192.835H69.5709V189.513C69.5709 188.861 69.4832 188.401 69.3077 188.134C69.1322 187.858 68.8438 187.72 68.4426 187.72C68.125 187.72 67.8492 187.774 67.6152 187.883C67.3895 187.992 67.2015 188.146 67.051 188.347C66.9089 188.547 66.8003 188.786 66.7251 189.061C66.6582 189.337 66.6248 189.642 66.6248 189.977V192.835H65.6469V188.359ZM75.9844 189.901C75.9844 189.442 76.0638 189.024 76.2226 188.648C76.3814 188.272 76.5987 187.95 76.8745 187.682C77.1503 187.406 77.4804 187.193 77.8649 187.043C78.2494 186.892 78.6673 186.817 79.1186 186.817C79.5699 186.817 79.9878 186.892 80.3723 187.043C80.7567 187.193 81.0869 187.406 81.3627 187.682C81.6385 187.95 81.8558 188.272 82.0146 188.648C82.1734 189.024 82.2528 189.442 82.2528 189.901C82.2528 190.361 82.1734 190.779 82.0146 191.155C81.8558 191.531 81.6385 191.857 81.3627 192.133C81.0869 192.4 80.7567 192.609 80.3723 192.76C79.9878 192.91 79.5699 192.985 79.1186 192.985C78.6673 192.985 78.2494 192.91 77.8649 192.76C77.4804 192.609 77.1503 192.4 76.8745 192.133C76.5987 191.857 76.3814 191.531 76.2226 191.155C76.0638 190.779 75.9844 190.361 75.9844 189.901ZM77.0375 189.901C77.0375 190.211 77.0834 190.499 77.1754 190.766C77.2757 191.025 77.4177 191.255 77.6016 191.456C77.7855 191.648 78.0028 191.803 78.2535 191.92C78.5126 192.028 78.801 192.083 79.1186 192.083C79.4362 192.083 79.7204 192.028 79.9711 191.92C80.2302 191.803 80.4517 191.648 80.6356 191.456C80.8194 191.255 80.9573 191.025 81.0493 190.766C81.1496 190.499 81.1997 190.211 81.1997 189.901C81.1997 189.592 81.1496 189.308 81.0493 189.049C80.9573 188.781 80.8194 188.552 80.6356 188.359C80.4517 188.159 80.2302 188.004 79.9711 187.895C79.7204 187.778 79.4362 187.72 79.1186 187.72C78.801 187.72 78.5126 187.778 78.2535 187.895C78.0028 188.004 77.7855 188.159 77.6016 188.359C77.4177 188.552 77.2757 188.781 77.1754 189.049C77.0834 189.308 77.0375 189.592 77.0375 189.901ZM83.7666 188.359C83.7666 188.092 83.7583 187.841 83.7416 187.607C83.7249 187.373 83.7165 187.16 83.7165 186.968H84.6442C84.6442 187.126 84.6484 187.285 84.6568 187.444C84.6651 187.603 84.6693 187.766 84.6693 187.933H84.6944C84.7612 187.791 84.8532 187.653 84.9702 187.519C85.0956 187.386 85.2418 187.269 85.409 187.168C85.5761 187.06 85.7642 186.976 85.9731 186.918C86.1821 186.851 86.4078 186.817 86.6501 186.817C87.0346 186.817 87.3647 186.876 87.6405 186.993C87.9247 187.11 88.1587 187.273 88.3426 187.482C88.5265 187.691 88.6602 187.946 88.7438 188.246C88.8357 188.539 88.8817 188.861 88.8817 189.212V192.835H87.9038V189.312C87.9038 188.819 87.7952 188.43 87.5779 188.146C87.3606 187.862 87.0221 187.72 86.5624 187.72C86.2448 187.72 85.969 187.774 85.7349 187.883C85.5093 187.992 85.3212 188.146 85.1708 188.347C85.0287 188.547 84.92 188.786 84.8448 189.061C84.778 189.337 84.7445 189.642 84.7445 189.977V192.835H83.7666V188.359ZM94.31 186.968H95.2879V192.835H94.31V186.968ZM94.0843 184.673C94.0843 184.481 94.1512 184.314 94.2849 184.172C94.427 184.03 94.5983 183.959 94.7989 183.959C94.9995 183.959 95.1667 184.03 95.3004 184.172C95.4425 184.314 95.5135 184.481 95.5135 184.673C95.5135 184.882 95.4467 185.054 95.3129 185.187C95.1792 185.321 95.0079 185.388 94.7989 185.388C94.59 185.388 94.4186 185.321 94.2849 185.187C94.1512 185.054 94.0843 184.882 94.0843 184.673ZM97.234 188.359C97.234 188.092 97.2257 187.841 97.2089 187.607C97.1922 187.373 97.1839 187.16 97.1839 186.968H98.1116C98.1116 187.126 98.1158 187.285 98.1241 187.444C98.1325 187.603 98.1367 187.766 98.1367 187.933H98.1618C98.2286 187.791 98.3206 187.653 98.4376 187.519C98.5629 187.386 98.7092 187.269 98.8764 187.168C99.0435 187.06 99.2316 186.976 99.4405 186.918C99.6495 186.851 99.8751 186.817 100.118 186.817C100.502 186.817 100.832 186.876 101.108 186.993C101.392 187.11 101.626 187.273 101.81 187.482C101.994 187.691 102.128 187.946 102.211 188.246C102.303 188.539 102.349 188.861 102.349 189.212V192.835H101.371V189.312C101.371 188.819 101.263 188.43 101.045 188.146C100.828 187.862 100.489 187.72 100.03 187.72C99.7121 187.72 99.4363 187.774 99.2023 187.883C98.9767 187.992 98.7886 188.146 98.6382 188.347C98.4961 188.547 98.3874 188.786 98.3122 189.061C98.2453 189.337 98.2119 189.642 98.2119 189.977V192.835H97.234V188.359ZM104.702 187.795H103.423V186.968H104.702V185.651C104.702 185.292 104.735 184.966 104.802 184.673C104.869 184.373 104.982 184.113 105.141 183.896C105.308 183.679 105.525 183.512 105.793 183.395C106.06 183.269 106.39 183.207 106.783 183.207C106.908 183.207 107.042 183.219 107.184 183.244C107.326 183.269 107.443 183.307 107.535 183.357L107.397 184.235C107.163 184.151 106.942 184.109 106.733 184.109C106.482 184.109 106.286 184.155 106.144 184.247C106.001 184.331 105.893 184.452 105.818 184.611C105.751 184.761 105.709 184.945 105.692 185.162C105.684 185.38 105.68 185.614 105.68 185.864V186.968H107.109V187.795H105.68V192.835H104.702V187.795ZM108.155 188.359C108.155 188.092 108.146 187.841 108.13 187.607C108.113 187.373 108.105 187.16 108.105 186.968H109.032C109.032 187.126 109.037 187.285 109.045 187.444C109.053 187.603 109.058 187.766 109.058 187.933H109.083C109.149 187.791 109.241 187.653 109.358 187.519C109.484 187.386 109.63 187.269 109.797 187.168C109.964 187.06 110.152 186.976 110.361 186.918C110.57 186.851 110.796 186.817 111.038 186.817C111.105 186.817 111.172 186.821 111.239 186.83C111.306 186.838 111.373 186.855 111.44 186.88L111.377 187.87C111.21 187.82 111.034 187.795 110.85 187.795C110.249 187.795 109.81 187.992 109.534 188.384C109.266 188.769 109.133 189.3 109.133 189.977V192.835H108.155V188.359ZM112.487 187.72C112.788 187.411 113.143 187.185 113.553 187.043C113.971 186.892 114.393 186.817 114.819 186.817C115.688 186.817 116.315 187.022 116.7 187.432C117.084 187.841 117.276 188.464 117.276 189.3V191.819C117.276 191.987 117.285 192.162 117.301 192.346C117.318 192.522 117.339 192.685 117.364 192.835H116.424C116.39 192.701 116.369 192.555 116.361 192.396C116.361 192.229 116.361 192.083 116.361 191.957H116.336C116.144 192.258 115.885 192.505 115.559 192.697C115.241 192.889 114.857 192.985 114.405 192.985C114.104 192.985 113.82 192.948 113.553 192.873C113.294 192.797 113.064 192.689 112.863 192.547C112.671 192.396 112.516 192.212 112.399 191.995C112.282 191.778 112.224 191.527 112.224 191.243C112.224 190.758 112.349 190.378 112.6 190.102C112.851 189.826 113.16 189.621 113.528 189.488C113.904 189.354 114.305 189.27 114.731 189.237C115.166 189.203 115.563 189.187 115.922 189.187H116.298V189.011C116.298 188.585 116.169 188.263 115.91 188.046C115.659 187.829 115.304 187.72 114.844 187.72C114.526 187.72 114.213 187.774 113.904 187.883C113.603 187.983 113.335 188.142 113.101 188.359L112.487 187.72ZM115.32 190.014C114.694 190.014 114.196 190.102 113.829 190.277C113.461 190.453 113.277 190.741 113.277 191.142C113.277 191.51 113.398 191.774 113.641 191.932C113.891 192.083 114.201 192.158 114.568 192.158C114.852 192.158 115.099 192.112 115.308 192.02C115.525 191.92 115.705 191.79 115.847 191.631C115.989 191.473 116.098 191.289 116.173 191.08C116.248 190.862 116.29 190.633 116.298 190.39V190.014H115.32ZM119.189 191.293C119.381 191.535 119.59 191.728 119.816 191.87C120.05 192.012 120.342 192.083 120.693 192.083C120.844 192.083 120.994 192.066 121.145 192.033C121.303 191.999 121.445 191.945 121.571 191.87C121.696 191.794 121.796 191.702 121.872 191.594C121.947 191.477 121.985 191.339 121.985 191.18C121.985 191.021 121.947 190.892 121.872 190.791C121.805 190.691 121.713 190.608 121.596 190.541C121.479 190.465 121.345 190.407 121.195 190.365C121.044 190.323 120.89 190.286 120.731 190.252C120.455 190.194 120.192 190.127 119.941 190.052C119.69 189.977 119.469 189.88 119.277 189.763C119.093 189.638 118.942 189.479 118.825 189.287C118.717 189.095 118.662 188.848 118.662 188.547C118.662 188.263 118.725 188.012 118.85 187.795C118.976 187.578 119.143 187.398 119.352 187.256C119.561 187.114 119.795 187.005 120.054 186.93C120.313 186.855 120.58 186.817 120.856 186.817C121.274 186.817 121.659 186.901 122.01 187.068C122.369 187.235 122.649 187.507 122.85 187.883L122.035 188.422C121.909 188.213 121.742 188.046 121.533 187.92C121.333 187.787 121.086 187.72 120.794 187.72C120.66 187.72 120.522 187.737 120.38 187.77C120.246 187.803 120.125 187.854 120.016 187.92C119.908 187.987 119.816 188.075 119.74 188.184C119.674 188.284 119.64 188.401 119.64 188.535C119.64 188.66 119.678 188.769 119.753 188.861C119.837 188.944 119.945 189.02 120.079 189.086C120.221 189.153 120.38 189.212 120.555 189.262C120.739 189.312 120.927 189.354 121.119 189.387C121.379 189.437 121.625 189.504 121.859 189.588C122.093 189.663 122.298 189.768 122.473 189.901C122.649 190.035 122.787 190.202 122.887 190.403C122.987 190.603 123.038 190.85 123.038 191.142C123.038 191.477 122.971 191.761 122.837 191.995C122.703 192.229 122.524 192.421 122.298 192.572C122.081 192.714 121.83 192.818 121.546 192.885C121.27 192.952 120.986 192.985 120.693 192.985C120.192 192.985 119.757 192.91 119.389 192.76C119.03 192.601 118.704 192.313 118.412 191.895L119.189 191.293ZM127.611 187.795H125.881V190.729C125.881 190.921 125.885 191.101 125.893 191.268C125.902 191.427 125.935 191.569 125.994 191.694C126.052 191.811 126.14 191.907 126.257 191.982C126.374 192.049 126.541 192.083 126.758 192.083C126.9 192.083 127.047 192.066 127.197 192.033C127.348 191.999 127.49 191.949 127.623 191.882L127.661 192.772C127.494 192.847 127.306 192.902 127.097 192.935C126.896 192.969 126.704 192.985 126.52 192.985C126.169 192.985 125.889 192.939 125.68 192.847C125.471 192.756 125.308 192.626 125.191 192.459C125.074 192.292 124.995 192.087 124.953 191.845C124.92 191.594 124.903 191.318 124.903 191.017V187.795H123.624V186.968H124.903V185.3H125.881V186.968H127.611V187.795ZM128.809 188.359C128.809 188.092 128.801 187.841 128.784 187.607C128.767 187.373 128.759 187.16 128.759 186.968H129.686C129.686 187.126 129.691 187.285 129.699 187.444C129.707 187.603 129.712 187.766 129.712 187.933H129.737C129.804 187.791 129.895 187.653 130.012 187.519C130.138 187.386 130.284 187.269 130.451 187.168C130.618 187.06 130.806 186.976 131.015 186.918C131.224 186.851 131.45 186.817 131.692 186.817C131.759 186.817 131.826 186.821 131.893 186.83C131.96 186.838 132.027 186.855 132.094 186.88L132.031 187.87C131.864 187.82 131.688 187.795 131.504 187.795C130.903 187.795 130.464 187.992 130.188 188.384C129.921 188.769 129.787 189.3 129.787 189.977V192.835H128.809V188.359ZM138.331 191.443C138.331 191.711 138.34 191.962 138.357 192.196C138.373 192.43 138.382 192.643 138.382 192.835H137.454C137.454 192.676 137.45 192.517 137.441 192.359C137.433 192.2 137.429 192.037 137.429 191.87H137.404C137.337 192.012 137.241 192.15 137.115 192.283C136.998 192.417 136.856 192.538 136.689 192.647C136.522 192.747 136.334 192.827 136.125 192.885C135.916 192.952 135.69 192.985 135.448 192.985C135.064 192.985 134.729 192.927 134.445 192.81C134.169 192.693 133.939 192.53 133.756 192.321C133.572 192.112 133.434 191.861 133.342 191.569C133.258 191.268 133.216 190.942 133.216 190.591V186.968H134.194V190.491C134.194 190.984 134.303 191.372 134.52 191.656C134.738 191.941 135.076 192.083 135.536 192.083C135.853 192.083 136.125 192.028 136.351 191.92C136.585 191.811 136.773 191.656 136.915 191.456C137.065 191.255 137.174 191.017 137.241 190.741C137.316 190.465 137.354 190.16 137.354 189.826V186.968H138.331V191.443ZM144.358 188.435C144.149 188.184 143.923 188.004 143.681 187.895C143.438 187.778 143.171 187.72 142.878 187.72C142.552 187.72 142.264 187.778 142.013 187.895C141.762 188.004 141.553 188.159 141.386 188.359C141.227 188.56 141.106 188.794 141.023 189.061C140.939 189.32 140.897 189.6 140.897 189.901C140.897 190.202 140.943 190.486 141.035 190.754C141.136 191.013 141.269 191.243 141.436 191.443C141.612 191.644 141.821 191.803 142.063 191.92C142.306 192.028 142.577 192.083 142.878 192.083C143.522 192.083 144.019 191.84 144.37 191.356L145.097 192.045C144.813 192.371 144.479 192.609 144.094 192.76C143.71 192.91 143.304 192.985 142.878 192.985C142.427 192.985 142.013 192.91 141.637 192.76C141.261 192.609 140.939 192.396 140.672 192.12C140.413 191.845 140.208 191.519 140.057 191.142C139.915 190.766 139.844 190.353 139.844 189.901C139.844 189.458 139.915 189.049 140.057 188.673C140.208 188.297 140.417 187.971 140.684 187.695C140.952 187.419 141.269 187.206 141.637 187.055C142.013 186.897 142.427 186.817 142.878 186.817C143.313 186.817 143.722 186.892 144.107 187.043C144.5 187.193 144.842 187.427 145.135 187.745L144.358 188.435ZM149.44 187.795H147.71V190.729C147.71 190.921 147.714 191.101 147.723 191.268C147.731 191.427 147.764 191.569 147.823 191.694C147.881 191.811 147.969 191.907 148.086 191.982C148.203 192.049 148.37 192.083 148.588 192.083C148.73 192.083 148.876 192.066 149.027 192.033C149.177 191.999 149.319 191.949 149.453 191.882L149.49 192.772C149.323 192.847 149.135 192.902 148.926 192.935C148.726 192.969 148.533 192.985 148.35 192.985C147.999 192.985 147.719 192.939 147.51 192.847C147.301 192.756 147.138 192.626 147.021 192.459C146.904 192.292 146.824 192.087 146.782 191.845C146.749 191.594 146.732 191.318 146.732 191.017V187.795H145.454V186.968H146.732V185.3H147.71V186.968H149.44V187.795ZM155.753 191.443C155.753 191.711 155.762 191.962 155.778 192.196C155.795 192.43 155.804 192.643 155.804 192.835H154.876C154.876 192.676 154.872 192.517 154.863 192.359C154.855 192.2 154.851 192.037 154.851 191.87H154.826C154.759 192.012 154.663 192.15 154.537 192.283C154.42 192.417 154.278 192.538 154.111 192.647C153.944 192.747 153.756 192.827 153.547 192.885C153.338 192.952 153.112 192.985 152.87 192.985C152.485 192.985 152.151 192.927 151.867 192.81C151.591 192.693 151.361 192.53 151.177 192.321C150.994 192.112 150.856 191.861 150.764 191.569C150.68 191.268 150.638 190.942 150.638 190.591V186.968H151.616V190.491C151.616 190.984 151.725 191.372 151.942 191.656C152.159 191.941 152.498 192.083 152.958 192.083C153.275 192.083 153.547 192.028 153.773 191.92C154.007 191.811 154.195 191.656 154.337 191.456C154.487 191.255 154.596 191.017 154.663 190.741C154.738 190.465 154.775 190.16 154.775 189.826V186.968H155.753V191.443ZM157.605 188.359C157.605 188.092 157.596 187.841 157.58 187.607C157.563 187.373 157.554 187.16 157.554 186.968H158.482C158.482 187.126 158.486 187.285 158.495 187.444C158.503 187.603 158.507 187.766 158.507 187.933H158.532C158.599 187.791 158.691 187.653 158.808 187.519C158.934 187.386 159.08 187.269 159.247 187.168C159.414 187.06 159.602 186.976 159.811 186.918C160.02 186.851 160.246 186.817 160.488 186.817C160.555 186.817 160.622 186.821 160.689 186.83C160.756 186.838 160.822 186.855 160.889 186.88L160.827 187.87C160.659 187.82 160.484 187.795 160.3 187.795C159.698 187.795 159.259 187.992 158.984 188.384C158.716 188.769 158.582 189.3 158.582 189.977V192.835H157.605V188.359ZM167.032 191.769C166.681 192.221 166.297 192.538 165.879 192.722C165.461 192.898 164.976 192.985 164.424 192.985C163.965 192.985 163.551 192.906 163.183 192.747C162.816 192.58 162.502 192.359 162.243 192.083C161.992 191.807 161.796 191.481 161.654 191.105C161.52 190.729 161.453 190.328 161.453 189.901C161.453 189.45 161.528 189.036 161.679 188.66C161.829 188.276 162.038 187.95 162.306 187.682C162.573 187.406 162.891 187.193 163.259 187.043C163.626 186.892 164.027 186.817 164.462 186.817C164.872 186.817 165.248 186.888 165.59 187.03C165.933 187.164 166.226 187.365 166.468 187.632C166.719 187.891 166.911 188.213 167.045 188.597C167.178 188.974 167.245 189.404 167.245 189.889V190.202H162.506C162.523 190.453 162.582 190.695 162.682 190.929C162.791 191.155 162.928 191.356 163.096 191.531C163.263 191.698 163.459 191.832 163.685 191.932C163.91 192.033 164.157 192.083 164.424 192.083C164.851 192.083 165.21 192.008 165.503 191.857C165.795 191.707 166.058 191.485 166.292 191.193L167.032 191.769ZM166.192 189.375C166.175 188.873 166.013 188.472 165.703 188.171C165.394 187.87 164.968 187.72 164.424 187.72C163.881 187.72 163.442 187.87 163.108 188.171C162.774 188.472 162.573 188.873 162.506 189.375H166.192ZM168.883 191.293C169.076 191.535 169.285 191.728 169.51 191.87C169.744 192.012 170.037 192.083 170.388 192.083C170.538 192.083 170.689 192.066 170.839 192.033C170.998 191.999 171.14 191.945 171.265 191.87C171.391 191.794 171.491 191.702 171.566 191.594C171.642 191.477 171.679 191.339 171.679 191.18C171.679 191.021 171.642 190.892 171.566 190.791C171.499 190.691 171.408 190.608 171.291 190.541C171.173 190.465 171.04 190.407 170.889 190.365C170.739 190.323 170.584 190.286 170.425 190.252C170.15 190.194 169.886 190.127 169.636 190.052C169.385 189.977 169.163 189.88 168.971 189.763C168.787 189.638 168.637 189.479 168.52 189.287C168.411 189.095 168.357 188.848 168.357 188.547C168.357 188.263 168.42 188.012 168.545 187.795C168.67 187.578 168.837 187.398 169.046 187.256C169.255 187.114 169.489 187.005 169.748 186.93C170.008 186.855 170.275 186.817 170.551 186.817C170.969 186.817 171.353 186.901 171.704 187.068C172.064 187.235 172.344 187.507 172.544 187.883L171.729 188.422C171.604 188.213 171.437 188.046 171.228 187.92C171.027 187.787 170.781 187.72 170.488 187.72C170.354 187.72 170.217 187.737 170.074 187.77C169.941 187.803 169.82 187.854 169.711 187.92C169.602 187.987 169.51 188.075 169.435 188.184C169.368 188.284 169.335 188.401 169.335 188.535C169.335 188.66 169.372 188.769 169.448 188.861C169.531 188.944 169.64 189.02 169.774 189.086C169.916 189.153 170.074 189.212 170.25 189.262C170.434 189.312 170.622 189.354 170.814 189.387C171.073 189.437 171.32 189.504 171.554 189.588C171.788 189.663 171.993 189.768 172.168 189.901C172.344 190.035 172.482 190.202 172.582 190.403C172.682 190.603 172.732 190.85 172.732 191.142C172.732 191.477 172.665 191.761 172.532 191.995C172.398 192.229 172.218 192.421 171.993 192.572C171.775 192.714 171.525 192.818 171.24 192.885C170.965 192.952 170.68 192.985 170.388 192.985C169.886 192.985 169.452 192.91 169.084 192.76C168.725 192.601 168.399 192.313 168.106 191.895L168.883 191.293ZM174.911 191.406C175.12 191.406 175.295 191.481 175.437 191.631C175.588 191.774 175.663 191.949 175.663 192.158C175.663 192.367 175.584 192.547 175.425 192.697C175.275 192.839 175.103 192.91 174.911 192.91C174.719 192.91 174.543 192.839 174.384 192.697C174.234 192.547 174.159 192.367 174.159 192.158C174.159 191.949 174.23 191.774 174.372 191.631C174.522 191.481 174.702 191.406 174.911 191.406Z" fill="black"/>
<path d="M134.126 19.8175V11.7598C134.122 8.59152 131.554 6.02385 128.386 6.02017H126.875V5.11395C126.862 2.5426 124.774 0.465881 122.203 0.465881C119.632 0.465881 117.544 2.5426 117.53 5.11395V6.02017H100.649V5.11395C100.636 2.5426 98.5482 0.465881 95.9773 0.465881C93.4063 0.465881 91.3185 2.5426 91.3046 5.11395V6.02017H89.7929C86.6251 6.02385 84.0574 8.59152 84.0537 11.7598V46.9634C84.0574 50.1316 86.6251 52.6993 89.7929 52.703H128.386C131.554 52.6993 134.122 50.1316 134.126 46.9634V20.646C134.217 20.3772 134.217 20.0863 134.126 19.8175V19.8175ZM122.203 3.05442C123.339 3.05605 124.26 3.97659 124.261 5.11395V7.86573C124.253 8.99614 123.333 9.90808 122.202 9.90808C121.071 9.90808 120.152 8.99614 120.143 7.86573V5.11395C120.144 3.97659 121.065 3.05564 122.203 3.05442ZM93.9173 5.11395C93.9263 3.98272 94.8456 3.07078 95.9764 3.07078C97.1077 3.07078 98.0266 3.98272 98.036 5.11395V7.86573C98.0266 8.99614 97.1077 9.90808 95.9764 9.90808C94.8456 9.90808 93.9263 8.99614 93.9173 7.86573V5.11395ZM89.7929 8.63325H91.3685C91.744 10.8859 93.6927 12.5371 95.9764 12.5371C98.2606 12.5371 100.209 10.8859 100.585 8.63325H117.594C117.97 10.8859 119.919 12.5371 122.203 12.5371C124.486 12.5371 126.435 10.8859 126.811 8.63325H128.386C130.112 8.63529 131.511 10.0337 131.513 11.7598V18.9248H86.6668V11.7602C86.6684 10.0341 88.0676 8.63529 89.7929 8.63325V8.63325ZM128.386 50.0899H89.7929C88.0676 50.0879 86.6688 48.6895 86.6668 46.9634V21.5379H131.513V46.9634C131.511 48.6895 130.112 50.0879 128.386 50.0899V50.0899Z" fill="#FD5B2F"/>
<path d="M117.048 33.1877L112.351 32.5183L110.255 28.3555C110.033 27.9144 109.582 27.6362 109.088 27.6362C108.594 27.6362 108.143 27.9144 107.921 28.3555L105.825 32.5183L101.128 33.1877C100.633 33.258 100.221 33.6054 100.068 34.0816C99.9157 34.5578 100.048 35.0799 100.41 35.4256L103.793 38.6589L102.996 43.2169C102.91 43.7059 103.109 44.2009 103.509 44.4946C103.909 44.7888 104.441 44.8305 104.882 44.6035L109.089 42.4355L113.296 44.6035C113.736 44.8305 114.268 44.7884 114.668 44.4942C115.067 44.2009 115.266 43.7059 115.181 43.2174L114.384 38.6593L117.767 35.426C118.129 35.0807 118.261 34.5582 118.108 34.0824C117.955 33.6062 117.544 33.2584 117.048 33.1881V33.1877ZM112.073 37.2511C111.758 37.5522 111.614 37.9912 111.689 38.4208L112.153 41.0748L109.687 39.8036C109.312 39.6101 108.866 39.6101 108.49 39.8036L106.023 41.0748L106.487 38.4208C106.563 37.9912 106.418 37.5522 106.103 37.2511L104.16 35.3953L106.87 35.0095C107.293 34.9493 107.66 34.6855 107.852 34.3037L109.088 31.849L110.324 34.3037C110.517 34.6855 110.884 34.9493 111.307 35.0095L114.016 35.3953L112.073 37.2511Z" fill="#FD5B2F"/>
</svg>
